<svg width="39" height="36" viewBox="0 0 39 36" fill="none" xmlns="http://www.w3.org/2000/svg">
<path d="M16.6564 21.5699C16.6564 22.6299 16.5364 23.5499 16.3164 24.3299C16.0964 25.1299 15.6964 25.7699 15.1364 26.2899C14.5764 26.8099 13.7964 27.2099 12.8164 27.4699C11.8164 27.7299 10.5564 27.8499 9.03641 27.8499C7.51641 27.8499 6.25641 27.7299 5.27641 27.4699C4.29641 27.2099 3.51641 26.8099 2.95641 26.2899C2.39641 25.7699 1.99641 25.1299 1.77641 24.3299C1.55641 23.5499 1.45641 22.6299 1.45641 21.5699C1.45641 20.5299 1.57641 19.6099 1.83641 18.8099C2.07641 18.0299 2.51641 17.3699 3.11641 16.8499C3.71641 16.3299 4.49641 15.9299 5.49641 15.6699C6.47641 15.4099 7.69641 15.2699 9.17641 15.2699C10.5564 15.2699 11.7164 15.4099 12.6764 15.6699C13.6364 15.9299 14.3964 16.3299 14.9964 16.8499C15.5764 17.3699 15.9964 18.0299 16.2564 18.8099C16.5164 19.6099 16.6564 20.5299 16.6564 21.5699ZM12.9364 31.7899V34.7099C12.9364 35.1899 12.7364 35.4299 12.3364 35.4299H10.4164C10.0364 35.4299 9.85641 35.1899 9.85641 34.7099V31.7899H8.21641V34.7099C8.21641 35.1899 8.01641 35.4299 7.61641 35.4299H5.69641C5.33641 35.4299 5.15641 35.1899 5.15641 34.7099V31.7899H2.35641C1.73641 31.7899 1.43641 31.5099 1.43641 30.9499V29.5499C1.43641 28.9899 1.73641 28.7099 2.33641 28.7099H15.7764C16.3764 28.7099 16.6764 29.0099 16.6764 29.6099V30.8699C16.6764 31.4899 16.3564 31.7899 15.7564 31.7899H12.9364ZM9.01641 24.9899C9.81641 24.9899 10.5164 24.9299 11.0764 24.7899C11.6364 24.6699 12.0764 24.4699 12.4364 24.1899C12.7764 23.9299 13.0164 23.5899 13.1764 23.1899C13.3364 22.7899 13.4164 22.3099 13.4164 21.7499C13.4164 21.1499 13.3364 20.6299 13.1964 20.1899C13.0564 19.7499 12.8164 19.3899 12.4964 19.0899C12.1764 18.7899 11.7364 18.5699 11.1964 18.4099C10.6364 18.2699 9.97641 18.1899 9.17641 18.1899C8.33641 18.1899 7.61641 18.2699 7.05641 18.4099C6.47641 18.5699 6.01641 18.7899 5.65641 19.0899C5.29641 19.3899 5.05641 19.7499 4.91641 20.1899C4.75641 20.6299 4.69641 21.1499 4.69641 21.7499C4.69641 22.3099 4.75641 22.7899 4.89641 23.1899C5.03641 23.5899 5.27641 23.9299 5.61641 24.1899C5.93641 24.4699 6.37641 24.6699 6.93641 24.7899C7.49641 24.9299 8.17641 24.9899 9.01641 24.9899ZM35.8955 34.5099C35.8955 35.1099 35.5555 35.4099 34.9155 35.4099H20.1755C19.6155 35.4099 19.3555 35.2099 19.3555 34.7699V28.2099C19.3555 27.7299 19.6555 27.4899 20.2555 27.4899H21.6155C22.1755 27.4899 22.4755 27.7299 22.4755 28.2099V29.2499H32.7755V28.2099C32.7755 27.7299 33.0355 27.4899 33.5955 27.4899H35.0755C35.6155 27.4899 35.8955 27.7299 35.8955 28.1899V34.5099ZM32.7755 31.6499H22.4755V32.8899H32.7755V31.6499ZM28.1355 24.8499C28.1355 25.1699 27.9555 25.3899 27.5955 25.5299C25.1755 26.2099 22.6555 26.5699 20.0355 26.6099C19.4755 26.6099 19.1955 26.4099 19.1955 25.9899V16.6299C19.1955 16.1299 19.4955 15.8699 20.0955 15.8699H27.1555C27.7955 15.8699 28.1355 16.1099 28.1355 16.5899V24.8499ZM35.8955 25.9099C35.8955 26.4299 35.6155 26.6699 35.0955 26.6699H33.7355C33.1755 26.6699 32.9155 26.4299 32.9155 25.9499V22.4299H31.9755V25.9099C31.9755 26.4299 31.6955 26.6699 31.1755 26.6699H29.7955C29.2755 26.6699 29.0155 26.4299 29.0155 25.9499V16.1499C29.0155 15.7099 29.2555 15.4699 29.7755 15.4699H31.1955C31.7155 15.4699 31.9755 15.7099 31.9755 16.1499V19.3099H32.9155V16.1499C32.9155 15.7099 33.1755 15.4699 33.7155 15.4699H35.1355C35.6355 15.4699 35.8955 15.7099 35.8955 16.1499V25.9099ZM22.2355 23.9699C23.1155 23.9699 24.0355 23.8099 24.9955 23.4899V18.6499H22.2355V23.9699Z" fill="#4B628A"/>
<path d="M34.5389 1.38838C34.5911 1.23032 34.8146 1.23032 34.8668 1.38838L35.6203 3.67078C35.6675 3.8138 35.7746 3.92918 35.9137 3.98689L38.0549 4.87505C38.1969 4.93395 38.1969 5.13513 38.0549 5.19403L35.9137 6.08219C35.7746 6.13989 35.6675 6.25528 35.6203 6.3983L34.8668 8.6807C34.8146 8.83876 34.5911 8.83876 34.5389 8.6807L33.7855 6.3983C33.7382 6.25528 33.6311 6.13989 33.492 6.08219L31.3508 5.19403C31.2088 5.13513 31.2088 4.93395 31.3508 4.87505L33.492 3.98689C33.6311 3.92918 33.7382 3.8138 33.7855 3.67078L34.5389 1.38838Z" fill="#FFC84D" stroke="#FFC84D" stroke-width="0.345341" stroke-linejoin="round"/>
<path d="M1.49805 12.1098C2.89721 10.5223 7.41271 7.34717 14.2813 7.34717C21.15 7.34717 25.1569 10.5223 26.3018 12.1098L31.644 7.34717" stroke="#B9E6E9" stroke-width="0.345341" stroke-linejoin="round" stroke-dasharray="0.69 0.69"/>
</svg>
