<svg width="25" height="25" viewBox="0 0 25 25" fill="none" xmlns="http://www.w3.org/2000/svg">
<g clip-path="url(#clip0_700_1509)">
<path d="M17.7578 9.89423H22.2873V5.36475" stroke="white" stroke-width="1.13237" stroke-linecap="round" stroke-linejoin="round"/>
<path d="M18.1731 18.1987C16.986 19.3188 15.4951 20.0643 13.8868 20.342C12.2785 20.6197 10.624 20.4173 9.13004 19.76C7.6361 19.1028 6.36895 18.0199 5.48693 16.6466C4.60491 15.2734 4.14714 13.6706 4.17079 12.0387C4.19445 10.4067 4.6985 8.8179 5.61996 7.47078C6.54141 6.12365 7.83942 5.07793 9.35179 4.46428C10.8642 3.85063 12.5238 3.69626 14.1234 4.02045C15.723 4.34465 17.1916 5.13304 18.3457 6.28711L22.2873 9.89465" stroke="white" stroke-width="1.13237" stroke-linecap="round" stroke-linejoin="round"/>
</g>
<defs>
<clipPath id="clip0_700_1509">
<rect width="24.1572" height="24.1572" fill="white" transform="translate(0.394531 0.0805664)"/>
</clipPath>
</defs>
</svg>
