<svg width="30" height="30" viewBox="0 0 30 30" fill="none" xmlns="http://www.w3.org/2000/svg">
<path d="M7.63477 13.1476C7.63477 12.3492 10.8722 11.7017 14.8645 11.7017C18.8567 11.7017 22.0942 12.3492 22.0942 13.1476V23.2062C22.0942 24.0047 18.8567 24.6522 14.8645 24.6522C10.8722 24.6522 7.63477 24.0047 7.63477 23.2062" fill="#997642"/>
<path d="M13.418 13.1476C13.418 12.3492 14.0655 11.7017 14.8639 11.7017C15.6624 11.7017 16.3099 12.3492 16.3099 13.1476V23.2062C16.3099 24.0047 15.6624 24.6522 14.8639 24.6522C14.0655 24.6522 13.418 24.0047 13.418 23.2062" fill="#D7BF95"/>
<path d="M22.0944 24.6517C21.2959 24.6517 20.6484 24.0042 20.6484 23.2057V13.1471C20.6484 12.3487 21.2959 11.7012 22.0944 11.7012C22.8928 11.7012 23.5403 12.3487 23.5403 13.1471V23.2057C23.5403 24.0042 22.8928 24.6517 22.0944 24.6517Z" fill="#D7BF95"/>
<path d="M7.63344 24.6517C6.83499 24.6517 6.1875 24.0042 6.1875 23.2057V13.1471C6.1875 12.3487 6.83499 11.7012 7.63344 11.7012C8.43189 11.7012 9.07938 12.3487 9.07938 13.1471V23.2057C9.07938 24.0042 8.43189 24.6517 7.63344 24.6517Z" fill="#D7BF95"/>
<path d="M16.3106 10.8032H13.418V15.0674H16.3106V10.8032Z" fill="#C1966B"/>
<path d="M23.541 10.8032H20.6484V15.0674H23.541V10.8032Z" fill="#C1966B"/>
<path d="M9.0801 10.8032H6.1875V15.0674H9.0801V10.8032Z" fill="#C1966B"/>
<path fill-rule="evenodd" clip-rule="evenodd" d="M24.7477 10.0718L15.7415 3.09532C15.2256 2.69609 14.5045 2.69609 13.9886 3.09532L4.98242 10.0718V11.4419H24.7477V10.0718Z" fill="#D7BF95"/>
<path d="M25.5873 23.041H4.13934C3.73986 23.041 3.41602 23.3649 3.41602 23.7643V25.9329C3.41602 26.3324 3.73986 26.6562 4.13934 26.6562H25.5873C25.9868 26.6562 26.3107 26.3324 26.3107 25.9329V23.7643C26.3107 23.3649 25.9868 23.041 25.5873 23.041Z" fill="#E3D6C3"/>
<path fill-rule="evenodd" clip-rule="evenodd" d="M14.8636 9.00451C13.9156 9.00451 13.1465 8.23539 13.1465 7.28741C13.1465 6.33943 13.9156 5.57031 14.8636 5.57031C15.8116 5.57031 16.5807 6.33943 16.5807 7.28741C16.5807 8.23539 15.8116 9.00451 14.8636 9.00451Z" fill="#E3D6C3"/>
<path d="M25.5873 10.1421H4.13934C3.73986 10.1421 3.41602 10.4659 3.41602 10.8654V13.034C3.41602 13.4335 3.73986 13.7573 4.13934 13.7573H25.5873C25.9868 13.7573 26.3107 13.4335 26.3107 13.034V10.8654C26.3107 10.4659 25.9868 10.1421 25.5873 10.1421Z" fill="#E3D6C3"/>
</svg>
