<svg width="279" height="8" viewBox="0 0 279 8" fill="none" xmlns="http://www.w3.org/2000/svg">
<circle cx="3.74512" cy="3.74512" r="3.74512" fill="#B9E6E9"/>
<circle cx="139.366" cy="3.74512" r="3.74512" fill="#B9E6E9"/>
<circle cx="274.722" cy="3.74512" r="3.74512" fill="#B9E6E9"/>
<path d="M1.07943 3.74512C1.07943 5.21788 2.27333 6.41178 3.74609 6.41178C5.21885 6.41178 6.41276 5.21788 6.41276 3.74512C6.41276 2.27236 5.21885 1.07845 3.74609 1.07845C2.27333 1.07845 1.07943 2.27236 1.07943 3.74512ZM136.701 3.74513C136.701 5.21789 137.894 6.4118 139.367 6.4118C140.84 6.4118 142.034 5.21789 142.034 3.74513C142.034 2.27237 140.84 1.07846 139.367 1.07846C137.894 1.07846 136.701 2.27237 136.701 3.74513ZM3.74609 4.24512L139.367 4.24513L139.367 3.24513L3.74609 3.24512L3.74609 4.24512Z" fill="#4B628A"/>
<path d="M1.07943 3.74512C1.07943 5.21788 2.27333 6.41178 3.74609 6.41178C5.21885 6.41178 6.41276 5.21788 6.41276 3.74512C6.41276 2.27236 5.21885 1.07845 3.74609 1.07845C2.27333 1.07845 1.07943 2.27236 1.07943 3.74512ZM136.701 3.74513C136.701 5.21789 137.894 6.4118 139.367 6.4118C140.84 6.4118 142.034 5.21789 142.034 3.74513C142.034 2.27237 140.84 1.07846 139.367 1.07846C137.894 1.07846 136.701 2.27237 136.701 3.74513ZM3.74609 4.24512L139.367 4.24513L139.367 3.24513L3.74609 3.24512L3.74609 4.24512Z" fill="#4B628A"/>
<path d="M136.435 3.74512C136.435 5.21788 137.629 6.41178 139.102 6.41178C140.574 6.41178 141.768 5.21788 141.768 3.74512C141.768 2.27236 140.574 1.07845 139.102 1.07845C137.629 1.07845 136.435 2.27236 136.435 3.74512ZM272.056 3.74513C272.056 5.21789 273.25 6.4118 274.723 6.4118C276.195 6.4118 277.389 5.21789 277.389 3.74513C277.389 2.27237 276.195 1.07846 274.723 1.07846C273.25 1.07846 272.056 2.27237 272.056 3.74513ZM139.102 4.24512L274.723 4.24513L274.723 3.24513L139.102 3.24512L139.102 4.24512Z" fill="#4B628A"/>
<path d="M136.435 3.74512C136.435 5.21788 137.629 6.41178 139.102 6.41178C140.574 6.41178 141.768 5.21788 141.768 3.74512C141.768 2.27236 140.574 1.07845 139.102 1.07845C137.629 1.07845 136.435 2.27236 136.435 3.74512ZM272.056 3.74513C272.056 5.21789 273.25 6.4118 274.723 6.4118C276.195 6.4118 277.389 5.21789 277.389 3.74513C277.389 2.27237 276.195 1.07846 274.723 1.07846C273.25 1.07846 272.056 2.27237 272.056 3.74513ZM139.102 4.24512L274.723 4.24513L274.723 3.24513L139.102 3.24512L139.102 4.24512Z" fill="#4B628A"/>
</svg>
