<svg width="20" height="26" viewBox="0 0 20 26" fill="none" xmlns="http://www.w3.org/2000/svg">
<path d="M17.1238 0.116821H2.87875C2.33904 0.116821 1.82142 0.331223 1.43979 0.712859C1.05815 1.0945 0.84375 1.61211 0.84375 2.15182V24.5368C0.84384 24.7184 0.892523 24.8967 0.984747 25.0531C1.07697 25.2095 1.20938 25.3384 1.36822 25.4264C1.52707 25.5144 1.70656 25.5583 1.88809 25.5535C2.06961 25.5487 2.24654 25.4954 2.40053 25.3992L10.0013 20.6487L17.6033 25.3992C17.7572 25.4951 17.934 25.5481 18.1154 25.5527C18.2967 25.5573 18.476 25.5134 18.6346 25.4254C18.7932 25.3375 18.9255 25.2087 19.0177 25.0525C19.1098 24.8963 19.1585 24.7182 19.1588 24.5368V2.15182C19.1588 1.61211 18.9444 1.0945 18.5627 0.712859C18.1811 0.331223 17.6635 0.116821 17.1238 0.116821Z" fill="#4B628A"/>
</svg>
