<svg width="12" height="17" viewBox="0 0 12 17" fill="none" xmlns="http://www.w3.org/2000/svg">
<path d="M6.60594 12.7308L6.34095 12.5652L6.07597 12.7308L1.4614 15.6149C1.44358 15.6261 1.42311 15.6322 1.40211 15.6328C1.3811 15.6333 1.36032 15.6282 1.34194 15.6181C1.32356 15.6079 1.30824 15.593 1.29757 15.5749C1.28689 15.5568 1.28126 15.5361 1.28125 15.5151L1.28125 1.92495C1.28125 1.72988 1.35874 1.54281 1.49667 1.40487C1.6346 1.26694 1.82168 1.18945 2.01674 1.18945H10.6652C10.8603 1.18945 11.0473 1.26694 11.1853 1.40487C11.3232 1.54281 11.4007 1.72988 11.4007 1.92495V15.5147C11.4007 15.5357 11.395 15.5563 11.3844 15.5744C11.3737 15.5925 11.3584 15.6074 11.34 15.6176C11.3217 15.6277 11.3009 15.6328 11.2799 15.6323C11.2591 15.6318 11.2387 15.6257 11.221 15.6147C11.2209 15.6146 11.2208 15.6146 11.2207 15.6145L6.60594 12.7308Z" stroke="#D9D9D9"/>
</svg>
