<svg width="12" height="16" viewBox="0 0 12 16" fill="none" xmlns="http://www.w3.org/2000/svg">
<path d="M10.6652 0.508789H2.01674C1.68907 0.508789 1.37482 0.638957 1.14312 0.870657C0.911418 1.10236 0.78125 1.41661 0.78125 1.74428V15.3347C0.781305 15.445 0.810861 15.5532 0.866853 15.6481C0.922844 15.7431 1.00323 15.8214 1.09967 15.8748C1.19611 15.9282 1.30508 15.9548 1.41529 15.9519C1.52549 15.949 1.63291 15.9167 1.7264 15.8582L6.34097 12.9741L10.9563 15.8582C11.0498 15.9165 11.1571 15.9487 11.2672 15.9515C11.3773 15.9543 11.4861 15.9276 11.5825 15.8742C11.6788 15.8208 11.7591 15.7426 11.815 15.6478C11.871 15.5529 11.9005 15.4448 11.9007 15.3347V1.74428C11.9007 1.41661 11.7705 1.10236 11.5388 0.870657C11.3071 0.638957 10.9929 0.508789 10.6652 0.508789Z" fill="#B9E6E9"/>
</svg>
