<svg width="28" height="29" viewBox="0 0 28 29" fill="none" xmlns="http://www.w3.org/2000/svg">
<path d="M24.8009 2.95947H3.20071C1.87526 2.95947 0.800781 4.03396 0.800781 5.3594V26.1593C0.800781 27.4847 1.87526 28.5592 3.20071 28.5592H24.8009C26.1263 28.5592 27.2008 27.4847 27.2008 26.1593V5.3594C27.2008 4.03396 26.1263 2.95947 24.8009 2.95947Z" fill="#E5E9EE"/>
<path d="M3.20071 2.95947H24.8009C26.1258 2.95947 27.2008 4.03527 27.2008 5.3594V9.22535H0.800781V5.3594C0.800781 4.03445 1.87658 2.95947 3.20071 2.95947Z" fill="#4B628A"/>
<path d="M5.9999 4.95907C5.44798 4.95907 5 4.51192 5 3.95917V1.95937C5 1.40662 5.44715 0.959473 5.9999 0.959473C6.55265 0.959473 6.9998 1.40662 6.9998 1.95937V3.95917C6.9998 4.51192 6.55265 4.95907 5.9999 4.95907Z" fill="#4B596A"/>
<path d="M21.9999 4.95907C21.448 4.95907 21 4.51192 21 3.95917V1.95937C21 1.40662 21.4471 0.959473 21.9999 0.959473C22.5526 0.959473 22.9998 1.40662 22.9998 1.95937V3.95917C22.9998 4.51192 22.5526 4.95907 21.9999 4.95907Z" fill="#4B596A"/>
</svg>
