<svg width="27" height="28" viewBox="0 0 27 28" fill="none" xmlns="http://www.w3.org/2000/svg">
<path d="M24.0001 2H2.39992C1.07448 2 0 3.07448 0 4.39993V25.1998C0 26.5253 1.07448 27.5997 2.39992 27.5997H24.0001C25.3255 27.5997 26.4 26.5253 26.4 25.1998V4.39993C26.4 3.07448 25.3255 2 24.0001 2Z" fill="#E5E9EE"/>
<path d="M2.39992 2H24.0001C25.325 2 26.4 3.0758 26.4 4.39993V8.26588H0V4.39993C0 3.07498 1.0758 2 2.39992 2Z" fill="#4B628A"/>
<path d="M5.19912 3.9996C4.64719 3.9996 4.19922 3.55245 4.19922 2.9997V0.9999C4.19922 0.44715 4.64637 0 5.19912 0C5.75187 0 6.19902 0.44715 6.19902 0.9999V2.9997C6.19902 3.55245 5.75187 3.9996 5.19912 3.9996Z" fill="#4B596A"/>
<path d="M21.1991 3.9996C20.6472 3.9996 20.1992 3.55245 20.1992 2.9997V0.9999C20.1992 0.44715 20.6464 0 21.1991 0C21.7519 0 22.199 0.44715 22.199 0.9999V2.9997C22.199 3.55245 21.7519 3.9996 21.1991 3.9996Z" fill="#4B596A"/>
</svg>
