<svg width="17" height="17" viewBox="0 0 17 17" fill="none" xmlns="http://www.w3.org/2000/svg">
<path d="M16.6739 12.4085C16.5311 13.4937 15.9981 14.4899 15.1746 15.2108C14.351 15.9318 13.2932 16.3284 12.1986 16.3264C5.83967 16.3264 0.666023 11.1528 0.666023 4.79382C0.664061 3.69925 1.0606 2.6414 1.78159 1.81784C2.50257 0.994283 3.49869 0.461332 4.5839 0.31853C4.85832 0.285023 5.13622 0.341165 5.37612 0.478576C5.61601 0.615987 5.80503 0.827298 5.91495 1.08096L7.6064 4.85709V4.8667C7.69056 5.06087 7.72532 5.27287 7.70757 5.48375C7.68983 5.69464 7.62012 5.89784 7.50469 6.07522C7.49027 6.09684 7.47506 6.11686 7.45904 6.13688L5.79162 8.11344C6.39148 9.33237 7.66647 10.5962 8.90142 11.1976L10.8507 9.539C10.8699 9.52291 10.8899 9.50793 10.9108 9.49415C11.088 9.37594 11.2919 9.30379 11.5041 9.28421C11.7162 9.26463 11.9299 9.29825 12.1257 9.38203L12.1361 9.38683L15.9091 11.0775C16.1632 11.187 16.375 11.3759 16.5129 11.6158C16.6507 11.8557 16.7072 12.1338 16.6739 12.4085Z" fill="#4B628A"/>
</svg>
