<svg width="34" height="34" viewBox="0 0 34 34" fill="none" xmlns="http://www.w3.org/2000/svg">
<path d="M25.3535 0.723633H8.35352C3.93552 0.723633 0.353516 4.30563 0.353516 8.72363V14.0106H9.68652V10.0006C9.68652 9.43463 10.1245 8.97563 10.6645 8.97563H15.8365C16.3765 8.97563 16.8145 9.43463 16.8145 10.0006V20.3016H19.7775V17.9436C19.7775 17.1866 20.3635 16.5726 21.0855 16.5726H28.0045C28.7265 16.5726 29.3125 17.1866 29.3125 17.9436V24.2156H33.3545V8.72363C33.3545 4.30563 29.7715 0.723633 25.3535 0.723633Z" fill="#90C6FD"/>
<path d="M11.9465 15.2286V21.2556C11.9465 20.7286 12.2595 20.3016 12.6465 20.3016H16.8135V10.0006C16.8135 9.43459 16.3755 8.97559 15.8355 8.97559H10.6635C10.1235 8.97559 9.68555 9.43459 9.68555 10.0006V14.0106H11.0535C11.5465 14.0106 11.9465 14.5556 11.9465 15.2286Z" fill="#64A7FF"/>
<path d="M4.50364 17.7056H2.68164V19.5316H4.50364V17.7056Z" fill="#FFFD67"/>
<path d="M4.50364 21.5117H2.68164V23.3387H4.50364V21.5117Z" fill="#FFFD67"/>
<path d="M8.55442 17.7056H6.73242V19.5316H8.55442V17.7056Z" fill="#FFFD67"/>
<path d="M8.55442 21.5117H6.73242V23.3387H8.55442V21.5117Z" fill="#FFFD67"/>
<path d="M8.55442 25.3174H6.73242V27.1434H8.55442V25.3174Z" fill="#FFFD67"/>
<path d="M27.4333 33.4408V25.1628C27.4333 24.6398 27.7443 24.2158 28.1273 24.2158H29.3123V17.9438C29.3123 17.1868 28.7263 16.5728 28.0043 16.5728H21.0853C20.3633 16.5728 19.7773 17.1868 19.7773 17.9438V20.3018H21.1643C21.5503 20.3018 21.8643 20.7288 21.8643 21.2558V33.7248H25.3533C25.6833 33.7248 26.0063 33.6988 26.3243 33.6598C26.4083 33.6498 26.4903 33.6348 26.5733 33.6218C26.8243 33.5828 27.0723 33.5338 27.3153 33.4718C27.3813 33.4548 27.4473 33.4398 27.5123 33.4208C27.5673 33.4048 27.6203 33.3818 27.6753 33.3648C27.5943 33.3898 27.5143 33.4188 27.4323 33.4408H27.4333Z" fill="#4592FB"/>
<path d="M11.9475 21.2548V15.2278C11.9475 14.5558 11.5475 14.0098 11.0545 14.0098H0.353516V25.7228C0.353516 25.9988 0.367516 26.2718 0.394516 26.5408C0.476516 27.3478 0.678515 28.1188 0.981515 28.8368C1.28552 29.5548 1.69052 30.2188 2.17952 30.8118C2.66852 31.4048 3.24152 31.9258 3.87952 32.3568C5.15652 33.2198 6.69552 33.7228 8.35252 33.7228H11.9465V21.2538L11.9475 21.2548ZM4.50252 23.3378H2.68052V21.5108H4.50252V23.3378ZM4.50252 19.5318H2.68052V17.7058H4.50252V19.5318ZM8.55352 27.1428H6.73152V25.3168H8.55352V27.1428ZM8.55352 23.3378H6.73152V21.5108H8.55352V23.3378ZM8.55352 19.5318H6.73152V17.7058H8.55352V19.5318Z" fill="#104BE0"/>
<path d="M28.1276 24.2158C27.7436 24.2158 27.4336 24.6398 27.4336 25.1628V33.4408C27.5156 33.4188 27.5956 33.3898 27.6766 33.3648C27.8046 33.3258 27.9336 33.2898 28.0586 33.2448C28.0606 33.2448 28.0636 33.2428 28.0656 33.2428C28.1206 33.2228 28.1736 33.1978 28.2286 33.1768C28.3326 33.1368 28.4366 33.0948 28.5386 33.0508C28.7876 32.9428 29.0306 32.8258 29.2656 32.6938C29.2816 32.6848 29.2966 32.6738 29.3126 32.6658C29.8266 32.3728 30.3056 32.0238 30.7396 31.6278C30.7726 31.5978 30.8056 31.5688 30.8376 31.5388C30.9596 31.4238 31.0776 31.3038 31.1926 31.1818C31.2396 31.1318 31.2846 31.0818 31.3296 31.0308C31.4336 30.9148 31.5346 30.7968 31.6316 30.6748C31.6826 30.6098 31.7306 30.5428 31.7806 30.4758C31.8676 30.3588 31.9556 30.2408 32.0366 30.1188C32.0966 30.0288 32.1496 29.9338 32.2046 29.8418C32.3106 29.6658 32.4106 29.4858 32.5026 29.3018C32.5666 29.1748 32.6306 29.0468 32.6886 28.9158C32.7296 28.8218 32.7646 28.7248 32.8026 28.6298C32.8546 28.4968 32.9046 28.3638 32.9496 28.2288C32.9816 28.1338 33.0096 28.0368 33.0376 27.9388C33.0786 27.7958 33.1156 27.6518 33.1496 27.5048C33.1706 27.4108 33.1926 27.3168 33.2106 27.2218C33.2416 27.0588 33.2656 26.8938 33.2856 26.7278C33.2956 26.6458 33.3086 26.5658 33.3166 26.4838C33.3406 26.2338 33.3546 25.9818 33.3546 25.7248V24.2168H28.1286L28.1276 24.2158Z" fill="#104BE0"/>
<path d="M21.1643 20.3018H12.6473C12.2613 20.3018 11.9473 20.7288 11.9473 21.2558V33.7248H21.8643V21.2558C21.8643 20.7288 21.5513 20.3018 21.1643 20.3018ZM16.0323 27.6078H14.6053V26.1768H16.0323V27.6078ZM16.0323 24.6268H14.6053V23.1968H16.0323V24.6268ZM19.2053 27.6078H17.7783V26.1768H19.2053V27.6078ZM19.2053 24.6268H17.7783V23.1968H19.2053V24.6268Z" fill="#1E6EF4"/>
<path d="M16.0344 23.1958H14.6074V24.6258H16.0344V23.1958Z" fill="#FFFD67"/>
<path d="M16.0344 26.1768H14.6074V27.6078H16.0344V26.1768Z" fill="#FFFD67"/>
<path d="M19.2083 23.1958H17.7812V24.6258H19.2083V23.1958Z" fill="#FFFD67"/>
<path d="M19.2083 26.1768H17.7812V27.6078H19.2083V26.1768Z" fill="#FFFD67"/>
</svg>
