<svg width="26" height="27" viewBox="0 0 26 27" fill="none" xmlns="http://www.w3.org/2000/svg">
<path d="M13 0.775879C10.4288 0.775879 7.91543 1.53832 5.77759 2.96677C3.63975 4.39523 1.97351 6.42555 0.989572 8.80099C0.0056327 11.1764 -0.251811 13.7903 0.249797 16.3121C0.751405 18.8338 1.98953 21.1502 3.80762 22.9683C5.6257 24.7864 7.94208 26.0245 10.4638 26.5261C12.9856 27.0277 15.5995 26.7703 17.9749 25.7863C20.3503 24.8024 22.3807 23.1361 23.8091 20.9983C25.2376 18.8605 26 16.347 26 13.7759C25.9964 10.3292 24.6256 7.02469 22.1884 4.58751C19.7512 2.15033 16.4467 0.779519 13 0.775879ZM17.7075 17.0684C17.8004 17.1613 17.8741 17.2716 17.9244 17.393C17.9747 17.5144 18.0006 17.6445 18.0006 17.7759C18.0006 17.9073 17.9747 18.0374 17.9244 18.1588C17.8741 18.2802 17.8004 18.3905 17.7075 18.4834C17.6146 18.5763 17.5043 18.65 17.3829 18.7003C17.2615 18.7506 17.1314 18.7764 17 18.7764C16.8686 18.7764 16.7385 18.7506 16.6171 18.7003C16.4957 18.65 16.3854 18.5763 16.2925 18.4834L13 15.1896L9.70751 18.4834C9.6146 18.5763 9.5043 18.65 9.3829 18.7003C9.26151 18.7506 9.1314 18.7764 9.00001 18.7764C8.86861 18.7764 8.7385 18.7506 8.61711 18.7003C8.49572 18.65 8.38542 18.5763 8.29251 18.4834C8.1996 18.3905 8.12589 18.2802 8.07561 18.1588C8.02533 18.0374 7.99945 17.9073 7.99945 17.7759C7.99945 17.6445 8.02533 17.5144 8.07561 17.393C8.12589 17.2716 8.1996 17.1613 8.29251 17.0684L11.5863 13.7759L8.29251 10.4834C8.10486 10.2957 7.99945 10.0412 7.99945 9.77588C7.99945 9.51052 8.10486 9.25602 8.29251 9.06838C8.48015 8.88074 8.73464 8.77532 9.00001 8.77532C9.26537 8.77532 9.51987 8.88074 9.70751 9.06838L13 12.3621L16.2925 9.06838C16.3854 8.97547 16.4957 8.90177 16.6171 8.85149C16.7385 8.8012 16.8686 8.77532 17 8.77532C17.1314 8.77532 17.2615 8.8012 17.3829 8.85149C17.5043 8.90177 17.6146 8.97547 17.7075 9.06838C17.8004 9.16129 17.8741 9.27159 17.9244 9.39298C17.9747 9.51438 18.0006 9.64448 18.0006 9.77588C18.0006 9.90727 17.9747 10.0374 17.9244 10.1588C17.8741 10.2802 17.8004 10.3905 17.7075 10.4834L14.4138 13.7759L17.7075 17.0684Z" fill="#4B628A" fill-opacity="0.52"/>
</svg>
