<svg width="36" height="37" viewBox="0 0 36 37" fill="none" xmlns="http://www.w3.org/2000/svg">
<path d="M3.49579 10.7727C1.41979 6.86473 0.877788 3.62673 2.38079 2.12273C5.14079 -0.637273 13.7498 3.49773 21.6098 11.3577C29.4698 19.2177 33.6038 27.8267 30.8448 30.5867C28.0848 33.3467 19.4758 29.2117 11.6168 21.3517C11.1868 20.9217 10.7688 20.4907 10.3618 20.0577L8.05379 23.7637C8.57779 24.3387 9.12279 24.9087 9.68679 25.4737C18.7148 34.5017 29.3538 38.5007 33.4498 34.4057C37.5458 30.3107 33.5458 19.6717 24.5178 10.6427C15.9598 2.08573 5.95679 -1.95327 1.44879 1.13373C0.894788 1.51373 0.490788 2.06873 0.292788 2.71073C-0.175212 4.22273 -0.339212 7.37773 3.69579 11.6977L3.49679 10.7717L3.49579 10.7727Z" fill="#FFE28F"/>
<path d="M14.26 35.4226L10.523 31.7616C10.259 31.5026 9.88498 31.3906 9.52198 31.4616L4.38698 32.4646C3.47398 32.6426 2.75298 31.6966 3.16698 30.8636L5.49398 26.1776C5.65798 25.8466 5.64898 25.4566 5.46998 25.1336L2.92898 20.5606C2.47698 19.7476 3.15398 18.7696 4.07398 18.9056L9.24998 19.6706C9.61498 19.7246 9.98398 19.5956 10.236 19.3246L13.801 15.4946C14.435 14.8136 15.574 15.1546 15.729 16.0726L16.6 21.2316C16.662 21.5956 16.898 21.9066 17.233 22.0626L21.977 24.2696C22.82 24.6616 22.848 25.8516 22.023 26.2816L17.386 28.7046C17.059 28.8756 16.836 29.1966 16.792 29.5636L16.159 34.7566C16.046 35.6796 14.924 36.0736 14.26 35.4226Z" fill="#FFC522"/>
</svg>
