<svg width="36" height="37" viewBox="0 0 36 37" fill="none" xmlns="http://www.w3.org/2000/svg">
<path fill-rule="evenodd" clip-rule="evenodd" d="M16.703 5.36035L16.5751 5.31235C12.6546 3.84112 8.28441 3.84111 4.36391 5.31235C2.99288 5.82685 2.03711 7.10097 2.03711 8.57774V28.8898C2.03711 31.1114 4.35759 32.4291 6.31689 31.6938C8.98154 30.6939 11.9574 30.6939 14.6221 31.6938L16.703 32.4747V5.36035ZM18.9027 32.4741L20.9819 31.6938C23.6466 30.6939 26.6225 30.6939 29.2871 31.6938C31.2464 32.4291 33.5669 31.1114 33.5669 28.8898V8.57774C33.5669 7.10097 32.6111 5.82685 31.2401 5.31235C27.3196 3.84111 22.9494 3.84112 19.0289 5.31235L18.9027 5.3597V32.4741Z" fill="#4B628A"/>
</svg>
