<svg width="36" height="36" viewBox="0 0 36 36" fill="none" xmlns="http://www.w3.org/2000/svg">
<path fill-rule="evenodd" clip-rule="evenodd" d="M16.703 5.10137L16.5751 5.05338C12.6546 3.58214 8.28441 3.58214 4.36391 5.05338C2.99288 5.56788 2.03711 6.842 2.03711 8.31877V28.6308C2.03711 30.8524 4.35759 32.1701 6.31689 31.4349C8.98154 30.4349 11.9574 30.4349 14.6221 31.4349L16.703 32.2158V5.10137ZM18.9027 32.2151L20.9819 31.4349C23.6466 30.4349 26.6225 30.4349 29.2871 31.4349C31.2464 32.1701 33.5669 30.8524 33.5669 28.6308V8.31877C33.5669 6.842 32.6111 5.56788 31.2401 5.05338C27.3196 3.58214 22.9494 3.58214 19.0289 5.05338L18.9027 5.10073V32.2151Z" fill="#D9D9D9"/>
</svg>
