<svg width="37" height="26" viewBox="0 0 37 26" fill="none" xmlns="http://www.w3.org/2000/svg">
<path d="M34.4703 4.35938H2.58434C1.44829 4.35938 0.527344 5.28032 0.527344 6.41637V23.5494C0.527344 24.6854 1.44829 25.6064 2.58434 25.6064H34.4703C35.6064 25.6064 36.5273 24.6854 36.5273 23.5494V6.41637C36.5273 5.28032 35.6064 4.35938 34.4703 4.35938Z" fill="#EFB100"/>
<path d="M34.4703 0.412598H2.58434C1.44829 0.412598 0.527344 1.33355 0.527344 2.4696V19.6026C0.527344 20.7386 1.44829 21.6596 2.58434 21.6596H34.4703C35.6064 21.6596 36.5273 20.7386 36.5273 19.6026V2.4696C36.5273 1.33355 35.6064 0.412598 34.4703 0.412598Z" fill="#FFC33A"/>
<path d="M22.1975 0.412598H14.8555V21.6596H22.1975V0.412598Z" fill="#FFDB87"/>
<path d="M22.1975 21.6597H14.8555V25.6067H22.1975V21.6597Z" fill="#FFC84D"/>
<path d="M18.6745 16.7626C16.4685 16.7626 14.7885 15.4566 14.0855 14.5596C13.6765 14.0376 13.7685 13.2826 14.2915 12.8736C14.8125 12.4666 15.5625 12.5566 15.9725 13.0716C16.1405 13.2796 17.6525 15.0336 20.0185 14.0876C20.5955 13.8586 20.8575 13.4406 20.8195 13.1466C20.7605 12.6966 20.0145 12.1606 18.4785 11.9756C14.6965 11.5216 14.1265 9.37762 14.0415 8.73262C13.8505 7.27162 14.7715 5.87162 16.3335 5.24862C19.4945 3.98662 21.8005 5.68162 22.6465 6.46662C23.1325 6.91862 23.1595 7.67862 22.7085 8.16362C22.2575 8.64962 21.4975 8.67762 21.0115 8.22562C20.2375 7.50462 18.9525 6.79362 17.2235 7.47862C16.6475 7.70862 16.3855 8.12662 16.4235 8.42062C16.4825 8.86962 17.2285 9.40562 18.7645 9.59062C22.5475 10.0456 23.1165 12.1896 23.2005 12.8356C23.3915 14.2966 22.4695 15.6956 20.9075 16.3176C20.1205 16.6316 19.3715 16.7626 18.6745 16.7626Z" fill="#CB8C00"/>
<path d="M18.6209 7.20052C17.9579 7.20052 17.4199 6.66252 17.4199 5.99952V4.28352C17.4199 3.62052 17.9579 3.08252 18.6209 3.08252C19.2839 3.08252 19.8219 3.62052 19.8219 4.28352V5.99952C19.8219 6.66252 19.2839 7.20052 18.6209 7.20052Z" fill="#CB8C00"/>
<path d="M18.6209 18.4857C17.9579 18.4857 17.4199 17.9477 17.4199 17.2847V15.5677C17.4199 14.9047 17.9579 14.3667 18.6209 14.3667C19.2839 14.3667 19.8219 14.9047 19.8219 15.5677V17.2847C19.8219 17.9477 19.2839 18.4857 18.6209 18.4857Z" fill="#CB8C00"/>
</svg>
