<svg width="25" height="25" viewBox="0 0 25 25" fill="none" xmlns="http://www.w3.org/2000/svg">
<rect x="0.554688" y="0.910156" width="24" height="24" rx="12" fill="#D9D9D9"/>
<mask id="mask0_176_2459" style="mask-type:alpha" maskUnits="userSpaceOnUse" x="8" y="8" width="9" height="10">
<path d="M10.9476 16.4971L15.1143 12.3304L13.1352 10.3512L8.96842 14.518C8.91106 14.5754 8.87031 14.6473 8.8505 14.726L8.38867 17.0769L10.7391 16.615C10.818 16.5953 10.8902 16.5545 10.9476 16.4971ZM16.4594 10.9852C16.6276 10.8171 16.722 10.589 16.722 10.3512C16.722 10.1134 16.6276 9.88538 16.4594 9.71721L15.7483 9.00609C15.5802 8.83797 15.3521 8.74353 15.1143 8.74353C14.8765 8.74353 14.6485 8.83797 14.4803 9.00609L13.7692 9.71721L15.7483 11.6963L16.4594 10.9852Z" fill="#006FFD"/>
</mask>
<g mask="url(#mask0_176_2459)">
<rect x="7.55469" y="7.91016" width="10" height="10" fill="white"/>
</g>
</svg>
