<svg width="24" height="26" viewBox="0 0 24 26" fill="none" xmlns="http://www.w3.org/2000/svg">
<path d="M20.7825 5.2666H13.4863V25.9389H20.7825C22.1257 25.9389 23.2143 24.8503 23.2143 23.5071V7.69842C23.2143 6.35519 22.1257 5.2666 20.7825 5.2666Z" fill="#EF4452"/>
<path d="M9.83738 5.2666H2.54119C1.19797 5.2666 0.109375 6.35519 0.109375 7.69842V23.5071C0.109375 24.8503 1.19797 25.9389 2.54119 25.9389H9.83738V5.2666Z" fill="#EF4452"/>
<path d="M18.5642 1.85775V5.26507H13.486V25.9425H9.83791V5.26507H4.75977V1.85775C4.75977 0.996797 5.6426 0.405806 6.43789 0.734134L11.662 2.87921L16.886 0.734134C17.6813 0.405806 18.5642 0.996797 18.5642 1.85775Z" fill="#FFCD00"/>
</svg>
