<svg width="77" height="69" viewBox="0 0 77 69" fill="none" xmlns="http://www.w3.org/2000/svg">
<path fill-rule="evenodd" clip-rule="evenodd" d="M64.0512 47.6729C64.0512 54.9741 52.768 61.9427 38.5002 61.9427C24.2324 61.9427 12.9492 54.6416 12.9492 47.6729V29.4211L38.5002 21.7894L64.0512 29.0906V47.6729Z" fill="#4E5968"/>
<path fill-rule="evenodd" clip-rule="evenodd" d="M1.99852 21.1265L35.1812 1.87907C37.1722 0.551051 39.8263 0.551051 41.8173 1.87907L75.002 21.1265C77.3255 22.4545 77.3255 25.441 75.002 26.7671L41.8173 46.0144C39.8263 47.3425 37.1722 47.3425 35.1812 46.0144L1.99852 26.7671C-0.325026 25.439 -0.325026 22.4525 1.99852 21.1265Z" fill="#6B7683"/>
<path fill-rule="evenodd" clip-rule="evenodd" d="M39.4962 22.1223L35.8466 19.1357L12.6172 33.736V61.6106C12.6172 62.9386 13.6127 63.9341 14.9407 63.9341C16.2688 63.9341 17.2643 62.9386 17.2643 61.6106V36.0596L39.4962 22.1223Z" fill="#FFC100"/>
<path fill-rule="evenodd" clip-rule="evenodd" d="M43.8097 20.1305C43.8097 22.1215 41.4861 23.7801 38.4996 23.7801C35.513 23.7801 33.1895 22.1215 33.1895 20.1305C33.1895 18.1395 35.513 16.4809 38.4996 16.4809C41.4861 16.1484 43.8097 18.1395 43.8097 20.1305Z" fill="#303D4C"/>
<path fill-rule="evenodd" clip-rule="evenodd" d="M15.2701 54.6416C12.616 54.6416 10.625 56.6326 10.625 58.9562V65.8492C10.625 66.8825 12.6917 68.2623 15.1048 68.2623C17.518 68.2623 19.5847 67.229 19.5847 65.8492V58.9562C19.5847 56.6326 17.9261 54.6416 15.2701 54.6416Z" fill="#FFDA16"/>
</svg>
