<svg width="25" height="23" viewBox="0 0 25 23" fill="none" xmlns="http://www.w3.org/2000/svg">
<path d="M13.5773 6.72921L10.0093 3.58477C9.56789 3.19556 8.90538 3.19556 8.46394 3.58477L1.21205 9.97596C0.960213 10.1978 0.816406 10.5168 0.816406 10.8524V19.7749C0.816406 21.0656 1.86312 22.1123 3.15381 22.1123H21.8509C23.1416 22.1123 24.1883 21.0656 24.1883 19.7749V1.3275C24.1883 0.321566 23.002 -0.214312 22.2472 0.451064L15.1234 6.72921C14.682 7.11842 14.0188 7.11842 13.5773 6.72921Z" fill="#FDAEB3"/>
<path d="M22.2465 0.451076L15.1227 6.72922C14.6813 7.11843 14.0195 7.11843 13.5773 6.72922L10.0093 3.58478C9.56789 3.19557 8.90609 3.19557 8.46394 3.58478L1.21205 9.97526C0.960213 10.197 0.816406 10.5169 0.816406 10.8524V13.9024L8.46394 7.16207C8.90609 6.77286 9.56789 6.77286 10.0093 7.16207L13.5773 10.3065C14.0195 10.6957 14.6813 10.6957 15.1227 10.3065L24.1876 2.31771V1.32823C24.1876 0.322294 23.0013 -0.213584 22.2465 0.451076Z" fill="#EF4452"/>
</svg>
