<svg width="36" height="36" viewBox="0 0 36 36" fill="none" xmlns="http://www.w3.org/2000/svg">
<path d="M4.06836 16.6909C4.06836 14.8957 4.89045 13.1992 6.29953 12.0868L14.3653 5.7191C16.4965 4.03659 19.5038 4.03659 21.635 5.7191L29.7007 12.0868C31.1098 13.1992 31.9319 14.8957 31.9319 16.6909V26.3135C31.9319 29.5532 29.3056 32.1795 26.0659 32.1795H23.8661C23.0562 32.1795 22.3996 31.523 22.3996 30.713V26.3135C22.3996 24.6937 21.0865 23.3805 19.4666 23.3805H16.5336C14.9138 23.3805 13.6006 24.6937 13.6006 26.3135V30.713C13.6006 31.523 12.944 32.1795 12.1341 32.1795H9.93437C6.69466 32.1795 4.06836 29.5532 4.06836 26.3135L4.06836 16.6909Z" fill="#D9D9D9" stroke="#D9D9D9" stroke-width="2.19975"/>
</svg>
