<svg width="36" height="37" viewBox="0 0 36 37" fill="none" xmlns="http://www.w3.org/2000/svg">
<path d="M4.25586 16.9503C4.25586 15.1551 5.07795 13.4586 6.48703 12.3462L14.5528 5.9785C16.684 4.29599 19.6913 4.29599 21.8225 5.9785L29.8882 12.3462C31.2973 13.4586 32.1194 15.1551 32.1194 16.9503V26.5729C32.1194 29.8126 29.4931 32.4389 26.2534 32.4389H24.0536C23.2437 32.4389 22.5871 31.7824 22.5871 30.9724V26.5729C22.5871 24.9531 21.274 23.6399 19.6541 23.6399H16.7211C15.1013 23.6399 13.7881 24.9531 13.7881 26.5729V30.9724C13.7881 31.7824 13.1315 32.4389 12.3216 32.4389H10.1219C6.88216 32.4389 4.25586 29.8126 4.25586 26.5729L4.25586 16.9503Z" fill="#4B628A" stroke="#4B628A" stroke-width="2.19975"/>
</svg>
