<svg width="36" height="34" viewBox="0 0 36 34" fill="none" xmlns="http://www.w3.org/2000/svg">
<path d="M16.9558 23.2446H14.0477C13.2447 23.2446 12.5938 23.9056 12.5938 24.721V29.7775H18.4098V24.721C18.4098 23.9056 17.7588 23.2446 16.9558 23.2446Z" fill="#6B7683"/>
<path d="M12.5947 29.7774V24.7209C12.5947 23.9055 13.2457 23.2445 14.0487 23.2445H16.9567C17.7598 23.2445 18.4108 23.9055 18.4108 24.7209V29.7774H22.9827C22.2878 29.7652 21.9048 28.9468 22.3418 28.3934L24.5968 25.5372H23.9638C23.4167 25.5372 23.1128 24.8945 23.4548 24.4609L25.6408 21.692H24.9858C24.5788 21.692 24.3528 21.2138 24.6077 20.8919L28.1228 16.4416L16.4067 6.98149C15.8767 6.55402 15.1267 6.55402 14.5967 6.98149L1.21875 17.7839V29.7774H12.5947Z" fill="#D0D5DA"/>
<path d="M16.4068 6.98131L28.1228 16.4414L28.2988 16.2191C28.4928 15.9733 28.8608 15.9733 29.0548 16.2191L29.7858 17.1441V13.3029C29.7858 12.4033 29.3818 11.5514 28.6878 10.991L16.4068 1.07597C15.8768 0.648504 15.1268 0.648504 14.5968 1.07597L2.3148 10.993C1.6208 11.5535 1.2168 12.4033 1.2168 13.304V17.7847L14.5958 6.98233C15.1258 6.55486 15.8758 6.55486 16.4058 6.98233L16.4068 6.98131Z" fill="#EF4452"/>
<path d="M34.2083 29.7791H22.9973C22.9923 29.7791 22.9873 29.7771 22.9823 29.7771H1.19531C0.643313 29.7771 0.195312 30.232 0.195312 30.7925V32.7399C0.195312 33.3004 0.643313 33.7553 1.19531 33.7553H34.1973C34.7493 33.7553 35.1973 33.3004 35.1973 32.7399V30.7925C35.1973 30.235 34.7553 29.7852 34.2083 29.7791Z" fill="#23B169"/>
<path d="M24.5974 25.5371L22.3424 28.3933C21.9044 28.9477 22.2884 29.7651 22.9834 29.7773C22.9884 29.7773 22.9934 29.7793 22.9984 29.7793H34.3574C35.0624 29.7793 35.4534 28.9518 35.0124 28.3933L32.7574 25.5371H24.5984H24.5974Z" fill="#0A9F60"/>
<path d="M25.6409 21.6919L23.4549 24.4608C23.1129 24.8943 23.4169 25.5371 23.9639 25.5371H33.3889C33.9359 25.5371 34.2399 24.8943 33.8979 24.4608L31.7119 21.6919H25.6409Z" fill="#23B169"/>
<path d="M29.0548 16.2192C28.8608 15.9735 28.4928 15.9735 28.2988 16.2192L28.1228 16.4416L24.6078 20.8919C24.3528 21.2138 24.5788 21.692 24.9858 21.692H32.3658C32.7728 21.692 32.9988 21.2138 32.7438 20.8919L29.7848 17.1442L29.0548 16.2192Z" fill="#68C76F"/>
</svg>
