<svg xmlns="http://www.w3.org/2000/svg" width="23" height="26" fill="none"><path fill="#4E5968" d="M14.83 14.17a4.14 4.14 0 0 0 5.982-5.722c.267-.165.521-.36.753-.592a4.142 4.142 0 1 0-6.45-5.106 4.14 4.14 0 0 0-5.722 5.982 4.107 4.107 0 0 0 2.311 1.158L1.142 20.452a.933.933 0 0 0 0 1.32l.572.571a.933.933 0 0 0 1.319 0l2.747-2.747 1.836 1.835-1.53 1.53a.933.933 0 0 0 0 1.32l.54.54a.933.933 0 0 0 1.32 0l4.318-4.32a.933.933 0 0 0 0-1.318l-.54-.54a.933.933 0 0 0-1.319 0l-1.082 1.081-1.836-1.835 6.17-6.17a4.106 4.106 0 0 0 1.174 2.45Zm4.448-4.24a1.993 1.993 0 1 1-2.818 2.819 1.993 1.993 0 0 1 2.818-2.819Zm-8.479-2.84a1.992 1.992 0 1 1 2.817-2.82A1.992 1.992 0 0 1 10.8 7.09Zm6.41-.735a2.08 2.08 0 1 1 2.941-2.94 2.08 2.08 0 0 1-2.941 2.94Z"/></svg>