<svg width="40" height="36" viewBox="0 0 40 36" fill="none" xmlns="http://www.w3.org/2000/svg">
<path d="M17.1134 21.4434C17.1134 22.5034 16.9934 23.4234 16.7734 24.2034C16.5534 25.0034 16.1534 25.6434 15.5934 26.1634C15.0334 26.6834 14.2534 27.0834 13.2734 27.3434C12.2734 27.6034 11.0134 27.7234 9.49344 27.7234C7.97344 27.7234 6.71344 27.6034 5.73344 27.3434C4.75344 27.0834 3.97344 26.6834 3.41344 26.1634C2.85344 25.6434 2.45344 25.0034 2.23344 24.2034C2.01344 23.4234 1.91344 22.5034 1.91344 21.4434C1.91344 20.4034 2.03344 19.4834 2.29344 18.6834C2.53344 17.9034 2.97344 17.2434 3.57344 16.7234C4.17344 16.2034 4.95344 15.8034 5.95344 15.5434C6.93344 15.2834 8.15344 15.1434 9.63344 15.1434C11.0134 15.1434 12.1734 15.2834 13.1334 15.5434C14.0934 15.8034 14.8534 16.2034 15.4534 16.7234C16.0334 17.2434 16.4534 17.9034 16.7134 18.6834C16.9734 19.4834 17.1134 20.4034 17.1134 21.4434ZM13.3934 31.6634V34.5834C13.3934 35.0634 13.1934 35.3034 12.7934 35.3034H10.8734C10.4934 35.3034 10.3134 35.0634 10.3134 34.5834V31.6634H8.67344V34.5834C8.67344 35.0634 8.47344 35.3034 8.07344 35.3034H6.15344C5.79344 35.3034 5.61344 35.0634 5.61344 34.5834V31.6634H2.81344C2.19344 31.6634 1.89344 31.3834 1.89344 30.8234V29.4234C1.89344 28.8634 2.19344 28.5834 2.79344 28.5834H16.2334C16.8334 28.5834 17.1334 28.8834 17.1334 29.4834V30.7434C17.1334 31.3634 16.8134 31.6634 16.2134 31.6634H13.3934ZM9.47344 24.8634C10.2734 24.8634 10.9734 24.8034 11.5334 24.6634C12.0934 24.5434 12.5334 24.3434 12.8934 24.0634C13.2334 23.8034 13.4734 23.4634 13.6334 23.0634C13.7934 22.6634 13.8734 22.1834 13.8734 21.6234C13.8734 21.0234 13.7934 20.5034 13.6534 20.0634C13.5134 19.6234 13.2734 19.2634 12.9534 18.9634C12.6334 18.6634 12.1934 18.4434 11.6534 18.2834C11.0934 18.1434 10.4334 18.0634 9.63344 18.0634C8.79344 18.0634 8.07344 18.1434 7.51344 18.2834C6.93344 18.4434 6.47344 18.6634 6.11344 18.9634C5.75344 19.2634 5.51344 19.6234 5.37344 20.0634C5.21344 20.5034 5.15344 21.0234 5.15344 21.6234C5.15344 22.1834 5.21344 22.6634 5.35344 23.0634C5.49344 23.4634 5.73344 23.8034 6.07344 24.0634C6.39344 24.3434 6.83344 24.5434 7.39344 24.6634C7.95344 24.8034 8.63344 24.8634 9.47344 24.8634ZM36.3525 34.3834C36.3525 34.9834 36.0125 35.2834 35.3725 35.2834H20.6325C20.0725 35.2834 19.8125 35.0834 19.8125 34.6434V28.0834C19.8125 27.6034 20.1125 27.3634 20.7125 27.3634H22.0725C22.6325 27.3634 22.9325 27.6034 22.9325 28.0834V29.1234H33.2325V28.0834C33.2325 27.6034 33.4925 27.3634 34.0525 27.3634H35.5325C36.0725 27.3634 36.3525 27.6034 36.3525 28.0634V34.3834ZM33.2325 31.5234H22.9325V32.7634H33.2325V31.5234ZM28.5925 24.7234C28.5925 25.0434 28.4125 25.2634 28.0525 25.4034C25.6325 26.0834 23.1125 26.4434 20.4925 26.4834C19.9325 26.4834 19.6525 26.2834 19.6525 25.8634V16.5034C19.6525 16.0034 19.9525 15.7434 20.5525 15.7434H27.6125C28.2525 15.7434 28.5925 15.9834 28.5925 16.4634V24.7234ZM36.3525 25.7834C36.3525 26.3034 36.0725 26.5434 35.5525 26.5434H34.1925C33.6325 26.5434 33.3725 26.3034 33.3725 25.8234V22.3034H32.4325V25.7834C32.4325 26.3034 32.1525 26.5434 31.6325 26.5434H30.2525C29.7325 26.5434 29.4725 26.3034 29.4725 25.8234V16.0234C29.4725 15.5834 29.7125 15.3434 30.2325 15.3434H31.6525C32.1725 15.3434 32.4325 15.5834 32.4325 16.0234V19.1834H33.3725V16.0234C33.3725 15.5834 33.6325 15.3434 34.1725 15.3434H35.5925C36.0925 15.3434 36.3525 15.5834 36.3525 16.0234V25.7834ZM22.6925 23.8434C23.5725 23.8434 24.4925 23.6834 25.4525 23.3634V18.5234H22.6925V23.8434Z" fill="#4B628A"/>
<path d="M34.9959 1.26191C35.0481 1.10385 35.2717 1.10385 35.3239 1.26191L36.0773 3.54432C36.1245 3.68733 36.2316 3.80272 36.3707 3.86042L38.5119 4.74858C38.6539 4.80749 38.6539 5.00866 38.5119 5.06757L36.3707 5.95573C36.2316 6.01343 36.1245 6.12882 36.0773 6.27183L35.3239 8.55424C35.2717 8.7123 35.0481 8.71229 34.9959 8.55424L34.2425 6.27183C34.1953 6.12882 34.0882 6.01343 33.9491 5.95573L31.8078 5.06757C31.6658 5.00866 31.6658 4.80749 31.8078 4.74858L33.9491 3.86042C34.0882 3.80272 34.1953 3.68733 34.2425 3.54432L34.9959 1.26191Z" fill="#FFC84D" stroke="#FFC84D" stroke-width="0.345341" stroke-linejoin="round"/>
<path d="M1.95508 11.9834C3.35424 10.3958 7.86974 7.2207 14.7384 7.2207C21.607 7.2207 25.6139 10.3958 26.7588 11.9834L32.1011 7.2207" stroke="#B9E6E9" stroke-width="0.345341" stroke-linejoin="round" stroke-dasharray="0.69 0.69"/>
</svg>
