<svg width="1215" height="1110" viewBox="0 0 1215 1110" fill="none" xmlns="http://www.w3.org/2000/svg">
<path d="M470.645 711.17C470.645 741.655 467.194 768.113 460.867 790.545C454.54 813.553 443.036 831.958 426.931 846.913C410.826 861.868 388.394 873.371 360.21 880.849C331.451 888.326 295.214 891.777 251.5 891.777C207.786 891.777 171.55 888.326 143.366 880.849C115.182 873.371 92.7499 861.868 76.6448 846.913C60.5397 831.958 49.036 813.553 42.709 790.545C36.382 768.113 33.5061 741.655 33.5061 711.17C33.5061 681.261 36.9572 654.802 44.4346 631.795C51.3368 609.363 63.9908 590.382 81.2462 575.427C98.5017 560.472 120.934 548.969 149.693 541.491C177.877 534.014 212.963 529.988 255.527 529.988C295.214 529.988 328.575 534.014 356.183 541.491C383.792 548.969 405.649 560.472 422.905 575.427C439.585 590.382 451.664 609.363 459.141 631.795C466.618 654.802 470.645 681.261 470.645 711.17ZM363.661 1005.09V1089.06C363.661 1102.87 357.909 1109.77 346.405 1109.77H291.188C280.259 1109.77 275.083 1102.87 275.083 1089.06V1005.09H227.918V1089.06C227.918 1102.87 222.166 1109.77 210.662 1109.77H155.445C145.091 1109.77 139.915 1102.87 139.915 1089.06V1005.09H59.3893C41.5587 1005.09 32.9309 997.036 32.9309 980.931V940.668C32.9309 924.563 41.5587 916.51 58.8141 916.51H445.337C462.592 916.51 471.22 925.138 471.22 942.393V978.63C471.22 996.461 462.017 1005.09 444.762 1005.09H363.661ZM250.925 809.526C273.932 809.526 294.064 807.801 310.169 803.774C326.274 800.323 338.928 794.572 349.281 786.519C359.059 779.042 365.962 769.263 370.563 757.76C375.164 746.256 377.465 732.452 377.465 716.347C377.465 699.091 375.164 684.136 371.138 671.482C367.112 658.828 360.21 648.475 351.007 639.847C341.804 631.22 329.15 624.893 313.62 620.291C297.515 616.265 278.534 613.964 255.527 613.964C231.369 613.964 210.662 616.265 194.557 620.291C177.877 624.893 164.648 631.22 154.294 639.847C143.941 648.475 137.039 658.828 133.013 671.482C128.411 684.136 126.686 699.091 126.686 716.347C126.686 732.452 128.411 746.256 132.437 757.76C136.464 769.263 143.366 779.042 153.144 786.519C162.347 794.572 175.001 800.323 191.106 803.774C207.211 807.801 226.767 809.526 250.925 809.526ZM1023.94 1083.31C1023.94 1100.57 1014.17 1109.2 995.759 1109.2H571.85C555.745 1109.2 548.267 1103.44 548.267 1090.79V902.131C548.267 888.326 556.895 881.424 574.151 881.424H613.263C629.368 881.424 637.996 888.326 637.996 902.131V932.04H934.215V902.131C934.215 888.326 941.692 881.424 957.797 881.424H1000.36C1015.89 881.424 1023.94 888.326 1023.94 901.555V1083.31ZM934.215 1001.06H637.996V1036.72H934.215V1001.06ZM800.772 805.5C800.772 814.703 795.596 821.03 785.243 825.056C715.645 844.612 643.172 854.966 567.824 856.116C551.718 856.116 543.666 850.364 543.666 838.285V569.1C543.666 554.72 552.294 547.243 569.549 547.243H772.589C790.994 547.243 800.772 554.145 800.772 567.95V805.5ZM1023.94 835.985C1023.94 850.939 1015.89 857.842 1000.94 857.842H961.824C945.718 857.842 938.241 850.939 938.241 837.135V735.903H911.207V835.985C911.207 850.939 903.155 857.842 888.2 857.842H848.513C833.558 857.842 826.08 850.939 826.08 837.135V555.296C826.08 542.642 832.983 535.739 847.937 535.739H888.775C903.73 535.739 911.207 542.642 911.207 555.296V646.174H938.241V555.296C938.241 542.642 945.718 535.739 961.248 535.739H1002.09C1016.47 535.739 1023.94 542.642 1023.94 555.296V835.985ZM631.094 780.192C656.402 780.192 682.86 775.59 710.469 766.388V627.193H631.094V780.192Z" fill="#4B628A"/>
<path d="M1080.49 35.5548L1105.59 111.584C1107.16 116.348 1110.73 120.192 1115.37 122.114L1186.69 151.699C1191.42 153.661 1191.42 160.363 1186.69 162.325L1115.37 191.91C1110.73 193.833 1107.16 197.676 1105.59 202.44L1080.49 278.469C1078.76 283.734 1071.31 283.734 1069.57 278.469L1044.47 202.44C1042.9 197.676 1039.33 193.833 1034.7 191.91L963.372 162.325C958.641 160.363 958.641 153.661 963.372 151.699L1034.7 122.114C1039.33 120.192 1042.9 116.348 1044.47 111.584L1069.57 35.5549C1071.31 30.2897 1078.76 30.2898 1080.49 35.5548Z" fill="#FFC84D" stroke="#FFC84D" stroke-width="11.5036" stroke-linejoin="round"/>
<path d="M116.68 435.527C163.287 367.734 236.633 232.148 465.434 232.148C694.235 232.148 752.871 367.734 791.008 435.527L994.387 232.148" stroke="#B9E6E9" stroke-width="11.5036" stroke-linejoin="round" stroke-dasharray="23.01 23.01"/>
</svg>