<svg xmlns="http://www.w3.org/2000/svg" width="28" height="28" fill="none"><path fill="#1E6EF4" d="M20.468 5.914H6.974a6.748 6.748 0 0 0-6.747 6.748V23.34c0 .956.774 1.73 1.73 1.73h23.53a1.73 1.73 0 0 0 1.73-1.73V12.662a6.747 6.747 0 0 0-6.747-6.748h-.002Z"/><path fill="#082B9C" d="M7.369 7.098c3.147.204 5.527 2.958 5.527 6.112v10.687H2.18a1.127 1.127 0 0 1-1.127-1.127v-9.763c0-3.401 2.867-6.132 6.316-5.909Z"/><path fill="#0A37C7" d="M23.495 1.628a.565.565 0 0 0-.342-1.014H19.2a.53.53 0 0 0-.53.53v11.478a.937.937 0 1 0 1.874 0V3.877l2.951-2.25ZM11.95 25.07h4.256v2.2a.571.571 0 0 1-.57.572H12.52a.571.571 0 0 1-.57-.571v-2.2Z"/><path fill="#D0D5DA" d="M5.443 15.036v6.848c0 .477.173.909.45 1.254l4.74-3.778-5.189-4.323v-.001Z"/><path fill="#E5E9EE" d="m11.525 20.104-.893-.744-4.74 3.777c.37.46.93.761 1.566.761h5.439v-3.314c-.48 0-.96-.16-1.372-.48Z"/><path fill="#AFB7C0" d="M11.525 20.104c.413.32.892.48 1.37.48v-.931a2.41 2.41 0 0 1-1.37-.427l-6.082-4.19 5.188 4.324.893.744Z"/><path fill="#E5E9EE" d="M12.896 19.653V13.21c0-.337-.032-.669-.085-.995H7.458a2.015 2.015 0 0 0-2.015 2.014v.806l6.082 4.19c.413.285.893.427 1.371.427Z"/></svg>