<svg width="47" height="57" viewBox="0 0 47 57" fill="none" xmlns="http://www.w3.org/2000/svg">
<g filter="url(#filter0_d_395_1036)">
<path d="M23.8173 5.53516C19.0785 5.54053 14.5353 7.4254 11.1844 10.7762C7.8336 14.1271 5.94874 18.6703 5.94336 23.4091C5.94336 38.7034 22.1924 50.2544 22.885 50.7379C23.1582 50.9292 23.4837 51.0319 23.8173 51.0319C24.1508 51.0319 24.4763 50.9292 24.7495 50.7379C25.4422 50.2544 41.6912 38.7034 41.6912 23.4091C41.6858 18.6703 39.8009 14.1271 36.4501 10.7762C33.0992 7.4254 28.5561 5.54053 23.8173 5.53516ZM23.8173 16.9095C25.1028 16.9095 26.3594 17.2907 27.4282 18.0048C28.4971 18.719 29.3302 19.7341 29.8221 20.9218C30.314 22.1094 30.4428 23.4163 30.192 24.6771C29.9412 25.9379 29.3222 27.096 28.4132 28.005C27.5042 28.914 26.3461 29.533 25.0853 29.7838C23.8245 30.0346 22.5176 29.9058 21.33 29.4139C20.1423 28.922 19.1272 28.0889 18.413 27.02C17.6989 25.9512 17.3177 24.6946 17.3177 23.4091C17.3177 21.6853 18.0024 20.0321 19.2213 18.8131C20.4403 17.5942 22.0935 16.9095 23.8173 16.9095Z" fill="white"/>
</g>
<path d="M23.8178 6.22559C19.2228 6.2308 14.8175 8.05846 11.5683 11.3076C8.3192 14.5567 6.49154 18.962 6.48633 23.557C6.48633 38.3872 22.2422 49.5877 22.9138 50.0564C23.1787 50.242 23.4943 50.3415 23.8178 50.3415C24.1412 50.3415 24.4568 50.242 24.7218 50.0564C25.3933 49.5877 41.1492 38.3872 41.1492 23.557C41.144 18.962 39.3163 14.5567 36.0672 11.3076C32.818 8.05846 28.4127 6.2308 23.8178 6.22559ZM23.8178 17.2547C25.0642 17.2547 26.2827 17.6243 27.3192 18.3168C28.3556 19.0093 29.1634 19.9936 29.6404 21.1452C30.1174 22.2968 30.2422 23.564 29.999 24.7865C29.7558 26.0091 29.1556 27.132 28.2742 28.0134C27.3928 28.8948 26.2698 29.4951 25.0473 29.7383C23.8248 29.9814 22.5576 29.8566 21.406 29.3796C20.2544 28.9026 19.2701 28.0948 18.5776 27.0584C17.885 26.022 17.5154 24.8035 17.5154 23.557C17.5154 21.8855 18.1794 20.2825 19.3613 19.1006C20.5433 17.9187 22.1463 17.2547 23.8178 17.2547Z" fill="#4B628A"/>
<defs>
<filter id="filter0_d_395_1036" x="0.943359" y="0.535156" width="45.748" height="55.4966" filterUnits="userSpaceOnUse" color-interpolation-filters="sRGB">
<feFlood flood-opacity="0" result="BackgroundImageFix"/>
<feColorMatrix in="SourceAlpha" type="matrix" values="0 0 0 0 0 0 0 0 0 0 0 0 0 0 0 0 0 0 127 0" result="hardAlpha"/>
<feOffset/>
<feGaussianBlur stdDeviation="2.5"/>
<feComposite in2="hardAlpha" operator="out"/>
<feColorMatrix type="matrix" values="0 0 0 0 0 0 0 0 0 0 0 0 0 0 0 0 0 0 0.4 0"/>
<feBlend mode="normal" in2="BackgroundImageFix" result="effect1_dropShadow_395_1036"/>
<feBlend mode="normal" in="SourceGraphic" in2="effect1_dropShadow_395_1036" result="shape"/>
</filter>
</defs>
</svg>
