<svg width="42" height="51" viewBox="0 0 42 51" fill="none" xmlns="http://www.w3.org/2000/svg">
<path d="M20.8896 0.499023C15.4331 0.504957 10.2018 2.58531 6.34348 6.28369C2.48513 9.98207 0.314784 14.9964 0.308594 20.2267C0.308594 37.1074 19.0186 49.8564 19.8162 50.39C20.1308 50.6012 20.5055 50.7145 20.8896 50.7145C21.2738 50.7145 21.6485 50.6012 21.9631 50.39C22.7607 49.8564 41.4707 37.1074 41.4707 20.2267C41.4645 14.9964 39.2942 9.98207 35.4358 6.28369C31.5775 2.58531 26.3462 0.504957 20.8896 0.499023ZM20.8896 13.053C22.3698 13.053 23.8168 13.4738 25.0475 14.262C26.2783 15.0503 27.2375 16.1707 27.804 17.4815C28.3704 18.7923 28.5186 20.2347 28.2299 21.6263C27.9411 23.0178 27.2283 24.2961 26.1816 25.2993C25.135 26.3026 23.8015 26.9858 22.3497 27.2626C20.898 27.5394 19.3932 27.3974 18.0256 26.8544C16.6581 26.3114 15.4893 25.392 14.6669 24.2122C13.8446 23.0325 13.4056 21.6456 13.4056 20.2267C13.4056 18.3242 14.1941 16.4995 15.5976 15.1542C17.0012 13.8088 18.9048 13.053 20.8896 13.053Z" fill="#2B3F6C"/>
<path d="M20.89 1.26123C15.5991 1.26698 10.5266 3.2842 6.78532 6.87034C3.04407 10.4565 0.939596 15.3187 0.933594 20.3902C0.933594 36.7585 19.0758 49.1206 19.8491 49.638C20.1542 49.8428 20.5176 49.9527 20.89 49.9527C21.2625 49.9527 21.6259 49.8428 21.9309 49.638C22.7042 49.1206 40.8464 36.7585 40.8464 20.3902C40.8404 15.3187 38.736 10.4565 34.9947 6.87034C31.2535 3.2842 26.1809 1.26698 20.89 1.26123ZM20.89 13.4342C22.3253 13.4342 23.7283 13.8422 24.9217 14.6065C26.1151 15.3709 27.0452 16.4572 27.5945 17.7283C28.1438 18.9993 28.2875 20.3979 28.0075 21.7473C27.7275 23.0966 27.0363 24.336 26.0214 25.3088C25.0065 26.2817 23.7135 26.9442 22.3058 27.2126C20.8981 27.481 19.439 27.3432 18.1129 26.8167C16.7869 26.2902 15.6535 25.3987 14.8561 24.2548C14.0587 23.1109 13.6331 21.766 13.6331 20.3902C13.6331 18.5454 14.3977 16.7761 15.7586 15.4716C17.1196 14.1671 18.9654 13.4342 20.89 13.4342Z" fill="#4B628A"/>
</svg>
