<svg width="27" height="28" viewBox="0 0 27 28" fill="none" xmlns="http://www.w3.org/2000/svg">
<path d="M13.3727 0.76123C15.0605 0.76123 15.0283 1.37939 16.1651 1.43948C17.302 1.5003 17.8965 1.14257 18.6642 1.25561C19.198 1.33431 19.5993 1.57256 19.8769 1.80651C20.1803 2.06265 20.2304 2.50838 19.9885 2.82318L17.3442 6.25881C17.1088 6.53856 17.1374 6.95281 17.4136 7.19177C21.5289 10.7569 26.6087 15.0446 26.6087 18.8945C26.6087 25.3637 21.2985 27.3655 13.3727 27.3655C5.44685 27.3655 0.136719 25.3637 0.136719 18.8945C0.136719 15.0454 5.21647 10.7569 9.33179 7.19177C9.60795 6.95281 9.63657 6.53784 9.40119 6.25881L6.75685 2.82318C6.51503 2.50838 6.56511 2.06265 6.86846 1.80651C7.14606 1.57256 7.54743 1.33431 8.08117 1.25561C8.84885 1.14257 9.44411 1.5003 10.5803 1.43948C11.7171 1.37867 11.6849 0.76123 13.3727 0.76123Z" fill="#FFC522"/>
<path d="M13.4308 7.89925C12.0421 7.89925 10.6506 7.76903 9.29264 7.51004C8.85979 7.42704 8.57647 7.00922 8.65874 6.57636C8.74174 6.14351 9.16028 5.85804 9.59242 5.94175C12.1101 6.42182 14.7566 6.42397 17.2457 5.94175C17.6778 5.85518 18.0971 6.14065 18.1808 6.5735C18.2645 7.00635 17.9812 7.4249 17.5483 7.5086C16.2054 7.76832 14.8203 7.89853 13.4308 7.89853V7.89925Z" fill="#99452E"/>
<path d="M13.5443 22.5951C11.707 22.5951 10.3082 21.5076 9.723 20.7614C9.38173 20.3257 9.45828 19.6961 9.894 19.3548C10.3276 19.0157 10.9529 19.0894 11.2956 19.5201C11.4344 19.6911 12.6907 21.152 14.6604 20.365C15.139 20.174 15.3572 19.8277 15.325 19.5838C15.2764 19.211 14.6554 18.7653 13.379 18.6122C10.231 18.2344 9.75663 16.45 9.6858 15.9113C9.52697 14.695 10.2939 13.5288 11.5946 13.0094C14.2261 11.9605 16.1464 13.37 16.8497 14.0246C17.2546 14.401 17.2768 15.0356 16.8998 15.4405C16.522 15.8448 15.8895 15.8677 15.4839 15.4906C14.8407 14.8911 13.7718 14.2979 12.3366 14.871C11.8579 15.0621 11.6397 15.4083 11.6719 15.6523C11.7206 16.0251 12.3409 16.4708 13.6172 16.6239C16.7653 17.0017 17.2396 18.786 17.3104 19.324C17.47 20.5403 16.7023 21.7065 15.4023 22.2259C14.747 22.4871 14.1231 22.5958 13.5436 22.5958L13.5443 22.5951Z" fill="#FFF3CC"/>
<path d="M13.4997 14.6384C12.9466 14.6384 12.498 14.1905 12.498 13.6375V12.2094C12.498 11.6564 12.9466 11.2085 13.4997 11.2085C14.0527 11.2085 14.5013 11.6564 14.5013 12.2094V13.6375C14.5013 14.1905 14.0527 14.6384 13.4997 14.6384Z" fill="#FFF3CC"/>
<path d="M13.4997 24.0276C12.9466 24.0276 12.498 23.5797 12.498 23.0266V21.5986C12.498 21.0455 12.9466 20.5977 13.4997 20.5977C14.0527 20.5977 14.5013 21.0455 14.5013 21.5986V23.0266C14.5013 23.5797 14.0527 24.0276 13.4997 24.0276Z" fill="#FFF3CC"/>
</svg>
