<svg width="181" height="180" viewBox="0 0 181 180" fill="none" xmlns="http://www.w3.org/2000/svg">
<g clip-path="url(#clip0_809_2623)">
<path d="M27.8913 167.148L133.383 129.443L46.3759 43.2139L8.63741 148.023C4.35223 159.93 15.9272 171.423 27.8913 167.148Z" fill="#EF4452"/>
<path d="M46.8629 20.978C51.5312 20.978 55.3156 17.2145 55.3156 12.572C55.3156 7.92951 51.5312 4.16602 46.8629 4.16602C42.1946 4.16602 38.4102 7.92951 38.4102 12.572C38.4102 17.2145 42.1946 20.978 46.8629 20.978Z" fill="#EDCCF8"/>
<path d="M137.242 127.153C146.308 118.138 133.846 91.1287 109.409 66.8262C84.9711 42.5237 57.8116 30.1309 48.7463 39.1462C39.6809 48.1614 52.1426 75.1708 76.5801 99.4733C101.018 123.776 128.177 136.169 137.242 127.153Z" fill="#A41926"/>
<path d="M77.226 62.1313C76.7147 62.1313 76.1898 62.0593 75.6694 61.9153C72.6648 61.0648 70.9272 57.9508 71.7824 54.9628C74.4793 45.5713 74.3345 35.6533 71.3616 26.2798C70.4204 23.3143 72.0765 20.1598 75.054 19.2238C78.0314 18.2878 81.208 19.9303 82.1492 22.8958C85.7918 34.3753 85.9683 46.5343 82.6605 58.0498C81.9501 60.5203 79.6921 62.1313 77.226 62.1313Z" fill="#B44BD7"/>
<path d="M132.894 78.5559C131.143 78.5559 129.414 77.7504 128.31 76.2294C126.478 73.7139 127.043 70.1994 129.573 68.3724C141.537 59.7504 155.705 54.8499 170.547 54.2064C173.691 54.1749 176.307 56.4789 176.447 59.5794C176.583 62.6844 174.162 65.3079 171.044 65.4474C158.42 65.9964 146.379 70.1589 136.211 77.4849C135.206 78.2094 134.048 78.5559 132.899 78.5559H132.894Z" fill="#EF4452"/>
<path d="M155.571 106.946C154.851 106.946 154.118 106.807 153.408 106.514C149.607 104.948 145.643 103.742 141.625 102.928C129.077 100.381 116.158 101.618 104.266 106.514C101.366 107.698 98.0669 106.339 96.8768 103.472C95.6822 100.601 97.0533 97.3119 99.9357 96.1239C113.923 90.3639 129.127 88.9059 143.887 91.9074C148.611 92.8659 153.272 94.2834 157.738 96.1239C160.625 97.3119 161.996 100.601 160.802 103.472C159.901 105.637 157.788 106.946 155.571 106.946Z" fill="#7896FF"/>
<path d="M96.6385 79.0642C94.9416 79.0642 93.2583 78.3082 92.1452 76.8637C90.2447 74.4022 90.7107 70.8697 93.1904 68.9797C106.797 58.5982 115.521 43.5682 117.761 26.6572C118.168 23.5792 121.015 21.4057 124.105 21.8152C127.205 22.2202 129.386 25.0462 128.974 28.1242C126.341 48.0142 116.078 65.6902 100.073 77.9032C99.0458 78.6862 97.8421 79.0642 96.6385 79.0642Z" fill="#4A81EC"/>
<path d="M71.1729 88.815L71.175 80.3685C71.1754 78.6114 69.7435 77.1867 67.9766 77.1862L59.4832 77.1842C57.7163 77.1837 56.2837 78.6078 56.2832 80.3649L56.2811 88.8114C56.2807 90.5685 57.7127 91.9932 59.4795 91.9937L67.973 91.9957C69.7398 91.9962 71.1725 90.5721 71.1729 88.815Z" fill="#FAFAFA"/>
<path d="M106.858 2.49682L99.1007 6.38782C97.4875 7.19703 96.8393 9.15359 97.653 10.7579L101.566 18.4722C102.379 20.0765 104.347 20.7211 105.96 19.9119L113.717 16.0209C115.33 15.2117 115.979 13.2551 115.165 11.6508L111.252 3.93651C110.439 2.33218 108.471 1.68761 106.858 2.49682Z" fill="#7896FF"/>
<path d="M168.947 132.309L171.579 124.075C172.127 122.362 171.174 120.533 169.452 119.989L161.173 117.371C159.451 116.827 157.611 117.774 157.064 119.486L154.432 127.72C153.885 129.433 154.837 131.262 156.559 131.806L164.838 134.424C166.56 134.968 168.4 134.021 168.947 132.309Z" fill="#A8BFFF"/>
<path d="M151.743 47.3114C155.502 47.3114 158.549 44.2813 158.549 40.5434C158.549 36.8055 155.502 33.7754 151.743 33.7754C147.984 33.7754 144.938 36.8055 144.938 40.5434C144.938 44.2813 147.984 47.3114 151.743 47.3114Z" fill="#FFC84D"/>
<path d="M15.8603 76.6571C19.6189 76.6571 22.6659 73.627 22.6659 69.8891C22.6659 66.1512 19.6189 63.1211 15.8603 63.1211C12.1017 63.1211 9.05469 66.1512 9.05469 69.8891C9.05469 73.627 12.1017 76.6571 15.8603 76.6571Z" fill="#A8BFFF"/>
<path d="M111.156 164.914C115.542 164.914 119.098 161.378 119.098 157.016C119.098 152.654 115.542 149.119 111.156 149.119C106.77 149.119 103.215 152.654 103.215 157.016C103.215 161.378 106.77 164.914 111.156 164.914Z" fill="#FFC84D"/>
</g>
<defs>
<clipPath id="clip0_809_2623">
<rect width="181" height="180" fill="white"/>
</clipPath>
</defs>
</svg>
