<svg width="26" height="18" viewBox="0 0 26 18" fill="none" xmlns="http://www.w3.org/2000/svg">
<path d="M12.5346 12.5409C10.9377 11.5514 9.24566 10.8645 8.61821 10.6249V10.9268C8.61821 10.9783 8.58816 11.0277 8.54237 11.0513C7.77754 11.4405 7.05636 11.1593 6.82813 11.0498C6.78162 11.0269 6.75372 10.9812 6.75372 10.9289V10.5776C6.26578 10.7601 4.43278 11.4748 2.71138 12.5416C0.704523 13.785 0.817565 17.3867 0.817565 17.3867H14.4277C14.4277 17.3867 14.5408 13.785 12.5339 12.5416L12.5346 12.5409Z" fill="#482EC5"/>
<path d="M3.89823 6.75264C3.82382 6.31907 3.92756 5.86977 4.19013 5.51633C4.369 5.27593 4.52854 5.15359 4.52854 5.15359C5.48082 4.30434 5.7806 3.13314 5.8643 2.6731C5.8779 2.59869 5.97091 2.57365 6.01956 2.63089C6.38158 3.05229 7.51129 4.20275 9.24842 4.46103C10.9026 4.70715 11.6795 5.80609 11.4585 7.08891C11.0914 8.5141 9.99536 9.6159 8.6181 9.96219V10.3965C10.8904 10.3213 11.9564 9.95575 12.4429 9.66026C12.6934 9.50859 12.8515 9.241 12.8579 8.94838C12.9166 6.43855 12.5453 4.27215 12.1696 3.24833C11.666 1.87465 10.1613 0.357161 8.19169 0.15254C6.22203 -0.0520812 5.33916 1.22716 5.33916 1.22716C2.52669 2.45989 2.64117 7.70778 2.71343 8.98988C2.72774 9.2453 2.85223 9.48283 3.064 9.62592C3.499 9.91997 4.49492 10.3035 6.75433 10.3922V9.94501C5.29766 9.55509 4.16652 8.31592 3.89751 6.75193L3.89823 6.75264Z" fill="#333333"/>
<path d="M6.5447 5.37109C6.30645 5.37109 6.11328 5.6029 6.11328 5.88908C6.11328 6.17527 6.30645 6.40708 6.5447 6.40708C6.78295 6.40708 6.97612 6.17527 6.97612 5.88908C6.97612 5.6029 6.78295 5.37109 6.5447 5.37109Z" fill="black"/>
<path d="M8.824 5.37109C8.58575 5.37109 8.39258 5.6029 8.39258 5.88908C8.39258 6.17527 8.58575 6.40708 8.824 6.40708C9.06225 6.40708 9.25542 6.17527 9.25542 5.88908C9.25542 5.6029 9.06225 5.37109 8.824 5.37109Z" fill="black"/>
<path d="M8.22856 8.17773H7.16897C7.0731 8.17773 7.00513 8.26931 7.03088 8.36161C7.11173 8.65494 7.38003 8.8703 7.69912 8.8703C8.01822 8.8703 8.28651 8.65494 8.36736 8.36161C8.3924 8.26931 8.32443 8.17773 8.22928 8.17773H8.22856Z" fill="#5C2F17"/>
<path d="M9.24992 4.46261C7.51136 4.20504 6.38094 3.05315 6.02321 2.63103C5.97313 2.5738 5.88012 2.60242 5.86581 2.67396C5.77995 3.13185 5.47946 4.30521 4.5279 5.1566C4.5279 5.1566 4.3705 5.27823 4.19163 5.51433C3.92692 5.87206 3.8196 6.3228 3.8983 6.75207C4.16302 8.31893 5.3006 9.55667 6.75298 9.94302V10.9303C6.75298 10.9804 6.78159 11.0234 6.82452 11.052C7.05347 11.1593 7.77608 11.4383 8.54162 11.052C8.58455 11.0305 8.62032 10.9804 8.62032 10.9232V9.96448C9.994 9.61391 11.0887 8.5121 11.4607 7.08834C11.6825 5.80767 10.9026 4.70586 9.24992 4.46261ZM7.16794 8.17583H8.22682C8.31983 8.17583 8.39137 8.26884 8.36276 8.36185C8.28406 8.65519 8.01934 8.86983 7.69738 8.86983C7.37542 8.86983 7.1107 8.65519 7.032 8.36185C7.00339 8.26884 7.07493 8.17583 7.16794 8.17583ZM6.54549 6.40865C6.30939 6.40865 6.11622 6.17255 6.11622 5.88637C6.11622 5.60019 6.30939 5.37124 6.54549 5.37124C6.78159 5.37124 6.97477 5.60019 6.97477 5.88637C6.97477 6.17255 6.78159 6.40865 6.54549 6.40865ZM8.82065 6.40865C8.58455 6.40865 8.39137 6.17255 8.39137 5.88637C8.39137 5.60019 8.58455 5.37124 8.82065 5.37124C9.0639 5.37124 9.25708 5.60019 9.25708 5.88637C9.25708 6.17255 9.0639 6.40865 8.82065 6.40865Z" fill="#FFCCA8"/>
<path d="M23.8906 4.90617C23.7833 4.87755 23.6617 5.02779 23.5114 5.10649C23.4613 5.13511 23.4041 5.14942 23.354 5.15658C22.9319 5.17804 22.474 5.10649 22.0018 4.9634C19.9985 4.36957 17.8164 2.6167 17.8164 2.6167L15.9204 4.74161L15.069 5.69317C14.7757 5.06357 14.4609 4.99918 14.3464 5.00633C13.9672 5.29251 13.7168 5.72179 13.7168 6.21545C13.7168 7.08116 14.4609 7.77515 15.3767 7.78231C15.8989 8.96281 16.9507 9.84998 18.2313 10.1505V10.9303C18.2313 10.9804 18.26 11.0233 18.31 11.052C18.5318 11.1593 19.2544 11.4383 20.02 11.052C20.0701 11.0305 20.0987 10.9804 20.0987 10.9232V10.1648C21.4008 9.87145 22.4668 8.97712 22.9963 7.78231C23.9121 7.77515 24.6562 7.08116 24.6562 6.21545C24.6562 5.66455 24.3485 5.18519 23.8906 4.90617ZM18.632 7.99694H19.741C19.8411 7.99694 19.9055 8.08995 19.884 8.19012C19.7982 8.49061 19.5192 8.71956 19.1901 8.71956C18.8538 8.71956 18.5748 8.49061 18.4889 8.19012C18.4674 8.08995 18.539 7.99694 18.632 7.99694ZM18.0167 6.43009C17.7734 6.43009 17.5731 6.19399 17.5731 5.90065C17.5731 5.60731 17.7734 5.36406 18.0167 5.36406C18.26 5.36406 18.4603 5.60731 18.4603 5.90065C18.4603 6.19399 18.26 6.43009 18.0167 6.43009ZM20.3562 6.43009C20.113 6.43009 19.9127 6.19399 19.9127 5.90065C19.9127 5.60731 20.113 5.36406 20.3562 5.36406C20.5995 5.36406 20.7998 5.60731 20.7998 5.90065C20.7998 6.19399 20.5995 6.43009 20.3562 6.43009Z" fill="#FFCCA8"/>
<path d="M15.0695 5.6953L15.9202 4.74375L17.8176 2.62027C17.8176 2.62027 19.9998 4.37171 21.9995 4.96482C22.4717 5.10505 22.9346 5.18089 23.3553 5.15299C23.4039 5.14941 23.4597 5.13296 23.5148 5.10935C23.66 5.02778 23.7817 4.87897 23.8933 4.90616C23.8947 4.90616 23.8961 4.90616 23.8976 4.90616C23.9398 2.04575 21.4786 -0.289502 18.5645 0.0238687C16.323 0.264263 14.5286 2.08582 14.3169 4.33021C14.2954 4.55844 14.2897 4.78381 14.2997 5.0056C14.2997 5.0056 14.319 5.00274 14.3462 5.00274C14.46 5.00274 14.7769 5.06141 15.0695 5.6953Z" fill="#333333"/>
<path d="M18.0158 6.4313C18.2608 6.4313 18.4594 6.19298 18.4594 5.899C18.4594 5.60502 18.2608 5.3667 18.0158 5.3667C17.7709 5.3667 17.5723 5.60502 17.5723 5.899C17.5723 6.19298 17.7709 6.4313 18.0158 6.4313Z" fill="black"/>
<path d="M20.3557 6.4313C20.6004 6.4313 20.7993 6.19305 20.7993 5.899C20.7993 5.60495 20.6011 5.3667 20.3557 5.3667C20.1103 5.3667 19.9121 5.60495 19.9121 5.899C19.9121 6.19305 20.1103 6.4313 20.3557 6.4313Z" fill="black"/>
<path d="M19.1854 8.71825C19.5174 8.71825 19.7971 8.49431 19.8808 8.18881C19.9073 8.09294 19.8365 7.99707 19.737 7.99707H18.6338C18.5343 7.99707 18.4635 8.09294 18.49 8.18881C18.5737 8.49431 18.8534 8.71825 19.1854 8.71825Z" fill="#5C2F17"/>
<path d="M24.0756 12.5409C22.4222 11.5164 20.6658 10.8159 20.0963 10.6006V10.9268C20.0963 10.9783 20.0662 11.0277 20.0204 11.0513C19.2556 11.4405 18.5344 11.1594 18.3062 11.0492C18.2597 11.027 18.2318 10.9805 18.2318 10.9283V10.6006C17.6623 10.8159 15.9058 11.5164 14.2524 12.5409C12.2455 13.7844 12.3586 17.386 12.3586 17.386H25.9687C25.9687 17.386 26.0825 13.7844 24.0756 12.5409Z" fill="#5268EA"/>
</svg>
