<svg width="37" height="37" viewBox="0 0 37 37" fill="none" xmlns="http://www.w3.org/2000/svg">
<path d="M9.49056 27.1036C17.6396 35.2526 23.8206 37.1076 28.7446 35.9356C31.4786 35.2846 33.9156 33.0576 35.5436 31.2046C36.7776 29.7986 36.5446 27.6366 35.0646 26.4916L28.5546 21.4536C27.9046 20.9506 26.9816 21.0086 26.3996 21.5906L22.9426 25.0476C22.4086 25.5816 21.5856 25.6876 20.9426 25.2926C19.8316 24.6106 17.9676 23.2886 15.6376 20.9576C13.3076 18.6276 11.9856 16.7636 11.3026 15.6526C10.9076 15.0096 11.0136 14.1866 11.5476 13.6526L15.0046 10.1956C15.5856 9.61456 15.6446 8.69156 15.1416 8.04056L10.1036 1.53056C8.95856 0.0505593 6.79556 -0.182441 5.39056 1.05156C3.53756 2.67856 1.31056 5.11556 0.659562 7.85056C-0.512438 12.7756 1.34256 18.9556 9.49156 27.1046L9.49056 27.1036Z" fill="#23B169"/>
</svg>
