<svg xmlns="http://www.w3.org/2000/svg" width="21" height="20" fill="none"><path fill="#4B628A" d="M20.467 10.33a9.497 9.497 0 0 1-16.018 6.908.794.794 0 0 1 1.088-1.151 7.916 7.916 0 1 0-.166-11.354c-.35.353-.678.7-.998 1.045l1.614 1.617a.792.792 0 0 1-.56 1.352H1.47a.792.792 0 0 1-.791-.792V3.997a.792.792 0 0 1 1.351-.56L3.25 4.66c.319-.345.647-.692.996-1.044a9.499 9.499 0 0 1 16.22 6.714Zm-9.499-5.541a.791.791 0 0 0-.791.792v4.749a.792.792 0 0 0 .383.679l3.958 2.374a.791.791 0 1 0 .816-1.357L11.76 9.882V5.58a.791.791 0 0 0-.792-.792Z"/></svg>