<svg width="40" height="41" viewBox="0 0 40 41" fill="none" xmlns="http://www.w3.org/2000/svg">
<path d="M19.2604 26.7515H16.3524C15.5494 26.7515 14.8984 27.4025 14.8984 28.2055V33.1855H20.7144V28.2055C20.7144 27.4025 20.0634 26.7515 19.2604 26.7515Z" fill="#6B7683"/>
<path d="M14.8975 33.1852V28.2052C14.8975 27.4022 15.5485 26.7512 16.3515 26.7512H19.2595C20.0625 26.7512 20.7135 27.4022 20.7135 28.2052V33.1852H25.2855C24.5905 33.1732 24.2075 32.3672 24.6445 31.8222L26.8995 29.0092H26.2665C25.7195 29.0092 25.4155 28.3762 25.7575 27.9492L27.9435 25.2222H27.2885C26.8815 25.2222 26.6555 24.7512 26.9105 24.4342L30.4255 20.0512L18.7095 10.7342C18.1795 10.3132 17.4295 10.3132 16.8995 10.7342L3.52148 21.3732V33.1852H14.8975Z" fill="#D0D5DA"/>
<path d="M18.7115 10.7343L30.4275 20.0513L30.6035 19.8323C30.7975 19.5903 31.1655 19.5903 31.3595 19.8323L32.0905 20.7433V16.9603C32.0905 16.0743 31.6865 15.2353 30.9925 14.6833L18.7115 4.91829C18.1815 4.49729 17.4315 4.49729 16.9015 4.91829L4.61948 14.6853C3.92548 15.2373 3.52148 16.0743 3.52148 16.9613V21.3743L16.9005 10.7353C17.4305 10.3143 18.1805 10.3143 18.7105 10.7353L18.7115 10.7343Z" fill="#EF4452"/>
<path d="M36.511 33.1875H25.3C25.295 33.1875 25.29 33.1855 25.285 33.1855H3.49805C2.94605 33.1855 2.49805 33.6335 2.49805 34.1855V36.1035C2.49805 36.6555 2.94605 37.1035 3.49805 37.1035H36.5C37.052 37.1035 37.5 36.6555 37.5 36.1035V34.1855C37.5 33.6365 37.058 33.1935 36.511 33.1875Z" fill="#23B169"/>
<path d="M26.9001 29.0093L24.6451 31.8223C24.2071 32.3683 24.5911 33.1733 25.2861 33.1853C25.2911 33.1853 25.2961 33.1873 25.3011 33.1873H36.6601C37.3651 33.1873 37.7561 32.3723 37.3151 31.8223L35.0601 29.0093H26.9011H26.9001Z" fill="#0A9F60"/>
<path d="M27.9456 25.2222L25.7596 27.9492C25.4176 28.3762 25.7216 29.0092 26.2686 29.0092H35.6936C36.2406 29.0092 36.5446 28.3762 36.2026 27.9492L34.0166 25.2222H27.9456Z" fill="#23B169"/>
<path d="M31.3575 19.8324C31.1635 19.5904 30.7955 19.5904 30.6015 19.8324L30.4255 20.0514L26.9105 24.4344C26.6555 24.7514 26.8815 25.2224 27.2885 25.2224H34.6685C35.0755 25.2224 35.3015 24.7514 35.0465 24.4344L32.0875 20.7434L31.3575 19.8324Z" fill="#68C76F"/>
</svg>
