<svg width="322" height="349" viewBox="0 0 322 349" fill="none" xmlns="http://www.w3.org/2000/svg">
<g filter="url(#filter0_d_245_1976)">
<g clip-path="url(#clip0_245_1976)">
<rect x="4" y="4" width="314" height="341" rx="20" fill="#4B628A"/>
<path d="M37.1055 37.9656V39.9187H32.8281V42.7507H36.4023V44.6453H32.8281V47.8289C34.7324 47.8191 36.1387 47.7117 37.7891 47.4382L38.0039 49.45C35.9727 49.821 34.2539 49.8406 31.6562 49.8406H30.4648V37.9656H37.1055ZM45.3281 35.9929V53.7664H42.9258V35.9929H45.3281ZM41.5586 36.3054V52.9656H39.2344V44.4695H37.2422V42.4773H39.2344V36.3054H41.5586ZM56.3047 37.6726V49.4304H47.7695V37.6726H56.3047ZM50.2305 39.6257V47.4578H53.8242V39.6257H50.2305ZM61.2266 35.9929V42.6921H63.8438V44.7625H61.2266V53.7664H58.7266V35.9929H61.2266ZM79.4688 35.9929V45.1335H76.9883V43.3562H73.707V44.6257H65.25V36.7546H67.75V38.825H71.2461V36.7546H73.707V38.2585H76.9883V35.9929H79.4688ZM79.4688 45.7976V50.5437H70.1523V51.6179H79.9961V53.571H67.6523V48.7273H76.9883V47.7117H67.6328V45.7976H79.4688ZM67.75 42.6726H71.2461V40.7195H67.75V42.6726ZM73.707 41.4812H76.9883V40.114H73.707V41.4812ZM102.594 44.8015V46.8132H86.3828V44.8015H93.2188V43.2976H88.4531V36.4226H90.9141V38.0437H98.043V36.4226H100.523V43.2976H95.7188V44.8015H102.594ZM100.621 48.0242V53.7664H98.1406V49.9968H88.1797V48.0242H100.621ZM90.9141 41.3445H98.043V39.8796H90.9141V41.3445ZM110.562 40.8367C110.562 43.7078 112.027 46.7742 115.016 48.0242L113.668 49.9773C111.568 49.0886 110.123 47.321 109.332 45.1531C108.521 47.5066 107.047 49.4597 104.957 50.4265L103.531 48.4539C106.48 47.1453 108.004 43.8445 108.004 40.8367V39.7429H104.234V37.7117H114.273V39.7429H110.562V40.8367ZM118.551 35.9929V53.7664H116.031V35.9929H118.551ZM127.496 40.0164C127.477 43.2 128.844 46.4226 131.695 47.7898L130.191 49.782C128.287 48.8445 127.008 47.0867 126.266 44.9382C125.494 47.2429 124.117 49.1277 122.105 50.114L120.562 48.1023C123.57 46.7156 124.996 43.3171 124.996 40.0164V37.3601H127.496V40.0164ZM134.977 35.9929V42.8484H137.594V44.9578H134.977V53.7664H132.477V35.9929H134.977ZM143.199 36.7546C145.475 36.7351 147.281 38.0339 147.77 39.9382H150.738V35.9929H153.219V45.5437H150.738V41.9304H147.789C147.32 43.8835 145.494 45.2117 143.199 45.2117C140.465 45.2117 138.453 43.4343 138.473 40.9539C138.453 38.5125 140.465 36.7351 143.199 36.7546ZM143.199 38.825C141.812 38.8054 140.816 39.6257 140.836 40.9539C140.816 42.282 141.812 43.1218 143.199 43.1218C144.547 43.1218 145.523 42.282 145.523 40.9539C145.523 39.6257 144.547 38.8054 143.199 38.825ZM143.824 46.325V48.0437H150.738V46.325H153.219V53.571H141.363V46.325H143.824ZM143.824 51.5593H150.738V49.9578H143.824V51.5593ZM176.344 46.6375V48.6687H169.449V53.7859H166.988V48.6687H160.133V46.6375H176.344ZM174.859 38.0437V39.9968H169.527C169.811 41.5593 171.812 43.3171 175.484 43.7273L174.586 45.6804C171.578 45.3386 169.4 44.1082 168.238 42.4773C167.086 44.1277 164.889 45.3386 161.852 45.6804L160.953 43.7273C164.625 43.3171 166.646 41.5691 166.949 39.9968H161.598V38.0437H166.988V36.0125H169.449V38.0437H174.859ZM183.961 40.1726C183.961 42.1648 185.27 44.2156 188.16 45.0945L186.969 47.0281C184.977 46.4617 183.57 45.241 182.77 43.6882C181.979 45.3679 180.562 46.6863 178.512 47.321L177.301 45.3679C180.191 44.5085 181.48 42.3406 181.48 40.1726V40.0359H177.906V38.0828H181.48V36.1101H184V38.0828H187.555V40.0359H183.961V40.1726ZM192.398 36.0125V49.196H189.918V43.2H186.969V41.1882H189.918V36.0125H192.398ZM192.828 51.4617V53.4539H180.602V48.0632H183.102V51.4617H192.828ZM202.809 36.8914C206.559 36.9109 209.488 38.9226 209.508 42.0085C209.488 45.114 206.559 47.1453 202.809 47.1257C199.039 47.1453 196.129 45.114 196.129 42.0085C196.129 38.9226 199.039 36.9109 202.809 36.8914ZM202.809 38.9226C200.348 38.9031 198.551 40.0945 198.551 42.0085C198.551 43.9421 200.348 45.0945 202.809 45.0945C205.27 45.0945 207.027 43.9421 207.047 42.0085C207.027 40.0945 205.27 38.9031 202.809 38.9226ZM210.973 49.5867V51.5984H194.703V49.5867H210.973ZM228.258 49.7429V51.7937H211.988V49.7429H218.844V47.0671H213.863V41.0906H223.922V39.1375H213.844V37.1453H226.383V43.0437H216.363V45.0359H226.793V47.0671H221.324V49.7429H228.258ZM44.6641 59.9929V66.5554H46.4609V68.6257H44.6641V77.7664H42.2031V59.9929H44.6641ZM32.1055 61.5945V65.7156H33.2383V61.5945H35.2695V73.6648H30.0547V61.5945H32.1055ZM32.1055 71.614H33.2383V67.6882H32.1055V71.614ZM38.0039 61.5945V65.7156H39.1562V61.5945H41.1875V73.6648H35.9922V61.5945H38.0039ZM38.0039 71.614H39.1562V67.6882H38.0039V71.614ZM63.4531 69.6023V71.5945H47.1836V69.6023H63.4531ZM61.8711 75.4617V77.4539H49.2344V72.571H51.7344V75.4617H61.8711ZM61.4805 60.4031V65.3054H51.6953V66.575H61.8125V68.45H49.2148V63.5281H58.9805V62.3171H49.1758V60.4031H61.4805ZM85.3086 68.8015V70.8132H69.0977V68.8015H75.9336V67.2976H71.168V60.4226H73.6289V62.0437H80.7578V60.4226H83.2383V67.2976H78.4336V68.8015H85.3086ZM83.3359 72.0242V77.7664H80.8555V73.9968H70.8945V72.0242H83.3359ZM73.6289 65.3445H80.7578V63.8796H73.6289V65.3445ZM93.2773 64.8367C93.2773 67.7078 94.7422 70.7742 97.7305 72.0242L96.3828 73.9773C94.2832 73.0886 92.8379 71.321 92.0469 69.1531C91.2363 71.5066 89.7617 73.4597 87.6719 74.4265L86.2461 72.4539C89.1953 71.1453 90.7188 67.8445 90.7188 64.8367V63.7429H86.9492V61.7117H96.9883V63.7429H93.2773V64.8367ZM101.266 59.9929V77.7664H98.7461V59.9929H101.266ZM118.648 59.9929V70.5398H116.168V66.3406H113.395V64.3289H116.168V59.9929H118.648ZM112.574 70.9304C116.363 70.95 118.688 72.2 118.707 74.3679C118.688 76.5164 116.363 77.7859 112.574 77.7859C108.785 77.7859 106.461 76.5164 106.461 74.3679C106.461 72.2 108.785 70.95 112.574 70.9304ZM112.574 72.8445C110.211 72.8445 108.941 73.3328 108.941 74.3679C108.941 75.3835 110.211 75.8914 112.574 75.8914C114.938 75.8914 116.227 75.3835 116.227 74.3679C116.227 73.3328 114.938 72.8445 112.574 72.8445ZM113.922 61.0671V63.0593H110.387C110.445 65.1296 111.695 67.2195 114.469 68.1375L113.238 70.0906C111.275 69.4558 109.928 68.1667 109.156 66.5554C108.365 68.3718 106.949 69.8367 104.84 70.5593L103.551 68.5867C106.471 67.6101 107.779 65.2859 107.848 63.0593H104.273V61.0671H113.922ZM137.223 73.6648V75.696H120.953V73.6648H127.809V70.3835H122.672V61.1257H125.172V63.8796H132.926V61.1257H135.406V70.3835H130.289V73.6648H137.223ZM125.172 68.3914H132.926V65.8718H125.172V68.3914ZM157.066 60.0125V65.0906H159.332V67.1414H157.066V72.0828H154.566V60.0125H157.066ZM142.652 69.7976C143.951 69.7976 145.436 69.7976 146.969 69.7585V68.7625C145.035 68.489 143.824 67.5515 143.844 66.1843C143.824 64.5437 145.562 63.5281 148.199 63.5281C150.816 63.5281 152.535 64.5437 152.555 66.1843C152.535 67.5515 151.354 68.4792 149.449 68.7429V69.6609C150.914 69.6023 152.369 69.4851 153.746 69.3093L153.922 71.0281C150.172 71.6921 146.051 71.7312 142.906 71.7312L142.652 69.7976ZM157.066 72.8054V77.7664H154.566V74.7195H144.918V72.8054H157.066ZM153.297 61.3015V63.1179H143.121V61.3015H146.969V59.8562H149.449V61.3015H153.297ZM148.199 65.1882C146.93 65.1882 146.207 65.5007 146.227 66.1843C146.207 66.8289 146.93 67.2 148.199 67.2C149.449 67.2 150.152 66.8289 150.172 66.1843C150.152 65.5007 149.449 65.1882 148.199 65.1882ZM175.016 60.0125V72.7859H172.516V60.0125H175.016ZM175.484 75.4617V77.4539H163.102V71.4968H165.621V75.4617H175.484ZM165.27 61.1453C168.004 61.1453 170.133 63.0203 170.133 65.6179C170.133 68.2742 168.004 70.1296 165.27 70.1296C162.535 70.1296 160.406 68.2742 160.406 65.6179C160.406 63.0203 162.535 61.1453 165.27 61.1453ZM165.27 63.3132C163.883 63.2937 162.828 64.1726 162.848 65.6179C162.828 67.1023 163.883 67.9617 165.27 67.9617C166.617 67.9617 167.672 67.1023 167.672 65.6179C167.672 64.1726 166.617 63.2937 165.27 63.3132ZM192.301 59.9929V77.8054H189.781V59.9929H192.301ZM182.652 61.2429C185.328 61.2429 187.32 63.7039 187.32 67.571C187.32 71.4773 185.328 73.9187 182.652 73.9187C179.918 73.9187 177.926 71.4773 177.945 67.571C177.926 63.7039 179.918 61.2429 182.652 61.2429ZM182.652 63.489C181.266 63.489 180.348 64.9343 180.348 67.571C180.348 70.2273 181.266 71.6531 182.652 71.6531C184 71.6531 184.918 70.2273 184.918 67.571C184.918 64.9343 184 63.489 182.652 63.489ZM213.336 59.9929V66.8093H215.855V68.8601H213.336V77.7273H210.836V59.9929H213.336ZM208.59 61.8093C208.57 67.1218 206.5 71.7312 200.523 74.6609L199.117 72.7468C203.326 70.6375 205.582 67.8054 206.051 63.8406H200.133V61.8093H208.59ZM231.012 64.446V66.4382H218.648V60.2664H221.129V64.446H231.012ZM232.848 67.9617V69.9929H216.598V67.9617H232.848ZM224.684 71.1062C228.531 71.1257 230.855 72.3171 230.875 74.407C230.855 76.5164 228.531 77.7078 224.684 77.7078C220.797 77.7078 218.453 76.5164 218.453 74.407C218.453 72.3171 220.797 71.1257 224.684 71.1062ZM224.684 73.0398C222.223 73.0593 220.973 73.4695 220.992 74.407C220.973 75.325 222.223 75.8132 224.684 75.8132C227.086 75.8132 228.355 75.325 228.375 74.407C228.355 73.4695 227.086 73.0593 224.684 73.0398ZM242.457 62.7078V64.6804H233.863V62.7078H236.949V60.4812H239.41V62.7078H242.457ZM238.199 65.4812C240.465 65.4812 242.086 67.239 242.105 69.7C242.086 72.1804 240.465 73.9382 238.199 73.9382C235.934 73.9382 234.273 72.1804 234.273 69.7C234.273 67.239 235.934 65.4812 238.199 65.4812ZM238.199 67.5515C237.164 67.5515 236.461 68.3523 236.461 69.7C236.461 71.0476 237.164 71.8289 238.199 71.8289C239.195 71.8289 239.898 71.0476 239.918 69.7C239.898 68.3523 239.195 67.5515 238.199 67.5515ZM249.254 59.9929V77.7664H246.891V69.2117H245.445V77.0046H243.121V60.3445H245.445V67.2195H246.891V59.9929H249.254ZM267.438 73.6453V75.696H251.168V73.6453H254.801V69.2898C253.424 68.4695 252.594 67.2097 252.594 65.6375C252.594 62.7664 255.406 60.8523 259.273 60.8523C263.121 60.8523 265.953 62.7664 265.973 65.6375C265.963 67.1707 265.152 68.4207 263.824 69.2507V73.6453H267.438ZM259.273 62.825C256.734 62.825 255.055 63.8406 255.055 65.6375C255.055 67.3757 256.734 68.45 259.273 68.45C261.793 68.45 263.492 67.3757 263.512 65.6375C263.492 63.8406 261.793 62.825 259.273 62.825ZM257.262 73.6453H261.305V70.1882C260.67 70.3152 259.986 70.3835 259.273 70.3835C258.561 70.3835 257.887 70.325 257.262 70.1882V73.6453Z" fill="#FAFAFA"/>
<path d="M-84.6289 233.729C-122.599 206.375 -212.726 233.559 -253.043 250.571V266.42C-231.578 255.145 -165.882 244.62 -155.734 243.117C-145.585 241.613 -115.516 240.364 -112.509 248.53C-109.502 256.695 -130.927 280.703 -133.558 300.248C-136.189 319.793 -120.778 336.707 -95.5953 336.332C-70.4123 335.956 -48.612 321.297 -18.5427 298.034C11.5266 274.77 29.5681 267.548 45.3545 264.541C60.8943 261.581 90.4344 270.664 94.7811 272.001L94.9688 272.058C99.0653 273.316 119.776 277.696 142.328 280.703C164.88 283.71 199.084 281.079 214.494 272.058C229.905 263.038 228.025 251.081 224.267 242.365C220.508 233.649 195.701 213.423 165.256 200.644C140.9 190.42 137.818 182.602 139.321 179.971C144.734 168.545 222.724 163.721 261.043 162.737L258.836 149.522C256.284 149.012 186.732 153.509 181.263 154.115C176.191 154.677 115.428 162.281 109.814 176.06C104.2 189.84 112.366 198.005 149.621 218.419C186.877 238.833 188.408 244.447 186.367 248.53C184.325 252.613 175.649 267.413 115.428 251.081C55.2069 234.75 48.2943 238.844 36.8343 240.364C8.49835 244.122 -51.9664 284.254 -60.132 289.868C-68.2976 295.482 -84.6289 307.22 -90.7529 298.034C-95.6521 290.685 -87.7484 278.543 -84.6289 269.964C-74.8303 243.018 -78.616 239.135 -84.6289 233.729Z" fill="#C6C6CF"/>
<path d="M-84.6289 227.933C-122.599 200.578 -212.726 227.762 -253.043 244.774V260.624C-231.578 249.348 -165.882 238.823 -155.734 237.32C-145.585 235.816 -115.516 234.567 -112.509 242.733C-109.502 250.898 -130.927 274.907 -133.558 294.452C-136.189 313.997 -120.778 330.911 -95.5953 330.535C-70.4123 330.159 -48.612 315.5 -18.5427 292.237C11.5266 268.973 29.5681 261.751 45.3545 258.744C60.8943 255.784 90.4344 264.867 94.7811 266.204L94.9688 266.262C99.0653 267.519 119.776 271.9 142.328 274.907C164.88 277.913 199.084 275.282 214.494 266.262C229.905 257.241 228.025 245.285 224.267 236.568C220.508 227.852 195.701 207.626 165.256 194.847C140.9 184.623 137.818 176.805 139.321 174.174C144.734 162.748 222.724 157.924 261.043 156.94L258.836 143.725C256.284 143.215 186.732 147.713 181.263 148.318C176.191 148.88 115.428 156.484 109.814 170.263C104.2 184.043 112.366 192.208 149.621 212.622C186.877 233.036 188.408 238.65 186.367 242.733C184.325 246.816 175.649 261.616 115.428 245.285C55.2069 228.953 48.2943 233.047 36.8343 234.567C8.49835 238.326 -51.9664 278.457 -60.132 284.071C-68.2976 289.685 -84.6289 301.423 -90.7529 292.237C-95.6521 284.888 -87.7484 272.746 -84.6289 264.168C-74.8303 237.221 -78.616 233.338 -84.6289 227.933Z" fill="#F0F0F0"/>
<path d="M-84.6289 225.248C-122.599 197.893 -212.726 225.078 -253.043 242.089V257.939C-231.578 246.663 -165.882 236.139 -155.734 234.635C-145.585 233.132 -115.516 231.882 -112.509 240.048C-109.502 248.214 -130.927 272.222 -133.558 291.767C-136.189 311.312 -120.778 328.226 -95.5953 327.85C-70.4123 327.474 -48.612 312.815 -18.5427 289.552C11.5266 266.289 29.5681 259.066 45.3545 256.059C61.1409 253.053 91.3516 262.555 94.9688 263.577C99.6137 264.888 119.776 269.215 142.328 272.222C164.88 275.229 199.084 272.598 214.494 263.577C229.905 254.556 228.458 242.4 224.267 233.883C218.26 221.676 195.701 204.942 165.256 192.162C140.9 181.939 137.818 174.121 139.321 171.49C144.734 160.063 222.724 155.239 261.043 154.255L258.836 141.04C256.284 140.53 186.732 145.028 181.263 145.634C176.191 146.195 115.428 153.799 109.814 167.579C104.2 181.358 112.366 189.524 149.621 209.937C186.877 230.351 188.408 235.965 186.367 240.048C184.325 244.131 175.649 258.931 115.428 242.6C55.2069 226.269 48.2943 230.363 36.8343 231.882C8.49835 235.641 -51.9664 275.772 -60.132 281.386C-68.2976 287 -84.6289 298.738 -90.7529 289.552C-95.6521 282.203 -87.7484 270.062 -84.6289 261.483C-74.8303 234.536 -78.616 230.653 -84.6289 225.248Z" fill="#2B2B38" stroke="black" stroke-width="0.3"/>
<path d="M-84.6289 233.729C-122.599 206.375 -212.726 233.559 -253.043 250.571V266.42C-231.578 255.145 -165.882 244.62 -155.734 243.117C-145.585 241.613 -115.516 240.364 -112.509 248.53C-109.502 256.695 -130.927 280.703 -133.558 300.248C-136.189 319.793 -120.778 336.707 -95.5953 336.332C-70.4123 335.956 -48.612 321.297 -18.5427 298.034C11.5266 274.77 29.5681 267.548 45.3545 264.541C60.8943 261.581 90.4344 270.664 94.7811 272.001L94.9688 272.058C99.0653 273.316 119.776 277.696 142.328 280.703C164.88 283.71 199.084 281.079 214.494 272.058C229.905 263.038 228.025 251.081 224.267 242.365C220.508 233.649 195.701 213.423 165.256 200.644C140.9 190.42 137.818 182.602 139.321 179.971C144.734 168.545 222.724 163.721 261.043 162.737L258.836 149.522C256.284 149.012 186.732 153.509 181.263 154.115C176.191 154.677 115.428 162.281 109.814 176.06C104.2 189.84 112.366 198.005 149.621 218.419C186.877 238.833 188.408 244.447 186.367 248.53C184.325 252.613 175.649 267.413 115.428 251.081C55.2069 234.75 48.2943 238.844 36.8343 240.364C8.49835 244.122 -51.9664 284.254 -60.132 289.868C-68.2976 295.482 -84.6289 307.22 -90.7529 298.034C-95.6521 290.685 -87.7484 278.543 -84.6289 269.964C-74.8303 243.018 -78.616 239.135 -84.6289 233.729Z" fill="#C6C6CF"/>
<path d="M-84.6289 227.933C-122.599 200.578 -212.726 227.762 -253.043 244.774V260.624C-231.578 249.348 -165.882 238.823 -155.734 237.32C-145.585 235.816 -115.516 234.567 -112.509 242.733C-109.502 250.898 -130.927 274.907 -133.558 294.452C-136.189 313.997 -120.778 330.911 -95.5953 330.535C-70.4123 330.159 -48.612 315.5 -18.5427 292.237C11.5266 268.973 29.5681 261.751 45.3545 258.744C60.8943 255.784 90.4344 264.867 94.7811 266.204L94.9688 266.262C99.0653 267.519 119.776 271.9 142.328 274.907C164.88 277.913 199.084 275.282 214.494 266.262C229.905 257.241 228.025 245.285 224.267 236.568C220.508 227.852 195.701 207.626 165.256 194.847C140.9 184.623 137.818 176.805 139.321 174.174C144.734 162.748 222.724 157.924 261.043 156.94L258.836 143.725C256.284 143.215 186.732 147.713 181.263 148.318C176.191 148.88 115.428 156.484 109.814 170.263C104.2 184.043 112.366 192.208 149.621 212.622C186.877 233.036 188.408 238.65 186.367 242.733C184.325 246.816 175.649 261.616 115.428 245.285C55.2069 228.953 48.2943 233.047 36.8343 234.567C8.49835 238.326 -51.9664 278.457 -60.132 284.071C-68.2976 289.685 -84.6289 301.423 -90.7529 292.237C-95.6521 284.888 -87.7484 272.746 -84.6289 264.168C-74.8303 237.221 -78.616 233.338 -84.6289 227.933Z" fill="#F0F0F0"/>
<path d="M-84.6289 225.248C-122.599 197.893 -212.726 225.078 -253.043 242.089V257.939C-231.578 246.663 -165.882 236.139 -155.734 234.635C-145.585 233.132 -115.516 231.882 -112.509 240.048C-109.502 248.214 -130.927 272.222 -133.558 291.767C-136.189 311.312 -120.778 328.226 -95.5953 327.85C-70.4123 327.474 -48.612 312.815 -18.5427 289.552C11.5266 266.289 29.5681 259.066 45.3545 256.059C61.1409 253.053 91.3516 262.555 94.9688 263.577C99.6137 264.888 119.776 269.215 142.328 272.222C164.88 275.229 199.084 272.598 214.494 263.577C229.905 254.556 228.458 242.4 224.267 233.883C218.26 221.676 195.701 204.942 165.256 192.162C140.9 181.939 137.818 174.121 139.321 171.49C144.734 160.063 222.724 155.239 261.043 154.255L258.836 141.04C256.284 140.53 186.732 145.028 181.263 145.634C176.191 146.195 115.428 153.799 109.814 167.579C104.2 181.358 112.366 189.524 149.621 209.937C186.877 230.351 188.408 235.965 186.367 240.048C184.325 244.131 175.649 258.931 115.428 242.6C55.2069 226.269 48.2943 230.363 36.8343 231.882C8.49835 235.641 -51.9664 275.772 -60.132 281.386C-68.2976 287 -84.6289 298.738 -90.7529 289.552C-95.6521 282.203 -87.7484 270.062 -84.6289 261.483C-74.8303 234.536 -78.616 230.653 -84.6289 225.248Z" fill="#2B2B38" stroke="black" stroke-width="0.3"/>
<path d="M-253.043 249.169C-236.431 243.129 -198.087 230.232 -177.609 226.97C-152.012 222.892 -109.878 218.588 -99.6841 230.367C-89.4904 242.147 -107.057 264.98 -111.237 273.634C-116.054 283.606 -123.47 309.652 -81.3354 306.708C-70.9509 305.399 -54.3332 296.242 -9.75243 262.535C45.9735 220.4 97.9207 250.409 103.059 251.661C114.383 254.422 177.36 269.557 200.466 249.622C223.572 229.688 158.332 201.598 154.707 198.88C151.083 196.162 103.965 175.548 129.336 163.995C149.633 154.753 222.796 148.798 256.841 146.977" stroke="#C6C6C6" stroke-dasharray="16 16"/>
<path d="M280.391 133.062C280.391 144.016 265.766 163.516 259.353 171.562C257.816 173.479 254.966 173.479 253.428 171.562C246.903 163.516 232.391 144.016 232.391 133.062C232.391 119.773 243.136 109 256.391 109C269.641 109 280.391 119.773 280.391 133.062Z" fill="#B9E6E9"/>
<circle cx="256.391" cy="133" r="8" fill="#FAFAFA"/>
</g>
</g>
<defs>
<filter id="filter0_d_245_1976" x="0" y="0" width="322" height="349" filterUnits="userSpaceOnUse" color-interpolation-filters="sRGB">
<feFlood flood-opacity="0" result="BackgroundImageFix"/>
<feColorMatrix in="SourceAlpha" type="matrix" values="0 0 0 0 0 0 0 0 0 0 0 0 0 0 0 0 0 0 127 0" result="hardAlpha"/>
<feOffset/>
<feGaussianBlur stdDeviation="2"/>
<feComposite in2="hardAlpha" operator="out"/>
<feColorMatrix type="matrix" values="0 0 0 0 0 0 0 0 0 0 0 0 0 0 0 0 0 0 0.25 0"/>
<feBlend mode="normal" in2="BackgroundImageFix" result="effect1_dropShadow_245_1976"/>
<feBlend mode="normal" in="SourceGraphic" in2="effect1_dropShadow_245_1976" result="shape"/>
</filter>
<clipPath id="clip0_245_1976">
<rect x="4" y="4" width="314" height="341" rx="20" fill="white"/>
</clipPath>
</defs>
</svg>
