<svg width="323" height="349" viewBox="0 0 323 349" fill="none" xmlns="http://www.w3.org/2000/svg">
<g filter="url(#filter0_d_90_1757)">
<g clip-path="url(#clip0_90_1757)">
<rect x="4.5" y="4" width="314" height="341" rx="20" fill="#4B628A"/>
<path d="M37.6055 37.9656V39.9187H33.3281V42.7507H36.9023V44.6453H33.3281V47.8289C35.2324 47.8191 36.6387 47.7117 38.2891 47.4382L38.5039 49.45C36.4727 49.821 34.7539 49.8406 32.1562 49.8406H30.9648V37.9656H37.6055ZM45.8281 35.9929V53.7664H43.4258V35.9929H45.8281ZM42.0586 36.3054V52.9656H39.7344V44.4695H37.7422V42.4773H39.7344V36.3054H42.0586ZM56.8047 37.6726V49.4304H48.2695V37.6726H56.8047ZM50.7305 39.6257V47.4578H54.3242V39.6257H50.7305ZM61.7266 35.9929V42.6921H64.3438V44.7625H61.7266V53.7664H59.2266V35.9929H61.7266ZM79.9688 35.9929V45.1335H77.4883V43.3562H74.207V44.6257H65.75V36.7546H68.25V38.825H71.7461V36.7546H74.207V38.2585H77.4883V35.9929H79.9688ZM79.9688 45.7976V50.5437H70.6523V51.6179H80.4961V53.571H68.1523V48.7273H77.4883V47.7117H68.1328V45.7976H79.9688ZM68.25 42.6726H71.7461V40.7195H68.25V42.6726ZM74.207 41.4812H77.4883V40.114H74.207V41.4812ZM103.094 44.8015V46.8132H86.8828V44.8015H93.7188V43.2976H88.9531V36.4226H91.4141V38.0437H98.543V36.4226H101.023V43.2976H96.2188V44.8015H103.094ZM101.121 48.0242V53.7664H98.6406V49.9968H88.6797V48.0242H101.121ZM91.4141 41.3445H98.543V39.8796H91.4141V41.3445ZM111.062 40.8367C111.062 43.7078 112.527 46.7742 115.516 48.0242L114.168 49.9773C112.068 49.0886 110.623 47.321 109.832 45.1531C109.021 47.5066 107.547 49.4597 105.457 50.4265L104.031 48.4539C106.98 47.1453 108.504 43.8445 108.504 40.8367V39.7429H104.734V37.7117H114.773V39.7429H111.062V40.8367ZM119.051 35.9929V53.7664H116.531V35.9929H119.051ZM127.996 40.0164C127.977 43.2 129.344 46.4226 132.195 47.7898L130.691 49.782C128.787 48.8445 127.508 47.0867 126.766 44.9382C125.994 47.2429 124.617 49.1277 122.605 50.114L121.062 48.1023C124.07 46.7156 125.496 43.3171 125.496 40.0164V37.3601H127.996V40.0164ZM135.477 35.9929V42.8484H138.094V44.9578H135.477V53.7664H132.977V35.9929H135.477ZM143.699 36.7546C145.975 36.7351 147.781 38.0339 148.27 39.9382H151.238V35.9929H153.719V45.5437H151.238V41.9304H148.289C147.82 43.8835 145.994 45.2117 143.699 45.2117C140.965 45.2117 138.953 43.4343 138.973 40.9539C138.953 38.5125 140.965 36.7351 143.699 36.7546ZM143.699 38.825C142.312 38.8054 141.316 39.6257 141.336 40.9539C141.316 42.282 142.312 43.1218 143.699 43.1218C145.047 43.1218 146.023 42.282 146.023 40.9539C146.023 39.6257 145.047 38.8054 143.699 38.825ZM144.324 46.325V48.0437H151.238V46.325H153.719V53.571H141.863V46.325H144.324ZM144.324 51.5593H151.238V49.9578H144.324V51.5593ZM176.844 46.6375V48.6687H169.949V53.7859H167.488V48.6687H160.633V46.6375H176.844ZM175.359 38.0437V39.9968H170.027C170.311 41.5593 172.312 43.3171 175.984 43.7273L175.086 45.6804C172.078 45.3386 169.9 44.1082 168.738 42.4773C167.586 44.1277 165.389 45.3386 162.352 45.6804L161.453 43.7273C165.125 43.3171 167.146 41.5691 167.449 39.9968H162.098V38.0437H167.488V36.0125H169.949V38.0437H175.359ZM184.461 40.1726C184.461 42.1648 185.77 44.2156 188.66 45.0945L187.469 47.0281C185.477 46.4617 184.07 45.241 183.27 43.6882C182.479 45.3679 181.062 46.6863 179.012 47.321L177.801 45.3679C180.691 44.5085 181.98 42.3406 181.98 40.1726V40.0359H178.406V38.0828H181.98V36.1101H184.5V38.0828H188.055V40.0359H184.461V40.1726ZM192.898 36.0125V49.196H190.418V43.2H187.469V41.1882H190.418V36.0125H192.898ZM193.328 51.4617V53.4539H181.102V48.0632H183.602V51.4617H193.328ZM203.309 36.8914C207.059 36.9109 209.988 38.9226 210.008 42.0085C209.988 45.114 207.059 47.1453 203.309 47.1257C199.539 47.1453 196.629 45.114 196.629 42.0085C196.629 38.9226 199.539 36.9109 203.309 36.8914ZM203.309 38.9226C200.848 38.9031 199.051 40.0945 199.051 42.0085C199.051 43.9421 200.848 45.0945 203.309 45.0945C205.77 45.0945 207.527 43.9421 207.547 42.0085C207.527 40.0945 205.77 38.9031 203.309 38.9226ZM211.473 49.5867V51.5984H195.203V49.5867H211.473ZM228.758 49.7429V51.7937H212.488V49.7429H219.344V47.0671H214.363V41.0906H224.422V39.1375H214.344V37.1453H226.883V43.0437H216.863V45.0359H227.293V47.0671H221.824V49.7429H228.758ZM45.1641 59.9929V66.5554H46.9609V68.6257H45.1641V77.7664H42.7031V59.9929H45.1641ZM32.6055 61.5945V65.7156H33.7383V61.5945H35.7695V73.6648H30.5547V61.5945H32.6055ZM32.6055 71.614H33.7383V67.6882H32.6055V71.614ZM38.5039 61.5945V65.7156H39.6562V61.5945H41.6875V73.6648H36.4922V61.5945H38.5039ZM38.5039 71.614H39.6562V67.6882H38.5039V71.614ZM63.9531 69.6023V71.5945H47.6836V69.6023H63.9531ZM62.3711 75.4617V77.4539H49.7344V72.571H52.2344V75.4617H62.3711ZM61.9805 60.4031V65.3054H52.1953V66.575H62.3125V68.45H49.7148V63.5281H59.4805V62.3171H49.6758V60.4031H61.9805ZM85.8086 68.8015V70.8132H69.5977V68.8015H76.4336V67.2976H71.668V60.4226H74.1289V62.0437H81.2578V60.4226H83.7383V67.2976H78.9336V68.8015H85.8086ZM83.8359 72.0242V77.7664H81.3555V73.9968H71.3945V72.0242H83.8359ZM74.1289 65.3445H81.2578V63.8796H74.1289V65.3445ZM93.7773 64.8367C93.7773 67.7078 95.2422 70.7742 98.2305 72.0242L96.8828 73.9773C94.7832 73.0886 93.3379 71.321 92.5469 69.1531C91.7363 71.5066 90.2617 73.4597 88.1719 74.4265L86.7461 72.4539C89.6953 71.1453 91.2188 67.8445 91.2188 64.8367V63.7429H87.4492V61.7117H97.4883V63.7429H93.7773V64.8367ZM101.766 59.9929V77.7664H99.2461V59.9929H101.766ZM119.148 59.9929V70.5398H116.668V66.3406H113.895V64.3289H116.668V59.9929H119.148ZM113.074 70.9304C116.863 70.95 119.188 72.2 119.207 74.3679C119.188 76.5164 116.863 77.7859 113.074 77.7859C109.285 77.7859 106.961 76.5164 106.961 74.3679C106.961 72.2 109.285 70.95 113.074 70.9304ZM113.074 72.8445C110.711 72.8445 109.441 73.3328 109.441 74.3679C109.441 75.3835 110.711 75.8914 113.074 75.8914C115.438 75.8914 116.727 75.3835 116.727 74.3679C116.727 73.3328 115.438 72.8445 113.074 72.8445ZM114.422 61.0671V63.0593H110.887C110.945 65.1296 112.195 67.2195 114.969 68.1375L113.738 70.0906C111.775 69.4558 110.428 68.1667 109.656 66.5554C108.865 68.3718 107.449 69.8367 105.34 70.5593L104.051 68.5867C106.971 67.6101 108.279 65.2859 108.348 63.0593H104.773V61.0671H114.422ZM137.723 73.6648V75.696H121.453V73.6648H128.309V70.3835H123.172V61.1257H125.672V63.8796H133.426V61.1257H135.906V70.3835H130.789V73.6648H137.723ZM125.672 68.3914H133.426V65.8718H125.672V68.3914ZM157.566 60.0125V65.0906H159.832V67.1414H157.566V72.0828H155.066V60.0125H157.566ZM143.152 69.7976C144.451 69.7976 145.936 69.7976 147.469 69.7585V68.7625C145.535 68.489 144.324 67.5515 144.344 66.1843C144.324 64.5437 146.062 63.5281 148.699 63.5281C151.316 63.5281 153.035 64.5437 153.055 66.1843C153.035 67.5515 151.854 68.4792 149.949 68.7429V69.6609C151.414 69.6023 152.869 69.4851 154.246 69.3093L154.422 71.0281C150.672 71.6921 146.551 71.7312 143.406 71.7312L143.152 69.7976ZM157.566 72.8054V77.7664H155.066V74.7195H145.418V72.8054H157.566ZM153.797 61.3015V63.1179H143.621V61.3015H147.469V59.8562H149.949V61.3015H153.797ZM148.699 65.1882C147.43 65.1882 146.707 65.5007 146.727 66.1843C146.707 66.8289 147.43 67.2 148.699 67.2C149.949 67.2 150.652 66.8289 150.672 66.1843C150.652 65.5007 149.949 65.1882 148.699 65.1882ZM175.516 60.0125V72.7859H173.016V60.0125H175.516ZM175.984 75.4617V77.4539H163.602V71.4968H166.121V75.4617H175.984ZM165.77 61.1453C168.504 61.1453 170.633 63.0203 170.633 65.6179C170.633 68.2742 168.504 70.1296 165.77 70.1296C163.035 70.1296 160.906 68.2742 160.906 65.6179C160.906 63.0203 163.035 61.1453 165.77 61.1453ZM165.77 63.3132C164.383 63.2937 163.328 64.1726 163.348 65.6179C163.328 67.1023 164.383 67.9617 165.77 67.9617C167.117 67.9617 168.172 67.1023 168.172 65.6179C168.172 64.1726 167.117 63.2937 165.77 63.3132ZM192.801 59.9929V77.8054H190.281V59.9929H192.801ZM183.152 61.2429C185.828 61.2429 187.82 63.7039 187.82 67.571C187.82 71.4773 185.828 73.9187 183.152 73.9187C180.418 73.9187 178.426 71.4773 178.445 67.571C178.426 63.7039 180.418 61.2429 183.152 61.2429ZM183.152 63.489C181.766 63.489 180.848 64.9343 180.848 67.571C180.848 70.2273 181.766 71.6531 183.152 71.6531C184.5 71.6531 185.418 70.2273 185.418 67.571C185.418 64.9343 184.5 63.489 183.152 63.489ZM213.836 59.9929V66.8093H216.355V68.8601H213.836V77.7273H211.336V59.9929H213.836ZM209.09 61.8093C209.07 67.1218 207 71.7312 201.023 74.6609L199.617 72.7468C203.826 70.6375 206.082 67.8054 206.551 63.8406H200.633V61.8093H209.09ZM231.512 64.446V66.4382H219.148V60.2664H221.629V64.446H231.512ZM233.348 67.9617V69.9929H217.098V67.9617H233.348ZM225.184 71.1062C229.031 71.1257 231.355 72.3171 231.375 74.407C231.355 76.5164 229.031 77.7078 225.184 77.7078C221.297 77.7078 218.953 76.5164 218.953 74.407C218.953 72.3171 221.297 71.1257 225.184 71.1062ZM225.184 73.0398C222.723 73.0593 221.473 73.4695 221.492 74.407C221.473 75.325 222.723 75.8132 225.184 75.8132C227.586 75.8132 228.855 75.325 228.875 74.407C228.855 73.4695 227.586 73.0593 225.184 73.0398ZM242.957 62.7078V64.6804H234.363V62.7078H237.449V60.4812H239.91V62.7078H242.957ZM238.699 65.4812C240.965 65.4812 242.586 67.239 242.605 69.7C242.586 72.1804 240.965 73.9382 238.699 73.9382C236.434 73.9382 234.773 72.1804 234.773 69.7C234.773 67.239 236.434 65.4812 238.699 65.4812ZM238.699 67.5515C237.664 67.5515 236.961 68.3523 236.961 69.7C236.961 71.0476 237.664 71.8289 238.699 71.8289C239.695 71.8289 240.398 71.0476 240.418 69.7C240.398 68.3523 239.695 67.5515 238.699 67.5515ZM249.754 59.9929V77.7664H247.391V69.2117H245.945V77.0046H243.621V60.3445H245.945V67.2195H247.391V59.9929H249.754ZM267.938 73.6453V75.696H251.668V73.6453H255.301V69.2898C253.924 68.4695 253.094 67.2097 253.094 65.6375C253.094 62.7664 255.906 60.8523 259.773 60.8523C263.621 60.8523 266.453 62.7664 266.473 65.6375C266.463 67.1707 265.652 68.4207 264.324 69.2507V73.6453H267.938ZM259.773 62.825C257.234 62.825 255.555 63.8406 255.555 65.6375C255.555 67.3757 257.234 68.45 259.773 68.45C262.293 68.45 263.992 67.3757 264.012 65.6375C263.992 63.8406 262.293 62.825 259.773 62.825ZM257.762 73.6453H261.805V70.1882C261.17 70.3152 260.486 70.3835 259.773 70.3835C259.061 70.3835 258.387 70.325 257.762 70.1882V73.6453Z" fill="#FAFAFA"/>
<path d="M-84.1289 233.729C-122.099 206.375 -212.226 233.559 -252.543 250.571V266.42C-231.078 255.145 -165.382 244.62 -155.234 243.117C-145.085 241.613 -115.016 240.364 -112.009 248.53C-109.002 256.695 -130.427 280.703 -133.058 300.248C-135.689 319.793 -120.278 336.707 -95.0953 336.332C-69.9123 335.956 -48.112 321.297 -18.0427 298.034C12.0266 274.77 30.0681 267.548 45.8545 264.541C61.3943 261.581 90.9344 270.664 95.2811 272.001L95.4688 272.058C99.5653 273.316 120.276 277.696 142.828 280.703C165.38 283.71 199.584 281.079 214.994 272.058C230.405 263.038 228.525 251.081 224.767 242.365C221.008 233.649 196.201 213.423 165.756 200.644C141.4 190.42 138.318 182.602 139.821 179.971C145.234 168.545 223.224 163.721 261.543 162.737L259.336 149.522C256.784 149.012 187.232 153.509 181.763 154.115C176.691 154.677 115.928 162.281 110.314 176.06C104.7 189.84 112.866 198.005 150.121 218.419C187.377 238.833 188.908 244.447 186.867 248.53C184.825 252.613 176.149 267.413 115.928 251.081C55.7069 234.75 48.7943 238.844 37.3343 240.364C8.99835 244.122 -51.4664 284.254 -59.632 289.868C-67.7976 295.482 -84.1289 307.22 -90.2529 298.034C-95.1521 290.685 -87.2484 278.543 -84.1289 269.964C-74.3303 243.018 -78.116 239.135 -84.1289 233.729Z" fill="#C6C6CF"/>
<path d="M-84.1289 227.933C-122.099 200.578 -212.226 227.762 -252.543 244.774V260.624C-231.078 249.348 -165.382 238.823 -155.234 237.32C-145.085 235.816 -115.016 234.567 -112.009 242.733C-109.002 250.898 -130.427 274.907 -133.058 294.452C-135.689 313.997 -120.278 330.911 -95.0953 330.535C-69.9123 330.159 -48.112 315.5 -18.0427 292.237C12.0266 268.973 30.0681 261.751 45.8545 258.744C61.3943 255.784 90.9344 264.867 95.2811 266.204L95.4688 266.262C99.5653 267.519 120.276 271.9 142.828 274.907C165.38 277.913 199.584 275.282 214.994 266.262C230.405 257.241 228.525 245.285 224.767 236.568C221.008 227.852 196.201 207.626 165.756 194.847C141.4 184.623 138.318 176.805 139.821 174.174C145.234 162.748 223.224 157.924 261.543 156.94L259.336 143.725C256.784 143.215 187.232 147.713 181.763 148.318C176.691 148.88 115.928 156.484 110.314 170.263C104.7 184.043 112.866 192.208 150.121 212.622C187.377 233.036 188.908 238.65 186.867 242.733C184.825 246.816 176.149 261.616 115.928 245.285C55.7069 228.953 48.7943 233.047 37.3343 234.567C8.99835 238.326 -51.4664 278.457 -59.632 284.071C-67.7976 289.685 -84.1289 301.423 -90.2529 292.237C-95.1521 284.888 -87.2484 272.746 -84.1289 264.168C-74.3303 237.221 -78.116 233.338 -84.1289 227.933Z" fill="#F0F0F0"/>
<path d="M-84.1289 225.248C-122.099 197.893 -212.226 225.078 -252.543 242.089V257.939C-231.078 246.663 -165.382 236.139 -155.234 234.635C-145.085 233.132 -115.016 231.882 -112.009 240.048C-109.002 248.214 -130.427 272.222 -133.058 291.767C-135.689 311.312 -120.278 328.226 -95.0953 327.85C-69.9123 327.474 -48.112 312.815 -18.0427 289.552C12.0266 266.289 30.0681 259.066 45.8545 256.059C61.6409 253.053 91.8516 262.555 95.4688 263.577C100.114 264.888 120.276 269.215 142.828 272.222C165.38 275.229 199.584 272.598 214.994 263.577C230.405 254.556 228.958 242.4 224.767 233.883C218.76 221.676 196.201 204.942 165.756 192.162C141.4 181.939 138.318 174.121 139.821 171.49C145.234 160.063 223.224 155.239 261.543 154.255L259.336 141.04C256.784 140.53 187.232 145.028 181.763 145.634C176.691 146.195 115.928 153.799 110.314 167.579C104.7 181.358 112.866 189.524 150.121 209.937C187.377 230.351 188.908 235.965 186.867 240.048C184.825 244.131 176.149 258.931 115.928 242.6C55.7069 226.269 48.7943 230.363 37.3343 231.882C8.99835 235.641 -51.4664 275.772 -59.632 281.386C-67.7976 287 -84.1289 298.738 -90.2529 289.552C-95.1521 282.203 -87.2484 270.062 -84.1289 261.483C-74.3303 234.536 -78.116 230.653 -84.1289 225.248Z" fill="#2B2B38" stroke="black" stroke-width="0.3"/>
<path d="M-252.543 249.169C-235.931 243.129 -197.587 230.232 -177.109 226.97C-151.512 222.892 -109.378 218.588 -99.1841 230.367C-88.9904 242.147 -106.557 264.98 -110.737 273.634C-115.554 283.606 -122.97 309.652 -80.8354 306.708C-70.4509 305.399 -53.8332 296.242 -9.25243 262.535C46.4735 220.4 98.4207 250.409 103.559 251.661C114.883 254.422 177.86 269.557 200.966 249.622C224.072 229.688 158.832 201.598 155.207 198.88C151.583 196.162 104.465 175.548 129.836 163.995C150.133 154.753 223.296 148.798 257.341 146.977" stroke="#C6C6C6" stroke-dasharray="16 16"/>
<path d="M280.891 133.062C280.891 144.016 266.266 163.516 259.853 171.562C258.316 173.479 255.466 173.479 253.928 171.562C247.403 163.516 232.891 144.016 232.891 133.062C232.891 119.773 243.636 109 256.891 109C270.141 109 280.891 119.773 280.891 133.062Z" fill="#B9E6E9"/>
<circle cx="256.891" cy="133" r="8" fill="#FAFAFA"/>
<rect x="26.5977" y="271.6" width="269.803" height="53.7378" rx="10" fill="#FAFAFA"/>
<path d="M80.0474 292.878V294.343H77.3521C77.3667 295.713 78.3774 297.104 80.5161 297.654L79.6519 299.089C78.1357 298.708 77.0664 297.866 76.4585 296.775C75.8799 298.02 74.8105 298.994 73.2358 299.441L72.3569 297.99C74.4956 297.383 75.4771 295.859 75.4917 294.343H72.811V292.878H75.4917V291.428H77.3813V292.878H80.0474ZM83.6802 291.487V299.543H81.8198V296.555H79.6519V295.061H81.8198V291.487H83.6802ZM79.1245 299.763C81.9663 299.778 83.7095 300.671 83.7241 302.268C83.7095 303.879 81.9663 304.817 79.1245 304.817C76.2974 304.817 74.5396 303.879 74.5396 302.268C74.5396 300.671 76.2974 299.778 79.1245 299.763ZM79.1245 301.198C77.3521 301.198 76.3999 301.55 76.3999 302.268C76.3999 303 77.3521 303.396 79.1245 303.396C80.9263 303.396 81.8638 303 81.8638 302.268C81.8638 301.55 80.9263 301.198 79.1245 301.198ZM96.644 291.501V301.301H94.7837V296.936H91.4731V295.471H94.7837V294.446H91.4731V292.981H94.7837V291.501H96.644ZM96.9663 303.088V304.582H87.7817V300.422H89.6567V303.088H96.9663ZM88.0015 292.336V298.034C89.6348 298.02 91.1582 297.91 92.8208 297.61L93.0112 299.118C91.019 299.499 89.2173 299.573 87.2251 299.573H86.1558V292.336H88.0015ZM113.988 298.093V299.602H101.83V298.093H106.957V296.965H103.382V291.809H105.228V293.025H110.575V291.809H112.435V296.965H108.832V298.093H113.988ZM112.508 300.51V304.817H110.648V301.99H103.177V300.51H112.508ZM105.228 295.5H110.575V294.402H105.228V295.5ZM119.964 295.119C119.964 297.273 121.063 299.573 123.304 300.51L122.293 301.975C120.719 301.308 119.635 299.983 119.042 298.357C118.434 300.122 117.328 301.587 115.76 302.312L114.691 300.832C116.903 299.851 118.045 297.375 118.045 295.119V294.299H115.218V292.776H122.748V294.299H119.964V295.119ZM125.956 291.487V304.817H124.066V291.487H125.956ZM132.665 294.504C132.65 296.892 133.675 299.309 135.814 300.334L134.686 301.828C133.258 301.125 132.298 299.807 131.742 298.196C131.163 299.924 130.13 301.338 128.622 302.077L127.464 300.569C129.72 299.529 130.79 296.98 130.79 294.504V292.512H132.665V294.504ZM138.275 291.487V296.628H140.238V298.21H138.275V304.817H136.4V291.487H138.275ZM144.442 292.058C146.148 292.043 147.503 293.017 147.87 294.446H150.096V291.487H151.957V298.65H150.096V295.94H147.884C147.533 297.405 146.163 298.401 144.442 298.401C142.391 298.401 140.882 297.068 140.897 295.207C140.882 293.376 142.391 292.043 144.442 292.058ZM144.442 293.611C143.402 293.596 142.655 294.211 142.669 295.207C142.655 296.203 143.402 296.833 144.442 296.833C145.453 296.833 146.185 296.203 146.185 295.207C146.185 294.211 145.453 293.596 144.442 293.611ZM144.911 299.236V300.525H150.096V299.236H151.957V304.67H143.065V299.236H144.911ZM144.911 303.161H150.096V301.96H144.911V303.161ZM169.344 301.799V303.337H157.142V301.799H162.284V299.792H158.548V295.31H166.092V293.845H158.534V292.351H167.938V296.775H160.423V298.269H168.246V299.792H164.144V301.799H169.344ZM180.975 297.654V299.148H171.542V292.6H180.873V294.109H173.387V297.654H180.975ZM182.308 301.653V303.191H170.106V301.653H182.308ZM194.525 291.501V298.738H192.752V295.793H191.639V298.65H189.896V291.736H191.639V294.27H192.752V291.501H194.525ZM188.841 292.351V298.181H183.539V292.351H188.841ZM185.296 293.801V296.716H187.098V293.801H185.296ZM187.259 299.28V300.495H192.679V299.28H194.525V304.67H185.414V299.28H187.259ZM187.259 303.176H192.679V301.975H187.259V303.176ZM211.693 301.74V303.264H199.491V301.74H204.632V299.28H200.78V292.336H202.655V294.402H208.47V292.336H210.331V299.28H206.493V301.74H211.693ZM202.655 297.785H208.47V295.896H202.655V297.785ZM223.69 291.487V304.846H221.83V297.815H219.676V296.291H221.83V291.487H223.69ZM218.929 292.6V297.595H214.784V300.202C216.622 300.188 218.182 300.122 219.896 299.822L220.042 301.345C218.065 301.667 216.249 301.74 214.022 301.74H212.923V296.115H217.113V294.109H212.894V292.6H218.929ZM235.936 291.487V296.599H237.826V298.137H235.936V304.787H234.061V291.487H235.936ZM232.376 292.849C232.362 296.833 230.809 300.29 226.327 302.488L225.272 301.052C228.429 299.47 230.121 297.346 230.472 294.372H226.034V292.849H232.376ZM249.588 291.487V304.817H247.699V291.487H249.588ZM245.589 292.878C245.589 296.921 244.168 300.276 239.408 302.531L238.426 301.037C241.869 299.411 243.385 297.302 243.685 294.343H239.144V292.878H245.589Z" fill="#4B628A"/>
</g>
</g>
<defs>
<filter id="filter0_d_90_1757" x="0.5" y="0" width="322" height="349" filterUnits="userSpaceOnUse" color-interpolation-filters="sRGB">
<feFlood flood-opacity="0" result="BackgroundImageFix"/>
<feColorMatrix in="SourceAlpha" type="matrix" values="0 0 0 0 0 0 0 0 0 0 0 0 0 0 0 0 0 0 127 0" result="hardAlpha"/>
<feOffset/>
<feGaussianBlur stdDeviation="2"/>
<feComposite in2="hardAlpha" operator="out"/>
<feColorMatrix type="matrix" values="0 0 0 0 0 0 0 0 0 0 0 0 0 0 0 0 0 0 0.25 0"/>
<feBlend mode="normal" in2="BackgroundImageFix" result="effect1_dropShadow_90_1757"/>
<feBlend mode="normal" in="SourceGraphic" in2="effect1_dropShadow_90_1757" result="shape"/>
</filter>
<clipPath id="clip0_90_1757">
<rect x="4.5" y="4" width="314" height="341" rx="20" fill="white"/>
</clipPath>
</defs>
</svg>
