<svg width="67" height="78" viewBox="0 0 67 78" fill="none" xmlns="http://www.w3.org/2000/svg">
<g filter="url(#filter0_d_700_2638)">
<path d="M33.3525 5.05762C26.0008 5.06561 18.9525 7.86854 13.754 12.8515C8.55556 17.8344 5.63139 24.5904 5.62305 31.6374C5.62305 54.3812 30.8317 71.5584 31.9062 72.2772C32.3301 72.5619 32.835 72.7145 33.3525 72.7145C33.8701 72.7145 34.375 72.5619 34.7989 72.2772C35.8734 71.5584 61.082 54.3812 61.082 31.6374C61.0737 24.5904 58.1495 17.8344 52.951 12.8515C47.7526 7.86854 40.7043 5.06561 33.3525 5.05762ZM33.3525 21.972C35.3469 21.972 37.2964 22.5389 38.9546 23.6009C40.6128 24.663 41.9052 26.1725 42.6684 27.9386C43.4316 29.7047 43.6313 31.6481 43.2422 33.523C42.8532 35.3979 41.8928 37.1201 40.4826 38.4718C39.0724 39.8236 37.2757 40.7441 35.3197 41.117C33.3637 41.49 31.3363 41.2986 29.4938 40.567C27.6513 39.8355 26.0764 38.5966 24.9685 37.0072C23.8605 35.4177 23.2691 33.549 23.2691 31.6374C23.2691 29.074 24.3314 26.6155 26.2225 24.8029C28.1135 22.9903 30.6782 21.972 33.3525 21.972Z" fill="#2B3F6C"/>
</g>
<path d="M33.3528 6.08447C26.2241 6.09222 19.3898 8.81008 14.3491 13.6418C9.30835 18.4735 6.47293 25.0245 6.46484 31.8575C6.46484 53.9111 30.9084 70.5669 31.9503 71.264C32.3613 71.54 32.8509 71.688 33.3528 71.688C33.8546 71.688 34.3442 71.54 34.7552 71.264C35.7971 70.5669 60.2407 53.9111 60.2407 31.8575C60.2326 25.0245 57.3972 18.4735 52.3564 13.6418C47.3157 8.81008 40.4814 6.09222 33.3528 6.08447ZM33.3528 22.4855C35.2865 22.4855 37.1769 23.0352 38.7848 24.065C40.3927 25.0948 41.6459 26.5585 42.3859 28.271C43.1259 29.9835 43.3196 31.8679 42.9423 33.6859C42.565 35.5039 41.6338 37.1739 40.2664 38.4846C38.899 39.7953 37.1569 40.6879 35.2602 41.0495C33.3636 41.4111 31.3977 41.2255 29.6111 40.5162C27.8245 39.8068 26.2975 38.6056 25.2231 37.0644C24.1488 35.5231 23.5753 33.7112 23.5753 31.8575C23.5753 29.3719 24.6054 26.9881 26.4391 25.2305C28.2727 23.4729 30.7596 22.4855 33.3528 22.4855Z" fill="#4B628A"/>
<defs>
<filter id="filter0_d_700_2638" x="0.623047" y="0.0576172" width="65.459" height="77.6567" filterUnits="userSpaceOnUse" color-interpolation-filters="sRGB">
<feFlood flood-opacity="0" result="BackgroundImageFix"/>
<feColorMatrix in="SourceAlpha" type="matrix" values="0 0 0 0 0 0 0 0 0 0 0 0 0 0 0 0 0 0 127 0" result="hardAlpha"/>
<feOffset/>
<feGaussianBlur stdDeviation="2.5"/>
<feComposite in2="hardAlpha" operator="out"/>
<feColorMatrix type="matrix" values="0 0 0 0 0 0 0 0 0 0 0 0 0 0 0 0 0 0 0.4 0"/>
<feBlend mode="normal" in2="BackgroundImageFix" result="effect1_dropShadow_700_2638"/>
<feBlend mode="normal" in="SourceGraphic" in2="effect1_dropShadow_700_2638" result="shape"/>
</filter>
</defs>
</svg>
