<svg width="31" height="31" viewBox="0 0 31 31" fill="none" xmlns="http://www.w3.org/2000/svg">
<path d="M28.4452 8.6521H2.73295C1.81686 8.6521 1.07422 9.39474 1.07422 10.3108V24.1266C1.07422 25.0427 1.81686 25.7853 2.73295 25.7853H28.4452C29.3613 25.7853 30.104 25.0427 30.104 24.1266V10.3108C30.104 9.39474 29.3613 8.6521 28.4452 8.6521Z" fill="#EFB100"/>
<path d="M28.4452 5.46948H2.73295C1.81686 5.46948 1.07422 6.21212 1.07422 7.12821V20.9439C1.07422 21.86 1.81686 22.6027 2.73295 22.6027H28.4452C29.3613 22.6027 30.104 21.86 30.104 20.9439V7.12821C30.104 6.21212 29.3613 5.46948 28.4452 5.46948Z" fill="#FFC33A"/>
<path d="M18.5494 5.46948H12.6289V22.6027H18.5494V5.46948Z" fill="#FFDB87"/>
<path d="M18.5494 22.6025H12.6289V25.7853H18.5494V22.6025Z" fill="#FFC84D"/>
<path d="M15.7072 18.6551C13.9283 18.6551 12.5736 17.602 12.0067 16.8787C11.6769 16.4577 11.7511 15.8489 12.1728 15.5191C12.593 15.1909 13.1978 15.2635 13.5284 15.6788C13.6638 15.8465 14.8831 17.2609 16.791 16.498C17.2563 16.3134 17.4675 15.9763 17.4369 15.7392C17.3893 15.3764 16.7878 14.9441 15.5492 14.795C12.4994 14.4289 12.0398 12.7 11.9712 12.1799C11.8172 11.0017 12.5599 9.87282 13.8195 9.37044C16.3684 8.35279 18.228 9.7196 18.9102 10.3526C19.3021 10.7171 19.3238 11.3299 18.9602 11.721C18.5965 12.1129 17.9836 12.1355 17.5917 11.771C16.9676 11.1896 15.9314 10.6163 14.5372 11.1687C14.0727 11.3541 13.8614 11.6912 13.892 11.9283C13.9396 12.2903 14.5412 12.7226 15.7798 12.8717C18.8303 13.2387 19.2892 14.9675 19.3569 15.4885C19.5109 16.6666 18.7674 17.7947 17.5079 18.2963C16.8732 18.5495 16.2693 18.6551 15.7072 18.6551Z" fill="#CB8C00"/>
<path d="M15.6638 10.9445C15.1291 10.9445 14.6953 10.5106 14.6953 9.97599V8.59224C14.6953 8.05761 15.1291 7.62378 15.6638 7.62378C16.1984 7.62378 16.6322 8.05761 16.6322 8.59224V9.97599C16.6322 10.5106 16.1984 10.9445 15.6638 10.9445Z" fill="#CB8C00"/>
<path d="M15.6638 20.0441C15.1291 20.0441 14.6953 19.6103 14.6953 19.0757V17.6911C14.6953 17.1565 15.1291 16.7227 15.6638 16.7227C16.1984 16.7227 16.6322 17.1565 16.6322 17.6911V19.0757C16.6322 19.6103 16.1984 20.0441 15.6638 20.0441Z" fill="#CB8C00"/>
</svg>
