<svg width="64" height="65" viewBox="0 0 64 65" fill="none" xmlns="http://www.w3.org/2000/svg">
<rect x="0.265625" y="0.678711" width="63.6779" height="63.6779" rx="10.9162" fill="#EEEEEE"/>
<path d="M44.9589 17.8098H19.2466C18.3305 17.8098 17.5879 18.5525 17.5879 19.4685V33.2843C17.5879 34.2004 18.3305 34.943 19.2466 34.943H44.9589C45.875 34.943 46.6176 34.2004 46.6176 33.2843V19.4685C46.6176 18.5525 45.875 17.8098 44.9589 17.8098Z" fill="#EFB100"/>
<path d="M44.9589 14.6272H19.2466C18.3305 14.6272 17.5879 15.3698 17.5879 16.2859V30.1017C17.5879 31.0177 18.3305 31.7604 19.2466 31.7604H44.9589C45.875 31.7604 46.6176 31.0177 46.6176 30.1017V16.2859C46.6176 15.3698 45.875 14.6272 44.9589 14.6272Z" fill="#FFC33A"/>
<path d="M35.063 14.6272H29.1426V31.7604H35.063V14.6272Z" fill="#FFDB87"/>
<path d="M35.063 31.7603H29.1426V34.943H35.063V31.7603Z" fill="#FFC84D"/>
<path d="M32.2228 27.8131C30.444 27.8131 29.0892 26.7599 28.5224 26.0366C28.1925 25.6157 28.2667 25.0069 28.6885 24.6771C29.1086 24.3489 29.7134 24.4214 30.044 24.8367C30.1795 25.0044 31.3987 26.4188 33.3066 25.656C33.7719 25.4713 33.9832 25.1343 33.9525 24.8972C33.9049 24.5343 33.3034 24.1021 32.0648 23.9529C29.0151 23.5868 28.5554 21.8579 28.4869 21.3378C28.3329 20.1597 29.0755 19.0308 30.3351 18.5284C32.8841 17.5107 34.7436 18.8776 35.4258 19.5106C35.8177 19.8751 35.8395 20.4879 35.4758 20.879C35.1121 21.2709 34.4993 21.2935 34.1074 20.929C33.4832 20.3476 32.447 19.7743 31.0528 20.3266C30.5883 20.5121 30.377 20.8492 30.4077 21.0862C30.4553 21.4483 31.0568 21.8805 32.2954 22.0297C35.346 22.3966 35.8048 24.1255 35.8725 24.6464C36.0265 25.8245 35.2831 26.9527 34.0235 27.4542C33.3889 27.7074 32.7849 27.8131 32.2228 27.8131Z" fill="#CB8C00"/>
<path d="M32.1794 20.1024C31.6448 20.1024 31.2109 19.6686 31.2109 19.134V17.7502C31.2109 17.2156 31.6448 16.7817 32.1794 16.7817C32.714 16.7817 33.1479 17.2156 33.1479 17.7502V19.134C33.1479 19.6686 32.714 20.1024 32.1794 20.1024Z" fill="#CB8C00"/>
<path d="M32.1794 29.2021C31.6448 29.2021 31.2109 28.7683 31.2109 28.2336V26.8491C31.2109 26.3144 31.6448 25.8806 32.1794 25.8806C32.714 25.8806 33.1479 26.3144 33.1479 26.8491V28.2336C33.1479 28.7683 32.714 29.2021 32.1794 29.2021Z" fill="#CB8C00"/>
<path d="M20.9706 46.0027V46.5802H13.7749V46.0027H17.0263V45.0522H14.7343V42.1028H15.4272V43.0178H19.336V42.1028H20.029V45.0522H17.7192V46.0027H20.9706ZM20.0823 47.3619V49.8138H19.3805V47.9216H14.5744V47.3619H20.0823ZM15.4272 44.4925H19.336V43.5509H15.4272V44.4925ZM24.5529 44.3415C24.5529 45.6829 25.5301 47.0421 26.6938 47.5485L26.3029 48.0993C25.379 47.6773 24.5795 46.7667 24.2153 45.674C23.8422 46.8334 23.0471 47.8416 22.1454 48.2947L21.7279 47.7439C22.8561 47.202 23.8422 45.7096 23.8511 44.3415V43.311H21.9855V42.7336H26.4362V43.311H24.5529V44.3415ZM28.2396 41.9163V49.8138H27.5378V41.9163H28.2396ZM31.6441 46.7845C31.1466 46.7845 30.738 46.3758 30.738 45.8695C30.738 45.372 31.1466 44.9634 31.6441 44.9634C32.1505 44.9634 32.5591 45.372 32.5591 45.8695C32.5591 46.3758 32.1505 46.7845 31.6441 46.7845ZM41.6315 45.9583V46.5358H38.4156V48.1526H37.7227V46.5358H34.4002V45.9583H41.6315ZM40.6898 42.3071V45.0522H35.3419V42.3071H40.6898ZM36.0259 42.8579V44.4925H39.9969V42.8579H36.0259ZM40.8231 49.0587V49.645H35.3241V47.3708H36.0259V49.0587H40.8231ZM48.4918 41.9163V45.2832H49.7532V45.8695H48.4918V49.8138H47.79V41.9163H48.4918ZM42.2643 47.7084C42.9084 47.7084 43.6591 47.7084 44.4408 47.6817V46.8023C43.5214 46.7001 42.9217 46.1626 42.9306 45.3809C42.9217 44.4925 43.6768 43.9151 44.7962 43.9151C45.8977 43.9151 46.6617 44.4925 46.6706 45.3809C46.6617 46.1626 46.0532 46.7001 45.1426 46.8111V47.6551C45.88 47.6196 46.6218 47.5618 47.3102 47.4597L47.3547 47.9927C45.6312 48.2858 43.7657 48.3036 42.3798 48.3036L42.2643 47.7084ZM47.1681 42.8846V43.4531H42.4065V42.8846H44.4408V41.934H45.1426V42.8846H47.1681ZM44.7962 44.457C44.0677 44.457 43.5791 44.8301 43.5791 45.3809C43.5791 45.9317 44.0677 46.287 44.7962 46.2781C45.5157 46.287 46.0043 45.9317 46.0043 45.3809C46.0043 44.8301 45.5157 44.457 44.7962 44.457Z" fill="black"/>
</svg>
