<svg width="64" height="64" viewBox="0 0 64 64" fill="none" xmlns="http://www.w3.org/2000/svg">
<rect x="0.0332031" width="63.6779" height="63.6779" rx="10.9162" fill="#EEEEEE"/>
<path d="M41.2788 13.1724H24.7084C24.0528 13.1724 23.4313 13.4486 23.007 13.9063C22.9961 13.9179 22.9868 13.9311 22.9767 13.9428C22.91 14.018 22.8487 14.0972 22.7936 14.181C22.7424 14.2616 22.6974 14.3462 22.6563 14.4339C22.6431 14.461 22.6268 14.4866 22.6152 14.5146C22.55 14.6705 22.5089 14.8373 22.4817 15.0088C22.4615 15.1399 22.4491 15.2702 22.4515 15.3967C22.453 15.4557 22.4631 15.5123 22.4693 15.5697C22.4794 15.6675 22.4902 15.7652 22.5127 15.8591C22.5275 15.9196 22.5484 15.977 22.5671 16.0352C22.5958 16.1213 22.626 16.2059 22.6648 16.2866C22.692 16.3432 22.7222 16.3968 22.754 16.4503C22.7983 16.5256 22.8464 16.5985 22.8991 16.6683C22.9364 16.7172 22.9759 16.7653 23.017 16.8118C23.076 16.8762 23.1396 16.9368 23.2056 16.9942C23.2513 17.0345 23.2971 17.0741 23.346 17.1105C23.4189 17.1641 23.4981 17.2098 23.5772 17.2541C23.6284 17.282 23.6773 17.313 23.7308 17.3379C23.8224 17.379 23.9193 17.4092 24.0171 17.4379C24.0652 17.4519 24.1118 17.4721 24.1614 17.4829C24.3119 17.5155 24.4671 17.5357 24.6269 17.5357H41.2773C42.0469 17.5357 42.6707 18.1595 42.6707 18.9291V14.5681C42.6707 13.7985 42.0469 13.1747 41.2773 13.1747L41.2788 13.1724Z" fill="#E5E8EB"/>
<path d="M24.7645 18.9259C22.7256 18.9259 21.0723 17.2726 21.0723 15.2336V33.4171C21.0723 35.3163 22.6115 36.8548 24.51 36.8548H41.2783C42.048 36.8548 42.6717 36.2311 42.6717 35.4614V18.9259H24.7645Z" fill="#EF4452"/>
<path d="M22.4843 15.0081C22.461 15.14 22.4455 15.2719 22.4533 15.3961C22.4533 15.4581 22.461 15.5124 22.4688 15.5667C22.4765 15.6676 22.4921 15.7607 22.5153 15.8616C22.5231 15.9159 22.5464 15.9779 22.5696 16.0322C22.5929 16.1176 22.624 16.2029 22.6627 16.2883C22.6938 16.3426 22.7248 16.3969 22.7558 16.4512C22.7946 16.5288 22.8489 16.5986 22.8955 16.6684C22.9343 16.715 22.9731 16.7615 23.0196 16.8081C23.0739 16.8779 23.136 16.9322 23.2058 16.9943C23.2524 17.0331 23.2989 17.0719 23.3455 17.1107C23.4153 17.165 23.5007 17.2115 23.5782 17.2503C23.6325 17.2814 23.6791 17.3124 23.7334 17.3357C23.8265 17.3745 23.9196 17.4055 24.0205 17.4365C24.067 17.452 24.1136 17.4676 24.1601 17.4831C24.3153 17.5141 24.4705 17.5296 24.6256 17.5296H41.2752C42.0511 17.5296 42.6717 18.1581 42.6717 18.9261H24.7653C22.7248 18.9261 21.0723 17.2736 21.0723 15.2331C21.0723 13.3323 22.6084 11.7961 24.5092 11.7961H41.2985C42.0588 11.7961 42.6717 12.4091 42.6717 13.1694V14.5659C42.6717 13.7978 42.0511 13.1694 41.2752 13.1694H24.711C24.0515 13.1694 23.4308 13.4487 23.0041 13.9064C22.9964 13.9142 22.9886 13.9297 22.9731 13.9452C22.911 14.0151 22.8489 14.1004 22.7946 14.178C22.7403 14.2633 22.7015 14.3487 22.655 14.434C22.6395 14.4573 22.624 14.4883 22.6162 14.5116C22.5619 14.6435 22.5153 14.7754 22.4921 14.9228C22.4843 14.9461 22.4843 14.9771 22.4843 15.0081Z" fill="#BB1B2A"/>
<path d="M30.3463 43.5871V44.4666C30.3463 45.4793 30.3463 46.501 30.062 47.9668L29.378 47.8868C29.6623 46.4921 29.6623 45.4527 29.6623 44.4666V44.1646H24.7585V43.5871H30.3463ZM31.1991 48.9884V49.5658H24.0034V48.9884H25.789V46.3855H26.4819V48.9884H27.7612V46.3855H28.4452V48.9884H31.1991ZM39.1521 46.5987V47.1672H37.2333V48.1711H38.2638V50.6852H37.562V48.7308H32.7559V48.1711H33.8664V47.1672H31.9564V46.5987H39.1521ZM35.5543 42.983C37.2688 42.9742 38.3437 43.5427 38.3437 44.4844C38.3437 45.4349 37.2688 46.0035 35.5543 45.9946C33.8397 46.0035 32.7559 45.4349 32.7559 44.4844C32.7559 43.5427 33.8397 42.9742 35.5543 42.983ZM35.5543 43.5427C34.275 43.5338 33.4666 43.8981 33.4755 44.4844C33.4666 45.0885 34.275 45.4527 35.5543 45.4527C36.8157 45.4527 37.633 45.0885 37.633 44.4844C37.633 43.8981 36.8157 43.5338 35.5543 43.5427ZM34.5682 48.1711H36.5492V47.1672H34.5682V48.1711Z" fill="black"/>
</svg>
