<svg width="31" height="31" viewBox="0 0 31 31" fill="none" xmlns="http://www.w3.org/2000/svg">
<path d="M27.8399 10.9376V19.3791H2.87109V10.9376C2.87109 9.6242 3.93548 8.55981 5.24883 8.55981H25.4614C26.7748 8.55981 27.8399 9.6242 27.8399 10.9376Z" fill="#C3846C"/>
<path d="M27.8399 19.3792V24.7296C27.8399 26.043 26.7755 27.1073 25.4621 27.1073H5.24883C3.93548 27.1073 2.87109 26.043 2.87109 24.7296V19.3792H27.8399Z" fill="#956759"/>
<path d="M21.0029 8.55939H19.2194C19.2194 7.13617 18.0616 5.97904 16.6391 5.97904H14.0709C12.6484 5.97904 11.4905 7.13688 11.4905 8.55939H9.70703C9.70703 6.15311 11.6646 4.19556 14.0709 4.19556H16.6391C19.0454 4.19556 21.0029 6.15311 21.0029 8.55939Z" fill="#C3846C"/>
<path d="M17.7335 19.3545C17.7335 20.3133 16.9559 21.0909 15.9971 21.0909H14.713C13.7542 21.0909 12.9766 20.3133 12.9766 19.3545H17.7335Z" fill="#FFC33A"/>
</svg>
