<svg width="31" height="31" viewBox="0 0 31 31" fill="none" xmlns="http://www.w3.org/2000/svg">
<path d="M24.48 4.64331H7.90955C7.25396 4.64331 6.63251 4.91951 6.20813 5.37726C6.19726 5.3889 6.18795 5.40208 6.17787 5.41372C6.11115 5.48898 6.04985 5.56811 5.99477 5.65191C5.94356 5.73259 5.89857 5.81716 5.85745 5.90483C5.84426 5.93199 5.82796 5.95759 5.81633 5.98552C5.75115 6.14146 5.71003 6.30827 5.68288 6.47973C5.66271 6.61085 5.6503 6.74119 5.65262 6.86765C5.65417 6.92662 5.66426 6.98325 5.67047 7.04066C5.68055 7.13842 5.69142 7.23618 5.71391 7.33005C5.72866 7.39057 5.7496 7.44798 5.76822 7.50617C5.79693 7.59229 5.82719 7.67686 5.86598 7.75754C5.89313 7.81418 5.92339 7.86771 5.9552 7.92125C5.99942 7.9965 6.04753 8.06943 6.10028 8.13926C6.13752 8.18814 6.17709 8.23624 6.21821 8.28279C6.27718 8.34718 6.3408 8.4077 6.40674 8.46511C6.45252 8.50546 6.49829 8.54502 6.54717 8.58149C6.6201 8.63502 6.69923 8.6808 6.77837 8.72502C6.82958 8.75295 6.87845 8.78398 6.93199 8.80881C7.02354 8.84993 7.12052 8.88019 7.21827 8.90889C7.26638 8.92286 7.31293 8.94303 7.36258 8.95389C7.51309 8.98648 7.66826 9.00665 7.82809 9.00665H24.4784C25.2481 9.00665 25.8719 9.63043 25.8719 10.4001V6.03905C25.8719 5.26942 25.2481 4.64564 24.4784 4.64564L24.48 4.64331Z" fill="#E5E8EB"/>
<path d="M7.96567 10.3968C5.92676 10.3968 4.27344 8.7435 4.27344 6.70459V24.888C4.27344 26.7873 5.81271 28.3258 7.7112 28.3258H24.4795C25.2491 28.3258 25.8729 27.702 25.8729 26.9324V10.3968H7.96567Z" fill="#EF4452"/>
<path d="M5.68547 6.47908C5.6622 6.61097 5.64668 6.74287 5.65444 6.867C5.65444 6.92907 5.6622 6.98338 5.66995 7.03769C5.67771 7.13855 5.69323 7.23165 5.71651 7.33251C5.72426 7.38681 5.74754 7.44888 5.77081 7.50319C5.79409 7.58853 5.82512 7.67388 5.86392 7.75922C5.89495 7.81353 5.92598 7.86784 5.95702 7.92215C5.99581 7.99973 6.05012 8.06956 6.09667 8.13938C6.13546 8.18593 6.17425 8.23248 6.2208 8.27903C6.27511 8.34886 6.33718 8.40317 6.40701 8.46524C6.45356 8.50403 6.50011 8.54282 6.54666 8.58161C6.61648 8.63592 6.70183 8.68247 6.77941 8.72126C6.83372 8.7523 6.88027 8.78333 6.93458 8.80661C7.02768 8.8454 7.12078 8.87643 7.22164 8.90747C7.26819 8.92298 7.31474 8.9385 7.36129 8.95402C7.51646 8.98505 7.67163 9.00057 7.8268 9.00057H24.4764C25.2522 9.00057 25.8729 9.629 25.8729 10.3971H7.96645C5.92598 10.3971 4.27344 8.74454 4.27344 6.70407C4.27344 4.80326 5.80961 3.26709 7.71042 3.26709H24.4997C25.26 3.26709 25.8729 3.88001 25.8729 4.64033V6.03685C25.8729 5.26876 25.2522 4.64033 24.4764 4.64033H7.91214C7.25267 4.64033 6.632 4.91964 6.20529 5.37738C6.19753 5.38514 6.18977 5.40066 6.17425 5.41617C6.11218 5.486 6.05012 5.57134 5.99581 5.64893C5.9415 5.73427 5.90271 5.81961 5.85616 5.90496C5.84064 5.92823 5.82512 5.95926 5.81736 5.98254C5.76306 6.11443 5.71651 6.24633 5.69323 6.39374C5.68547 6.41701 5.68547 6.44804 5.68547 6.47908Z" fill="#BB1B2A"/>
</svg>
