<svg width="64" height="64" viewBox="0 0 64 64" fill="none" xmlns="http://www.w3.org/2000/svg">
<rect width="63.6779" height="63.6779" rx="10.9162" fill="#EEEEEE"/>
<path d="M17.2849 40.61V43.2129H18.4754V43.7992H17.2849V46.5265H16.592V40.61H17.2849ZM15.8369 41.5783V42.1468H11.1286V41.5783H13.1363V40.61H13.8292V41.5783H15.8369ZM13.4828 42.5821C14.611 42.5821 15.375 43.1596 15.3839 44.0568C15.375 44.9452 14.611 45.5137 13.4828 45.5137C12.3457 45.5137 11.5728 44.9452 11.5817 44.0568C11.5728 43.1596 12.3457 42.5821 13.4828 42.5821ZM13.4828 43.1329C12.7365 43.1329 12.239 43.4971 12.2479 44.0568C12.239 44.6165 12.7365 44.9718 13.4828 44.9629C14.2201 44.9718 14.7176 44.6165 14.7265 44.0568C14.7176 43.4971 14.2201 43.1329 13.4828 43.1329ZM17.6492 47.7435V48.3298H12.3457V46.0556H13.0297V47.7435H17.6492ZM25.611 40.61V46.4554H24.9092V43.4172H23.0437V45.1051H19.4636V41.1341H20.1565V42.5377H22.3596V41.1341H23.0437V42.8309H24.9092V40.61H25.611ZM25.7887 47.7435V48.3298H20.503V45.878H21.2048V47.7435H25.7887ZM20.1565 44.5276H22.3596V43.0885H20.1565V44.5276ZM33.7861 40.6011V48.4986H33.111V40.6011H33.7861ZM32.1959 40.7699V48.0989H31.5297V44.2611H30.5169C30.4414 45.798 29.7885 46.7574 28.8113 46.7574C27.7808 46.7574 27.1145 45.6914 27.1145 44.0124C27.1145 42.3334 27.7808 41.2674 28.8113 41.2674C29.7707 41.2674 30.4192 42.1957 30.5081 43.6837H31.5297V40.7699H32.1959ZM28.8113 41.9247C28.1717 41.9247 27.763 42.7243 27.7719 44.0124C27.763 45.2916 28.1717 46.1 28.8113 46.0912C29.4509 46.1 29.8595 45.2916 29.8595 44.0124C29.8595 42.7243 29.4509 41.9247 28.8113 41.9247ZM44.5751 46.9085V47.4859H37.3438V46.9085H40.5952V45.2028H38.1967V41.1607H38.8985V42.591H43.0027V41.1607H43.6867V45.2028H41.2793V46.9085H44.5751ZM38.8985 44.6342H43.0027V43.1596H38.8985V44.6342ZM51.8263 40.6011V48.4986H51.1245V40.6011H51.8263ZM49.4899 41.4628C49.481 43.737 48.4238 45.7447 45.7765 47.0151L45.3945 46.4465C47.531 45.4338 48.6193 43.9191 48.7792 42.0313H45.7588V41.4628H49.4899Z" fill="black"/>
<path d="M21.1773 31.8467H18.1178L21.6971 21.0937H25.5438L29.1084 31.8467H26.0637L25.425 29.7377H21.816L21.1773 31.8467ZM22.4694 27.599H24.7715L23.6576 23.9899H23.5685L22.4694 27.599ZM30.3298 31.8467V21.0937H33.1517V29.5594H37.5331V31.8467H30.3298ZM38.9031 31.8467V21.0937H41.725V29.5594H46.1064V31.8467H38.9031Z" fill="#4B628A"/>
</svg>
