<svg width="65" height="64" viewBox="0 0 65 64" fill="none" xmlns="http://www.w3.org/2000/svg">
<rect x="0.355469" y="0.000488281" width="63.6779" height="63.6779" rx="10.9162" fill="#EEEEEE"/>
<path d="M16.5584 42.4108C16.5584 43.3791 17.358 44.2408 18.5217 44.5873L18.193 45.1381C17.2824 44.8538 16.5718 44.263 16.2297 43.5035C15.8833 44.343 15.1504 44.9826 14.2131 45.2891L13.8667 44.7383C15.0393 44.383 15.8744 43.468 15.8744 42.4108V42.2687H14.0888V41.709H15.8744V40.7318H16.5762V41.709H18.344V42.2687H16.5584V42.4108ZM20.0408 40.7673V42.775H21.2312V43.3614H20.0408V45.449H19.3479V40.7673H20.0408ZM20.0408 45.8132V48.5583H15.0571V45.8132H20.0408ZM15.7411 46.364V47.9897H19.3479V46.364H15.7411ZM23.9429 41.3803C24.6669 41.3848 25.2532 41.8067 25.5952 42.5352H27.674V40.7673H28.3669V48.6827H27.674V45.6178H25.6485C25.3154 46.4173 24.7068 46.8793 23.9429 46.8793C22.7791 46.8793 21.9618 45.8132 21.9618 44.1342C21.9618 42.4552 22.7791 41.3892 23.9429 41.3803ZM23.9429 42.0022C23.1611 42.011 22.6281 42.8461 22.6281 44.1342C22.6281 45.4224 23.1611 46.2574 23.9429 46.2574C24.7157 46.2574 25.2576 45.4224 25.2576 44.1342C25.2576 42.8461 24.7157 42.011 23.9429 42.0022ZM25.7995 43.1215C25.8706 43.428 25.915 43.7656 25.915 44.1342C25.915 44.4585 25.8795 44.765 25.8262 45.0404H27.674V43.1215H25.7995ZM31.7359 45.6356C31.2384 45.6356 30.8298 45.2269 30.8298 44.7206C30.8298 44.2231 31.2384 43.8144 31.7359 43.8144C32.2423 43.8144 32.6509 44.2231 32.6509 44.7206C32.6509 45.2269 32.2423 45.6356 31.7359 45.6356ZM41.0392 40.7762V46.746H40.3285V45.6356H38.5873V45.067H40.3285V40.7762H41.0392ZM41.2347 47.9098V48.4961H35.6291V46.0798H36.3309V47.9098H41.2347ZM34.4476 43.9033C35.4603 43.9033 36.7351 43.8899 37.9921 43.8055C38.1476 42.9305 38.1743 42.2776 38.1787 41.8245H35.1583V41.2559H38.8716V41.5669C38.8716 42.0022 38.8716 42.7439 38.7028 43.7434C39.0138 43.7211 39.3158 43.6856 39.609 43.6456L39.6623 44.152C38.9249 44.2764 38.152 44.3519 37.3969 44.4007V46.2219H36.704V44.4363C35.9223 44.4718 35.1849 44.4807 34.5453 44.4807L34.4476 43.9033ZM48.9744 40.7673V48.6827H48.2815V40.7673H48.9744ZM46.5759 41.5047V44.3119H43.6265V46.1775C44.9368 46.1775 46.105 46.1197 47.5175 45.8932L47.5886 46.4795C46.1317 46.7105 44.9324 46.7638 43.5732 46.7638H42.9158V43.7434H45.874V42.0821H42.898V41.5047H46.5759Z" fill="black"/>
<path d="M38.0527 21.5213H46.3019L41.4441 13.8174H41.4433L38.0527 21.5213Z" fill="#7D9DFF"/>
<path d="M22.9438 13.8174L18.0859 21.5213H26.3351L22.9438 13.8174Z" fill="#7D9DFF"/>
<path d="M38.0542 21.5215H26.3359L32.1951 34.8348L38.0542 21.5215Z" fill="#7D9DFF"/>
<path d="M26.3359 21.5213H38.0542L32.1951 13.8174L26.3359 21.5213Z" fill="#5A81FF"/>
<path d="M18.0859 21.5215L32.1943 34.8348L26.3351 21.5215H18.0859Z" fill="#A8BFFF"/>
<path d="M38.0545 21.5215L32.1953 34.8348L46.3036 21.5215H38.0545Z" fill="#A8BFFF"/>
<path d="M32.1958 13.8174H22.9453L26.3366 21.5213L32.1958 13.8174Z" fill="#A8BFFF"/>
<path d="M38.0545 21.5213L41.445 13.8174H32.1953L38.0545 21.5213Z" fill="#A8BFFF"/>
</svg>
