<svg width="65" height="64" viewBox="0 0 65 64" fill="none" xmlns="http://www.w3.org/2000/svg">
<rect x="0.677734" y="0.000488281" width="63.6779" height="63.6779" rx="10.9162" fill="#EEEEEE"/>
<path d="M28.6367 43.7575C28.6278 44.8147 30.0403 45.7119 31.4173 45.9162L31.1596 46.467C29.9248 46.2583 28.7255 45.6009 28.2458 44.6459C27.7661 45.6009 26.5624 46.2583 25.3497 46.467L25.0743 45.9162C26.4424 45.7119 27.8549 44.8147 27.8549 43.7575V43.7042H25.3231V43.1357H31.1596V43.7042H28.6367V43.7575ZM31.8437 47.1422V47.7196H28.5745V50.5357H27.8905V47.7196H24.6479V47.1422H31.8437ZM39.1393 42.6382V50.5357H38.4463V46.396H36.563V45.8185H38.4463V42.6382H39.1393ZM36.5808 43.4999C36.5808 45.7386 35.6302 47.7285 32.9918 49.0344L32.6098 48.4747C34.7508 47.4398 35.7413 45.9207 35.879 44.0685H32.9563V43.4999H36.5808Z" fill="black"/>
<path d="M30.9147 30.9133H34.1165C34.8315 30.9133 35.4113 31.4939 35.4113 32.2082V36.7048H29.6191V32.2082C29.6191 31.4931 30.1997 30.9133 30.914 30.9133H30.9147Z" fill="#6B7683"/>
<path d="M43.5669 20.3964L33.273 12.2111C32.8292 11.858 32.2004 11.858 31.7559 12.2111L21.4635 20.3964C20.8822 20.8585 20.543 21.5611 20.543 22.304V33.7808C20.543 35.396 21.8525 36.7054 23.4676 36.7054H30.0779V32.1321C30.0779 31.4594 30.6234 30.9133 31.2967 30.9133H33.7337C34.4063 30.9133 34.9525 31.4587 34.9525 32.1321V36.7054H41.5621C43.1772 36.7054 44.4867 35.396 44.4867 33.7808V22.304C44.4867 21.5611 44.1489 20.8585 43.5669 20.3964Z" fill="#D0D5DA"/>
<path d="M43.5669 20.3957L33.2738 12.2111C32.83 11.858 32.2012 11.858 31.7574 12.2111L21.4635 20.3964C20.8822 20.8585 20.543 21.5611 20.543 22.304V26.0029L31.7566 17.0857C32.2004 16.7326 32.8292 16.7326 33.2738 17.0857L44.4867 26.0029V22.304C44.4867 21.5611 44.1475 20.8585 43.5662 20.3957H43.5669Z" fill="#007FF2"/>
</svg>
