<svg width="64" height="64" viewBox="0 0 64 64" fill="none" xmlns="http://www.w3.org/2000/svg">
<rect y="0.000488281" width="63.6779" height="63.6779" rx="10.9162" fill="#EEEEEE"/>
<path d="M22.1171 42.2265C23.2986 42.2354 24.1603 42.9461 24.1603 43.9766C24.1603 45.0071 23.2986 45.7178 22.1171 45.7178C20.9178 45.7178 20.065 45.0071 20.065 43.9766C20.065 42.9461 20.9178 42.2354 22.1171 42.2265ZM22.1171 42.8128C21.3264 42.8128 20.7401 43.2926 20.749 43.9766C20.7401 44.6695 21.3264 45.1492 22.1171 45.1492C22.8988 45.1492 23.4852 44.6695 23.4852 43.9766C23.4852 43.2926 22.8988 42.8128 22.1171 42.8128ZM26.399 41.9334V45.9932H25.7061V41.9334H26.399ZM26.399 46.3752V48.2763H21.9661V49.1646H26.6833V49.7243H21.282V47.7521H25.7061V46.9348H21.2643V46.3752H26.399ZM30.5054 44.3586C30.4965 45.6289 31.4115 47.0237 32.5575 47.5656L32.1577 48.1164C31.2694 47.6855 30.5187 46.7438 30.1678 45.6734C29.8036 46.8371 29.0085 47.8587 28.1245 48.3118L27.6981 47.761C28.8352 47.2102 29.8124 45.7089 29.8213 44.3586V43.3281H27.9824V42.7506H32.2821V43.3281H30.5054V44.3586ZM33.9433 41.9334V45.1315H35.267V45.7267H33.9433V49.8309H33.2504V41.9334H33.9433ZM42.305 41.9334V49.8487H41.612V41.9334H42.305ZM39.9064 42.6707V45.4779H36.957V47.3435C38.2673 47.3435 39.4355 47.2857 40.848 47.0592L40.9191 47.6455C39.4622 47.8765 38.2629 47.9298 36.9037 47.9298H36.2463V44.9094H39.2046V43.2481H36.2285V42.6707H39.9064Z" fill="black"/>
<path d="M44.3242 19.3934V27.835H19.3555V19.3934C19.3555 18.08 20.4199 17.0156 21.7332 17.0156H41.9458C43.2591 17.0156 44.3242 18.08 44.3242 19.3934Z" fill="#C3846C"/>
<path d="M44.3242 27.835V33.1854C44.3242 34.4988 43.2599 35.5632 41.9465 35.5632H21.7332C20.4199 35.5632 19.3555 34.4988 19.3555 33.1854V27.835H44.3242Z" fill="#956759"/>
<path d="M37.4873 17.0152H35.7038C35.7038 15.592 34.546 14.4349 33.1235 14.4349H30.5552C29.1327 14.4349 27.9749 15.5927 27.9749 17.0152H26.1914C26.1914 14.6089 28.149 12.6514 30.5552 12.6514H33.1235C35.5297 12.6514 37.4873 14.6089 37.4873 17.0152Z" fill="#C3846C"/>
<path d="M34.2178 27.8103C34.2178 28.7691 33.4402 29.5467 32.4814 29.5467H31.1973C30.2385 29.5467 29.4609 28.7691 29.4609 27.8103H34.2178Z" fill="#FFC33A"/>
</svg>
