<svg width="31" height="31" viewBox="0 0 31 31" fill="none" xmlns="http://www.w3.org/2000/svg">
<path d="M13.9421 22.5337H17.1438C17.8589 22.5337 18.4387 23.1142 18.4387 23.8286V28.3251H12.6465V23.8286C12.6465 23.1135 13.227 22.5337 13.9414 22.5337H13.9421Z" fill="#6B7683"/>
<path d="M26.5943 12.0167L16.3004 3.83151C15.8566 3.47836 15.2278 3.47836 14.7832 3.83151L4.49083 12.0167C3.90957 12.4788 3.57031 13.1815 3.57031 13.9243V25.4012C3.57031 27.0163 4.8798 28.3258 6.49492 28.3258H13.1053V23.7525C13.1053 23.0798 13.6507 22.5336 14.3241 22.5336H16.761C17.4337 22.5336 17.9798 23.0791 17.9798 23.7525V28.3258H24.5894C26.2046 28.3258 27.5141 27.0163 27.5141 25.4012V13.9243C27.5141 13.1815 27.1763 12.4788 26.5943 12.0167Z" fill="#D0D5DA"/>
<path d="M26.5943 12.016L16.3011 3.83151C15.8573 3.47836 15.2285 3.47836 14.7847 3.83151L4.49083 12.0167C3.90957 12.4788 3.57031 13.1815 3.57031 13.9243V17.6232L14.784 8.70609C15.2278 8.35295 15.8566 8.35295 16.3011 8.70609L27.5141 17.6232V13.9243C27.5141 13.1815 27.1748 12.4788 26.5935 12.016H26.5943Z" fill="#007FF2"/>
</svg>
