<svg xmlns="http://www.w3.org/2000/svg" width="22" height="22" fill="none"><path fill="#4B628A" stroke="#4B628A" stroke-width="2.2" d="M9.537 3.715a1.76 1.76 0 0 1 3.016 0l1.276 2.12c.245.408.646.7 1.11.807l2.411.558a1.76 1.76 0 0 1 .932 2.868l-1.622 1.87a1.76 1.76 0 0 0-.424 1.305l.213 2.465a1.76 1.76 0 0 1-2.44 1.773l-2.278-.966a1.76 1.76 0 0 0-1.373 0l-2.278.966a1.76 1.76 0 0 1-2.44-1.773l.214-2.465a1.76 1.76 0 0 0-.424-1.306l-1.622-1.869A1.76 1.76 0 0 1 4.74 7.2l2.41-.558a1.76 1.76 0 0 0 1.111-.807l1.276-2.12Z"/></svg>