<svg width="15" height="15" viewBox="0 0 15 15" fill="none" xmlns="http://www.w3.org/2000/svg">
<path d="M6.2438 2.33981C6.71019 1.56483 7.83375 1.56483 8.30014 2.33981L9.37004 4.11762C9.53759 4.39603 9.81089 4.5946 10.1275 4.66791L12.1489 5.13608C13.03 5.34016 13.3772 6.40872 12.7843 7.09177L11.4241 8.65868C11.2111 8.90407 11.1067 9.22535 11.1348 9.54907L11.3142 11.6162C11.3924 12.5173 10.4835 13.1777 9.65062 12.8249L7.74008 12.0155C7.44088 11.8887 7.10307 11.8887 6.80386 12.0155L4.89333 12.8249C4.06049 13.1777 3.15151 12.5173 3.22972 11.6162L3.40912 9.54907C3.43721 9.22535 3.33282 8.90407 3.11981 8.65868L1.75963 7.09177C1.1667 6.40872 1.5139 5.34016 2.39508 5.13608L4.41649 4.66791C4.73305 4.5946 5.00635 4.39603 5.1739 4.11762L6.2438 2.33981Z" fill="#B9E6E9" stroke="#B9E6E9" stroke-width="1.5"/>
</svg>
