<svg width="15" height="15" viewBox="0 0 15 15" fill="none" xmlns="http://www.w3.org/2000/svg">
<path d="M6.72036 2.33981C7.18676 1.56483 8.31031 1.56483 8.77671 2.33981L9.8466 4.11762C10.0142 4.39603 10.2875 4.5946 10.604 4.66791L12.6254 5.13608C13.5066 5.34016 13.8538 6.40872 13.2609 7.09177L11.9007 8.65868C11.6877 8.90407 11.5833 9.22535 11.6114 9.54907L11.7908 11.6162C11.869 12.5173 10.96 13.1777 10.1272 12.8249L8.21664 12.0155C7.91744 11.8887 7.57963 11.8887 7.28043 12.0155L5.36989 12.8249C4.53705 13.1777 3.62807 12.5173 3.70628 11.6162L3.88568 9.54907C3.91377 9.22535 3.80938 8.90407 3.59637 8.65868L2.2362 7.09177C1.64327 6.40872 1.99046 5.34016 2.87164 5.13608L4.89305 4.66791C5.20961 4.5946 5.48291 4.39603 5.65047 4.11762L6.72036 2.33981Z" stroke="#4B628A"/>
</svg>
