<svg width="41" height="40" viewBox="0 0 41 40" fill="none" xmlns="http://www.w3.org/2000/svg">
<path d="M10.6113 17.794C10.6113 16.678 15.1363 15.7729 20.7163 15.7729C26.2963 15.7729 30.8213 16.678 30.8213 17.794V31.853C30.8213 32.969 26.2963 33.874 20.7163 33.874C15.1363 33.874 10.6113 32.969 10.6113 31.853" fill="#997642"/>
<path d="M18.6953 17.794C18.6953 16.678 19.6003 15.7729 20.7163 15.7729C21.8323 15.7729 22.7373 16.678 22.7373 17.794V31.853C22.7373 32.969 21.8323 33.874 20.7163 33.874C19.6003 33.874 18.6953 32.969 18.6953 31.853" fill="#D7BF95"/>
<path d="M30.8237 33.873C29.7077 33.873 28.8027 32.968 28.8027 31.852V17.793C28.8027 16.677 29.7077 15.772 30.8237 15.772C31.9397 15.772 32.8447 16.677 32.8447 17.793V31.852C32.8447 32.968 31.9397 33.873 30.8237 33.873Z" fill="#D7BF95"/>
<path d="M10.6108 33.873C9.49484 33.873 8.58984 32.968 8.58984 31.852V17.793C8.58984 16.677 9.49484 15.772 10.6108 15.772C11.7268 15.772 12.6318 16.677 12.6318 17.793V31.852C12.6318 32.968 11.7268 33.873 10.6108 33.873Z" fill="#D7BF95"/>
<path d="M22.7383 14.5171H18.6953V20.4771H22.7383V14.5171Z" fill="#C1966B"/>
<path d="M32.8438 14.5171H28.8008V20.4771H32.8438V14.5171Z" fill="#C1966B"/>
<path d="M12.6328 14.5171H8.58984V20.4771H12.6328V14.5171Z" fill="#C1966B"/>
<path fill-rule="evenodd" clip-rule="evenodd" d="M34.5303 13.4952L21.9423 3.74418C21.2213 3.18618 20.2133 3.18618 19.4923 3.74418L6.9043 13.4952V15.4102H34.5303V13.4952Z" fill="#D7BF95"/>
<path d="M35.7058 31.6221H5.7278C5.16944 31.6221 4.7168 32.0747 4.7168 32.6331V35.6641C4.7168 36.2224 5.16944 36.6751 5.7278 36.6751H35.7058C36.2642 36.6751 36.7168 36.2224 36.7168 35.6641V32.6331C36.7168 32.0747 36.2642 31.6221 35.7058 31.6221Z" fill="#E3D6C3"/>
<path fill-rule="evenodd" clip-rule="evenodd" d="M20.7164 12.0031C19.3914 12.0031 18.3164 10.9281 18.3164 9.60312C18.3164 8.27812 19.3914 7.20312 20.7164 7.20312C22.0414 7.20312 23.1164 8.27812 23.1164 9.60312C23.1164 10.9281 22.0414 12.0031 20.7164 12.0031Z" fill="#E3D6C3"/>
<path d="M35.7058 13.5928H5.7278C5.16944 13.5928 4.7168 14.0454 4.7168 14.6038V17.6348C4.7168 18.1931 5.16944 18.6458 5.7278 18.6458H35.7058C36.2642 18.6458 36.7168 18.1931 36.7168 17.6348V14.6038C36.7168 14.0454 36.2642 13.5928 35.7058 13.5928Z" fill="#E3D6C3"/>
</svg>
