<svg width="123" height="103" viewBox="0 0 123 103" fill="none" xmlns="http://www.w3.org/2000/svg">
<path d="M5.48369 76.2587L56.8097 31.0828L71.7461 45.9565L26.7018 97.4173C20.9906 103.944 10.9536 104.285 4.80975 98.1665C-1.34034 92.0414 -1.03002 81.9919 5.48369 76.2587Z" fill="#4E5968"/>
<path d="M96.934 24.0238L99.4135 30.4497C100.203 32.4935 101.893 34.0608 103.99 34.694L111.808 37.0543C112.767 37.3427 113.641 37.8662 114.35 38.5715L121.638 45.8312C122.97 47.1603 122.976 49.3169 121.647 50.6491L107.802 64.5511C106.473 65.8833 104.316 65.8896 102.984 64.5605L95.6958 57.3008C94.9843 56.5923 94.4608 55.7209 94.1662 54.7649L91.5958 46.3798C90.7181 43.5148 88.107 41.377 85.1103 41.4522C78.5025 41.6215 70.1676 47.6587 70.1676 47.6587L55.1341 32.6847C55.1341 32.6847 62.9549 20.9205 59.3658 17.3471C50.6704 8.68616 23.6751 10.9462 23.6751 10.9462L23.1172 7.36649C67.0832 -12.2279 91.7745 16.7546 95.9592 22.2747C96.3667 22.8138 96.6895 23.3906 96.934 24.0238Z" fill="#ABB7C7"/>
</svg>
