<svg xmlns="http://www.w3.org/2000/svg" width="26" height="26" fill="none"><path fill="#3D3D3D" d="M.631 22.768a.76.76 0 0 0 0 1.075l1.318 1.318a.76.76 0 0 0 1.076 0l12.454-12.454-2.394-2.394L.631 22.768Z"/><path fill="#D5D5D5" d="M18.813 8.372 17.421 6.98a.707.707 0 0 0-1.001 0l-3.334 3.334 2.393 2.394 3.334-3.334a.707.707 0 0 0 0-1Z"/><path fill="#FFCD00" d="M25.782 5.727a.28.28 0 0 1-.227.281l-2.004.454c-.494.11-.892.617-.982 1.263l-.363 2.498a.295.295 0 0 1-.289.254.295.295 0 0 1-.288-.254l-.357-2.499c-.096-.645-.487-1.153-.988-1.263l-2.005-.453a.28.28 0 0 1-.226-.281.28.28 0 0 1 .226-.281l2.005-.453c.5-.11.892-.618.988-1.263l.357-2.506a.295.295 0 0 1 .288-.247c.144 0 .268.11.288.247l.364 2.506c.09.645.488 1.153.982 1.263l2.011.453c.13.027.22.144.22.281ZM21.49 15.591a.28.28 0 0 1-.226.281l-1.4.316c-.316.069-.563.398-.625.81l-.254 1.75a.282.282 0 0 1-.281.248.289.289 0 0 1-.288-.247l-.254-1.75c-.062-.413-.31-.742-.618-.81l-1.407-.317a.28.28 0 0 1-.227-.281.28.28 0 0 1 .227-.281l1.407-.316c.309-.069.556-.398.618-.81l.254-1.75a.289.289 0 0 1 .288-.248c.144 0 .26.103.281.248l.254 1.75c.062.412.31.741.625.81l1.4.316a.28.28 0 0 1 .227.281ZM13.474 4.87a.3.3 0 0 1-.227.288l-1.125.247c-.227.055-.405.295-.453.604l-.2 1.4a.289.289 0 0 1-.288.247.289.289 0 0 1-.288-.247l-.2-1.4c-.047-.31-.226-.55-.452-.604l-1.126-.247a.3.3 0 0 1-.226-.289.3.3 0 0 1 .226-.281l1.126-.247c.226-.055.405-.295.453-.604l.199-1.4a.289.289 0 0 1 .288-.248c.144 0 .268.103.289.247l.199 1.4c.048.31.226.55.453.605l1.125.247a.3.3 0 0 1 .227.281Z"/></svg>