<svg width="28" height="26" viewBox="0 0 28 26" fill="none" xmlns="http://www.w3.org/2000/svg">
<path d="M27.9946 7.60746V16.8872H0.546875V7.60746C0.546875 6.16371 1.71693 4.99365 3.16069 4.99365H25.38C26.8238 4.99365 27.9946 6.16371 27.9946 7.60746Z" fill="#C3846C"/>
<path d="M27.9946 16.8872V22.7689C27.9946 24.2126 26.8246 25.3827 25.3808 25.3827H3.16069C1.71693 25.3827 0.546875 24.2126 0.546875 22.7689V16.8872H27.9946Z" fill="#956759"/>
<path d="M20.4799 4.99337H18.5193C18.5193 3.42885 17.2465 2.15684 15.6828 2.15684H12.8596C11.2958 2.15684 10.0231 3.42963 10.0231 4.99337H8.0625C8.0625 2.34819 10.2144 0.196289 12.8596 0.196289H15.6828C18.328 0.196289 20.4799 2.34819 20.4799 4.99337Z" fill="#C3846C"/>
<path d="M16.8854 16.8604C16.8854 17.9143 16.0306 18.7691 14.9766 18.7691H13.565C12.5111 18.7691 11.6562 17.9143 11.6562 16.8604H16.8854Z" fill="#FFC33A"/>
</svg>
