<svg width="294" height="442" viewBox="0 0 294 442" fill="none" xmlns="http://www.w3.org/2000/svg">
<g filter="url(#filter0_d_566_2477)">
<g clip-path="url(#clip0_566_2477)">
<rect x="2.61523" y="0.361328" width="285" height="433" rx="10" fill="url(#paint0_linear_566_2477)"/>
<path d="M125.157 -31.4707C125.266 -16.8335 120.213 17.7104 99.1353 38.7881C72.7881 65.1352 41.8873 51.1485 9.35995 83.6758C-16.6619 109.698 -24.9021 126.178 -25.7695 131.166" stroke="white" stroke-opacity="0.48" stroke-width="7.90056"/>
<path d="M169.454 -23.2773C169.562 -8.64012 164.509 25.9037 143.432 46.9814" stroke="white" stroke-opacity="0.48" stroke-width="7.90056" stroke-linecap="round"/>
<path d="M125.066 46.9834L127.629 54.7494L134.557 57.6231L127.629 60.4968L125.066 68.2629L122.502 60.4968L115.574 57.6231L122.502 54.7494L125.066 46.9834Z" fill="white" fill-opacity="0.62"/>
<path d="M104.705 198.665C96.8012 183.787 94.7377 171.459 100.46 165.732C110.968 155.224 143.745 170.967 173.67 200.893C203.595 230.818 219.335 263.595 208.83 274.103C198.322 284.611 165.545 268.868 135.624 238.943C133.987 237.305 132.395 235.664 130.846 234.016L122.059 248.126C124.054 250.315 126.129 252.485 128.276 254.636C162.648 289.008 203.154 304.233 218.748 288.643C234.343 273.052 219.114 232.546 184.742 198.17C152.159 165.592 114.075 150.214 96.9116 161.967C94.8024 163.414 93.2642 165.527 92.5104 167.971C90.7286 173.728 90.1042 185.74 105.467 202.187L104.709 198.662L104.705 198.665Z" fill="#FFE28F"/>
<path d="M145.692 292.514L131.464 278.576C130.459 277.59 129.035 277.163 127.653 277.434L108.102 281.252C104.626 281.93 101.881 278.328 103.458 275.157L112.317 257.316C112.942 256.056 112.907 254.571 112.226 253.341L102.551 235.93C100.831 232.835 103.408 229.112 106.911 229.629L126.617 232.542C128.007 232.748 129.412 232.256 130.371 231.225L143.944 216.643C146.358 214.05 150.694 215.348 151.285 218.843L154.601 238.485C154.837 239.871 155.735 241.055 157.011 241.649L175.072 250.052C178.282 251.544 178.389 256.075 175.248 257.712L157.593 266.937C156.348 267.588 155.499 268.81 155.332 270.207L152.922 289.979C152.492 293.493 148.22 294.993 145.692 292.514Z" fill="#FFC522"/>
<rect x="75.3926" y="119.759" width="93.3237" height="14.0275" fill="#3E82CD"/>
<g filter="url(#filter1_d_566_2477)">
<path d="M29.5152 99.4447C30.9952 99.4447 32.2552 99.5447 33.2552 99.7047C34.2552 99.8647 35.0552 100.125 35.6552 100.445C36.2552 100.765 36.6752 101.185 36.9352 101.685C37.1752 102.185 37.3152 102.765 37.3152 103.425C37.3152 104.085 37.1752 104.665 36.8952 105.145C36.6152 105.625 36.1552 106.045 35.5352 106.365C34.9152 106.685 34.1152 106.925 33.1352 107.085C32.1352 107.245 30.9352 107.325 29.5152 107.325C27.9952 107.325 26.7552 107.245 25.7552 107.085C24.7552 106.925 23.9752 106.685 23.3752 106.365C22.7752 106.045 22.3552 105.625 22.1152 105.145C21.8752 104.665 21.7552 104.085 21.7552 103.405C21.7552 102.765 21.8752 102.185 22.1352 101.685C22.3952 101.185 22.8352 100.765 23.4352 100.445C24.0352 100.125 24.8352 99.8647 25.8352 99.7047C26.8152 99.5447 28.0352 99.4447 29.5152 99.4447ZM29.5552 104.885C30.4752 104.885 31.2352 104.865 31.8352 104.805C32.4352 104.745 32.8952 104.645 33.2552 104.525C33.5952 104.405 33.8352 104.245 33.9752 104.045C34.1152 103.865 34.1952 103.645 34.1952 103.405C34.1952 103.165 34.1152 102.945 33.9552 102.745C33.7952 102.565 33.5352 102.405 33.1752 102.285C32.8152 102.165 32.3352 102.065 31.7352 102.005C31.1352 101.945 30.3952 101.905 29.5152 101.905C28.6352 101.905 27.9152 101.945 27.3152 102.005C26.7152 102.065 26.2352 102.165 25.8752 102.285C25.5152 102.405 25.2352 102.565 25.0752 102.745C24.9152 102.945 24.8352 103.165 24.8352 103.405C24.8352 103.645 24.9152 103.865 25.0752 104.045C25.2352 104.245 25.4952 104.405 25.8552 104.525C26.2152 104.645 26.7152 104.745 27.3152 104.805C27.9152 104.865 28.6752 104.885 29.5552 104.885ZM30.4952 87.5447C31.0952 87.5447 31.4152 87.8047 31.4152 88.2847V89.4247C31.4152 89.9447 31.1352 90.1847 30.5752 90.1847H24.7152V95.7447C27.4352 95.6647 30.1352 95.3047 32.7952 94.6247V87.8847C32.7952 87.4047 33.0752 87.1647 33.6552 87.1647H35.1752C35.6552 87.1647 35.8952 87.4047 35.8952 87.8847V90.4047H36.9152C37.4152 90.4047 37.6752 90.6247 37.6752 91.0447V92.6447C37.6752 93.1647 37.3952 93.4247 36.8752 93.4247H35.8952V97.8647C35.8952 98.4247 35.5752 98.7047 34.9552 98.7047H33.6952C33.0952 98.7047 32.7952 98.4647 32.7952 97.9847V97.4647C28.7552 98.1847 25.3352 98.5447 22.4952 98.5447C21.9952 98.5447 21.7552 98.3247 21.7552 97.8447V88.3247C21.7552 87.8047 22.0352 87.5447 22.6352 87.5447H30.4952ZM53.771 104.345C54.271 104.345 54.531 104.585 54.531 105.045V106.365C54.531 106.885 54.251 107.125 53.731 107.125H40.471C39.951 107.125 39.691 106.905 39.691 106.425V102.005C39.691 101.545 39.931 101.305 40.411 101.305H42.111C42.591 101.305 42.831 101.545 42.831 102.005V104.345H53.771ZM54.351 99.3047C54.351 99.8247 54.071 100.085 53.531 100.085H51.931C51.371 100.085 51.111 99.8447 51.111 99.3647V87.8447C51.111 87.3847 51.371 87.1447 51.911 87.1447H53.571C54.091 87.1447 54.351 87.3847 54.351 87.8447V99.3047ZM44.111 89.4047C47.951 89.0847 49.711 92.2847 49.391 99.0247C49.391 99.6047 49.071 99.9047 48.471 99.9047H47.031C46.511 99.9047 46.271 99.6447 46.271 99.1247C46.511 94.0847 45.491 91.8647 43.211 92.4847C42.771 94.4647 42.551 96.6647 42.551 99.0847C42.551 99.6447 42.251 99.9047 41.651 99.9047H40.211C39.671 99.9047 39.411 99.6647 39.411 99.1647C39.411 94.7647 40.051 91.1847 41.331 88.4447C41.651 87.8647 42.091 87.5647 42.651 87.5647H43.711C44.391 87.5647 44.671 87.8047 44.511 88.2847L44.111 89.4047ZM57.5966 100.085C56.9966 100.085 56.7166 99.8047 56.7166 99.2047V97.9247C56.7166 97.3647 56.9766 97.0847 57.5166 97.0847H70.7366C71.2566 97.1047 71.5366 97.3447 71.5366 97.8247V99.2047C71.5366 99.8047 71.2566 100.085 70.7366 100.085H57.5966ZM70.7366 104.185C71.2566 104.185 71.5366 104.425 71.5366 104.885V106.325C71.5366 106.865 71.2766 107.125 70.7966 107.125H57.4766C56.9766 107.125 56.7366 106.885 56.7366 106.385V101.785C56.7366 101.265 56.9966 101.005 57.5366 101.005H59.0766C59.5966 101.005 59.8766 101.265 59.8766 101.765V104.185H70.7366ZM64.1166 86.9647C65.6566 86.9647 66.9166 87.0647 67.8766 87.2647C68.8366 87.4647 69.5966 87.7447 70.1366 88.1247C70.6766 88.5247 71.0366 89.0047 71.2366 89.5847C71.4366 90.1847 71.5366 90.8647 71.5366 91.6247C71.5366 92.3647 71.4366 93.0047 71.2366 93.5447C71.0366 94.1047 70.6566 94.5647 70.1166 94.9247C69.5566 95.2847 68.7966 95.5647 67.8366 95.7447C66.8766 95.9247 65.6166 96.0047 64.0966 96.0047C62.6566 96.0047 61.4766 95.9247 60.5366 95.7447C59.5766 95.5647 58.8366 95.2847 58.2766 94.9247C57.7166 94.5647 57.3166 94.1047 57.0766 93.5447C56.8366 93.0047 56.7366 92.3647 56.7366 91.6247C56.7366 90.8647 56.8366 90.1847 57.0766 89.6047C57.2966 89.0247 57.6766 88.5447 58.2366 88.1447C58.7966 87.7447 59.5366 87.4647 60.4966 87.2647C61.4366 87.0647 62.6366 86.9647 64.1166 86.9647ZM64.0966 93.2847C64.9366 93.2847 65.6366 93.2647 66.1966 93.1847C66.7566 93.1247 67.1966 93.0247 67.5366 92.8847C67.8766 92.7447 68.1166 92.5647 68.2566 92.3647C68.3966 92.1647 68.4766 91.9047 68.4766 91.6247C68.4766 91.3047 68.3966 91.0247 68.2566 90.7847C68.0966 90.5447 67.8566 90.3447 67.5166 90.1847C67.1766 90.0247 66.7366 89.9047 66.1766 89.8247C65.6166 89.7447 64.9166 89.7047 64.1166 89.7047C63.2966 89.7047 62.6166 89.7447 62.0766 89.8247C61.5166 89.9047 61.0766 90.0247 60.7566 90.1847C60.4166 90.3447 60.1766 90.5447 60.0366 90.7847C59.8766 91.0247 59.8166 91.3047 59.8166 91.6247C59.8166 91.9047 59.8766 92.1647 59.9966 92.3647C60.1166 92.5647 60.3366 92.7447 60.6566 92.8847C60.9766 93.0247 61.3966 93.1247 61.9566 93.1847C62.5166 93.2647 63.2166 93.2847 64.0966 93.2847ZM22.5752 123.565C22.0552 123.565 21.8152 123.345 21.8152 122.885V122.105C21.8152 121.585 22.0552 121.305 22.5752 121.305H27.3152V120.425H22.7352C22.0952 120.425 21.7752 120.125 21.7752 119.525V118.525C21.7752 117.985 22.0552 117.705 22.6352 117.705H35.3552C35.8952 117.705 36.1752 118.005 36.1752 118.565V119.585C36.1752 120.145 35.8752 120.425 35.2952 120.425H30.4952V121.305H35.3152C35.8752 121.305 36.1552 121.545 36.1552 122.025V125.445C36.1552 125.925 35.8552 126.165 35.2952 126.165H24.8752V126.845H35.3552C35.8752 126.845 36.1552 127.085 36.1552 127.525V128.245C36.1352 128.825 35.8952 129.105 35.4152 129.105H22.7352C22.1152 129.105 21.8152 128.865 21.8152 128.345V124.965C21.8152 124.485 22.0952 124.245 22.6952 124.245H33.0952V123.565H22.5752ZM28.8752 117.105C24.5952 117.105 22.4352 116.165 22.4152 114.245C22.4152 113.485 22.7752 112.825 23.5352 112.265H22.5752C22.0152 112.265 21.7552 111.985 21.7552 111.405V110.445C21.7552 109.765 22.0352 109.425 22.6152 109.425H27.0152V108.805C27.0152 108.405 27.2152 108.185 27.6552 108.185H29.9352C30.3352 108.185 30.5552 108.405 30.5552 108.805V109.425H35.2952C35.8952 109.425 36.1952 109.725 36.1952 110.285V111.445C36.1952 112.005 35.9152 112.265 35.3552 112.265H34.5152C35.1352 112.785 35.4552 113.445 35.4552 114.245C35.4552 116.165 33.2552 117.105 28.8752 117.105ZM28.8152 112.245C26.7352 112.245 25.7152 112.745 25.7152 113.725C25.7152 114.425 26.7552 114.765 28.8552 114.765C30.9352 114.765 31.9952 114.425 31.9952 113.725C31.9952 112.745 30.9352 112.245 28.8152 112.245ZM49.5335 121.025V122.145C52.0535 122.665 53.3135 123.825 53.3135 125.585C53.3135 128.025 50.8535 129.245 45.9335 129.245C40.9935 129.245 38.5335 128.025 38.5335 125.565C38.5335 123.805 39.7735 122.665 42.2735 122.145V121.025H39.3935C38.8535 121.025 38.5935 120.745 38.5935 120.185V119.245C38.5935 118.685 38.8335 118.405 39.3135 118.405H52.4735C52.9735 118.405 53.2335 118.665 53.2335 119.145V120.205C53.2335 120.765 52.9535 121.025 52.4135 121.025H49.5335ZM39.3735 111.605C38.8535 111.605 38.5935 111.385 38.5935 110.925V109.985C38.5935 109.425 38.8735 109.125 39.4335 109.125H52.3335C52.9335 109.125 53.2335 109.385 53.2335 109.865V113.725C53.2335 114.245 52.9535 114.485 52.3935 114.485H41.6335V115.365H52.4535C52.9735 115.365 53.2335 115.565 53.2335 115.925V116.825C53.2335 117.425 52.9935 117.725 52.5135 117.725H39.4935C38.8935 117.725 38.5935 117.485 38.5935 116.985V113.225C38.5935 112.705 38.8735 112.445 39.4535 112.445H50.1735V111.605H39.3735ZM45.9535 126.805C48.7735 126.805 50.1935 126.405 50.1935 125.565C50.1935 124.725 48.7735 124.305 45.9335 124.305C43.0535 124.305 41.6335 124.725 41.6335 125.565C41.6335 126.405 43.0735 126.805 45.9535 126.805ZM45.9335 121.845C46.1135 121.845 46.3135 121.865 46.5335 121.865V121.025H45.2735V121.865C45.4735 121.865 45.6935 121.845 45.9335 121.845ZM69.5415 126.325C70.0415 126.325 70.3015 126.565 70.3015 127.025V128.345C70.3015 128.865 70.0215 129.105 69.5015 129.105H56.6815C56.1415 129.105 55.8815 128.885 55.8815 128.405V124.145C55.8815 123.665 56.1415 123.405 56.7015 123.405H58.2815C58.7615 123.405 59.0215 123.645 59.0215 124.125V126.325H69.5415ZM60.4215 122.265C59.5415 122.265 58.8215 122.185 58.2415 121.985C57.6415 121.805 57.1615 121.525 56.8015 121.145C56.4215 120.785 56.1615 120.325 56.0015 119.765C55.8415 119.205 55.7615 118.565 55.7615 117.805C55.7615 116.885 56.0015 115.965 56.5015 115.065H56.0815C55.7015 115.065 55.5215 114.805 55.5215 114.285V112.805C55.5215 112.325 55.7615 112.085 56.2615 112.085H64.8015C65.2815 112.085 65.5415 112.325 65.5415 112.785V114.365C65.5415 114.845 65.3015 115.065 64.8215 115.065H64.5615C64.9215 115.805 65.1215 116.725 65.1215 117.805C65.1215 119.225 64.7215 120.325 63.9215 121.105C63.1215 121.885 61.9615 122.265 60.4215 122.265ZM60.5215 115.065C59.8815 115.065 59.4415 115.305 59.2015 115.745C58.9615 116.205 58.8415 116.885 58.8415 117.805C58.8415 118.525 58.9615 119.065 59.2015 119.425C59.4415 119.785 59.8615 119.945 60.4815 119.945C61.0415 119.945 61.4415 119.765 61.6815 119.385C61.9215 119.005 62.0615 118.445 62.0615 117.705C62.0615 116.825 61.9415 116.165 61.7215 115.725C61.5015 115.285 61.1015 115.065 60.5215 115.065ZM57.5015 111.385C57.0615 111.385 56.8615 111.145 56.8615 110.665V109.605C56.8615 109.125 57.1015 108.865 57.6015 108.865H63.2815C63.7615 108.865 64.0215 109.085 64.0215 109.525V110.665C64.0215 111.145 63.7615 111.385 63.2815 111.385H57.5015ZM70.8615 113.645C71.3415 113.645 71.5815 113.885 71.5815 114.345V116.025C71.5815 116.525 71.3215 116.765 70.8215 116.765H69.7415V121.425C69.7415 121.965 69.4615 122.225 68.9415 122.225H67.3415C66.7815 122.225 66.5215 121.965 66.5215 121.425V109.905C66.5215 109.425 66.7815 109.165 67.3015 109.165H68.9615C69.4815 109.165 69.7415 109.405 69.7415 109.865V113.645H70.8615ZM83.0902 109.165C83.8302 109.165 84.4702 109.285 84.9902 109.505C85.5102 109.745 85.9302 110.085 86.2702 110.545C86.5902 111.005 86.8502 111.585 87.0302 112.265C87.1902 112.945 87.3302 113.745 87.4102 114.665H88.3702V109.885C88.3702 109.405 88.6302 109.165 89.1702 109.165H90.6302C91.1102 109.165 91.3502 109.405 91.3702 109.845V128.425C91.3702 128.905 91.1302 129.125 90.6702 129.125H89.1902C88.6302 129.125 88.3702 128.885 88.3702 128.385V122.165H87.4702C87.3902 123.325 87.2502 124.345 87.0702 125.225C86.8902 126.105 86.6302 126.825 86.2902 127.405C85.9502 127.985 85.5102 128.425 84.9902 128.705C84.4702 128.985 83.8302 129.125 83.0902 129.125C82.1302 129.125 81.3702 128.925 80.7702 128.485C80.1702 128.045 79.7102 127.405 79.3902 126.545C79.0502 125.685 78.8302 124.605 78.7102 123.325C78.5902 122.045 78.5302 120.545 78.5302 118.825C78.5302 117.225 78.5902 115.825 78.7102 114.625C78.8302 113.425 79.0702 112.405 79.4102 111.605C79.7502 110.805 80.2102 110.185 80.8102 109.785C81.3902 109.385 82.1502 109.165 83.0902 109.165ZM92.2902 109.885C92.2902 109.405 92.5502 109.165 93.0902 109.165H94.5502C95.0302 109.165 95.2702 109.405 95.2902 109.845V128.425C95.2902 128.905 95.0502 129.125 94.5902 129.125H93.1102C92.5502 129.125 92.2902 128.885 92.2902 128.385V109.885ZM84.5502 118.825C84.5502 116.545 84.4502 114.845 84.2702 113.725C84.0702 112.605 83.6902 112.025 83.1102 112.025C82.5302 112.025 82.1502 112.585 81.9502 113.705C81.7502 114.825 81.6702 116.545 81.6702 118.825C81.6702 121.345 81.7502 123.205 81.9502 124.445C82.1502 125.685 82.5302 126.305 83.1102 126.305C83.6702 126.305 84.0502 125.685 84.2502 124.445C84.4502 123.205 84.5502 121.325 84.5502 118.825ZM87.5302 117.585C87.5302 117.785 87.5502 118.005 87.5502 118.205V119.245H88.3702V117.585H87.5302ZM112.494 128.445C112.454 128.925 112.154 129.165 111.574 129.165H110.254C109.614 129.165 109.294 128.925 109.294 128.445V110.005C109.294 109.445 109.614 109.165 110.254 109.165H111.614C112.194 109.165 112.494 109.405 112.494 109.885V128.445ZM107.954 127.365C107.954 127.685 107.134 128.005 105.514 128.305C103.894 128.605 101.554 128.745 98.5141 128.725C97.8741 128.725 97.5941 128.485 97.6341 127.965V110.285C97.6341 109.805 97.9341 109.565 98.5741 109.565H99.8341C100.394 109.585 100.654 109.825 100.654 110.265V112.665H104.914V110.265C104.914 109.785 105.214 109.545 105.854 109.545H107.014C107.634 109.565 107.954 109.805 107.954 110.265V127.365ZM100.634 125.965C102.054 125.965 103.474 125.845 104.894 125.605V115.425H100.654L100.634 125.965ZM122.441 121.605C123.961 121.605 125.201 121.685 126.181 121.845C127.161 122.005 127.941 122.265 128.521 122.585C129.101 122.905 129.501 123.325 129.741 123.805C129.961 124.285 130.081 124.865 130.081 125.505C130.081 126.145 129.941 126.705 129.701 127.185C129.461 127.665 129.041 128.065 128.461 128.385C127.861 128.705 127.081 128.945 126.101 129.105C125.121 129.265 123.901 129.345 122.441 129.345C120.981 129.345 119.761 129.265 118.801 129.105C117.841 128.945 117.061 128.705 116.481 128.385C115.901 128.065 115.481 127.665 115.241 127.185C115.001 126.705 114.881 126.125 114.881 125.485C114.881 124.845 115.001 124.285 115.241 123.805C115.481 123.325 115.901 122.905 116.481 122.585C117.061 122.265 117.841 122.005 118.801 121.845C119.761 121.685 120.981 121.605 122.441 121.605ZM119.501 112.225C119.361 112.525 119.241 112.825 119.141 113.145C122.821 112.945 124.621 115.185 124.581 119.825C124.581 120.405 124.261 120.705 123.661 120.705H122.221C121.701 120.685 121.461 120.425 121.461 119.925C121.421 116.905 120.421 115.605 118.481 116.025C118.281 117.265 118.181 118.625 118.181 120.125C118.181 120.645 117.881 120.885 117.301 120.885H115.941C115.381 120.885 115.101 120.605 115.101 120.045C115.101 118.645 115.221 117.305 115.441 116.025C115.641 114.745 115.961 113.485 116.401 112.225H115.481C115.061 112.225 114.861 112.025 114.861 111.605V110.165C114.861 109.765 115.061 109.545 115.481 109.545H117.281V109.105C117.281 108.705 117.501 108.485 117.961 108.485H119.781C120.181 108.485 120.381 108.705 120.381 109.105V109.545H124.141C124.601 109.545 124.841 109.765 124.841 110.185V111.505C124.841 111.985 124.601 112.225 124.121 112.225H119.501ZM130.141 113.405C130.621 113.405 130.861 113.665 130.861 114.185V115.805C130.841 116.265 130.581 116.505 130.101 116.525H128.861V119.905C128.861 120.425 128.581 120.685 128.061 120.685H126.641C126.001 120.685 125.681 120.445 125.681 119.965V109.865C125.681 109.405 125.961 109.165 126.541 109.165H128.041C128.581 109.165 128.861 109.405 128.861 109.885V113.405H130.141ZM122.461 126.905C123.321 126.905 124.041 126.885 124.621 126.825C125.201 126.765 125.661 126.665 126.021 126.545C126.361 126.425 126.601 126.285 126.761 126.105C126.901 125.945 126.981 125.725 126.981 125.485C126.981 125.245 126.901 125.045 126.761 124.865C126.601 124.705 126.361 124.545 126.001 124.425C125.641 124.305 125.181 124.225 124.601 124.165C124.021 124.105 123.301 124.065 122.441 124.065C121.561 124.065 120.821 124.105 120.261 124.165C119.701 124.225 119.241 124.305 118.901 124.425C118.561 124.545 118.321 124.705 118.201 124.865C118.061 125.045 118.001 125.245 118.001 125.485C118.001 125.725 118.061 125.945 118.201 126.105C118.341 126.285 118.581 126.425 118.941 126.545C119.281 126.665 119.741 126.765 120.301 126.825C120.861 126.885 121.581 126.905 122.461 126.905ZM147.535 128.205C147.535 128.805 147.195 129.105 146.555 129.105H133.975C133.415 129.105 133.155 128.905 133.155 128.465V121.905C133.155 121.425 133.455 121.185 134.055 121.185H135.335C135.915 121.185 136.215 121.425 136.215 121.905V122.885H144.515V121.905C144.515 121.425 144.775 121.185 145.335 121.185H146.655C147.235 121.185 147.535 121.405 147.535 121.805V128.205ZM144.515 125.205H136.215V126.585H144.515V125.205ZM137.455 120.305C136.475 120.305 135.655 120.205 135.015 119.965C134.375 119.725 133.855 119.385 133.475 118.905C133.095 118.445 132.835 117.865 132.675 117.165C132.515 116.485 132.455 115.665 132.455 114.725C132.455 113.805 132.535 112.985 132.695 112.285C132.855 111.585 133.115 111.005 133.515 110.545C133.895 110.085 134.415 109.745 135.055 109.505C135.695 109.265 136.495 109.145 137.455 109.145C138.175 109.145 138.835 109.225 139.435 109.365C140.035 109.525 140.555 109.745 140.995 110.065C141.435 110.385 141.775 110.805 142.035 111.305C142.275 111.805 142.415 112.405 142.455 113.085H144.235V109.865C144.235 109.405 144.575 109.165 145.255 109.165H146.355C147.015 109.165 147.355 109.425 147.355 109.945V119.245C147.355 119.825 147.055 120.105 146.475 120.105H145.175C144.535 120.105 144.235 119.805 144.235 119.205V116.105H142.475C142.395 116.865 142.235 117.505 141.995 118.025C141.755 118.565 141.415 119.005 140.975 119.345C140.535 119.685 140.035 119.925 139.435 120.085C138.835 120.245 138.175 120.305 137.455 120.305ZM137.455 111.925C136.715 111.925 136.175 112.165 135.855 112.605C135.535 113.065 135.375 113.765 135.375 114.725C135.375 115.725 135.535 116.485 135.875 116.985C136.195 117.485 136.735 117.725 137.455 117.725C138.215 117.725 138.755 117.485 139.075 116.985C139.395 116.485 139.575 115.725 139.595 114.725C139.595 112.865 138.875 111.925 137.455 111.925ZM153.824 112.385C153.764 112.885 153.704 113.365 153.644 113.845C157.364 113.045 159.244 116.585 159.244 124.425V128.145C159.244 128.645 158.964 128.885 158.424 128.885H157.044C156.484 128.885 156.204 128.645 156.204 128.145V124.265C156.204 118.685 155.224 116.425 153.264 117.485C152.944 121.045 152.804 124.585 152.844 128.125C152.844 128.645 152.564 128.905 152.004 128.905H150.544C149.984 128.905 149.704 128.645 149.704 128.085C149.644 122.065 149.964 116.825 150.664 112.385H150.224C149.784 112.385 149.564 112.145 149.564 111.665V110.285C149.564 109.805 149.804 109.565 150.304 109.565H158.524C159.044 109.565 159.324 109.805 159.324 110.285V111.565C159.324 112.125 159.044 112.385 158.504 112.385H153.824ZM164.844 114.645C165.404 114.645 165.684 114.905 165.684 115.385V116.925C165.684 117.485 165.424 117.765 164.904 117.765H163.924V128.345C163.924 128.865 163.644 129.105 163.104 129.105H161.564C161.004 129.105 160.724 128.865 160.724 128.365V109.825C160.724 109.385 160.964 109.145 161.484 109.145H163.124C163.644 109.145 163.924 109.385 163.924 109.865V114.645H164.844ZM181.615 114.645C182.175 114.645 182.455 114.905 182.455 115.405V116.925C182.455 117.485 182.175 117.765 181.655 117.765H180.655V128.225C180.655 128.825 180.375 129.125 179.855 129.125H178.315C177.755 129.125 177.475 128.845 177.475 128.265V109.865C177.475 109.405 177.715 109.165 178.215 109.165H179.875C180.395 109.165 180.655 109.405 180.655 109.885V114.645H181.615ZM172.655 112.905C172.655 112.605 172.495 112.445 172.175 112.445H167.335C166.855 112.445 166.635 112.185 166.635 111.645V110.425C166.635 109.865 166.875 109.565 167.395 109.565H175.135C175.715 109.565 176.015 109.925 176.015 110.625C176.055 118.765 174.175 124.625 170.375 128.225C170.035 128.565 169.495 128.725 168.775 128.725H167.635C167.195 128.725 166.935 128.605 166.855 128.345C166.775 128.085 166.935 127.765 167.335 127.405C170.955 123.845 172.735 119.005 172.655 112.905ZM199.168 109.545C199.688 109.545 199.968 109.785 199.968 110.225V111.165C199.968 111.645 199.708 111.885 199.208 111.885H192.428V113.505H199.168C199.688 113.505 199.968 113.745 199.968 114.205V115.065C199.968 115.605 199.708 115.865 199.188 115.865H196.268V117.125H201.068V109.905C201.068 109.405 201.328 109.145 201.848 109.145H203.348C203.888 109.145 204.168 109.385 204.168 109.865V119.405C204.168 119.965 203.908 120.225 203.388 120.225H201.848C201.328 120.225 201.068 120.005 201.068 119.565H190.248C189.768 119.565 189.548 119.345 189.548 118.865V117.905C189.548 117.385 189.788 117.125 190.308 117.125H193.128V115.865H190.288C189.768 115.865 189.528 115.605 189.528 115.045V110.305C189.528 109.805 189.788 109.545 190.308 109.545H199.168ZM192.728 125.865V126.665H203.488C203.928 126.665 204.168 126.865 204.168 127.265V128.445C204.168 128.885 203.928 129.105 203.488 129.105H190.428C189.828 129.105 189.548 128.845 189.548 128.285V124.925C189.548 124.405 189.788 124.125 190.308 124.125H201.108V123.305H190.368C189.808 123.305 189.548 123.085 189.548 122.625V121.565C189.548 121.085 189.788 120.825 190.268 120.825H203.388C203.908 120.825 204.168 121.065 204.168 121.505V125.205C204.168 125.645 203.928 125.865 203.468 125.865H192.728ZM217.293 112.885C217.293 112.585 217.133 112.425 216.813 112.425H212.393C211.913 112.425 211.693 112.165 211.693 111.625V110.405C211.693 109.845 211.953 109.545 212.473 109.545H219.793C220.353 109.545 220.653 109.905 220.653 110.605C220.653 112.125 220.593 113.485 220.513 114.645H222.973V109.885C222.973 109.405 223.233 109.165 223.773 109.165H225.393C225.913 109.165 226.173 109.405 226.173 109.845V128.365C226.173 128.865 225.893 129.105 225.333 129.105H223.773C223.233 129.105 222.973 128.865 222.973 128.365V117.765H220.153C219.393 122.225 217.813 125.705 215.413 128.205C215.073 128.545 214.533 128.705 213.813 128.705H212.673C212.233 128.705 211.973 128.585 211.893 128.325C211.813 128.065 211.973 127.745 212.373 127.385C215.733 123.725 217.373 118.885 217.293 112.885ZM233.012 109.165C233.752 109.165 234.392 109.285 234.912 109.505C235.432 109.745 235.852 110.085 236.192 110.545C236.512 111.005 236.772 111.585 236.952 112.265C237.112 112.945 237.252 113.745 237.332 114.665H238.292V109.885C238.292 109.405 238.552 109.165 239.092 109.165H240.552C241.032 109.165 241.272 109.405 241.292 109.845V128.425C241.292 128.905 241.052 129.125 240.592 129.125H239.112C238.552 129.125 238.292 128.885 238.292 128.385V122.165H237.392C237.312 123.325 237.172 124.345 236.992 125.225C236.812 126.105 236.552 126.825 236.212 127.405C235.872 127.985 235.432 128.425 234.912 128.705C234.392 128.985 233.752 129.125 233.012 129.125C232.052 129.125 231.292 128.925 230.692 128.485C230.092 128.045 229.632 127.405 229.312 126.545C228.972 125.685 228.752 124.605 228.632 123.325C228.512 122.045 228.452 120.545 228.452 118.825C228.452 117.225 228.512 115.825 228.632 114.625C228.752 113.425 228.992 112.405 229.332 111.605C229.672 110.805 230.132 110.185 230.732 109.785C231.312 109.385 232.072 109.165 233.012 109.165ZM242.212 109.885C242.212 109.405 242.472 109.165 243.012 109.165H244.472C244.952 109.165 245.192 109.405 245.212 109.845V128.425C245.212 128.905 244.972 129.125 244.512 129.125H243.032C242.472 129.125 242.212 128.885 242.212 128.385V109.885ZM234.472 118.825C234.472 116.545 234.372 114.845 234.192 113.725C233.992 112.605 233.612 112.025 233.032 112.025C232.452 112.025 232.072 112.585 231.872 113.705C231.672 114.825 231.592 116.545 231.592 118.825C231.592 121.345 231.672 123.205 231.872 124.445C232.072 125.685 232.452 126.305 233.032 126.305C233.592 126.305 233.972 125.685 234.172 124.445C234.372 123.205 234.472 121.325 234.472 118.825ZM237.452 117.585C237.452 117.785 237.472 118.005 237.472 118.205V119.245H238.292V117.585H237.452ZM250.936 125.665V123.085C250.296 122.965 249.776 122.685 249.356 122.265C248.916 121.865 248.576 121.345 248.316 120.725C248.036 120.125 247.856 119.425 247.736 118.625C247.616 117.845 247.556 117.005 247.556 116.125C247.556 114.925 247.656 113.885 247.896 112.985C248.116 112.105 248.496 111.365 249.036 110.765C249.576 110.165 250.296 109.725 251.216 109.425C252.136 109.125 253.276 108.965 254.636 108.965C255.936 108.965 257.036 109.125 257.936 109.425C258.836 109.725 259.576 110.165 260.136 110.765C260.696 111.365 261.096 112.105 261.336 112.985C261.576 113.885 261.716 114.925 261.716 116.125C261.716 117.025 261.636 117.865 261.516 118.625C261.396 119.385 261.196 120.065 260.916 120.665C260.636 121.265 260.296 121.785 259.856 122.185C259.416 122.605 258.896 122.905 258.296 123.105V125.665H260.896C261.436 125.665 261.716 125.945 261.716 126.485V127.925C261.716 128.425 261.456 128.665 260.936 128.665H248.456C247.856 128.665 247.556 128.405 247.556 127.865V126.565C247.556 125.965 247.856 125.665 248.496 125.665H250.936ZM254.636 120.925C256.076 120.925 257.116 120.525 257.716 119.725C258.316 118.925 258.636 117.725 258.636 116.125C258.636 114.645 258.336 113.545 257.736 112.805C257.136 112.085 256.096 111.705 254.656 111.705C253.216 111.705 252.176 112.085 251.576 112.825C250.956 113.565 250.656 114.665 250.656 116.125C250.656 116.925 250.716 117.625 250.856 118.225C250.976 118.825 251.196 119.325 251.516 119.725C251.816 120.125 252.216 120.425 252.736 120.625C253.236 120.825 253.876 120.925 254.636 120.925ZM254.636 123.645C254.476 123.645 254.336 123.645 254.216 123.645C254.076 123.645 253.936 123.625 253.816 123.605V125.665H255.396V123.605C255.276 123.625 255.136 123.645 255.016 123.645C254.896 123.645 254.756 123.645 254.636 123.645ZM267.58 127.265C267.54 127.945 267.4 128.405 267.14 128.625C266.88 128.865 266.44 129.005 265.8 129.045C265.12 129.005 264.68 128.865 264.44 128.625C264.2 128.385 264.08 127.945 264.06 127.265C264.08 126.625 264.2 126.165 264.44 125.905C264.66 125.645 265.12 125.505 265.8 125.465C266.48 125.505 266.94 125.625 267.18 125.865C267.42 126.105 267.54 126.585 267.58 127.265Z" fill="black"/>
</g>
<path d="M63.8229 280.201C63.8229 280.201 79.1262 269.317 91.5271 269.317C103.928 269.317 117.142 273.275 122.2 275.254C123.739 273.825 127.674 270.966 131.104 270.966C135.392 270.966 150.563 285.478 154.851 286.797C159.138 288.117 173.32 293.064 172.99 296.032C172.661 299 160.787 301.309 151.553 298.671C175.393 333.503 168.76 333.658 167.196 334.215C166.919 334.313 166.259 334.631 163.256 334.215C164.861 336.533 167.803 341.811 166.733 344.379C165.663 346.947 163.434 346.519 162.453 345.984C163.964 347.99 167 354.409 165.128 356.549C163.63 358.261 161.714 357.934 160.943 357.557C176.537 369.725 193.431 413.056 199.929 433.2H25.948C25.017 393.167 37.7563 370.209 44.2424 363.733C42.7993 358.891 43.6411 356.335 44.2424 355.663C43.2969 355.394 41.0426 354.452 39.5899 352.838C38.1372 351.224 40.1951 347.996 41.4057 346.583C40.1279 346.583 37.1283 345.736 35.3528 342.346C33.5773 338.957 38.6483 333.805 41.4057 331.653C39.1364 322.291 42.3513 311.962 44.2424 307.968C35.5168 308.527 25.2388 307.014 24.2456 298.671C22.9264 287.589 50.0808 281.74 63.8229 280.201Z" fill="white"/>
<ellipse cx="78.1336" cy="309.163" rx="2.86209" ry="5.02325" fill="black"/>
<ellipse cx="118.319" cy="309.163" rx="2.86209" ry="5.02325" fill="black"/>
<path d="M111.72 317.691C103.309 317.971 100.194 321.468 99.6873 323.181C99.2083 324.623 102.502 327.217 105.644 327.967C108.787 328.716 118.028 327.504 120.364 326.569C122.701 325.635 123.402 320.027 123.051 318.976C122.701 317.924 122.234 317.34 111.72 317.691Z" fill="black" stroke="black" stroke-width="0.741871"/>
<path d="M110.563 326.99C110.182 330.982 108.599 338.563 105.102 342.755M91.1875 345.968C92.458 346.762 96.4124 347.715 102.066 345.174C103.209 344.661 104.217 343.816 105.102 342.755M112.389 349.938C110.363 348.881 106.07 345.965 105.102 342.755" stroke="black" stroke-linecap="round" stroke-linejoin="round"/>
<path d="M141.852 361.228C105.949 372.057 70.9781 367.702 57.9805 364.17C61.1195 369.909 73.195 381.386 96.3848 381.386C119.574 381.386 136.359 367.947 141.852 361.228Z" fill="#3E82CD"/>
<circle cx="94.5239" cy="385.464" r="3.53951" fill="#D9D9D9"/>
<circle cx="105.143" cy="374.846" r="3.53951" fill="#D9D9D9"/>
<circle cx="98.0629" cy="389.004" r="3.53951" fill="#D9D9D9"/>
<circle cx="108.682" cy="378.385" r="3.53951" fill="#D9D9D9"/>
<rect x="104.473" y="374.847" width="6.49511" height="14.262" transform="rotate(48.659 104.473 374.847)" fill="#D9D9D9"/>
<path d="M186.192 418.578L162.445 422.377L184.737 425.788L186.192 418.578Z" fill="#D5D5D5"/>
<rect x="182.768" y="371.307" width="76.7024" height="56.4615" rx="5.67026" fill="#EEEEEE"/>
<rect x="157.789" y="422.175" width="101.682" height="11.1857" rx="5.59287" fill="#EEEEEE"/>
<circle cx="79.0018" cy="310.901" r="15.6385" stroke="black"/>
<circle cx="124.574" cy="310.901" r="15.6385" stroke="black"/>
<line x1="95.1406" y1="311.116" x2="108.839" y2="311.116" stroke="black"/>
<path d="M83.2315 399.729C83.1585 399.182 82.6555 398.797 82.1081 398.87C81.5606 398.943 81.176 399.446 81.249 399.993L83.2315 399.729ZM89.7402 408.611L89.5514 409.593L89.7402 408.611ZM147.24 418.361L146.354 418.825L147.24 418.361ZM81.249 399.993C81.4334 401.376 82.0559 403.465 83.3368 405.359C84.6286 407.269 86.6275 409.031 89.5514 409.593L89.9291 407.629C87.6529 407.192 86.0686 405.828 84.9936 404.239C83.9079 402.633 83.3804 400.847 83.2315 399.729L81.249 399.993ZM89.5514 409.593C90.4811 409.772 91.9687 409.803 93.771 409.776C95.6034 409.748 97.8683 409.657 100.404 409.559C105.488 409.364 111.706 409.144 117.958 409.349C124.219 409.554 130.456 410.185 135.588 411.668C140.75 413.16 144.587 415.453 146.354 418.825L148.126 417.897C145.977 413.795 141.482 411.289 136.143 409.747C130.776 408.195 124.346 407.557 118.023 407.35C111.692 407.142 105.409 407.366 100.327 407.561C97.779 407.659 95.5438 407.749 93.7408 407.776C91.9076 407.804 90.6244 407.763 89.9291 407.629L89.5514 409.593ZM146.354 418.825C149.344 424.531 148.742 428.793 147.26 431.703C145.736 434.695 143.236 436.349 142.381 436.678L143.099 438.545C144.411 438.04 147.292 436.046 149.043 432.61C150.835 429.091 151.4 424.145 148.126 417.897L146.354 418.825Z" fill="#A3A3A3"/>
</g>
</g>
<defs>
<filter id="filter0_d_566_2477" x="0.615234" y="0.361328" width="293" height="441" filterUnits="userSpaceOnUse" color-interpolation-filters="sRGB">
<feFlood flood-opacity="0" result="BackgroundImageFix"/>
<feColorMatrix in="SourceAlpha" type="matrix" values="0 0 0 0 0 0 0 0 0 0 0 0 0 0 0 0 0 0 127 0" result="hardAlpha"/>
<feOffset dx="2" dy="4"/>
<feGaussianBlur stdDeviation="2"/>
<feComposite in2="hardAlpha" operator="out"/>
<feColorMatrix type="matrix" values="0 0 0 0 0 0 0 0 0 0 0 0 0 0 0 0 0 0 0.25 0"/>
<feBlend mode="normal" in2="BackgroundImageFix" result="effect1_dropShadow_566_2477"/>
<feBlend mode="normal" in="SourceGraphic" in2="effect1_dropShadow_566_2477" result="shape"/>
</filter>
<filter id="filter1_d_566_2477" x="13.9659" y="79.1748" width="261.404" height="57.9599" filterUnits="userSpaceOnUse" color-interpolation-filters="sRGB">
<feFlood flood-opacity="0" result="BackgroundImageFix"/>
<feColorMatrix in="SourceAlpha" type="matrix" values="0 0 0 0 0 0 0 0 0 0 0 0 0 0 0 0 0 0 127 0" result="hardAlpha"/>
<feOffset/>
<feGaussianBlur stdDeviation="3.895"/>
<feComposite in2="hardAlpha" operator="out"/>
<feColorMatrix type="matrix" values="0 0 0 0 1 0 0 0 0 1 0 0 0 0 1 0 0 0 1 0"/>
<feBlend mode="normal" in2="BackgroundImageFix" result="effect1_dropShadow_566_2477"/>
<feBlend mode="normal" in="SourceGraphic" in2="effect1_dropShadow_566_2477" result="shape"/>
</filter>
<linearGradient id="paint0_linear_566_2477" x1="145.115" y1="0.361328" x2="145.115" y2="433.361" gradientUnits="userSpaceOnUse">
<stop offset="0.139" stop-color="#DEF2EB"/>
<stop offset="1" stop-color="#B9E6E9"/>
</linearGradient>
<clipPath id="clip0_566_2477">
<rect x="2.61523" y="0.361328" width="285" height="433" rx="10" fill="white"/>
</clipPath>
</defs>
</svg>
