<svg width="294" height="441" viewBox="0 0 294 441" fill="none" xmlns="http://www.w3.org/2000/svg">
<g filter="url(#filter0_d_566_2399)">
<g clip-path="url(#clip0_566_2399)">
<rect x="2.87891" width="285" height="433" rx="10" fill="url(#paint0_linear_566_2399)"/>
<path d="M125.421 -31.832C125.529 -17.1948 120.477 17.3491 99.3989 38.4267C73.0518 64.7739 42.1509 50.7872 9.62362 83.3145C-16.3982 109.336 -24.6385 125.817 -25.5059 130.804" stroke="white" stroke-opacity="0.48" stroke-width="7.90056"/>
<path d="M169.717 -23.6387C169.826 -9.00145 164.773 25.5424 143.695 46.6201" stroke="white" stroke-opacity="0.48" stroke-width="7.90056" stroke-linecap="round"/>
<path d="M125.33 46.6221L127.893 54.3881L134.821 57.2618L127.893 60.1355L125.33 67.9015L122.766 60.1355L115.838 57.2618L122.766 54.3881L125.33 46.6221Z" fill="white" fill-opacity="0.62"/>
<rect x="32.207" y="98.0703" width="93.3237" height="14.0275" fill="#3E82CD"/>
<g filter="url(#filter1_d_566_2399)">
<path d="M47.747 109.345C47.747 109.845 47.507 110.085 47.027 110.085H45.287C44.767 110.085 44.527 109.845 44.527 109.345V90.8647C44.527 90.4047 44.767 90.1647 45.287 90.1647H47.027C47.507 90.1647 47.747 90.4047 47.747 90.8647V109.345ZM42.967 107.725C42.967 108.205 42.707 108.505 42.227 108.625C39.827 109.305 37.127 109.665 34.167 109.705C33.607 109.705 33.327 109.485 33.327 109.005V91.4247C33.327 90.8647 33.627 90.5647 34.227 90.5647H41.987C42.627 90.5647 42.967 90.8647 42.967 91.4247V107.725ZM36.367 106.965C37.747 106.965 38.907 106.785 39.827 106.445V93.3447H36.367V106.965ZM65.9653 109.365C65.9653 109.865 65.6853 110.105 65.1653 110.105H63.7653C63.2453 110.105 63.0053 109.865 63.0053 109.385V98.7647H62.2853V109.365C62.2853 109.865 62.0253 110.105 61.5253 110.105H60.1053C59.6053 110.105 59.3653 109.865 59.3653 109.385V108.285C56.4253 109.225 53.5853 109.685 50.8453 109.685C50.3453 109.685 50.1053 109.445 50.1053 108.965V96.2047C50.1053 95.7647 50.3453 95.5247 50.8453 95.5247H55.2453V93.2047H50.9653C50.3853 93.2047 50.1053 92.9647 50.1053 92.4647V91.3447C50.1053 90.8247 50.3453 90.5447 50.8653 90.5447H57.4053C57.9253 90.5447 58.2053 90.8047 58.2053 91.3047V97.5247C58.2053 98.0847 57.9453 98.3447 57.4253 98.3447H53.1053V106.465C55.0853 106.465 57.1653 106.045 59.3653 105.165V90.8647C59.3653 90.3847 59.6053 90.1447 60.1253 90.1447H61.5453C62.0253 90.1447 62.2853 90.4047 62.2853 90.8847V95.6447H63.0053V90.8647C63.0053 90.3847 63.2653 90.1447 63.7853 90.1447H65.2053C65.7053 90.1447 65.9653 90.4047 65.9653 90.8847V109.365ZM82.528 98.9047C82.968 98.9247 83.188 99.1047 83.188 99.4447V100.585C83.188 101.065 82.948 101.305 82.488 101.305H69.028C68.548 101.305 68.308 101.045 68.308 100.525V99.5447C68.308 99.1247 68.508 98.9047 68.928 98.9047H82.528ZM68.988 92.4047C68.528 92.4047 68.308 92.2247 68.308 91.8447V90.7847C68.308 90.3847 68.528 90.1647 68.988 90.1647H82.428C82.928 90.1647 83.188 90.3847 83.188 90.7847V94.3647C83.188 94.8447 82.948 95.0847 82.468 95.0847H71.348V95.9047H82.468C82.948 95.9047 83.188 96.1247 83.188 96.5247V97.4447C83.188 97.9247 82.948 98.1647 82.508 98.1647H68.968C68.528 98.1647 68.308 97.9447 68.308 97.5047V93.8447C68.308 93.4047 68.528 93.1647 68.968 93.1647H80.128V92.4047H68.988ZM69.028 104.325C68.548 104.325 68.308 104.105 68.308 103.645V102.765C68.308 102.305 68.548 102.065 69.028 102.065H82.408C82.928 102.065 83.188 102.305 83.188 102.765V106.365C83.188 106.825 82.948 107.045 82.468 107.045H71.348V107.845H82.468C82.948 107.845 83.188 108.065 83.188 108.485V109.485C83.188 109.905 82.928 110.105 82.428 110.105H69.048C68.548 110.105 68.308 109.885 68.308 109.405V105.785C68.308 105.345 68.548 105.125 69.068 105.125H80.128V104.325H69.028ZM98.8261 102.885C103.866 102.885 106.386 104.125 106.386 106.605C106.386 109.045 103.866 110.245 98.8261 110.245C93.7861 110.245 91.2661 109.025 91.2661 106.585C91.2661 104.125 93.7861 102.885 98.8261 102.885ZM95.8661 102.185C92.8461 102.185 91.3461 100.945 91.3461 98.4447C91.3461 97.6447 91.5861 96.8647 92.0861 96.1047H91.3461C90.9661 96.1047 90.7861 95.8447 90.7861 95.3247V94.0047C90.7861 93.4247 91.0261 93.1247 91.5261 93.1247H100.486C100.906 93.1447 101.126 93.3447 101.126 93.7247V95.5447C101.126 95.9447 100.906 96.1247 100.486 96.1047H99.9061C100.266 96.8047 100.466 97.5847 100.466 98.4447C100.466 100.925 98.9261 102.185 95.8661 102.185ZM105.086 92.7847H106.066C106.566 92.7847 106.826 93.0447 106.826 93.5447V94.8047C106.826 95.3047 106.586 95.5447 106.126 95.5447H105.086V96.6047H106.066C106.566 96.6047 106.826 96.8647 106.826 97.3647V98.6047C106.826 99.1247 106.586 99.3647 106.126 99.3647H105.086V101.305C105.086 101.825 104.806 102.065 104.266 102.065H102.706C102.166 102.065 101.906 101.825 101.906 101.345V90.8647C101.906 90.4047 102.166 90.1647 102.686 90.1647H104.306C104.826 90.1647 105.086 90.4047 105.086 90.8647V92.7847ZM98.8261 107.805C101.786 107.805 103.286 107.405 103.286 106.585C103.286 105.765 101.786 105.345 98.8261 105.345C95.8461 105.345 94.3661 105.765 94.3661 106.585C94.3661 107.405 95.8461 107.805 98.8261 107.805ZM93.2861 92.5447C92.8461 92.5447 92.6261 92.3047 92.6261 91.8247V90.8847C92.6261 90.4047 92.8661 90.1647 93.3861 90.1647H98.4461C98.9261 90.1647 99.1661 90.3847 99.1661 90.8247V91.8847C99.1661 92.3247 98.9461 92.5447 98.5061 92.5447H93.2861ZM96.0861 96.1047C94.8861 96.1047 94.3061 96.8847 94.3061 98.4447C94.3061 99.4447 94.8861 99.9247 96.0861 99.9247C97.1661 99.9247 97.7061 99.4447 97.7061 98.4447C97.7061 96.8847 97.1661 96.1047 96.0861 96.1047ZM122.696 107.325C123.196 107.325 123.456 107.565 123.456 108.025V109.345C123.456 109.865 123.176 110.105 122.656 110.105H109.836C109.296 110.105 109.036 109.885 109.036 109.405V105.145C109.036 104.665 109.296 104.405 109.856 104.405H111.436C111.916 104.405 112.176 104.645 112.176 105.125V107.325H122.696ZM113.576 103.265C112.696 103.265 111.976 103.185 111.396 102.985C110.796 102.805 110.316 102.525 109.956 102.145C109.576 101.785 109.316 101.325 109.156 100.765C108.996 100.205 108.916 99.5647 108.916 98.8047C108.916 97.8847 109.156 96.9647 109.656 96.0647H109.236C108.856 96.0647 108.676 95.8047 108.676 95.2847V93.8047C108.676 93.3247 108.916 93.0847 109.416 93.0847H117.956C118.436 93.0847 118.696 93.3247 118.696 93.7847V95.3647C118.696 95.8447 118.456 96.0647 117.976 96.0647H117.716C118.076 96.8047 118.276 97.7247 118.276 98.8047C118.276 100.225 117.876 101.325 117.076 102.105C116.276 102.885 115.116 103.265 113.576 103.265ZM113.676 96.0647C113.036 96.0647 112.596 96.3047 112.356 96.7447C112.116 97.2047 111.996 97.8847 111.996 98.8047C111.996 99.5247 112.116 100.065 112.356 100.425C112.596 100.785 113.016 100.945 113.636 100.945C114.196 100.945 114.596 100.765 114.836 100.385C115.076 100.005 115.216 99.4447 115.216 98.7047C115.216 97.8247 115.096 97.1647 114.876 96.7247C114.656 96.2847 114.256 96.0647 113.676 96.0647ZM110.656 92.3847C110.216 92.3847 110.016 92.1447 110.016 91.6647V90.6047C110.016 90.1247 110.256 89.8647 110.756 89.8647H116.436C116.916 89.8647 117.176 90.0847 117.176 90.5247V91.6647C117.176 92.1447 116.916 92.3847 116.436 92.3847H110.656ZM124.016 94.6447C124.496 94.6447 124.736 94.8847 124.736 95.3447V97.0247C124.736 97.5247 124.476 97.7647 123.976 97.7647H122.896V102.425C122.896 102.965 122.616 103.225 122.096 103.225H120.496C119.936 103.225 119.676 102.965 119.676 102.425V90.9047C119.676 90.4247 119.936 90.1647 120.456 90.1647H122.116C122.636 90.1647 122.896 90.4047 122.896 90.8647V94.6447H124.016ZM139.085 102.285C140.525 102.285 141.725 102.385 142.685 102.545C143.625 102.705 144.385 102.965 144.945 103.305C145.505 103.645 145.885 104.065 146.105 104.565C146.325 105.065 146.445 105.645 146.445 106.325C146.445 107.005 146.325 107.585 146.125 108.085C145.905 108.605 145.525 109.025 144.965 109.345C144.405 109.685 143.665 109.945 142.725 110.105C141.765 110.265 140.565 110.345 139.085 110.345C137.725 110.345 136.585 110.265 135.665 110.105C134.745 109.945 133.985 109.685 133.425 109.345C132.845 109.025 132.425 108.605 132.185 108.085C131.925 107.585 131.805 107.005 131.805 106.325C131.805 105.645 131.905 105.065 132.125 104.565C132.345 104.065 132.725 103.645 133.285 103.305C133.845 102.965 134.585 102.705 135.525 102.545C136.445 102.385 137.645 102.285 139.085 102.285ZM139.085 107.905C140.625 107.905 141.725 107.785 142.365 107.525C143.005 107.265 143.325 106.865 143.325 106.325C143.325 106.065 143.245 105.825 143.125 105.625C142.985 105.425 142.745 105.265 142.425 105.145C142.105 105.025 141.665 104.925 141.125 104.845C140.565 104.785 139.885 104.745 139.085 104.745C138.245 104.745 137.565 104.785 137.025 104.845C136.485 104.925 136.065 105.025 135.745 105.145C135.425 105.265 135.205 105.425 135.085 105.625C134.965 105.825 134.905 106.065 134.905 106.325C134.905 106.605 134.965 106.825 135.125 107.025C135.265 107.225 135.505 107.405 135.825 107.525C136.145 107.645 136.585 107.745 137.125 107.805C137.645 107.885 138.305 107.905 139.085 107.905ZM145.665 98.6847C146.185 98.6847 146.465 98.9447 146.465 99.4647V100.785C146.465 101.265 146.185 101.505 145.665 101.505H132.565C132.045 101.505 131.785 101.245 131.785 100.685V99.4647C131.785 98.9447 132.045 98.6847 132.585 98.6847H136.245V96.1647C136.245 95.6047 136.545 95.3247 137.165 95.3247H138.565C139.145 95.3247 139.445 95.6047 139.445 96.1247V98.6847H145.665ZM145.805 90.1647C146.225 90.1647 146.445 90.4447 146.445 91.0047C146.445 93.6047 146.065 95.6847 145.305 97.2047C145.085 97.6647 144.685 97.8847 144.105 97.8847H142.725C142.425 97.8847 142.205 97.8047 142.085 97.6447C141.965 97.4847 141.985 97.2247 142.165 96.8647C142.745 95.6447 143.085 94.5247 143.165 93.5247C143.205 93.2047 143.065 93.0247 142.745 93.0247H132.465C132.025 93.0247 131.805 92.8047 131.805 92.3447V90.8647C131.805 90.4047 132.025 90.1647 132.465 90.1647H145.805ZM149.716 103.045C149.076 103.045 148.776 102.765 148.776 102.165V91.3247C148.776 90.8047 149.056 90.5447 149.636 90.5447H151.136C151.696 90.5447 151.996 90.8047 151.996 91.2847V93.0847H160.276V91.2847C160.276 90.8047 160.556 90.5447 161.156 90.5447H162.676C163.236 90.5447 163.516 90.7847 163.516 91.2647V102.165C163.516 102.765 163.176 103.045 162.516 103.045H149.716ZM160.276 100.165V95.9447H151.996V100.165H160.276ZM157.676 109.405C157.676 109.885 157.456 110.125 157.016 110.125H155.036C154.576 110.125 154.356 109.885 154.356 109.405V107.445H149.696C149.076 107.445 148.776 107.205 148.776 106.685V105.245C148.776 104.725 149.076 104.445 149.676 104.445H162.636C163.216 104.445 163.516 104.765 163.516 105.365V106.525C163.516 107.145 163.216 107.445 162.636 107.445H157.676V109.405ZM167.267 112.285C166.827 112.525 166.447 112.365 166.147 111.805C166.027 111.625 166.147 111.365 166.467 111.045C166.787 110.725 167.007 110.465 167.127 110.225C167.247 110.005 167.207 109.885 167.027 109.885C166.027 109.845 165.547 109.265 165.547 108.145C165.547 106.985 166.247 106.385 167.687 106.385C168.967 106.385 169.547 107.265 169.467 109.025C169.367 110.465 168.627 111.545 167.267 112.285ZM37.587 115.385C37.527 115.885 37.467 116.365 37.407 116.845C41.127 116.045 43.007 119.585 43.007 127.425V131.145C43.007 131.645 42.727 131.885 42.187 131.885H40.807C40.247 131.885 39.967 131.645 39.967 131.145V127.265C39.967 121.685 38.987 119.425 37.027 120.485C36.707 124.045 36.567 127.585 36.607 131.125C36.607 131.645 36.327 131.905 35.767 131.905H34.307C33.747 131.905 33.467 131.645 33.467 131.085C33.407 125.065 33.727 119.825 34.427 115.385H33.887C33.447 115.385 33.227 115.145 33.227 114.665V113.285C33.227 112.805 33.467 112.565 33.967 112.565H42.287C42.807 112.565 43.087 112.805 43.087 113.285V114.565C43.087 115.125 42.807 115.385 42.267 115.385H37.587ZM44.787 113.045C44.787 112.465 45.087 112.165 45.707 112.165H47.007C47.647 112.165 47.967 112.445 47.967 113.005V131.245C47.967 131.845 47.647 132.125 47.047 132.125H45.707C45.087 132.125 44.787 131.845 44.787 131.245V113.045ZM64.1802 121.285C64.7002 121.285 64.9802 121.545 64.9802 122.065V123.385C64.9802 123.865 64.7002 124.105 64.1802 124.105H51.0802C50.5602 124.105 50.3002 123.845 50.3002 123.285V122.065C50.3002 121.545 50.5602 121.285 51.1002 121.285H64.1802ZM64.2002 125.185C64.7202 125.185 64.9802 125.425 64.9802 125.885V131.305C64.9802 131.865 64.6802 132.125 64.1002 132.125H51.1402C50.5802 132.125 50.3002 131.885 50.3002 131.385V126.045C50.3002 125.485 50.5802 125.185 51.1402 125.185H64.2002ZM53.3602 129.465H61.9202V127.845H53.3602V129.465ZM64.0802 112.165C64.6602 112.165 64.9602 112.445 64.9602 113.005C64.9602 116.005 64.5802 118.285 63.8202 119.805C63.6002 120.265 63.2002 120.485 62.6202 120.485H61.2402C60.9402 120.485 60.7202 120.405 60.6002 120.245C60.4802 120.085 60.5002 119.825 60.6802 119.465C61.2602 118.245 61.6002 116.925 61.6802 115.525C61.7202 115.205 61.5802 115.025 61.2602 115.025H50.9802C50.5402 115.025 50.3202 114.805 50.3202 114.345V112.865C50.3202 112.405 50.5402 112.165 50.9802 112.165H64.0802ZM77.1434 113.405C77.0834 113.785 77.0234 114.165 76.9634 114.525C80.4434 114.045 82.2034 117.585 82.2034 125.185V131.165C82.2034 131.665 81.9234 131.905 81.3834 131.905H79.8834C79.3234 131.905 79.0434 131.665 79.0434 131.165V125.025C79.0434 119.745 78.2034 117.445 76.5234 118.105C76.0434 122.465 75.8234 126.805 75.8634 131.125C75.8634 131.645 75.5834 131.905 75.0234 131.905H73.5034C72.9434 131.905 72.6634 131.645 72.6634 131.085C72.6034 124.125 73.0434 118.245 73.9834 113.405C74.1234 112.845 74.4434 112.565 74.9434 112.565H76.4234C77.0234 112.565 77.2634 112.845 77.1434 113.405ZM86.8634 131.245C86.8634 131.825 86.5634 132.105 85.9834 132.105H84.5034C83.9434 132.105 83.6834 131.845 83.6834 131.285V112.985C83.7034 112.445 83.9834 112.165 84.5434 112.165H86.0634C86.5834 112.165 86.8634 112.445 86.8634 112.965V131.245ZM93.8664 115.225C93.7264 115.525 93.6064 115.845 93.5064 116.185C97.3664 115.905 99.2664 118.485 99.2264 123.905C99.2264 124.485 98.9064 124.785 98.3064 124.785H96.8664C96.3464 124.785 96.1064 124.525 96.1064 124.005C96.0664 120.205 94.9864 118.585 92.8664 119.105C92.6664 120.525 92.5464 122.165 92.5464 124.005C92.5464 124.525 92.2464 124.765 91.6664 124.765H90.3064C89.7464 124.765 89.4664 124.485 89.4664 123.925C89.4664 120.585 89.9064 117.685 90.7664 115.225H89.7064C89.2864 115.225 89.0864 115.025 89.0864 114.605V113.165C89.0864 112.765 89.2864 112.545 89.7064 112.545H98.6664C99.1264 112.545 99.3664 112.765 99.3664 113.185V114.505C99.3664 114.985 99.1264 115.225 98.6464 115.225H93.8664ZM90.0064 128.785C89.4864 128.785 89.2264 128.565 89.2264 128.085V126.705C89.2264 126.205 89.4664 125.945 89.9464 125.945H103.486C103.986 125.945 104.246 126.185 104.246 126.645V131.425C104.246 131.905 104.006 132.125 103.526 132.125H101.846C101.346 132.125 101.106 131.905 101.106 131.425V128.785H90.0064ZM104.506 116.845C104.966 116.845 105.206 117.105 105.206 117.605V119.165C105.206 119.685 104.946 119.945 104.446 119.965H103.446V124.005C103.446 124.525 103.186 124.765 102.666 124.765H101.246C100.606 124.765 100.286 124.525 100.286 124.045V112.865C100.286 112.405 100.566 112.165 101.146 112.165H102.626C103.166 112.165 103.446 112.405 103.446 112.885V116.845H104.506ZM121.958 117.645C122.518 117.645 122.798 117.905 122.798 118.385V119.925C122.798 120.485 122.518 120.765 121.998 120.765H121.018V131.345C121.018 131.865 120.738 132.125 120.178 132.125H118.638C118.078 132.125 117.818 131.865 117.818 131.345V112.865C117.818 112.405 118.058 112.165 118.578 112.165H120.218C120.738 112.165 121.018 112.405 121.018 112.885V117.645H121.958ZM111.738 132.125C110.818 132.125 110.038 131.985 109.438 131.685C108.818 131.405 108.338 130.965 107.978 130.385C107.618 129.805 107.358 129.065 107.218 128.185C107.058 127.305 106.998 126.285 106.998 125.125C106.998 124.105 107.018 123.205 107.058 122.445C107.098 121.685 107.158 121.045 107.238 120.485C107.318 119.925 107.438 119.465 107.578 119.105C107.718 118.745 107.878 118.465 108.078 118.225H107.538C107.098 118.225 106.898 118.025 106.898 117.605V115.865C106.898 115.465 107.078 115.245 107.478 115.245H116.178C116.418 115.245 116.578 115.285 116.698 115.345C116.798 115.405 116.858 115.525 116.858 115.705V117.485C116.858 117.705 116.798 117.885 116.698 118.025C116.598 118.165 116.458 118.225 116.258 118.225H115.618C115.778 118.465 115.918 118.745 116.037 119.105C116.158 119.465 116.238 119.925 116.318 120.465C116.378 121.025 116.418 121.665 116.458 122.425C116.497 123.185 116.518 124.065 116.518 125.065C116.518 126.225 116.438 127.265 116.318 128.145C116.198 129.025 115.958 129.765 115.618 130.345C115.258 130.945 114.778 131.385 114.158 131.685C113.538 131.985 112.738 132.125 111.738 132.125ZM111.798 118.225C111.118 118.225 110.638 118.825 110.378 119.985C110.118 121.145 109.998 122.865 109.998 125.125C109.998 126.585 110.118 127.665 110.398 128.385C110.678 129.105 111.158 129.465 111.858 129.465C112.498 129.465 112.938 129.105 113.178 128.385C113.418 127.665 113.558 126.585 113.558 125.125C113.558 122.885 113.418 121.165 113.178 119.985C112.918 118.825 112.458 118.225 111.798 118.225ZM108.998 114.605C108.558 114.605 108.358 114.385 108.358 113.945V112.745C108.358 112.345 108.577 112.145 109.018 112.145H114.438C114.858 112.145 115.078 112.345 115.078 112.725V113.945C115.078 114.385 114.858 114.605 114.438 114.605H108.998ZM128.738 113.405C128.698 113.745 128.638 114.085 128.598 114.405C131.558 114.205 133.038 117.805 133.038 125.185V131.165C133.038 131.665 132.758 131.905 132.218 131.905H130.798C130.238 131.905 129.958 131.665 129.958 131.165V125.025C129.958 120.145 129.378 117.825 128.218 118.065C127.818 122.425 127.618 126.765 127.658 131.125C127.658 131.645 127.378 131.905 126.818 131.905H125.298C124.738 131.905 124.458 131.645 124.458 131.085C124.398 124.125 124.778 118.245 125.578 113.405C125.678 112.845 125.978 112.565 126.478 112.565H127.958C128.558 112.565 128.818 112.845 128.738 113.405ZM134.318 114.185V112.885C134.318 112.405 134.578 112.165 135.138 112.165H136.538C136.978 112.165 137.238 112.405 137.278 112.865V131.445C137.278 131.905 136.998 132.125 136.438 132.125H135.158C134.598 132.125 134.318 131.885 134.318 131.385V117.345H133.358C132.798 117.345 132.538 117.105 132.538 116.625V114.925C132.538 114.445 132.798 114.185 133.338 114.185H134.318ZM138.178 112.885C138.178 112.405 138.438 112.165 138.978 112.165H140.358C140.818 112.165 141.078 112.405 141.118 112.865V131.445C141.118 131.905 140.838 132.125 140.298 132.125H138.998C138.438 132.125 138.178 131.885 138.178 131.385V112.885ZM146.844 128.665V126.085C146.204 125.965 145.684 125.685 145.264 125.265C144.824 124.865 144.484 124.345 144.224 123.725C143.944 123.125 143.764 122.425 143.644 121.625C143.524 120.845 143.464 120.005 143.464 119.125C143.464 117.925 143.564 116.885 143.804 115.985C144.024 115.105 144.404 114.365 144.944 113.765C145.484 113.165 146.204 112.725 147.124 112.425C148.044 112.125 149.184 111.965 150.544 111.965C151.844 111.965 152.944 112.125 153.844 112.425C154.744 112.725 155.484 113.165 156.044 113.765C156.604 114.365 157.004 115.105 157.244 115.985C157.484 116.885 157.624 117.925 157.624 119.125C157.624 120.025 157.544 120.865 157.424 121.625C157.304 122.385 157.104 123.065 156.824 123.665C156.544 124.265 156.204 124.785 155.764 125.185C155.324 125.605 154.804 125.905 154.204 126.105V128.665H156.804C157.344 128.665 157.624 128.945 157.624 129.485V130.925C157.624 131.425 157.364 131.665 156.844 131.665H144.364C143.764 131.665 143.464 131.405 143.464 130.865V129.565C143.464 128.965 143.764 128.665 144.404 128.665H146.844ZM150.544 123.925C151.984 123.925 153.024 123.525 153.624 122.725C154.224 121.925 154.544 120.725 154.544 119.125C154.544 117.645 154.244 116.545 153.644 115.805C153.044 115.085 152.004 114.705 150.564 114.705C149.124 114.705 148.084 115.085 147.484 115.825C146.864 116.565 146.564 117.665 146.564 119.125C146.564 119.925 146.624 120.625 146.764 121.225C146.884 121.825 147.104 122.325 147.424 122.725C147.724 123.125 148.124 123.425 148.644 123.625C149.144 123.825 149.784 123.925 150.544 123.925ZM150.544 126.645C150.384 126.645 150.244 126.645 150.124 126.645C149.984 126.645 149.844 126.625 149.724 126.605V128.665H151.304V126.605C151.184 126.625 151.044 126.645 150.924 126.645C150.804 126.645 150.664 126.645 150.544 126.645ZM161.168 112.165H162.848C163.528 112.165 163.848 112.645 163.808 113.625L163.368 126.205C163.288 126.745 163.008 127.025 162.528 127.065H161.388C160.908 127.085 160.628 126.825 160.548 126.285L160.008 113.625C159.968 112.645 160.368 112.165 161.168 112.165ZM161.028 132.105H163.028C163.728 132.145 164.088 131.865 164.088 131.245L163.928 129.465C163.888 128.885 163.608 128.585 163.128 128.585H161.088C160.608 128.585 160.368 128.825 160.328 129.305L160.128 131.245C160.108 131.825 160.408 132.105 161.028 132.105Z" fill="black"/>
</g>
<g clip-path="url(#clip1_566_2399)">
<path d="M265.455 179.169C264.801 176.398 261.318 175.421 259.302 177.437L239.683 197.055L218.327 193.103L214.371 171.747L233.99 152.129C236.005 150.113 235.028 146.63 232.257 145.975C217.66 142.523 201.671 146.484 190.288 157.867C176.712 171.442 173.733 191.552 181.252 208.049L113.896 269.937C105.594 277.687 105.373 290.771 113.4 298.804C121.428 306.831 134.513 306.61 142.262 298.313L204.434 230.669C220.728 237.583 240.276 234.427 253.559 221.143C264.947 209.76 268.903 193.766 265.455 179.174V179.169ZM134.062 289.693C130.871 292.884 125.699 292.884 122.511 289.693C119.32 286.501 119.32 281.329 122.511 278.142C125.703 274.95 130.875 274.95 134.062 278.142C137.254 281.333 137.254 286.506 134.062 289.693Z" fill="#ABB7C7"/>
</g>
<path d="M75.1559 266.86C75.1559 266.86 91.7433 255.062 105.185 255.062C118.626 255.062 132.95 259.352 138.431 261.497C140.1 259.948 144.366 256.85 148.083 256.85C152.731 256.85 169.175 272.579 173.823 274.009C178.47 275.439 193.842 280.802 193.484 284.019C193.127 287.236 180.257 289.739 170.248 286.879C196.089 324.634 188.899 324.803 187.203 325.406C186.903 325.513 186.188 325.857 182.933 325.406C184.672 327.919 187.862 333.64 186.702 336.423C185.542 339.206 183.126 338.742 182.063 338.162C183.7 340.337 186.992 347.295 184.962 349.614C183.339 351.47 181.262 351.116 180.426 350.707C197.329 363.896 215.641 410.863 222.684 432.698H34.1025C33.0934 389.306 46.9018 364.42 53.9322 357.402C52.368 352.153 53.2805 349.383 53.9322 348.654C52.9073 348.362 50.4638 347.342 48.8892 345.592C47.3146 343.842 49.5453 340.343 50.8575 338.813C49.4724 338.813 46.2211 337.894 44.2966 334.22C42.3721 330.546 47.8686 324.962 50.8575 322.629C48.3977 312.482 51.8824 301.286 53.9322 296.957C44.4744 297.563 33.3339 295.922 32.2573 286.879C30.8273 274.867 60.2605 268.528 75.1559 266.86Z" fill="white"/>
<ellipse cx="90.6667" cy="298.252" rx="3.10227" ry="5.44479" fill="black"/>
<ellipse cx="134.225" cy="298.252" rx="3.10227" ry="5.44479" fill="black"/>
<path d="M127.071 307.496C117.954 307.8 114.578 311.59 114.029 313.448C113.51 315.011 117.08 317.822 120.486 318.635C123.892 319.447 133.909 318.133 136.441 317.12C138.974 316.107 139.734 310.029 139.354 308.889C138.974 307.749 138.467 307.116 127.071 307.496Z" fill="black" stroke="black" stroke-width="0.804127"/>
<path d="M125.817 317.575C125.405 321.902 123.689 330.119 119.899 334.663M104.816 338.146C106.194 339.006 110.48 340.039 116.608 337.285C117.846 336.728 118.939 335.813 119.899 334.663M127.797 342.449C125.602 341.303 120.948 338.142 119.899 334.663" stroke="black" stroke-width="0.804127"/>
<path d="M118.842 433L124.722 395.308H135.859L140.283 433L118.842 433Z" fill="#3E82CD"/>
<path d="M152.047 307.492C151.956 307.218 151.661 307.07 151.387 307.16C151.113 307.251 150.964 307.547 151.055 307.82L152.047 307.492ZM89.7432 342.72C94.8683 345.946 103.545 350.09 112.957 352.059C122.36 354.026 132.59 353.839 140.724 348.27L140.134 347.408C132.338 352.745 122.447 352.977 113.171 351.036C103.902 349.097 95.3399 345.008 90.2998 341.835L89.7432 342.72ZM140.724 348.27C148.837 342.715 152.407 334.736 153.579 327.055C154.748 319.386 153.534 311.983 152.047 307.492L151.055 307.82C152.498 312.179 153.687 319.415 152.546 326.897C151.406 334.369 147.951 342.056 140.134 347.408L140.724 348.27Z" fill="#E1E1E1"/>
<path d="M52.9375 348.544L121.073 368.314L130.252 378.199L138.901 368.314L182.854 338.659L187.091 352.251L151.964 386.672L138.901 368.314L130.252 378.199L121.073 368.314L108.717 386.672L52.9375 357.723V348.544Z" fill="white"/>
<path d="M121.073 368.314L52.9375 348.544V357.723L108.717 386.672L121.073 368.314ZM121.073 368.314L130.252 378.199L138.901 368.314M138.901 368.314L151.964 386.672L187.091 352.251L182.854 338.659L138.901 368.314Z" stroke="#B3B3B3" stroke-width="1.04489"/>
<path d="M124.722 395.308L112.6 381.377L116.483 375.375H143.314L149.139 383.318L135.794 395.308H124.722Z" fill="#3E82CD"/>
<path d="M130.869 401.562C160.729 394.801 179.462 398.745 185.095 401.562V434.661H130.869V401.562Z" fill="#3E82CD" stroke="#346CA9" stroke-width="1.84501"/>
<path d="M239.32 401.562C209.46 394.801 190.728 398.745 185.094 401.562V434.661H239.32V401.562Z" fill="#3E82CD" stroke="#346CA9" stroke-width="1.84501"/>
<path d="M217.504 416.955C217.504 417.255 217.364 417.405 217.104 417.405H216.334C216.054 417.405 215.914 417.265 215.914 416.975V407.775C215.914 407.545 216.034 407.425 216.284 407.425H217.114C217.374 407.425 217.504 407.545 217.504 407.785V416.955ZM213.504 409.295C213.504 409.145 213.424 409.065 213.264 409.065H210.594C210.354 409.065 210.244 408.935 210.244 408.665V408.055C210.244 407.775 210.364 407.625 210.624 407.625H214.744C215.034 407.625 215.184 407.805 215.184 408.155C215.204 412.225 214.164 415.155 212.064 416.955C211.894 417.125 211.624 417.205 211.264 417.205H210.694C210.474 417.205 210.344 417.145 210.304 417.015C210.264 416.885 210.344 416.725 210.544 416.545C212.554 414.765 213.544 412.345 213.504 409.295ZM222.262 413.405C222.922 413.405 223.492 413.455 223.952 413.535C224.412 413.625 224.782 413.755 225.062 413.935C225.342 414.115 225.542 414.325 225.662 414.585C225.782 414.845 225.852 415.155 225.852 415.495C225.852 415.835 225.782 416.125 225.652 416.375C225.522 416.635 225.312 416.845 225.032 417.005C224.752 417.175 224.382 417.305 223.922 417.385C223.462 417.465 222.912 417.505 222.262 417.505C221.582 417.505 221.022 417.465 220.562 417.385C220.102 417.305 219.742 417.175 219.462 417.005C219.182 416.845 218.972 416.635 218.852 416.375C218.732 416.125 218.672 415.835 218.672 415.495C218.672 415.155 218.732 414.845 218.862 414.585C218.982 414.325 219.192 414.115 219.482 413.935C219.762 413.755 220.132 413.625 220.592 413.535C221.052 413.455 221.602 413.405 222.262 413.405ZM222.272 416.285C223.002 416.285 223.522 416.225 223.832 416.095C224.142 415.965 224.302 415.765 224.302 415.495C224.302 415.215 224.132 414.995 223.812 414.855C223.482 414.715 222.962 414.635 222.262 414.635C221.542 414.635 221.022 414.715 220.702 414.855C220.382 414.995 220.222 415.215 220.222 415.495C220.222 415.765 220.372 415.965 220.692 416.095C221.012 416.225 221.532 416.285 222.272 416.285ZM225.412 410.585C223.592 410.885 221.472 411.035 219.032 411.035C218.792 411.035 218.672 410.925 218.672 410.685V407.855C218.672 407.565 218.812 407.415 219.112 407.415H219.812C220.112 407.415 220.262 407.555 220.262 407.815V409.515C222.242 409.485 223.942 409.315 225.352 409.005C225.682 408.935 225.852 409.045 225.852 409.335V410.055C225.832 410.365 225.692 410.545 225.412 410.585ZM219.042 412.975C218.792 412.975 218.672 412.845 218.672 412.575V411.865C218.672 411.625 218.792 411.505 219.032 411.505H225.482C225.722 411.505 225.852 411.635 225.852 411.895V412.565C225.852 412.845 225.722 412.975 225.472 412.975H219.042ZM229.271 408.045C229.241 408.235 229.211 408.425 229.181 408.605C230.921 408.365 231.801 410.135 231.801 413.935V416.925C231.801 417.175 231.661 417.295 231.391 417.295H230.641C230.361 417.295 230.221 417.175 230.221 416.925V413.855C230.221 411.215 229.801 410.065 228.961 410.395C228.721 412.575 228.611 414.745 228.631 416.905C228.631 417.165 228.491 417.295 228.211 417.295H227.451C227.171 417.295 227.031 417.165 227.031 416.885C227.001 413.405 227.221 410.465 227.691 408.045C227.761 407.765 227.921 407.625 228.171 407.625H228.911C229.211 407.625 229.331 407.765 229.271 408.045ZM234.471 410.165C234.761 410.165 234.911 410.295 234.911 410.535V411.305C234.911 411.585 234.771 411.725 234.501 411.725H234.051V417.035C234.051 417.285 233.911 417.405 233.631 417.405H232.851C232.571 417.405 232.441 417.285 232.441 417.045V407.765C232.441 407.545 232.571 407.425 232.831 407.425H233.641C233.911 407.425 234.051 407.545 234.051 407.785V410.165H234.471Z" fill="white"/>
</g>
</g>
<defs>
<filter id="filter0_d_566_2399" x="0.878906" y="0" width="293" height="441" filterUnits="userSpaceOnUse" color-interpolation-filters="sRGB">
<feFlood flood-opacity="0" result="BackgroundImageFix"/>
<feColorMatrix in="SourceAlpha" type="matrix" values="0 0 0 0 0 0 0 0 0 0 0 0 0 0 0 0 0 0 127 0" result="hardAlpha"/>
<feOffset dx="2" dy="4"/>
<feGaussianBlur stdDeviation="2"/>
<feComposite in2="hardAlpha" operator="out"/>
<feColorMatrix type="matrix" values="0 0 0 0 0 0 0 0 0 0 0 0 0 0 0 0 0 0 0.25 0"/>
<feBlend mode="normal" in2="BackgroundImageFix" result="effect1_dropShadow_566_2399"/>
<feBlend mode="normal" in="SourceGraphic" in2="effect1_dropShadow_566_2399" result="shape"/>
</filter>
<filter id="filter1_d_566_2399" x="25.4366" y="82.0743" width="151.9" height="57.8603" filterUnits="userSpaceOnUse" color-interpolation-filters="sRGB">
<feFlood flood-opacity="0" result="BackgroundImageFix"/>
<feColorMatrix in="SourceAlpha" type="matrix" values="0 0 0 0 0 0 0 0 0 0 0 0 0 0 0 0 0 0 127 0" result="hardAlpha"/>
<feOffset/>
<feGaussianBlur stdDeviation="3.895"/>
<feComposite in2="hardAlpha" operator="out"/>
<feColorMatrix type="matrix" values="0 0 0 0 1 0 0 0 0 1 0 0 0 0 1 0 0 0 1 0"/>
<feBlend mode="normal" in2="BackgroundImageFix" result="effect1_dropShadow_566_2399"/>
<feBlend mode="normal" in="SourceGraphic" in2="effect1_dropShadow_566_2399" result="shape"/>
</filter>
<linearGradient id="paint0_linear_566_2399" x1="145.379" y1="0" x2="145.379" y2="433" gradientUnits="userSpaceOnUse">
<stop offset="0.139" stop-color="#DEF2EB"/>
<stop offset="1" stop-color="#B9E6E9"/>
</linearGradient>
<clipPath id="clip0_566_2399">
<rect x="2.87891" width="285" height="433" rx="10" fill="white"/>
</clipPath>
<clipPath id="clip1_566_2399">
<rect width="176.823" height="176.823" fill="white" transform="translate(98.6797 136.313)"/>
</clipPath>
</defs>
</svg>
