<svg width="293" height="441" viewBox="0 0 293 441" fill="none" xmlns="http://www.w3.org/2000/svg">
<g filter="url(#filter0_d_566_2407)">
<g clip-path="url(#clip0_566_2407)">
<rect x="2" width="285" height="433" rx="10" fill="url(#paint0_linear_566_2407)"/>
<path d="M124.542 -31.832C124.65 -17.1948 119.598 17.3491 98.52 38.4267C72.1729 64.7739 41.272 50.7872 8.74471 83.3145C-17.2771 109.336 -25.5174 125.817 -26.3848 130.804" stroke="white" stroke-opacity="0.48" stroke-width="7.90056"/>
<path d="M168.838 -23.6387C168.947 -9.00145 163.894 25.5424 142.816 46.6201" stroke="white" stroke-opacity="0.48" stroke-width="7.90056" stroke-linecap="round"/>
<path d="M124.451 46.6221L127.014 54.3881L133.942 57.2618L127.014 60.1355L124.451 67.9015L121.887 60.1355L114.959 57.2618L121.887 54.3881L124.451 46.6221Z" fill="white" fill-opacity="0.62"/>
<rect x="29.2129" y="98.0703" width="36.4277" height="14.0275" fill="#3E82CD"/>
<g filter="url(#filter1_d_566_2407)">
<path d="M44.5729 103.285C45.2129 103.285 45.5329 103.545 45.5329 104.065V109.225C45.5329 109.805 45.2129 110.105 44.6129 110.105H31.7329C31.1329 110.105 30.8529 109.845 30.8529 109.285V104.065C30.8529 103.585 31.1529 103.325 31.7729 103.285H44.5729ZM36.7729 101.925C36.7729 102.405 36.5129 102.665 36.0129 102.665H34.2129C33.6729 102.665 33.4129 102.425 33.4129 101.925V101.365H31.1729C30.6929 101.365 30.4729 101.125 30.4729 100.605V99.4447C30.4729 98.9647 30.7129 98.7247 31.1929 98.7247H42.4529V90.8447C42.4529 90.3847 42.7129 90.1447 43.2329 90.1447H44.7529C45.2529 90.1447 45.5129 90.3847 45.5129 90.8447V101.725C45.5129 102.205 45.2529 102.445 44.7329 102.445H43.2529C42.7129 102.445 42.4529 102.205 42.4529 101.685V101.365H36.7729V101.925ZM31.2129 97.9447C30.6729 97.9447 30.4329 97.7047 30.5129 97.2247C30.7529 94.7647 31.2329 92.6847 31.9529 91.0047C32.1729 90.4447 32.5729 90.1447 33.1729 90.1447H34.0729C34.8329 90.1447 35.1129 90.4447 34.9329 91.0247C39.2529 91.3447 41.2929 93.4047 41.0929 97.2047C41.0929 97.6847 40.8329 97.9447 40.3529 97.9447H38.8929C38.3329 97.9447 38.0529 97.7047 38.0529 97.2047C38.1929 95.0647 36.8929 93.8847 34.1729 93.6847C33.8529 94.4447 33.5929 95.6447 33.3929 97.2647C33.3529 97.7247 33.0529 97.9447 32.4929 97.9447H31.2129ZM33.9529 105.985V107.405H42.4729V105.985H33.9529ZM59.2515 104.765V106.925H62.0915C62.6115 106.925 62.8715 107.185 62.8715 107.705V109.005C62.8715 109.485 62.5915 109.725 62.0515 109.725H48.6715C48.1515 109.725 47.8915 109.465 47.8915 108.945V107.745C47.8915 107.205 48.1515 106.925 48.6915 106.925H51.4915V104.765H48.6715C48.1515 104.765 47.8915 104.505 47.8915 103.965V102.645C47.8915 102.125 48.1515 101.865 48.6715 101.865H50.8115V93.4847H48.6715C48.1515 93.4847 47.8915 93.2247 47.8915 92.6847V91.3447C47.8915 90.8247 48.1315 90.5647 48.6515 90.5647H62.0315C62.5915 90.5647 62.8715 90.7847 62.8715 91.2047V92.8447C62.8715 93.2847 62.6115 93.4847 62.1315 93.4847H59.9715V101.865H62.0515C62.5915 101.865 62.8715 102.165 62.8715 102.765V104.045C62.8515 104.525 62.5715 104.765 62.0515 104.765H59.2515ZM53.9715 101.865H56.8115V93.4847H53.9715V101.865ZM54.4915 106.925H56.2515V104.765H54.4915V106.925ZM80.0762 95.6447C80.6362 95.6447 80.9162 95.9047 80.9162 96.4047V97.9247C80.9162 98.4847 80.6362 98.7647 80.1162 98.7647H79.1162V109.225C79.1162 109.825 78.8362 110.125 78.3162 110.125H76.7762C76.2162 110.125 75.9362 109.845 75.9362 109.265V90.8647C75.9362 90.4047 76.1762 90.1647 76.6762 90.1647H78.3362C78.8562 90.1647 79.1162 90.4047 79.1162 90.8847V95.6447H80.0762ZM71.1162 93.9047C71.1162 93.6047 70.9562 93.4447 70.6362 93.4447H65.7962C65.3162 93.4447 65.0962 93.1847 65.0962 92.6447V91.4247C65.0962 90.8647 65.3362 90.5647 65.8562 90.5647H73.5962C74.1762 90.5647 74.4762 90.9247 74.4762 91.6247C74.5162 99.7647 72.6362 105.625 68.8362 109.225C68.4962 109.565 67.9562 109.725 67.2362 109.725H66.0962C65.6562 109.725 65.3962 109.605 65.3162 109.345C65.2362 109.085 65.3962 108.765 65.7962 108.405C69.4162 104.845 71.1962 100.005 71.1162 93.9047ZM91.3891 106.725V107.485H102.389C102.829 107.485 103.069 107.665 103.069 108.065V109.385C103.069 109.845 102.829 110.065 102.389 110.065H89.1491C88.5091 110.065 88.2091 109.785 88.2091 109.225V105.745C88.2091 105.185 88.4691 104.885 89.0091 104.885H99.9091V104.105H89.0691C88.4891 104.105 88.2091 103.885 88.2091 103.445V102.365C88.2091 101.845 88.4291 101.585 88.9091 101.585H102.209C102.769 101.585 103.069 101.825 103.069 102.285V106.145C103.069 106.545 102.829 106.725 102.389 106.725H91.3891ZM103.069 99.7447C103.069 100.265 102.789 100.505 102.269 100.505H100.669C100.109 100.505 99.8491 100.265 99.8491 99.7847V90.8647C99.8491 90.4047 100.109 90.1647 100.629 90.1647H102.309C102.809 90.1647 103.069 90.4047 103.069 90.8647V99.7447ZM97.1691 97.8247H97.8891C98.4291 97.8247 98.7091 98.0447 98.7091 98.4447V99.8447C98.7091 100.285 98.4291 100.505 97.9091 100.505H88.6491C88.1491 100.505 87.9091 100.265 87.9091 99.7447V98.5847C87.9091 98.0847 88.1291 97.8247 88.5891 97.8247H89.2491V93.2647H88.5891C88.1291 93.2647 87.9091 93.0047 87.9091 92.4847V91.3447C87.9091 90.8247 88.1491 90.5647 88.6491 90.5647H97.9091C98.4291 90.5647 98.7091 90.8047 98.7091 91.2447V92.6447C98.7091 93.0647 98.4291 93.2647 97.8891 93.2647H97.1691V97.8247ZM92.4691 97.7647H93.9491V93.3047H92.4691V97.7647ZM108.811 106.665V104.085C108.171 103.965 107.651 103.685 107.231 103.265C106.791 102.865 106.451 102.345 106.191 101.725C105.911 101.125 105.731 100.425 105.611 99.6247C105.491 98.8447 105.431 98.0047 105.431 97.1247C105.431 95.9247 105.531 94.8847 105.771 93.9847C105.991 93.1047 106.371 92.3647 106.911 91.7647C107.451 91.1647 108.171 90.7247 109.091 90.4247C110.011 90.1247 111.151 89.9647 112.511 89.9647C113.811 89.9647 114.911 90.1247 115.811 90.4247C116.711 90.7247 117.451 91.1647 118.011 91.7647C118.571 92.3647 118.971 93.1047 119.211 93.9847C119.451 94.8847 119.591 95.9247 119.591 97.1247C119.591 98.0247 119.511 98.8647 119.391 99.6247C119.271 100.385 119.071 101.065 118.791 101.665C118.511 102.265 118.171 102.785 117.731 103.185C117.291 103.605 116.771 103.905 116.171 104.105V106.665H118.771C119.311 106.665 119.591 106.945 119.591 107.485V108.925C119.591 109.425 119.331 109.665 118.811 109.665H106.331C105.731 109.665 105.431 109.405 105.431 108.865V107.565C105.431 106.965 105.731 106.665 106.371 106.665H108.811ZM112.511 101.925C113.951 101.925 114.991 101.525 115.591 100.725C116.191 99.9247 116.511 98.7247 116.511 97.1247C116.511 95.6447 116.211 94.5447 115.611 93.8047C115.011 93.0847 113.971 92.7047 112.531 92.7047C111.091 92.7047 110.051 93.0847 109.451 93.8247C108.831 94.5647 108.531 95.6647 108.531 97.1247C108.531 97.9247 108.591 98.6247 108.731 99.2247C108.851 99.8247 109.071 100.325 109.391 100.725C109.691 101.125 110.091 101.425 110.611 101.625C111.111 101.825 111.751 101.925 112.511 101.925ZM112.511 104.645C112.351 104.645 112.211 104.645 112.091 104.645C111.951 104.645 111.811 104.625 111.691 104.605V106.665H113.271V104.605C113.151 104.625 113.011 104.645 112.891 104.645C112.771 104.645 112.631 104.645 112.511 104.645ZM135.815 107.325C136.315 107.325 136.575 107.565 136.575 108.025V109.345C136.575 109.865 136.295 110.105 135.775 110.105H122.955C122.415 110.105 122.155 109.885 122.155 109.405V105.145C122.155 104.665 122.415 104.405 122.975 104.405H124.555C125.035 104.405 125.295 104.645 125.295 105.125V107.325H135.815ZM126.695 103.265C125.815 103.265 125.095 103.185 124.515 102.985C123.915 102.805 123.435 102.525 123.075 102.145C122.695 101.785 122.435 101.325 122.275 100.765C122.115 100.205 122.035 99.5647 122.035 98.8047C122.035 97.8847 122.275 96.9647 122.775 96.0647H122.355C121.975 96.0647 121.795 95.8047 121.795 95.2847V93.8047C121.795 93.3247 122.035 93.0847 122.535 93.0847H131.075C131.555 93.0847 131.815 93.3247 131.815 93.7847V95.3647C131.815 95.8447 131.575 96.0647 131.095 96.0647H130.835C131.195 96.8047 131.395 97.7247 131.395 98.8047C131.395 100.225 130.995 101.325 130.195 102.105C129.395 102.885 128.235 103.265 126.695 103.265ZM126.795 96.0647C126.155 96.0647 125.715 96.3047 125.475 96.7447C125.235 97.2047 125.115 97.8847 125.115 98.8047C125.115 99.5247 125.235 100.065 125.475 100.425C125.715 100.785 126.135 100.945 126.755 100.945C127.315 100.945 127.715 100.765 127.955 100.385C128.195 100.005 128.335 99.4447 128.335 98.7047C128.335 97.8247 128.215 97.1647 127.995 96.7247C127.775 96.2847 127.375 96.0647 126.795 96.0647ZM123.775 92.3847C123.335 92.3847 123.135 92.1447 123.135 91.6647V90.6047C123.135 90.1247 123.375 89.8647 123.875 89.8647H129.555C130.035 89.8647 130.295 90.0847 130.295 90.5247V91.6647C130.295 92.1447 130.035 92.3847 129.555 92.3847H123.775ZM137.135 94.6447C137.615 94.6447 137.855 94.8847 137.855 95.3447V97.0247C137.855 97.5247 137.595 97.7647 137.095 97.7647H136.015V102.425C136.015 102.965 135.735 103.225 135.215 103.225H133.615C133.055 103.225 132.795 102.965 132.795 102.425V90.9047C132.795 90.4247 133.055 90.1647 133.575 90.1647H135.235C135.755 90.1647 136.015 90.4047 136.015 90.8647V94.6447H137.135ZM152.664 102.445C154.144 102.445 155.404 102.545 156.404 102.705C157.404 102.865 158.204 103.125 158.804 103.445C159.404 103.765 159.824 104.185 160.084 104.685C160.324 105.185 160.464 105.765 160.464 106.425C160.464 107.085 160.324 107.665 160.044 108.145C159.764 108.625 159.304 109.045 158.684 109.365C158.064 109.685 157.264 109.925 156.284 110.085C155.284 110.245 154.084 110.325 152.664 110.325C151.144 110.325 149.904 110.245 148.904 110.085C147.904 109.925 147.124 109.685 146.524 109.365C145.924 109.045 145.504 108.625 145.264 108.145C145.024 107.665 144.904 107.085 144.904 106.405C144.904 105.765 145.024 105.185 145.284 104.685C145.544 104.185 145.984 103.765 146.584 103.445C147.184 103.125 147.984 102.865 148.984 102.705C149.964 102.545 151.184 102.445 152.664 102.445ZM152.704 107.885C153.624 107.885 154.384 107.865 154.984 107.805C155.584 107.745 156.044 107.645 156.404 107.525C156.744 107.405 156.984 107.245 157.124 107.045C157.264 106.865 157.344 106.645 157.344 106.405C157.344 106.165 157.264 105.945 157.104 105.745C156.944 105.565 156.684 105.405 156.324 105.285C155.964 105.165 155.484 105.065 154.884 105.005C154.284 104.945 153.544 104.905 152.664 104.905C151.784 104.905 151.064 104.945 150.464 105.005C149.864 105.065 149.384 105.165 149.024 105.285C148.664 105.405 148.384 105.565 148.224 105.745C148.064 105.945 147.984 106.165 147.984 106.405C147.984 106.645 148.064 106.865 148.224 107.045C148.384 107.245 148.644 107.405 149.004 107.525C149.364 107.645 149.864 107.745 150.464 107.805C151.064 107.865 151.824 107.885 152.704 107.885ZM153.644 90.5447C154.244 90.5447 154.564 90.8047 154.564 91.2847V92.4247C154.564 92.9447 154.284 93.1847 153.724 93.1847H147.864V98.7447C150.584 98.6647 153.284 98.3047 155.944 97.6247V90.8847C155.944 90.4047 156.224 90.1647 156.804 90.1647H158.324C158.804 90.1647 159.044 90.4047 159.044 90.8847V93.4047H160.064C160.564 93.4047 160.824 93.6247 160.824 94.0447V95.6447C160.824 96.1647 160.544 96.4247 160.024 96.4247H159.044V100.865C159.044 101.425 158.724 101.705 158.104 101.705H156.844C156.244 101.705 155.944 101.465 155.944 100.985V100.465C151.904 101.185 148.484 101.545 145.644 101.545C145.144 101.545 144.904 101.325 144.904 100.845V91.3247C144.904 90.8047 145.184 90.5447 145.784 90.5447H153.644ZM176.919 107.345C177.419 107.345 177.679 107.585 177.679 108.045V109.365C177.679 109.885 177.399 110.125 176.879 110.125H163.619C163.099 110.125 162.839 109.905 162.839 109.425V105.005C162.839 104.545 163.079 104.305 163.559 104.305H165.259C165.739 104.305 165.979 104.545 165.979 105.005V107.345H176.919ZM177.499 102.305C177.499 102.825 177.219 103.085 176.679 103.085H175.079C174.519 103.085 174.259 102.845 174.259 102.365V90.8447C174.259 90.3847 174.519 90.1447 175.059 90.1447H176.719C177.239 90.1447 177.499 90.3847 177.499 90.8447V102.305ZM167.259 92.4047C171.099 92.0847 172.859 95.2847 172.539 102.025C172.539 102.605 172.219 102.905 171.619 102.905H170.179C169.659 102.905 169.419 102.645 169.419 102.125C169.659 97.0847 168.639 94.8647 166.359 95.4847C165.919 97.4647 165.699 99.6647 165.699 102.085C165.699 102.645 165.399 102.905 164.799 102.905H163.359C162.819 102.905 162.559 102.665 162.559 102.165C162.559 97.7647 163.199 94.1847 164.479 91.4447C164.799 90.8647 165.239 90.5647 165.799 90.5647H166.859C167.539 90.5647 167.819 90.8047 167.659 91.2847L167.259 92.4047ZM184.305 90.1447C185.105 90.1447 185.765 90.2847 186.325 90.5447C186.865 90.8247 187.305 91.2447 187.665 91.8447C188.005 92.4447 188.265 93.2047 188.425 94.1647C188.585 95.1247 188.705 96.3047 188.745 97.6847H189.625V90.8847C189.625 90.4047 189.885 90.1647 190.445 90.1647H191.825C192.345 90.1647 192.625 90.4047 192.625 90.8847V109.405C192.625 109.885 192.365 110.105 191.885 110.105H190.465C189.905 110.105 189.625 109.865 189.625 109.365V100.845H188.785C188.745 102.405 188.645 103.745 188.505 104.905C188.365 106.065 188.145 107.025 187.825 107.785C187.505 108.545 187.045 109.125 186.485 109.505C185.925 109.905 185.185 110.085 184.305 110.085C183.325 110.085 182.545 109.905 181.945 109.525C181.345 109.165 180.865 108.565 180.545 107.745C180.205 106.925 179.985 105.845 179.865 104.525C179.745 103.205 179.705 101.605 179.705 99.7247C179.705 97.9647 179.765 96.4847 179.905 95.2647C180.025 94.0647 180.265 93.0647 180.605 92.3047C180.945 91.5447 181.425 91.0047 182.025 90.6647C182.625 90.3247 183.385 90.1447 184.305 90.1447ZM193.405 90.8847C193.405 90.4047 193.665 90.1647 194.225 90.1647H195.605C196.125 90.1647 196.405 90.4047 196.405 90.8847V109.405C196.405 109.885 196.145 110.105 195.665 110.105H194.245C193.685 110.105 193.405 109.865 193.405 109.365V90.8847ZM185.705 99.3047C185.705 98.1847 185.665 97.2047 185.625 96.4047C185.585 95.6047 185.505 94.9647 185.405 94.4447C185.285 93.9447 185.145 93.5847 184.945 93.3447C184.745 93.1047 184.505 92.9847 184.225 92.9847C183.905 92.9847 183.665 93.1047 183.465 93.3047C183.265 93.5247 183.125 93.8847 183.025 94.4047C182.905 94.9247 182.845 95.6247 182.805 96.4847C182.765 97.3647 182.745 98.4447 182.745 99.7247C182.745 101.165 182.745 102.345 182.785 103.305C182.825 104.265 182.885 105.045 183.005 105.625C183.105 106.225 183.245 106.645 183.445 106.885C183.645 107.145 183.905 107.265 184.225 107.265C184.545 107.265 184.785 107.145 184.985 106.905C185.185 106.665 185.325 106.265 185.445 105.685C185.545 105.105 185.605 104.325 185.645 103.365C185.685 102.405 185.705 101.185 185.705 99.7247V99.3047ZM203.211 93.9047C203.211 93.6047 203.011 93.4447 202.651 93.4447H199.351C198.831 93.4447 198.571 93.2047 198.571 92.7047V91.3047C198.571 90.8247 198.831 90.5647 199.351 90.5647H205.731C206.291 90.5647 206.571 90.9247 206.571 91.6247C206.571 93.1447 206.511 94.4847 206.431 95.6447H207.671V90.8647C207.671 90.4047 207.931 90.1647 208.451 90.1647H209.851C210.371 90.1647 210.631 90.4047 210.631 90.8647V109.225C210.631 109.825 210.371 110.105 209.851 110.105H208.451C207.931 110.105 207.671 109.825 207.671 109.225V98.7647H206.071C205.331 104.125 204.151 107.625 202.531 109.245C202.191 109.585 201.651 109.745 200.931 109.745H199.811C199.411 109.745 199.151 109.625 199.051 109.365C198.931 109.105 199.091 108.785 199.491 108.425C202.051 105.645 203.291 100.805 203.211 93.9047ZM211.471 90.8647C211.471 90.4047 211.731 90.1647 212.251 90.1647H213.651C214.151 90.1647 214.411 90.4047 214.411 90.8647V109.225C214.411 109.825 214.151 110.105 213.651 110.105H212.251C211.731 110.105 211.471 109.825 211.471 109.225V90.8647ZM44.7329 129.305C45.2729 129.305 45.5529 129.565 45.5529 130.085V131.245C45.5529 131.845 45.2729 132.125 44.7129 132.125H31.3929C30.7529 132.125 30.4329 131.845 30.4329 131.285V127.085C30.4329 126.485 30.6729 126.205 31.1929 126.205H32.8529C33.3329 126.225 33.5929 126.465 33.5929 126.905V129.305H44.7329ZM31.1129 124.765C30.6729 124.765 30.4529 124.485 30.4329 123.885V122.705C30.4329 122.245 30.6529 122.005 31.1129 122.005H44.8129C45.2929 122.005 45.5529 122.305 45.5529 122.885V123.885C45.5529 124.485 45.2729 124.765 44.7529 124.765H39.7129V126.605C39.7129 127.065 39.5329 127.285 39.1729 127.285H36.8529C36.4929 127.285 36.2929 127.085 36.2929 126.665V124.765H31.1129ZM45.5529 119.985C45.5529 120.525 45.2929 120.785 44.7729 120.785H31.1329C30.6529 120.785 30.4329 120.525 30.4329 120.005V112.985C30.4329 112.445 30.7129 112.165 31.2929 112.165H44.7129C45.2729 112.165 45.5529 112.425 45.5529 112.925V119.985ZM42.4129 114.745H33.5929V118.165H42.4129V114.745ZM63.472 117.645C64.032 117.645 64.332 117.925 64.332 118.485V119.965C64.332 120.525 64.052 120.805 63.512 120.805H62.612V131.305C62.612 131.865 62.352 132.125 61.832 132.125H60.232C59.692 132.125 59.432 131.885 59.432 131.405V130.905H48.712C48.092 130.905 47.792 130.625 47.792 130.045V128.905C47.792 128.325 48.072 128.025 48.652 128.025H51.412V126.885C49.292 126.445 48.212 125.045 48.172 122.645C48.172 120.825 48.452 119.565 49.032 118.845H48.552C48.032 118.845 47.772 118.525 47.772 117.865V116.785C47.772 116.105 48.052 115.765 48.632 115.765H57.552C58.132 115.765 58.432 116.085 58.432 116.705V118.025C58.452 118.585 58.152 118.845 57.532 118.845H56.872C57.432 119.525 57.712 120.805 57.712 122.645C57.712 125.085 56.652 126.505 54.552 126.905V128.025H59.432V113.005C59.452 112.445 59.732 112.165 60.272 112.165H61.832C62.352 112.165 62.612 112.425 62.612 112.905V117.645H63.472ZM50.272 114.885C49.672 114.885 49.392 114.585 49.392 113.965V113.025C49.392 112.465 49.672 112.165 50.272 112.165H55.792C56.352 112.165 56.632 112.465 56.632 113.025V114.025C56.632 114.605 56.392 114.885 55.912 114.885H50.272ZM52.912 118.725C51.872 118.725 51.352 119.765 51.352 121.845C51.352 123.605 51.892 124.465 52.992 124.465C54.032 124.465 54.552 123.605 54.552 121.845C54.552 119.765 53.992 118.725 52.912 118.725ZM80.3737 120.905C80.8137 120.925 81.0337 121.105 81.0337 121.445V122.585C81.0337 123.065 80.7937 123.305 80.3337 123.305H66.8737C66.3937 123.305 66.1537 123.045 66.1537 122.525V121.545C66.1537 121.125 66.3537 120.905 66.7737 120.905H80.3737ZM66.8337 114.405C66.3737 114.405 66.1537 114.225 66.1537 113.845V112.785C66.1537 112.385 66.3737 112.165 66.8337 112.165H80.2737C80.7737 112.165 81.0337 112.385 81.0337 112.785V116.365C81.0337 116.845 80.7937 117.085 80.3137 117.085H69.1937V117.905H80.3137C80.7937 117.905 81.0337 118.125 81.0337 118.525V119.445C81.0337 119.925 80.7937 120.165 80.3537 120.165H66.8137C66.3737 120.165 66.1537 119.945 66.1537 119.505V115.845C66.1537 115.405 66.3737 115.165 66.8137 115.165H77.9737V114.405H66.8337ZM66.8737 126.325C66.3937 126.325 66.1537 126.105 66.1537 125.645V124.765C66.1537 124.305 66.3937 124.065 66.8737 124.065H80.2537C80.7737 124.065 81.0337 124.305 81.0337 124.765V128.365C81.0337 128.825 80.7937 129.045 80.3137 129.045H69.1937V129.845H80.3137C80.7937 129.845 81.0337 130.065 81.0337 130.485V131.485C81.0337 131.905 80.7737 132.105 80.2737 132.105H66.8937C66.3937 132.105 66.1537 131.885 66.1537 131.405V127.785C66.1537 127.345 66.3937 127.125 66.9137 127.125H77.9737V126.325H66.8737ZM89.6118 126.265C89.0918 126.265 88.8318 126.025 88.8318 125.525V124.625C88.8318 124.145 89.0718 123.905 89.5718 123.905H102.872C103.392 123.905 103.652 124.165 103.652 124.685V128.225C103.652 128.705 103.392 128.945 102.912 128.945H91.7518V129.745H102.912C103.392 129.745 103.652 129.965 103.652 130.385V131.405C103.652 131.885 103.392 132.105 102.912 132.105H89.6118C89.0118 132.105 88.7118 131.845 88.7118 131.325V127.825C88.7118 127.325 88.9518 127.065 89.4718 127.065H100.612V126.265H89.6118ZM99.5518 118.845C99.5518 117.005 98.1518 115.925 95.3518 115.625C94.8718 117.185 93.9918 118.365 92.6718 119.205C92.3118 119.445 91.9318 119.545 91.4918 119.545H89.5118C89.2518 119.545 89.0918 119.465 89.0118 119.285C88.9318 119.125 89.0118 118.945 89.2118 118.785C90.8118 117.525 91.7518 116.265 92.0318 114.985H89.5118C88.9918 114.985 88.7518 114.745 88.7518 114.245V112.945C88.7518 112.425 88.9918 112.165 89.5118 112.165H102.772C103.292 112.165 103.552 112.425 103.552 112.945V114.185C103.552 114.725 103.252 114.985 102.692 114.985H100.632C102.212 115.765 103.032 117.045 103.092 118.845C103.092 119.325 102.852 119.545 102.412 119.545H100.232C99.7718 119.545 99.5518 119.325 99.5518 118.845ZM102.892 120.305C103.392 120.305 103.652 120.565 103.652 121.085V122.225C103.652 122.745 103.392 122.985 102.892 122.985H89.4518C88.9518 122.985 88.7118 122.725 88.7118 122.185V121.205C88.6718 120.605 88.9718 120.305 89.5718 120.305H102.892ZM109.157 129.045V129.785H119.257C119.737 129.785 119.977 130.005 119.977 130.405V131.465C119.977 131.905 119.757 132.105 119.317 132.105H106.737C106.217 132.105 105.977 131.865 105.977 131.365V127.885C105.977 127.425 106.217 127.185 106.717 127.185H116.817V126.485H106.697C106.217 126.485 105.977 126.245 105.977 125.745V124.925C105.977 124.445 106.217 124.205 106.697 124.205H119.217C119.717 124.205 119.977 124.445 119.977 124.905V128.465C119.977 128.865 119.757 129.045 119.317 129.045H109.157ZM119.537 122.525C119.537 123.045 119.257 123.285 118.717 123.285H117.097C116.557 123.285 116.297 123.045 116.297 122.525V112.845C116.297 112.405 116.557 112.165 117.077 112.165H118.737C119.257 112.165 119.537 112.425 119.537 112.905V122.525ZM114.217 112.545C114.637 112.545 114.817 112.845 114.777 113.445C114.617 117.505 113.257 120.545 110.737 122.585C110.197 123.065 109.597 123.285 108.917 123.285H107.337C106.917 123.285 106.657 123.185 106.577 122.985C106.497 122.785 106.617 122.525 106.937 122.245C109.457 120.405 110.817 118.305 110.977 115.905C111.017 115.565 110.897 115.385 110.577 115.385H106.477C106.017 115.385 105.797 115.165 105.797 114.685V113.265C105.797 112.785 106.017 112.545 106.477 112.545H114.217ZM141.747 131.225C141.747 131.825 141.467 132.125 140.947 132.125H139.407C138.847 132.125 138.567 131.845 138.567 131.265V112.865C138.567 112.405 138.807 112.165 139.307 112.165H140.967C141.487 112.165 141.747 112.405 141.747 112.885V131.225ZM133.747 115.905C133.747 115.605 133.587 115.445 133.267 115.445H127.927C127.447 115.445 127.227 115.185 127.227 114.645V113.425C127.227 112.865 127.467 112.565 127.987 112.565H136.227C136.807 112.565 137.107 112.925 137.107 113.625C137.147 121.765 135.067 127.625 130.867 131.225C130.527 131.565 129.987 131.725 129.267 131.725H128.127C127.687 131.725 127.427 131.605 127.347 131.345C127.267 131.085 127.427 130.765 127.827 130.405C131.847 126.845 133.827 122.005 133.747 115.905ZM144.963 132.125C144.463 132.125 144.223 131.905 144.223 131.445V126.565C144.223 126.045 144.463 125.765 144.983 125.765H158.383C158.863 125.765 159.143 126.005 159.183 126.465V131.245C159.183 131.845 158.883 132.125 158.303 132.125H144.963ZM147.343 129.445H155.983V128.405H147.343V129.445ZM145.203 121.085C144.563 121.085 144.263 120.805 144.263 120.205V113.005C144.263 112.425 144.563 112.125 145.203 112.125H146.423C147.023 112.125 147.323 112.425 147.323 113.005V114.245H150.083V113.005C150.083 112.425 150.383 112.125 151.023 112.125H152.243C152.843 112.125 153.143 112.425 153.143 113.005V114.245H156.063V113.005C156.063 112.425 156.383 112.125 157.023 112.125H158.163C158.763 112.125 159.083 112.425 159.083 113.005V120.205C159.083 120.805 158.823 121.085 158.343 121.085H145.203ZM153.143 116.885V118.385H156.063V116.885H153.143ZM150.083 118.385V116.885H147.323V118.385H150.083ZM145.163 124.785C144.523 124.785 144.203 124.505 144.203 123.905V123.065C144.203 122.385 144.463 122.045 144.983 122.045H158.423C158.923 122.085 159.183 122.345 159.183 122.825V123.925C159.183 124.505 158.903 124.785 158.343 124.785H145.163ZM162.443 123.185C161.923 123.185 161.683 122.945 161.683 122.425V121.265C161.683 120.705 161.943 120.425 162.483 120.425H175.863C176.343 120.425 176.583 120.685 176.583 121.185V122.465C176.583 122.945 176.343 123.185 175.863 123.185H162.443ZM169.103 111.965C170.563 111.965 171.783 112.045 172.743 112.205C173.703 112.365 174.483 112.605 175.043 112.925C175.603 113.245 176.003 113.665 176.243 114.145C176.463 114.645 176.583 115.225 176.583 115.885C176.583 116.565 176.463 117.145 176.243 117.625C176.003 118.125 175.623 118.525 175.063 118.845C174.503 119.165 173.723 119.405 172.763 119.565C171.803 119.725 170.583 119.805 169.103 119.805C167.623 119.805 166.423 119.725 165.463 119.565C164.503 119.405 163.763 119.165 163.203 118.845C162.643 118.525 162.243 118.125 162.023 117.625C161.783 117.145 161.683 116.565 161.683 115.885C161.683 115.225 161.783 114.645 162.003 114.145C162.203 113.665 162.583 113.245 163.143 112.925C163.703 112.605 164.463 112.365 165.423 112.205C166.383 112.045 167.603 111.965 169.103 111.965ZM169.103 117.345C169.983 117.345 170.703 117.325 171.263 117.265C171.823 117.225 172.283 117.125 172.603 117.005C172.923 116.885 173.163 116.745 173.283 116.565C173.403 116.385 173.483 116.165 173.483 115.885C173.483 115.645 173.403 115.425 173.263 115.245C173.123 115.065 172.883 114.905 172.563 114.785C172.223 114.665 171.783 114.585 171.223 114.525C170.663 114.485 169.943 114.445 169.103 114.445C168.263 114.445 167.563 114.485 167.003 114.525C166.443 114.585 166.003 114.665 165.683 114.785C165.363 114.905 165.123 115.065 164.983 115.245C164.843 115.425 164.783 115.645 164.783 115.885C164.783 116.165 164.843 116.385 164.963 116.565C165.083 116.745 165.323 116.885 165.643 117.005C165.963 117.125 166.403 117.225 166.963 117.265C167.523 117.325 168.223 117.345 169.103 117.345ZM164.543 128.905V129.585H175.943C176.363 129.585 176.583 129.785 176.583 130.165V131.445C176.583 131.885 176.343 132.105 175.883 132.105H162.603C161.983 132.105 161.683 131.825 161.683 131.265V127.925C161.683 127.365 161.943 127.065 162.483 127.065H173.623V126.405H162.523C161.963 126.405 161.683 126.185 161.683 125.725V124.685C161.683 124.185 161.903 123.925 162.383 123.925H175.703C176.283 123.925 176.583 124.165 176.583 124.605V128.345C176.583 128.725 176.343 128.905 175.883 128.905H164.543ZM180.127 112.165H181.807C182.487 112.165 182.807 112.645 182.767 113.625L182.327 126.205C182.247 126.745 181.967 127.025 181.487 127.065H180.347C179.867 127.085 179.587 126.825 179.507 126.285L178.967 113.625C178.927 112.645 179.327 112.165 180.127 112.165ZM179.987 132.105H181.987C182.687 132.145 183.047 131.865 183.047 131.245L182.887 129.465C182.847 128.885 182.567 128.585 182.087 128.585H180.047C179.567 128.585 179.327 128.825 179.287 129.305L179.087 131.245C179.067 131.825 179.367 132.105 179.987 132.105Z" fill="black"/>
</g>
<g clip-path="url(#clip1_566_2407)">
<path d="M243.014 250.88C243.014 243.71 248.826 237.898 255.996 237.898V205.127C255.996 201.516 253.068 198.592 249.461 198.592H118.728C115.117 198.592 112.193 201.52 112.193 205.127V237.898C119.364 237.898 125.176 243.71 125.176 250.88C125.176 258.05 119.364 263.862 112.193 263.862V296.634C112.193 300.245 115.121 303.169 118.728 303.169H249.457C253.068 303.169 255.992 300.241 255.992 296.634V263.862C248.822 263.862 243.014 258.05 243.014 250.88Z" fill="#FFCD00"/>
<path d="M206.089 242.672L190.89 240.463L184.095 226.694L177.301 240.463L162.102 242.672L173.099 253.394L170.502 268.529L184.095 261.383L197.689 268.529L195.092 253.394L206.089 242.672Z" fill="#FFAA00"/>
</g>
<path d="M72.1617 279.076C72.1617 279.076 88.7492 267.279 102.191 267.279C115.632 267.279 129.956 271.569 135.437 273.714C137.105 272.165 141.371 269.067 145.089 269.067C149.737 269.067 166.181 284.796 170.828 286.226C175.476 287.656 190.848 293.018 190.49 296.236C190.133 299.453 177.263 301.956 167.254 299.096C193.095 336.851 185.905 337.02 184.209 337.623C183.909 337.729 183.194 338.074 179.939 337.623C181.678 340.135 184.867 345.856 183.708 348.64C182.548 351.423 180.132 350.959 179.069 350.379C180.706 352.554 183.998 359.512 181.968 361.831C180.345 363.687 178.268 363.332 177.432 362.923C194.335 376.113 212.647 423.08 219.689 444.915H31.1084C30.0993 401.523 43.9077 376.637 50.9381 369.618C49.3739 364.37 50.2863 361.6 50.9381 360.871C49.9132 360.579 47.4697 359.558 45.8951 357.809C44.3205 356.059 46.5512 352.56 47.8633 351.029C46.4783 351.029 43.227 350.111 41.3025 346.437C39.378 342.763 44.8745 337.179 47.8633 334.846C45.4036 324.698 48.8882 313.503 50.9381 309.173C41.4803 309.779 30.3397 308.139 29.2632 299.096C27.8332 287.084 57.2664 280.745 72.1617 279.076Z" fill="white"/>
<ellipse cx="87.6726" cy="310.469" rx="3.10227" ry="5.44479" fill="black"/>
<ellipse cx="131.231" cy="310.469" rx="3.10227" ry="5.44479" fill="black"/>
<path d="M124.077 319.713C114.96 320.017 111.584 323.807 111.035 325.664C110.516 327.227 114.085 330.039 117.492 330.851C120.898 331.664 130.915 330.349 133.447 329.336C135.98 328.323 136.739 322.245 136.36 321.106C135.98 319.966 135.473 319.333 124.077 319.713Z" fill="black" stroke="black" stroke-width="0.804127"/>
<path d="M122.823 329.792C122.411 334.119 120.695 342.336 116.905 346.879M101.822 350.363C103.199 351.223 107.486 352.256 113.614 349.502C114.852 348.945 115.945 348.03 116.905 346.879M124.803 354.666C122.607 353.52 117.954 350.359 116.905 346.879" stroke="black" stroke-width="0.804127"/>
<path d="M115.848 445.217L121.728 407.524H132.864L137.289 445.217L115.848 445.217Z" fill="#3E82CD"/>
<path d="M149.053 319.709C148.962 319.435 148.666 319.286 148.392 319.377C148.119 319.468 147.97 319.763 148.061 320.037L149.053 319.709ZM86.749 354.937C91.8742 358.162 100.551 362.307 109.963 364.276C119.366 366.243 129.596 366.056 137.73 360.486L137.14 359.624C129.344 364.962 119.453 365.193 110.177 363.253C100.908 361.314 92.3458 357.225 87.3056 354.052L86.749 354.937ZM137.73 360.486C145.843 354.932 149.413 346.952 150.585 339.272C151.754 331.602 150.54 324.2 149.053 319.709L148.061 320.037C149.504 324.396 150.693 331.631 149.552 339.114C148.412 346.585 144.956 354.272 137.14 359.624L137.73 360.486Z" fill="#E1E1E1"/>
<path d="M49.9434 360.761L118.079 380.531L127.258 390.416L135.907 380.531L179.86 350.876L184.097 364.468L148.97 398.889L135.907 380.531L127.258 390.416L118.079 380.531L105.723 398.889L49.9434 369.94V360.761Z" fill="white"/>
<path d="M118.079 380.531L49.9434 360.761V369.94L105.723 398.889L118.079 380.531ZM118.079 380.531L127.258 390.416L135.907 380.531M135.907 380.531L148.97 398.889L184.097 364.468L179.86 350.876L135.907 380.531Z" stroke="#B3B3B3" stroke-width="1.04489"/>
<path d="M121.728 407.525L109.605 393.593L113.489 387.592H140.32L146.145 395.535L132.8 407.525H121.728Z" fill="#3E82CD"/>
<path d="M115.33 280.493C110.831 285.189 100.73 294.449 96.3195 293.918C95.9393 294.084 95.6732 293.587 97.6503 290.272C94.0384 292.924 85.5598 297.929 80.541 296.736" stroke="black" stroke-width="1.04489" stroke-linecap="round" stroke-linejoin="round"/>
</g>
</g>
<defs>
<filter id="filter0_d_566_2407" x="0" y="0" width="293" height="441" filterUnits="userSpaceOnUse" color-interpolation-filters="sRGB">
<feFlood flood-opacity="0" result="BackgroundImageFix"/>
<feColorMatrix in="SourceAlpha" type="matrix" values="0 0 0 0 0 0 0 0 0 0 0 0 0 0 0 0 0 0 127 0" result="hardAlpha"/>
<feOffset dx="2" dy="4"/>
<feGaussianBlur stdDeviation="2"/>
<feComposite in2="hardAlpha" operator="out"/>
<feColorMatrix type="matrix" values="0 0 0 0 0 0 0 0 0 0 0 0 0 0 0 0 0 0 0.25 0"/>
<feBlend mode="normal" in2="BackgroundImageFix" result="effect1_dropShadow_566_2407"/>
<feBlend mode="normal" in="SourceGraphic" in2="effect1_dropShadow_566_2407" result="shape"/>
</filter>
<filter id="filter1_d_566_2407" x="22.6436" y="82.0743" width="199.559" height="57.8603" filterUnits="userSpaceOnUse" color-interpolation-filters="sRGB">
<feFlood flood-opacity="0" result="BackgroundImageFix"/>
<feColorMatrix in="SourceAlpha" type="matrix" values="0 0 0 0 0 0 0 0 0 0 0 0 0 0 0 0 0 0 127 0" result="hardAlpha"/>
<feOffset/>
<feGaussianBlur stdDeviation="3.895"/>
<feComposite in2="hardAlpha" operator="out"/>
<feColorMatrix type="matrix" values="0 0 0 0 1 0 0 0 0 1 0 0 0 0 1 0 0 0 1 0"/>
<feBlend mode="normal" in2="BackgroundImageFix" result="effect1_dropShadow_566_2407"/>
<feBlend mode="normal" in="SourceGraphic" in2="effect1_dropShadow_566_2407" result="shape"/>
</filter>
<linearGradient id="paint0_linear_566_2407" x1="144.5" y1="0" x2="144.5" y2="433" gradientUnits="userSpaceOnUse">
<stop offset="0.139" stop-color="#DEF2EB"/>
<stop offset="1" stop-color="#B9E6E9"/>
</linearGradient>
<clipPath id="clip0_566_2407">
<rect x="2" width="285" height="433" rx="10" fill="white"/>
</clipPath>
<clipPath id="clip1_566_2407">
<rect width="159.781" height="159.781" fill="white" transform="translate(104.205 170.989)"/>
</clipPath>
</defs>
</svg>
