<svg width="293" height="441" viewBox="0 0 293 441" fill="none" xmlns="http://www.w3.org/2000/svg">
<g filter="url(#filter0_d_506_2022)">
<g clip-path="url(#clip0_506_2022)">
<rect x="2" width="285" height="433" rx="10" fill="url(#paint0_linear_506_2022)"/>
<path d="M124.542 -31.832C124.65 -17.1948 119.598 17.3491 98.52 38.4267C72.1729 64.7739 41.272 50.7872 8.74471 83.3145C-17.2771 109.336 -25.5174 125.817 -26.3848 130.804" stroke="white" stroke-opacity="0.48" stroke-width="7.90056"/>
<path d="M168.838 -23.6387C168.947 -9.00145 163.894 25.5424 142.816 46.6201" stroke="white" stroke-opacity="0.48" stroke-width="7.90056" stroke-linecap="round"/>
<path d="M124.451 46.6221L127.014 54.3881L133.942 57.2618L127.014 60.1355L124.451 67.9015L121.887 60.1355L114.959 57.2618L121.887 54.3881L124.451 46.6221Z" fill="white" fill-opacity="0.62"/>
<g clip-path="url(#clip1_506_2022)">
<path d="M232.348 255.967H166.557C163.926 255.967 161.793 258.1 161.793 260.731V283.274C161.793 285.905 163.926 288.038 166.557 288.038H232.348C234.98 288.038 237.113 285.905 237.113 283.274V260.731C237.113 258.1 234.98 255.967 232.348 255.967Z" fill="#8A94A0"/>
<path d="M199.621 255.447C197.807 255.447 196.334 253.974 196.334 252.16V189.038C196.334 187.224 197.807 185.751 199.621 185.751C201.436 185.751 202.909 187.224 202.909 189.038V252.16C202.909 253.974 201.436 255.447 199.621 255.447Z" fill="#4B596A"/>
<path d="M90.8304 202.45L214.36 197.383C216.71 197.286 218.564 195.353 218.564 193.004V185.145C218.564 182.796 216.71 180.863 214.36 180.766L90.8304 175.695C88.3408 175.594 86.2676 177.584 86.2676 180.074V198.067C86.2676 200.556 88.3408 202.551 90.8304 202.45Z" fill="#FFCD00"/>
<path d="M207.058 177.717H191.836C190.707 177.717 189.793 178.631 189.793 179.759V200.404C189.793 201.532 190.707 202.446 191.836 202.446H207.058C208.186 202.446 209.101 201.532 209.101 200.404V179.759C209.101 178.631 208.186 177.717 207.058 177.717Z" fill="#FFAA00"/>
<path d="M185.791 291.327C185.396 291.327 185.002 291.257 184.612 291.108C182.915 290.459 182.07 288.557 182.718 286.861L199.628 242.723L216.67 286.852C217.323 288.548 216.481 290.451 214.79 291.104C213.098 291.779 211.191 290.915 210.538 289.223L199.655 261.031L188.855 289.215C188.355 290.521 187.11 291.323 185.786 291.323L185.791 291.327Z" fill="#4B596A"/>
<path d="M134.931 305.558L129.824 165.754C129.737 163.396 127.804 161.528 125.445 161.528H106.773C104.415 161.528 102.478 163.396 102.395 165.754L97.2882 305.558C97.1962 308.039 99.1861 310.099 101.667 310.099H130.552C133.037 310.099 135.023 308.039 134.931 305.558Z" fill="#FFAA00"/>
</g>
<rect x="77.5781" y="100.791" width="51.6914" height="14.0275" fill="#3E82CD"/>
<g filter="url(#filter1_d_506_2022)">
<path d="M28.9 102.445C30.38 102.445 31.64 102.545 32.64 102.705C33.64 102.865 34.44 103.125 35.04 103.445C35.64 103.765 36.06 104.185 36.32 104.685C36.56 105.185 36.7 105.765 36.7 106.425C36.7 107.085 36.56 107.665 36.28 108.145C36 108.625 35.54 109.045 34.92 109.365C34.3 109.685 33.5 109.925 32.52 110.085C31.52 110.245 30.32 110.325 28.9 110.325C27.38 110.325 26.14 110.245 25.14 110.085C24.14 109.925 23.36 109.685 22.76 109.365C22.16 109.045 21.74 108.625 21.5 108.145C21.26 107.665 21.14 107.085 21.14 106.405C21.14 105.765 21.26 105.185 21.52 104.685C21.78 104.185 22.22 103.765 22.82 103.445C23.42 103.125 24.22 102.865 25.22 102.705C26.2 102.545 27.42 102.445 28.9 102.445ZM28.94 107.885C29.86 107.885 30.62 107.865 31.22 107.805C31.82 107.745 32.28 107.645 32.64 107.525C32.98 107.405 33.22 107.245 33.36 107.045C33.5 106.865 33.58 106.645 33.58 106.405C33.58 106.165 33.5 105.945 33.34 105.745C33.18 105.565 32.92 105.405 32.56 105.285C32.2 105.165 31.72 105.065 31.12 105.005C30.52 104.945 29.78 104.905 28.9 104.905C28.02 104.905 27.3 104.945 26.7 105.005C26.1 105.065 25.62 105.165 25.26 105.285C24.9 105.405 24.62 105.565 24.46 105.745C24.3 105.945 24.22 106.165 24.22 106.405C24.22 106.645 24.3 106.865 24.46 107.045C24.62 107.245 24.88 107.405 25.24 107.525C25.6 107.645 26.1 107.745 26.7 107.805C27.3 107.865 28.06 107.885 28.94 107.885ZM29.88 90.5447C30.48 90.5447 30.8 90.8047 30.8 91.2847V92.4247C30.8 92.9447 30.52 93.1847 29.96 93.1847H24.1V98.7447C26.82 98.6647 29.52 98.3047 32.18 97.6247V90.8847C32.18 90.4047 32.46 90.1647 33.04 90.1647H34.56C35.04 90.1647 35.28 90.4047 35.28 90.8847V93.4047H36.3C36.8 93.4047 37.06 93.6247 37.06 94.0447V95.6447C37.06 96.1647 36.78 96.4247 36.26 96.4247H35.28V100.865C35.28 101.425 34.96 101.705 34.34 101.705H33.08C32.48 101.705 32.18 101.465 32.18 100.985V100.465C28.14 101.185 24.72 101.545 21.88 101.545C21.38 101.545 21.14 101.325 21.14 100.845V91.3247C21.14 90.8047 21.42 90.5447 22.02 90.5447H29.88ZM53.1558 107.345C53.6558 107.345 53.9158 107.585 53.9158 108.045V109.365C53.9158 109.885 53.6358 110.125 53.1158 110.125H39.8558C39.3358 110.125 39.0758 109.905 39.0758 109.425V105.005C39.0758 104.545 39.3158 104.305 39.7958 104.305H41.4958C41.9758 104.305 42.2158 104.545 42.2158 105.005V107.345H53.1558ZM53.7358 102.305C53.7358 102.825 53.4558 103.085 52.9158 103.085H51.3158C50.7558 103.085 50.4958 102.845 50.4958 102.365V90.8447C50.4958 90.3847 50.7558 90.1447 51.2958 90.1447H52.9558C53.4758 90.1447 53.7358 90.3847 53.7358 90.8447V102.305ZM43.4958 92.4047C47.3358 92.0847 49.0958 95.2847 48.7758 102.025C48.7758 102.605 48.4558 102.905 47.8558 102.905H46.4158C45.8958 102.905 45.6558 102.645 45.6558 102.125C45.8958 97.0847 44.8758 94.8647 42.5958 95.4847C42.1558 97.4647 41.9358 99.6647 41.9358 102.085C41.9358 102.645 41.6358 102.905 41.0358 102.905H39.5958C39.0558 102.905 38.7958 102.665 38.7958 102.165C38.7958 97.7647 39.4358 94.1847 40.7158 91.4447C41.0358 90.8647 41.4758 90.5647 42.0358 90.5647H43.0958C43.7758 90.5647 44.0558 90.8047 43.8958 91.2847L43.4958 92.4047ZM70.7014 90.1647C71.1814 90.1647 71.4414 90.3847 71.4414 90.8247V109.465C71.4414 109.905 71.2014 110.125 70.7414 110.125H69.0214C68.5214 110.125 68.2814 109.885 68.2814 109.405V108.325H56.7814C56.3014 108.325 56.0614 108.085 56.0614 107.585V106.165C56.0614 105.685 56.3014 105.425 56.7814 105.425H68.2814V90.8847C68.2814 90.4047 68.5214 90.1647 69.0414 90.1647H70.7014ZM61.7214 104.525C60.5814 104.525 59.6414 104.385 58.9214 104.065C58.1814 103.765 57.6014 103.305 57.1814 102.705C56.7614 102.105 56.4614 101.365 56.3014 100.465C56.1414 99.5847 56.0614 98.5447 56.0614 97.3447C56.0614 96.1447 56.1414 95.0647 56.3214 94.1447C56.5014 93.2247 56.8014 92.4647 57.2214 91.8447C57.6414 91.2447 58.2014 90.7847 58.9214 90.4647C59.6214 90.1647 60.5014 90.0047 61.5814 90.0047C62.7214 90.0047 63.6614 90.1647 64.4214 90.4647C65.1614 90.7847 65.7414 91.2447 66.1814 91.8447C66.6014 92.4647 66.9014 93.2247 67.0814 94.1447C67.2414 95.0647 67.3414 96.1447 67.3414 97.3447C67.3414 98.5247 67.2414 99.5647 67.0614 100.445C66.8814 101.345 66.5814 102.105 66.1414 102.705C65.7014 103.305 65.1414 103.765 64.4214 104.065C63.7014 104.385 62.8014 104.525 61.7214 104.525ZM61.7614 92.5847C61.2214 92.5847 60.7814 92.6847 60.4214 92.8847C60.0614 93.0847 59.7814 93.3847 59.5814 93.7847C59.3814 94.1847 59.2414 94.6847 59.1614 95.2847C59.0814 95.8847 59.0414 96.5647 59.0414 97.3447V97.4847C59.0414 98.2047 59.0814 98.8447 59.1614 99.4047C59.2414 99.9647 59.4014 100.445 59.6014 100.825C59.8014 101.205 60.0814 101.485 60.4414 101.685C60.8014 101.885 61.2414 101.965 61.7614 101.965C62.7414 101.965 63.4214 101.585 63.8014 100.785C64.1814 99.9847 64.3814 98.8447 64.3814 97.3447C64.3814 95.7847 64.1814 94.5847 63.8014 93.7847C63.4214 92.9847 62.7414 92.5847 61.7614 92.5847ZM84.7883 93.6247C84.8683 93.3247 84.7483 93.1647 84.4483 93.1647H79.8883C79.4083 93.1647 79.1883 92.8847 79.1883 92.3647V91.1447C79.1883 90.5647 79.4083 90.2847 79.8883 90.2847H87.3883C87.9483 90.2847 88.2083 90.6447 88.1483 91.3447C88.1483 92.8647 88.0883 94.3047 88.0083 95.6447H90.2683V90.8647C90.2683 90.3847 90.5283 90.1447 91.0683 90.1447H92.7083C93.1683 90.1447 93.4283 90.3847 93.4683 90.8447V109.405C93.4683 109.885 93.1883 110.105 92.6283 110.105H91.1083C90.5483 110.105 90.2683 109.865 90.2683 109.365V98.7647H87.6483C86.9083 103.485 85.3283 107.105 82.9083 109.605C82.5683 109.945 82.0283 110.105 81.3083 110.105H80.1883C79.7483 110.105 79.4683 109.985 79.3883 109.725C79.3083 109.465 79.4683 109.145 79.8683 108.785C82.1283 106.305 83.6083 103.185 84.3083 99.4047H79.8883C79.4083 99.4047 79.1883 99.1247 79.1883 98.6047V97.3847C79.1883 96.8047 79.4083 96.5247 79.8883 96.5247H84.6883C84.7483 95.6047 84.7883 94.6247 84.7883 93.6247ZM110.188 109.265C110.188 109.825 109.908 110.105 109.368 110.105H107.848C107.268 110.105 106.988 109.825 106.988 109.265V108.265C103.188 109.205 99.7075 109.665 96.5675 109.665C96.0675 109.665 95.8275 109.405 95.8275 108.865V96.1847C95.8275 95.7447 96.0675 95.5047 96.5675 95.5047H102.388V93.4847H96.6875C96.1075 93.4847 95.8275 93.2447 95.8275 92.7447V91.3647C95.8275 90.8447 96.0675 90.5647 96.5875 90.5647H104.508C105.068 90.5647 105.348 90.8247 105.348 91.3247V97.5247C105.348 98.0847 105.048 98.3447 104.468 98.3447H98.8275V106.605C101.748 106.485 104.468 105.965 106.988 105.025V90.8847C106.988 90.4047 107.268 90.1647 107.848 90.1647H109.428C109.928 90.1647 110.188 90.4247 110.188 90.9447V109.265ZM117.687 90.1647C118.607 90.1647 119.407 90.3447 120.047 90.6647C120.687 91.0047 121.187 91.5047 121.587 92.1647C121.987 92.8247 122.267 93.6447 122.467 94.6247C122.647 95.6247 122.767 96.7647 122.807 98.0847H124.247V90.8847C124.247 90.4047 124.507 90.1647 125.067 90.1647H126.647C127.167 90.1647 127.447 90.4047 127.447 90.8847V109.425C127.447 109.905 127.187 110.125 126.707 110.125H125.087C124.527 110.125 124.247 109.885 124.247 109.385V101.245H122.827C122.787 102.725 122.667 104.025 122.487 105.145C122.287 106.265 122.007 107.185 121.607 107.925C121.207 108.665 120.687 109.225 120.047 109.585C119.407 109.945 118.607 110.125 117.687 110.125C116.647 110.125 115.787 109.925 115.107 109.485C114.427 109.045 113.887 108.405 113.487 107.545C113.087 106.685 112.827 105.605 112.667 104.325C112.507 103.045 112.427 101.545 112.427 99.8247C112.427 98.2247 112.507 96.8247 112.687 95.6247C112.867 94.4247 113.167 93.4047 113.567 92.6047C113.967 91.8047 114.507 91.1847 115.187 90.7847C115.867 90.3847 116.687 90.1647 117.687 90.1647ZM119.847 99.8247C119.847 98.7047 119.807 97.7047 119.767 96.8447C119.707 96.0047 119.607 95.2847 119.447 94.7247C119.287 94.1647 119.067 93.7247 118.787 93.4447C118.507 93.1647 118.147 93.0247 117.707 93.0247C117.247 93.0247 116.887 93.1647 116.607 93.4447C116.327 93.7247 116.107 94.1647 115.947 94.7247C115.787 95.2847 115.687 96.0047 115.647 96.8447C115.587 97.7047 115.567 98.7047 115.567 99.8247C115.567 102.325 115.707 104.205 116.007 105.445C116.287 106.685 116.867 107.305 117.707 107.305C118.127 107.305 118.487 107.165 118.767 106.845C119.047 106.525 119.267 106.065 119.427 105.425C119.587 104.805 119.687 104.025 119.747 103.085C119.807 102.165 119.847 101.065 119.847 99.8247ZM144.012 98.9047C144.452 98.9247 144.672 99.1047 144.672 99.4447V100.585C144.672 101.065 144.432 101.305 143.972 101.305H130.512C130.032 101.305 129.792 101.045 129.792 100.525V99.5447C129.792 99.1247 129.992 98.9047 130.412 98.9047H144.012ZM130.472 92.4047C130.012 92.4047 129.792 92.2247 129.792 91.8447V90.7847C129.792 90.3847 130.012 90.1647 130.472 90.1647H143.912C144.412 90.1647 144.672 90.3847 144.672 90.7847V94.3647C144.672 94.8447 144.432 95.0847 143.952 95.0847H132.832V95.9047H143.952C144.432 95.9047 144.672 96.1247 144.672 96.5247V97.4447C144.672 97.9247 144.432 98.1647 143.992 98.1647H130.452C130.012 98.1647 129.792 97.9447 129.792 97.5047V93.8447C129.792 93.4047 130.012 93.1647 130.452 93.1647H141.612V92.4047H130.472ZM130.512 104.325C130.032 104.325 129.792 104.105 129.792 103.645V102.765C129.792 102.305 130.032 102.065 130.512 102.065H143.892C144.412 102.065 144.672 102.305 144.672 102.765V106.365C144.672 106.825 144.432 107.045 143.952 107.045H132.832V107.845H143.952C144.432 107.845 144.672 108.065 144.672 108.485V109.485C144.672 109.905 144.412 110.105 143.912 110.105H130.532C130.032 110.105 129.792 109.885 129.792 109.405V105.785C129.792 105.345 130.032 105.125 130.552 105.125H141.612V104.325H130.512ZM166.49 90.1647C166.97 90.1647 167.23 90.4047 167.23 90.8647V109.385C167.23 109.885 166.99 110.125 166.53 110.125H164.81C164.31 110.125 164.07 109.885 164.07 109.405V106.865H158.51V109.525C158.51 109.965 158.31 110.165 157.93 110.125H155.79C155.43 110.125 155.25 109.945 155.25 109.545V106.865H152.99C152.51 106.865 152.27 106.665 152.27 106.225V104.665C152.27 104.245 152.51 104.025 153.03 103.985H164.07V90.8847C164.07 90.4047 164.31 90.1647 164.83 90.1647H166.49ZM157.55 103.085C156.51 103.085 155.63 102.965 154.95 102.685C154.27 102.405 153.73 102.005 153.33 101.445C152.93 100.905 152.65 100.225 152.49 99.4047C152.33 98.5847 152.25 97.6247 152.25 96.5247C152.25 95.4647 152.33 94.5447 152.51 93.7447C152.67 92.9447 152.97 92.2847 153.39 91.7447C153.79 91.2247 154.35 90.8247 155.03 90.5647C155.71 90.3047 156.55 90.1647 157.55 90.1647C158.59 90.1647 159.47 90.3047 160.15 90.5647C160.83 90.8247 161.39 91.2247 161.81 91.7447C162.21 92.2847 162.51 92.9447 162.67 93.7447C162.83 94.5447 162.93 95.4647 162.93 96.5247C162.93 97.6047 162.83 98.5647 162.67 99.3847C162.51 100.205 162.21 100.885 161.81 101.445C161.39 102.005 160.83 102.405 160.15 102.685C159.47 102.965 158.59 103.085 157.55 103.085ZM157.59 92.7447C156.71 92.7447 156.09 93.0647 155.77 93.6847C155.45 94.3247 155.29 95.2647 155.29 96.5247C155.27 97.8647 155.41 98.8647 155.73 99.5247C156.05 100.205 156.67 100.525 157.59 100.525C158.49 100.525 159.11 100.205 159.45 99.5247C159.77 98.8447 159.95 97.8447 159.95 96.5247C159.95 95.2847 159.77 94.3447 159.45 93.7047C159.11 93.0647 158.49 92.7447 157.59 92.7447ZM173.898 110.125C173.018 110.125 172.318 109.985 171.758 109.685C171.198 109.405 170.738 108.965 170.418 108.385C170.098 107.805 169.858 107.065 169.738 106.185C169.618 105.305 169.558 104.285 169.558 103.125C169.558 101.285 169.638 99.7847 169.798 98.6447C169.958 97.5047 170.238 96.7047 170.638 96.2247H170.098C169.658 96.2247 169.458 96.0247 169.458 95.6047V93.8647C169.458 93.4647 169.638 93.2447 170.038 93.2447H177.938C178.178 93.2447 178.338 93.2847 178.458 93.3447C178.558 93.4047 178.618 93.5247 178.618 93.7047V95.4847C178.618 95.7047 178.558 95.8847 178.458 96.0247C178.358 96.1647 178.218 96.2247 178.018 96.2247H177.378C177.698 96.6847 177.938 97.4647 178.078 98.5847C178.198 99.7047 178.278 101.205 178.278 103.065C178.278 104.225 178.198 105.265 178.078 106.145C177.938 107.025 177.698 107.765 177.378 108.345C177.038 108.945 176.578 109.385 176.018 109.685C175.458 109.985 174.738 110.125 173.898 110.125ZM186.118 109.385C186.118 109.885 185.878 110.125 185.418 110.125H183.958C183.438 110.125 183.178 109.905 183.178 109.465V98.8047H182.278V109.425C182.278 109.905 182.018 110.125 181.538 110.125H180.098C179.578 110.125 179.338 109.905 179.338 109.425V90.8047C179.338 90.3847 179.538 90.1647 179.958 90.1647H181.638C182.058 90.1647 182.278 90.3847 182.278 90.7847V95.6447H183.178V90.8447C183.178 90.4047 183.418 90.1647 183.898 90.1647H185.398C185.878 90.1647 186.118 90.4047 186.118 90.8647V109.385ZM173.918 96.2247C173.598 96.2247 173.358 96.3847 173.178 96.6847C172.998 96.9847 172.858 97.4247 172.778 98.0047C172.678 98.5847 172.618 99.3047 172.598 100.165C172.558 101.025 172.558 102.005 172.558 103.125C172.558 103.845 172.558 104.485 172.598 105.025C172.638 105.585 172.698 106.025 172.818 106.385C172.918 106.745 173.058 107.025 173.258 107.205C173.458 107.385 173.698 107.465 174.018 107.465C174.558 107.465 174.918 107.105 175.078 106.385C175.238 105.665 175.318 104.585 175.318 103.125C175.318 100.885 175.218 99.1647 175.058 97.9847C174.878 96.8247 174.498 96.2247 173.918 96.2247ZM171.618 92.6047C171.178 92.6047 170.978 92.3847 170.978 91.9447V90.7447C170.978 90.3447 171.198 90.1447 171.638 90.1447H176.258C176.678 90.1447 176.898 90.3447 176.898 90.7247V91.9447C176.898 92.3847 176.678 92.6047 176.258 92.6047H171.618ZM36.2 131.045C36.2 131.765 35.8 132.105 35.04 132.105H22.4C21.76 132.105 21.46 131.845 21.46 131.325V126.425C21.46 125.865 21.76 125.585 22.4 125.585H35.28C35.88 125.585 36.2 125.825 36.2 126.305V131.045ZM33.08 128.065H24.46V129.665H33.08V128.065ZM25.9 124.665C24.36 124.665 23.2 124.345 22.42 123.705C21.62 123.065 21.24 122.025 21.24 120.605C21.24 120.365 21.24 120.125 21.28 119.885C21.32 119.645 21.36 119.405 21.42 119.165C21.48 118.945 21.56 118.745 21.66 118.545C21.74 118.345 21.86 118.185 21.98 118.065H21.56C21.18 118.065 21 117.805 21 117.285V115.805C21 115.325 21.24 115.085 21.74 115.085H30.28C30.76 115.085 31.02 115.325 31.02 115.785V117.365C31.02 117.845 30.78 118.065 30.3 118.065H30.04C30.22 118.345 30.36 118.685 30.46 119.125C30.54 119.565 30.6 120.045 30.6 120.605C30.6 122.025 30.2 123.065 29.4 123.705C28.6 124.345 27.44 124.665 25.9 124.665ZM26 118.065C25.74 118.065 25.5 118.105 25.3 118.185C25.1 118.265 24.92 118.385 24.78 118.545C24.62 118.725 24.52 118.965 24.44 119.265C24.36 119.585 24.32 119.965 24.32 120.405C24.32 121.125 24.46 121.645 24.74 121.925C25.02 122.205 25.42 122.345 25.96 122.345C26.46 122.345 26.84 122.205 27.12 121.885C27.4 121.565 27.54 121.045 27.54 120.305C27.54 119.425 27.4 118.845 27.14 118.525C26.88 118.225 26.5 118.065 26 118.065ZM22.98 114.385C22.54 114.385 22.34 114.145 22.34 113.665V112.605C22.34 112.125 22.58 111.865 23.08 111.865H28.76C29.24 111.865 29.5 112.085 29.5 112.525V113.665C29.5 114.145 29.24 114.385 28.76 114.385H22.98ZM36.34 116.845C36.82 116.845 37.06 117.085 37.06 117.545V119.225C37.06 119.725 36.8 119.965 36.3 119.965H35.22V123.825C35.22 124.365 34.94 124.625 34.42 124.625H32.82C32.26 124.625 32 124.365 32 123.825V112.905C32 112.425 32.26 112.165 32.78 112.165H34.44C34.96 112.165 35.22 112.405 35.22 112.865V116.845H36.34ZM41.8247 115.905C41.8447 115.605 41.7047 115.445 41.4047 115.445H39.2647C38.7447 115.445 38.4847 115.205 38.4847 114.685V113.365C38.4847 112.845 38.7247 112.565 39.2247 112.565H48.5447C49.1047 112.565 49.4047 112.925 49.4047 113.625C49.4047 115.045 49.3647 116.385 49.3047 117.645H50.4047V112.905C50.4047 112.385 50.6647 112.125 51.2247 112.125H52.6247C53.1047 112.125 53.3647 112.385 53.3647 112.885V131.325C53.3647 131.845 53.0847 132.105 52.5447 132.105H51.2447C50.6847 132.105 50.4047 131.845 50.4047 131.325V120.765H49.0647C48.6247 125.145 47.7247 128.565 46.3647 131.005C46.1247 131.465 45.7447 131.685 45.2247 131.685H43.8447C43.4447 131.685 43.1647 131.605 43.0447 131.425C42.9247 131.265 42.9447 131.005 43.1047 130.645C45.1447 126.645 46.1647 121.745 46.1647 115.905C46.1847 115.605 46.0447 115.445 45.7447 115.445H45.0047C44.9247 121.445 43.7847 126.645 41.5647 131.005C41.3247 131.465 40.9047 131.685 40.2847 131.685H39.0647C38.7647 131.685 38.5647 131.605 38.4447 131.405C38.3247 131.225 38.3847 130.885 38.6447 130.365C40.7647 126.005 41.8247 121.185 41.8247 115.905ZM54.1447 112.885C54.1447 112.385 54.4047 112.125 54.9447 112.125H56.3447C56.8447 112.125 57.1047 112.385 57.1047 112.885V131.325C57.1047 131.845 56.8247 132.105 56.2647 132.105H54.9647C54.4047 132.105 54.1447 131.845 54.1447 131.325V112.885ZM67.9323 129.005V129.785H78.8923C79.3323 129.785 79.5723 129.965 79.5723 130.365V131.445C79.5723 131.885 79.3323 132.105 78.8923 132.105H65.6323C65.0323 132.105 64.7323 131.825 64.7323 131.265V128.025C64.7323 127.465 64.9923 127.165 65.5123 127.165H76.4123V126.405H65.5323C64.9923 126.405 64.7323 126.185 64.7323 125.745V124.845C64.7323 124.365 64.9523 124.125 65.4123 124.125H78.8123C79.3123 124.125 79.5723 124.365 79.5723 124.805V128.445C79.5723 128.825 79.3323 129.005 78.8923 129.005H67.9323ZM76.3723 114.305V112.865C76.3723 112.405 76.6323 112.165 77.1523 112.165H78.8123C79.3123 112.165 79.5723 112.405 79.5723 112.865V122.465C79.5723 122.945 79.3123 123.185 78.7923 123.185H77.1723C76.6323 123.185 76.3723 122.925 76.3723 122.405V117.425H75.4923C75.0523 117.425 74.8323 117.185 74.8323 116.685V115.065C74.8323 114.565 75.0323 114.305 75.4523 114.305H76.3723ZM69.4723 114.405C73.3123 114.085 75.0723 116.725 74.7523 122.345C74.6723 122.925 74.3323 123.225 73.7323 123.225H72.3923C71.8723 123.225 71.6323 122.965 71.6323 122.445C71.8723 118.525 70.8523 116.865 68.5723 117.485C68.1323 119.465 67.9123 121.105 67.9123 122.405C67.9123 122.965 67.6123 123.225 67.0123 123.225H65.5723C65.0323 123.225 64.7723 122.985 64.7723 122.485C64.7723 119.205 65.4123 116.185 66.6923 113.445C67.0123 112.865 67.4523 112.565 68.0123 112.565H69.0723C69.7523 112.565 70.0323 112.805 69.8723 113.285L69.4723 114.405ZM90.7812 116.005V112.865C90.7812 112.385 91.0413 112.145 91.5613 112.145H93.0013C93.5013 112.145 93.7613 112.385 93.7613 112.865V131.405C93.7613 131.885 93.5013 132.105 93.0013 132.105H91.5613C91.0413 132.105 90.7812 131.885 90.7812 131.405V122.965H89.1613C88.5213 126.385 87.3613 129.145 85.7013 131.245C85.3613 131.585 84.8213 131.745 84.1013 131.745H82.9813C82.5813 131.745 82.3213 131.625 82.2213 131.365C82.1012 131.105 82.2613 130.785 82.6613 130.425C85.2213 127.645 86.4613 122.805 86.3813 115.905C86.3813 115.605 86.1813 115.445 85.8213 115.445H82.5213C82.0013 115.445 81.7413 115.205 81.7413 114.705V113.305C81.7413 112.825 82.0013 112.565 82.5213 112.565H88.9013C89.4613 112.565 89.7413 112.925 89.7413 113.625V116.005H90.7812ZM94.6413 112.865C94.6413 112.405 94.9013 112.165 95.4213 112.165H96.8213C97.3213 112.165 97.5813 112.405 97.5813 112.865V131.225C97.5813 131.825 97.3213 132.105 96.8213 132.105H95.4213C94.9013 132.105 94.6413 131.825 94.6413 131.225V112.865ZM89.6413 118.845C89.6213 119.285 89.5813 119.725 89.5413 120.125H90.7812V118.845H89.6413ZM104.249 132.125C103.369 132.125 102.669 131.985 102.109 131.685C101.549 131.405 101.089 130.965 100.769 130.385C100.449 129.805 100.209 129.065 100.089 128.185C99.9691 127.305 99.9091 126.285 99.9091 125.125C99.9091 123.285 99.9891 121.785 100.149 120.645C100.309 119.505 100.589 118.705 100.989 118.225H100.449C100.009 118.225 99.8091 118.025 99.8091 117.605V115.865C99.8091 115.465 99.9891 115.245 100.389 115.245H108.289C108.529 115.245 108.689 115.285 108.809 115.345C108.909 115.405 108.969 115.525 108.969 115.705V117.485C108.969 117.705 108.909 117.885 108.809 118.025C108.709 118.165 108.569 118.225 108.369 118.225H107.729C108.049 118.685 108.289 119.465 108.429 120.585C108.549 121.705 108.629 123.205 108.629 125.065C108.629 126.225 108.549 127.265 108.429 128.145C108.289 129.025 108.049 129.765 107.729 130.345C107.389 130.945 106.929 131.385 106.369 131.685C105.809 131.985 105.089 132.125 104.249 132.125ZM116.469 131.385C116.469 131.885 116.229 132.125 115.769 132.125H114.309C113.789 132.125 113.529 131.905 113.529 131.465V120.805H112.629V131.425C112.629 131.905 112.369 132.125 111.889 132.125H110.449C109.929 132.125 109.689 131.905 109.689 131.425V112.805C109.689 112.385 109.889 112.165 110.309 112.165H111.989C112.409 112.165 112.629 112.385 112.629 112.785V117.645H113.529V112.845C113.529 112.405 113.769 112.165 114.249 112.165H115.749C116.229 112.165 116.469 112.405 116.469 112.865V131.385ZM104.269 118.225C103.949 118.225 103.709 118.385 103.529 118.685C103.349 118.985 103.209 119.425 103.129 120.005C103.029 120.585 102.969 121.305 102.949 122.165C102.909 123.025 102.909 124.005 102.909 125.125C102.909 125.845 102.909 126.485 102.949 127.025C102.989 127.585 103.049 128.025 103.169 128.385C103.269 128.745 103.409 129.025 103.609 129.205C103.809 129.385 104.049 129.465 104.369 129.465C104.909 129.465 105.269 129.105 105.429 128.385C105.589 127.665 105.669 126.585 105.669 125.125C105.669 122.885 105.569 121.165 105.409 119.985C105.229 118.825 104.849 118.225 104.269 118.225ZM101.969 114.605C101.529 114.605 101.329 114.385 101.329 113.945V112.745C101.329 112.345 101.549 112.145 101.989 112.145H106.609C107.029 112.145 107.249 112.345 107.249 112.725V113.945C107.249 114.385 107.029 114.605 106.609 114.605H101.969ZM122.196 128.665V126.085C121.556 125.965 121.036 125.685 120.616 125.265C120.176 124.865 119.836 124.345 119.576 123.725C119.296 123.125 119.116 122.425 118.996 121.625C118.876 120.845 118.816 120.005 118.816 119.125C118.816 117.925 118.916 116.885 119.156 115.985C119.376 115.105 119.756 114.365 120.296 113.765C120.836 113.165 121.556 112.725 122.476 112.425C123.396 112.125 124.536 111.965 125.896 111.965C127.196 111.965 128.296 112.125 129.196 112.425C130.096 112.725 130.836 113.165 131.396 113.765C131.956 114.365 132.356 115.105 132.596 115.985C132.836 116.885 132.976 117.925 132.976 119.125C132.976 120.025 132.896 120.865 132.776 121.625C132.656 122.385 132.456 123.065 132.176 123.665C131.896 124.265 131.556 124.785 131.116 125.185C130.676 125.605 130.156 125.905 129.556 126.105V128.665H132.156C132.696 128.665 132.976 128.945 132.976 129.485V130.925C132.976 131.425 132.716 131.665 132.196 131.665H119.716C119.116 131.665 118.816 131.405 118.816 130.865V129.565C118.816 128.965 119.116 128.665 119.756 128.665H122.196ZM125.896 123.925C127.336 123.925 128.376 123.525 128.976 122.725C129.576 121.925 129.896 120.725 129.896 119.125C129.896 117.645 129.596 116.545 128.996 115.805C128.396 115.085 127.356 114.705 125.916 114.705C124.476 114.705 123.436 115.085 122.836 115.825C122.216 116.565 121.916 117.665 121.916 119.125C121.916 119.925 121.976 120.625 122.116 121.225C122.236 121.825 122.456 122.325 122.776 122.725C123.076 123.125 123.476 123.425 123.996 123.625C124.496 123.825 125.136 123.925 125.896 123.925ZM125.896 126.645C125.736 126.645 125.596 126.645 125.476 126.645C125.336 126.645 125.196 126.625 125.076 126.605V128.665H126.656V126.605C126.536 126.625 126.396 126.645 126.276 126.645C126.156 126.645 126.016 126.645 125.896 126.645ZM136.52 112.165H138.2C138.88 112.165 139.2 112.645 139.16 113.625L138.72 126.205C138.64 126.745 138.36 127.025 137.88 127.065H136.74C136.26 127.085 135.98 126.825 135.9 126.285L135.36 113.625C135.32 112.645 135.72 112.165 136.52 112.165ZM136.38 132.105H138.38C139.08 132.145 139.44 131.865 139.44 131.245L139.28 129.465C139.24 128.885 138.96 128.585 138.48 128.585H136.44C135.96 128.585 135.72 128.825 135.68 129.305L135.48 131.245C135.46 131.825 135.76 132.105 136.38 132.105Z" fill="black"/>
</g>
<path d="M55.5102 280.556C55.5102 280.556 70.8956 269.613 83.363 269.613C95.8304 269.613 109.116 273.592 114.2 275.582C115.747 274.145 119.704 271.271 123.153 271.271C127.463 271.271 142.716 285.861 147.027 287.187C151.337 288.513 165.595 293.487 165.264 296.471C164.932 299.456 152.995 301.777 143.711 299.124C167.679 334.143 161.01 334.299 159.438 334.859C159.159 334.958 158.496 335.278 155.477 334.859C157.09 337.189 160.048 342.496 158.972 345.077C157.897 347.659 155.656 347.229 154.67 346.691C156.188 348.708 159.241 355.162 157.359 357.313C155.853 359.034 153.927 358.705 153.152 358.326C168.83 370.559 185.814 414.123 192.347 434.376H17.432C16.496 394.128 29.3037 371.046 35.8246 364.536C34.3737 359.668 35.2201 357.098 35.8246 356.422C34.874 356.152 32.6076 355.205 31.1471 353.582C29.6866 351.959 31.7556 348.714 32.9727 347.294C31.688 347.294 28.6723 346.442 26.8873 343.034C25.1022 339.626 30.2004 334.447 32.9727 332.283C30.6912 322.871 33.9233 312.487 35.8246 308.471C27.0522 309.033 16.719 307.512 15.7205 299.124C14.3941 287.983 41.6943 282.103 55.5102 280.556Z" fill="white"/>
<ellipse cx="69.897" cy="309.673" rx="2.87745" ry="5.05021" fill="black"/>
<ellipse cx="110.299" cy="309.673" rx="2.87745" ry="5.05021" fill="black"/>
<path d="M103.663 318.247C95.2073 318.529 92.0754 322.044 91.5665 323.767C91.0849 325.217 94.3959 327.825 97.5554 328.578C100.715 329.332 110.006 328.113 112.355 327.173C114.703 326.233 115.408 320.596 115.056 319.539C114.703 318.482 114.234 317.895 103.663 318.247Z" fill="black" stroke="black" stroke-width="0.745852"/>
<path d="M102.5 327.596C102.118 331.609 100.526 339.23 97.0111 343.445M83.0215 346.676C84.2988 347.474 88.2744 348.432 93.9585 345.877C95.1071 345.361 96.1208 344.512 97.0111 343.445M104.337 350.667C102.3 349.604 97.9843 346.672 97.0111 343.445" stroke="black" stroke-linecap="round" stroke-linejoin="round"/>
<path d="M133.958 362.018C97.8627 372.905 62.7041 368.527 49.6367 364.976C52.7926 370.746 64.9329 382.284 88.2471 382.284C111.561 382.284 128.435 368.773 133.958 362.018Z" fill="#3E82CD"/>
<circle cx="86.3769" cy="386.385" r="3.5585" fill="#D9D9D9"/>
<circle cx="97.0546" cy="375.709" r="3.5585" fill="#D9D9D9"/>
<circle cx="89.9355" cy="389.943" r="3.5585" fill="#D9D9D9"/>
<circle cx="100.611" cy="379.267" r="3.5585" fill="#D9D9D9"/>
<rect x="96.3789" y="375.709" width="6.52997" height="14.3386" transform="rotate(48.659 96.3789 375.709)" fill="#D9D9D9"/>
<path d="M178.538 419.676L154.664 423.495L177.075 426.925L178.538 419.676Z" fill="#D5D5D5"/>
<rect x="175.096" y="372.15" width="77.114" height="56.7645" rx="5.70069" fill="#EEEEEE"/>
<rect x="149.982" y="423.292" width="102.227" height="11.2458" rx="5.62289" fill="#EEEEEE"/>
<path d="M75.0239 400.726C74.9505 400.175 74.4448 399.788 73.8945 399.862C73.3441 399.935 72.9574 400.441 73.0308 400.991L75.0239 400.726ZM81.5676 409.655L81.3777 410.643L81.5676 409.655ZM139.376 419.458L138.486 419.924L139.376 419.458ZM73.0308 400.991C73.2161 402.381 73.842 404.481 75.1298 406.386C76.4285 408.306 78.4382 410.077 81.3777 410.643L81.7575 408.668C79.4691 408.228 77.8762 406.857 76.7955 405.259C75.704 403.645 75.1737 401.849 75.0239 400.726L73.0308 400.991ZM81.3777 410.643C82.3124 410.822 83.808 410.854 85.62 410.826C87.4623 410.798 89.7393 410.706 92.2883 410.608C97.4001 410.412 103.651 410.191 109.937 410.397C116.231 410.603 122.502 411.237 127.661 412.728C132.851 414.228 136.709 416.534 138.486 419.924L140.267 418.991C138.106 414.867 133.587 412.348 128.22 410.797C122.823 409.237 116.359 408.596 110.002 408.387C103.637 408.178 97.3207 408.403 92.2112 408.599C89.6495 408.697 87.4023 408.788 85.5896 408.816C83.7466 408.844 82.4565 408.803 81.7575 408.668L81.3777 410.643ZM138.486 419.924C141.491 425.661 140.886 429.946 139.396 432.871C137.864 435.879 135.351 437.542 134.491 437.873L135.213 439.749C136.532 439.242 139.429 437.238 141.188 433.783C142.99 430.245 143.558 425.272 140.267 418.991L138.486 419.924Z" fill="#A3A3A3"/>
<path d="M120.766 323.35C120.695 323.135 120.463 323.018 120.249 323.09C120.034 323.161 119.917 323.392 119.988 323.607L120.766 323.35ZM71.9048 350.977C75.9242 353.507 82.7291 356.757 90.11 358.301C97.4846 359.844 105.508 359.697 111.887 355.33L111.424 354.653C105.31 358.839 97.5532 359.021 90.2778 357.499C83.0088 355.979 76.294 352.771 72.3413 350.284L71.9048 350.977ZM111.887 355.33C118.249 350.973 121.049 344.715 121.968 338.692C122.885 332.677 121.932 326.872 120.766 323.35L119.988 323.607C121.12 327.026 122.053 332.7 121.158 338.568C120.264 344.428 117.554 350.456 111.424 354.653L111.887 355.33Z" fill="#E1E1E1"/>
<circle cx="74.1157" cy="311.372" r="15.7224" stroke="black" stroke-width="1.00537"/>
<circle cx="119.932" cy="311.372" r="15.7224" stroke="black" stroke-width="1.00537"/>
<line x1="90.3418" y1="311.587" x2="104.113" y2="311.587" stroke="black" stroke-width="1.00537"/>
</g>
</g>
<defs>
<filter id="filter0_d_506_2022" x="0" y="0" width="293" height="441" filterUnits="userSpaceOnUse" color-interpolation-filters="sRGB">
<feFlood flood-opacity="0" result="BackgroundImageFix"/>
<feColorMatrix in="SourceAlpha" type="matrix" values="0 0 0 0 0 0 0 0 0 0 0 0 0 0 0 0 0 0 127 0" result="hardAlpha"/>
<feOffset dx="2" dy="4"/>
<feGaussianBlur stdDeviation="2"/>
<feComposite in2="hardAlpha" operator="out"/>
<feColorMatrix type="matrix" values="0 0 0 0 0 0 0 0 0 0 0 0 0 0 0 0 0 0 0.25 0"/>
<feBlend mode="normal" in2="BackgroundImageFix" result="effect1_dropShadow_506_2022"/>
<feBlend mode="normal" in="SourceGraphic" in2="effect1_dropShadow_506_2022" result="shape"/>
</filter>
<filter id="filter1_d_506_2022" x="13.21" y="82.2149" width="180.697" height="57.7196" filterUnits="userSpaceOnUse" color-interpolation-filters="sRGB">
<feFlood flood-opacity="0" result="BackgroundImageFix"/>
<feColorMatrix in="SourceAlpha" type="matrix" values="0 0 0 0 0 0 0 0 0 0 0 0 0 0 0 0 0 0 127 0" result="hardAlpha"/>
<feOffset/>
<feGaussianBlur stdDeviation="3.895"/>
<feComposite in2="hardAlpha" operator="out"/>
<feColorMatrix type="matrix" values="0 0 0 0 1 0 0 0 0 1 0 0 0 0 1 0 0 0 1 0"/>
<feBlend mode="normal" in2="BackgroundImageFix" result="effect1_dropShadow_506_2022"/>
<feBlend mode="normal" in="SourceGraphic" in2="effect1_dropShadow_506_2022" result="shape"/>
</filter>
<linearGradient id="paint0_linear_506_2022" x1="144.5" y1="0" x2="144.5" y2="433" gradientUnits="userSpaceOnUse">
<stop offset="0.139" stop-color="#DEF2EB"/>
<stop offset="1" stop-color="#B9E6E9"/>
</linearGradient>
<clipPath id="clip0_506_2022">
<rect x="2" width="285" height="433" rx="10" fill="white"/>
</clipPath>
<clipPath id="clip1_506_2022">
<rect width="175.325" height="175.325" fill="white" transform="translate(74.0273 148.153)"/>
</clipPath>
</defs>
</svg>
