<svg width="27" height="28" viewBox="0 0 27 28" fill="none" xmlns="http://www.w3.org/2000/svg">
<path d="M11.7406 21.0312H15.2602C16.0463 21.0312 16.6837 21.6694 16.6837 22.4547V27.3977H10.3164V22.4547C10.3164 21.6686 10.9546 21.0312 11.7398 21.0312H11.7406Z" fill="#6B7683"/>
<path d="M25.6497 9.4702L14.3338 0.472308C13.8459 0.0841005 13.1547 0.0841005 12.666 0.472308L1.35176 9.4702C0.71278 9.97817 0.339844 10.7506 0.339844 11.5672V24.1835C0.339844 25.959 1.77935 27.3985 3.55481 27.3985H10.8214V22.3711C10.8214 21.6316 11.421 21.0312 12.1613 21.0312H14.8402C15.5796 21.0312 16.18 21.6308 16.18 22.3711V27.3985H23.4458C25.2213 27.3985 26.6608 25.959 26.6608 24.1835V11.5672C26.6608 10.7506 26.2895 9.97817 25.6497 9.4702Z" fill="#D0D5DA"/>
<path d="M25.6477 9.4694L14.3327 0.472308C13.8448 0.0841005 13.1536 0.0841005 12.6657 0.472308L1.3498 9.4702C0.710827 9.97817 0.337891 10.7506 0.337891 11.5672V15.6333L12.6649 5.83086C13.1528 5.44265 13.844 5.44265 14.3327 5.83086L26.6588 15.6333V11.5672C26.6588 10.7506 26.2859 9.97817 25.6469 9.4694H25.6477Z" fill="#007FF2"/>
</svg>
