<svg width="293" height="441" viewBox="0 0 293 441" fill="none" xmlns="http://www.w3.org/2000/svg">
<g filter="url(#filter0_d_566_2415)">
<g clip-path="url(#clip0_566_2415)">
<rect x="2" width="285" height="433" rx="10" fill="url(#paint0_linear_566_2415)"/>
<path d="M124.542 -31.832C124.65 -17.1948 119.598 17.3491 98.52 38.4267C72.1729 64.7739 41.272 50.7872 8.74471 83.3145C-17.2771 109.336 -25.5174 125.817 -26.3848 130.804" stroke="white" stroke-opacity="0.48" stroke-width="7.90056"/>
<path d="M168.838 -23.6387C168.947 -9.00145 163.894 25.5424 142.816 46.6201" stroke="white" stroke-opacity="0.48" stroke-width="7.90056" stroke-linecap="round"/>
<path d="M124.451 46.6221L127.014 54.3881L133.942 57.2618L127.014 60.1355L124.451 67.9015L121.887 60.1355L114.959 57.2618L121.887 54.3881L124.451 46.6221Z" fill="white" fill-opacity="0.62"/>
<rect x="27.2812" y="98.0703" width="36.4277" height="14.0275" fill="#3E82CD"/>
<g filter="url(#filter1_d_566_2415)">
<path d="M43.4813 109.045C43.4813 109.765 43.0813 110.105 42.3213 110.105H29.6813C29.0413 110.105 28.7413 109.845 28.7413 109.325V104.425C28.7413 103.865 29.0413 103.585 29.6813 103.585H42.5613C43.1613 103.585 43.4813 103.825 43.4813 104.305V109.045ZM40.3613 106.065H31.7413V107.665H40.3613V106.065ZM33.1813 102.665C31.6413 102.665 30.4813 102.345 29.7013 101.705C28.9013 101.065 28.5213 100.025 28.5213 98.6047C28.5213 98.3647 28.5213 98.1247 28.5613 97.8847C28.6012 97.6447 28.6413 97.4047 28.7013 97.1647C28.7613 96.9447 28.8413 96.7447 28.9413 96.5447C29.0213 96.3447 29.1413 96.1847 29.2613 96.0647H28.8413C28.4613 96.0647 28.2813 95.8047 28.2813 95.2847V93.8047C28.2813 93.3247 28.5213 93.0847 29.0213 93.0847H37.5612C38.0413 93.0847 38.3012 93.3247 38.3012 93.7847V95.3647C38.3012 95.8447 38.0613 96.0647 37.5813 96.0647H37.3213C37.5013 96.3447 37.6413 96.6847 37.7413 97.1247C37.8213 97.5647 37.8813 98.0447 37.8813 98.6047C37.8813 100.025 37.4813 101.065 36.6813 101.705C35.8813 102.345 34.7213 102.665 33.1813 102.665ZM33.2813 96.0647C33.0213 96.0647 32.7813 96.1047 32.5813 96.1847C32.3813 96.2647 32.2013 96.3847 32.0613 96.5447C31.9013 96.7247 31.8013 96.9647 31.7213 97.2647C31.6413 97.5847 31.6013 97.9647 31.6013 98.4047C31.6013 99.1247 31.7413 99.6447 32.0213 99.9247C32.3013 100.205 32.7013 100.345 33.2413 100.345C33.7413 100.345 34.1213 100.205 34.4013 99.8847C34.6813 99.5647 34.8213 99.0447 34.8213 98.3047C34.8213 97.4247 34.6813 96.8447 34.4213 96.5247C34.1613 96.2247 33.7813 96.0647 33.2813 96.0647ZM30.2613 92.3847C29.8213 92.3847 29.6213 92.1447 29.6213 91.6647V90.6047C29.6213 90.1247 29.8613 89.8647 30.3613 89.8647H36.0413C36.5213 89.8647 36.7813 90.0847 36.7813 90.5247V91.6647C36.7813 92.1447 36.5213 92.3847 36.0413 92.3847H30.2613ZM43.6213 94.8447C44.1013 94.8447 44.3413 95.0847 44.3413 95.5447V97.2247C44.3413 97.7247 44.0813 97.9647 43.5813 97.9647H42.5013V101.825C42.5013 102.365 42.2213 102.625 41.7013 102.625H40.1013C39.5413 102.625 39.2813 102.365 39.2813 101.825V90.9047C39.2813 90.4247 39.5413 90.1647 40.0613 90.1647H41.7213C42.2413 90.1647 42.5013 90.4047 42.5013 90.8647V94.8447H43.6213ZM49.1059 93.9047C49.1259 93.6047 48.9859 93.4447 48.6859 93.4447H46.5459C46.0259 93.4447 45.7659 93.2047 45.7659 92.6847V91.3647C45.7659 90.8447 46.0059 90.5647 46.5059 90.5647H55.8259C56.3859 90.5647 56.6859 90.9247 56.6859 91.6247C56.6859 93.0447 56.6459 94.3847 56.5859 95.6447H57.6859V90.9047C57.6859 90.3847 57.9459 90.1247 58.5059 90.1247H59.9059C60.3859 90.1247 60.6459 90.3847 60.6459 90.8847V109.325C60.6459 109.845 60.3659 110.105 59.8259 110.105H58.5259C57.9659 110.105 57.6859 109.845 57.6859 109.325V98.7647H56.3459C55.9059 103.145 55.0059 106.565 53.6459 109.005C53.4059 109.465 53.0259 109.685 52.5059 109.685H51.1259C50.7259 109.685 50.4459 109.605 50.3259 109.425C50.2059 109.265 50.2259 109.005 50.3859 108.645C52.4259 104.645 53.4459 99.7447 53.4459 93.9047C53.4659 93.6047 53.3259 93.4447 53.0259 93.4447H52.2859C52.2059 99.4447 51.0659 104.645 48.8459 109.005C48.6059 109.465 48.1859 109.685 47.5659 109.685H46.3459C46.0459 109.685 45.8459 109.605 45.7259 109.405C45.6059 109.225 45.6659 108.885 45.9259 108.365C48.0459 104.005 49.1059 99.1847 49.1059 93.9047ZM61.4259 90.8847C61.4259 90.3847 61.6859 90.1247 62.2259 90.1247H63.6259C64.1259 90.1247 64.3859 90.3847 64.3859 90.8847V109.325C64.3859 109.845 64.1059 110.105 63.5459 110.105H62.2459C61.6859 110.105 61.4259 109.845 61.4259 109.325V90.8847ZM81.602 95.6447C82.162 95.6447 82.442 95.9047 82.442 96.3847V97.9247C82.442 98.4847 82.162 98.7647 81.642 98.7647H80.662V109.345C80.662 109.865 80.382 110.125 79.822 110.125H78.282C77.722 110.125 77.462 109.865 77.462 109.345V90.8647C77.462 90.4047 77.702 90.1647 78.222 90.1647H79.862C80.382 90.1647 80.662 90.4047 80.662 90.8847V95.6447H81.602ZM71.382 110.125C70.462 110.125 69.682 109.985 69.082 109.685C68.462 109.405 67.982 108.965 67.622 108.385C67.262 107.805 67.002 107.065 66.862 106.185C66.702 105.305 66.642 104.285 66.642 103.125C66.642 102.105 66.662 101.205 66.702 100.445C66.742 99.6847 66.802 99.0447 66.882 98.4847C66.962 97.9247 67.082 97.4647 67.222 97.1047C67.362 96.7447 67.522 96.4647 67.722 96.2247H67.182C66.742 96.2247 66.542 96.0247 66.542 95.6047V93.8647C66.542 93.4647 66.722 93.2447 67.122 93.2447H75.822C76.062 93.2447 76.222 93.2847 76.342 93.3447C76.442 93.4047 76.502 93.5247 76.502 93.7047V95.4847C76.502 95.7047 76.442 95.8847 76.342 96.0247C76.242 96.1647 76.102 96.2247 75.902 96.2247H75.262C75.422 96.4647 75.562 96.7447 75.682 97.1047C75.802 97.4647 75.882 97.9247 75.962 98.4647C76.022 99.0247 76.062 99.6647 76.102 100.425C76.142 101.185 76.162 102.065 76.162 103.065C76.162 104.225 76.082 105.265 75.962 106.145C75.842 107.025 75.602 107.765 75.262 108.345C74.902 108.945 74.422 109.385 73.802 109.685C73.182 109.985 72.382 110.125 71.382 110.125ZM71.442 96.2247C70.762 96.2247 70.282 96.8247 70.022 97.9847C69.762 99.1447 69.642 100.865 69.642 103.125C69.642 104.585 69.762 105.665 70.042 106.385C70.322 107.105 70.802 107.465 71.502 107.465C72.142 107.465 72.582 107.105 72.822 106.385C73.062 105.665 73.202 104.585 73.202 103.125C73.202 100.885 73.062 99.1647 72.822 97.9847C72.562 96.8247 72.102 96.2247 71.442 96.2247ZM68.642 92.6047C68.202 92.6047 68.002 92.3847 68.002 91.9447V90.7447C68.002 90.3447 68.222 90.1447 68.662 90.1447H74.082C74.502 90.1447 74.722 90.3447 74.722 90.7247V91.9447C74.722 92.3847 74.502 92.6047 74.082 92.6047H68.642ZM98.0025 99.3847C98.5825 99.3847 98.8825 99.6647 98.8825 100.225V101.485C98.8825 102.045 98.6025 102.325 98.0425 102.325H85.0025C84.4625 102.325 84.2025 102.085 84.2025 101.565V100.205C84.2025 99.6647 84.4625 99.3847 84.9825 99.3847H98.0025ZM98.0425 107.165C98.6025 107.165 98.8825 107.445 98.8825 107.985V109.285C98.8825 109.845 98.6025 110.105 98.0425 110.105H85.0425C84.4825 110.105 84.2025 109.845 84.2025 109.325V104.465C84.2025 103.885 84.5025 103.585 85.1425 103.585H86.5025C87.1425 103.585 87.4625 103.885 87.4625 104.465V107.165H98.0425ZM98.0025 97.2847C94.5625 97.8647 90.2025 98.1647 84.9225 98.1847C84.4425 98.1847 84.2025 97.9647 84.2025 97.4847V91.0047C84.2025 90.4247 84.4825 90.1247 85.0825 90.1247H86.5625C87.1625 90.1247 87.4625 90.4047 87.4625 90.9247V95.1847C91.0825 95.1447 94.5625 94.8047 97.8825 94.1647C98.5425 94.0647 98.8825 94.3047 98.8825 94.8647V96.2247C98.8625 96.8247 98.5625 97.1847 98.0025 97.2847ZM110.746 91.4047C110.706 91.7447 110.646 92.0847 110.606 92.4047C113.566 92.2047 115.046 95.8047 115.046 103.185V109.165C115.046 109.665 114.766 109.905 114.226 109.905H112.806C112.246 109.905 111.966 109.665 111.966 109.165V103.025C111.966 98.1447 111.386 95.8247 110.226 96.0647C109.826 100.425 109.626 104.765 109.666 109.125C109.666 109.645 109.386 109.905 108.826 109.905H107.306C106.746 109.905 106.466 109.645 106.466 109.085C106.406 102.125 106.786 96.2447 107.586 91.4047C107.686 90.8447 107.986 90.5647 108.486 90.5647H109.966C110.566 90.5647 110.826 90.8447 110.746 91.4047ZM116.326 92.1847V90.8847C116.326 90.4047 116.586 90.1647 117.146 90.1647H118.546C118.986 90.1647 119.246 90.4047 119.286 90.8647V109.445C119.286 109.905 119.006 110.125 118.446 110.125H117.166C116.606 110.125 116.326 109.885 116.326 109.385V95.3447H115.366C114.806 95.3447 114.546 95.1047 114.546 94.6247V92.9247C114.546 92.4447 114.806 92.1847 115.346 92.1847H116.326ZM120.186 90.8847C120.186 90.4047 120.446 90.1647 120.986 90.1647H122.366C122.826 90.1647 123.086 90.4047 123.126 90.8647V109.445C123.126 109.905 122.846 110.125 122.306 110.125H121.006C120.446 110.125 120.186 109.885 120.186 109.385V90.8847ZM140.392 94.4447C140.872 94.4447 141.112 94.6647 141.112 95.1047V96.8647C141.112 97.3647 140.832 97.6047 140.312 97.6047H139.332V101.185C139.332 101.685 139.052 101.925 138.492 101.925H136.952C136.392 101.925 136.132 101.705 136.132 101.225V90.8447C136.132 90.4047 136.372 90.1647 136.872 90.1647H138.532C139.052 90.1647 139.332 90.4047 139.332 90.8847V94.4447H140.392ZM133.192 102.605C134.732 102.605 135.992 102.685 136.952 102.845C137.912 103.005 138.672 103.265 139.212 103.585C139.752 103.905 140.112 104.325 140.312 104.805C140.492 105.285 140.592 105.865 140.592 106.505C140.592 107.145 140.472 107.705 140.272 108.185C140.072 108.665 139.692 109.045 139.152 109.365C138.592 109.685 137.852 109.925 136.892 110.085C135.932 110.245 134.692 110.325 133.192 110.325C131.672 110.325 130.432 110.245 129.432 110.085C128.432 109.925 127.632 109.685 127.032 109.365C126.432 109.045 125.992 108.645 125.752 108.165C125.512 107.685 125.392 107.125 125.392 106.485C125.392 105.845 125.492 105.285 125.732 104.805C125.952 104.325 126.352 103.905 126.952 103.585C127.532 103.265 128.332 103.005 129.332 102.845C130.332 102.685 131.632 102.605 133.192 102.605ZM133.212 107.885C134.052 107.885 134.752 107.865 135.312 107.805C135.852 107.745 136.292 107.665 136.612 107.545C136.932 107.425 137.152 107.285 137.272 107.105C137.392 106.945 137.472 106.725 137.472 106.485C137.472 106.245 137.412 106.045 137.292 105.865C137.172 105.705 136.952 105.545 136.632 105.425C136.312 105.305 135.872 105.225 135.312 105.165C134.752 105.105 134.052 105.065 133.192 105.065C132.272 105.065 131.492 105.105 130.892 105.165C130.292 105.225 129.812 105.305 129.452 105.425C129.092 105.545 128.852 105.705 128.712 105.865C128.552 106.045 128.492 106.245 128.492 106.485C128.492 106.725 128.552 106.945 128.692 107.105C128.812 107.285 129.052 107.425 129.412 107.545C129.772 107.665 130.252 107.745 130.852 107.805C131.452 107.865 132.252 107.885 133.212 107.885ZM130.052 92.4047C133.632 92.0847 135.292 94.9047 135.032 100.865C135.032 101.445 134.712 101.745 134.112 101.745H132.672C132.152 101.745 131.912 101.485 131.912 100.965C132.072 96.6847 131.152 94.8647 129.152 95.4847C128.712 97.4647 128.492 99.3447 128.492 101.125C128.492 101.685 128.192 101.945 127.592 101.945H126.152C125.612 101.945 125.352 101.705 125.352 101.205C125.352 97.4447 125.992 94.1847 127.272 91.4447C127.592 90.8647 128.032 90.5647 128.592 90.5647H129.652C130.332 90.5647 130.612 90.8047 130.452 91.2847L130.052 92.4047ZM144.392 112.285C143.952 112.525 143.572 112.365 143.272 111.805C143.152 111.625 143.272 111.365 143.592 111.045C143.912 110.725 144.132 110.465 144.252 110.225C144.372 110.005 144.332 109.885 144.152 109.885C143.152 109.845 142.672 109.265 142.672 108.145C142.672 106.985 143.372 106.385 144.812 106.385C146.092 106.385 146.672 107.265 146.592 109.025C146.492 110.465 145.752 111.545 144.392 112.285ZM36.1813 124.445C37.6613 124.445 38.9213 124.545 39.9213 124.705C40.9213 124.865 41.7213 125.125 42.3213 125.445C42.9213 125.765 43.3413 126.185 43.6013 126.685C43.8413 127.185 43.9813 127.765 43.9813 128.425C43.9813 129.085 43.8413 129.665 43.5613 130.145C43.2813 130.625 42.8213 131.045 42.2013 131.365C41.5813 131.685 40.7813 131.925 39.8013 132.085C38.8013 132.245 37.6013 132.325 36.1813 132.325C34.6613 132.325 33.4213 132.245 32.4212 132.085C31.4213 131.925 30.6413 131.685 30.0413 131.365C29.4413 131.045 29.0213 130.625 28.7813 130.145C28.5413 129.665 28.4213 129.085 28.4213 128.405C28.4213 127.765 28.5413 127.185 28.8013 126.685C29.0613 126.185 29.5013 125.765 30.1013 125.445C30.7013 125.125 31.5013 124.865 32.5013 124.705C33.4813 124.545 34.7013 124.445 36.1813 124.445ZM36.2213 129.885C37.1413 129.885 37.9013 129.865 38.5013 129.805C39.1013 129.745 39.5613 129.645 39.9213 129.525C40.2613 129.405 40.5013 129.245 40.6413 129.045C40.7813 128.865 40.8613 128.645 40.8613 128.405C40.8613 128.165 40.7813 127.945 40.6213 127.745C40.4613 127.565 40.2013 127.405 39.8413 127.285C39.4813 127.165 39.0013 127.065 38.4013 127.005C37.8013 126.945 37.0613 126.905 36.1813 126.905C35.3013 126.905 34.5813 126.945 33.9813 127.005C33.3813 127.065 32.9013 127.165 32.5413 127.285C32.1813 127.405 31.9013 127.565 31.7413 127.745C31.5813 127.945 31.5013 128.165 31.5013 128.405C31.5013 128.645 31.5813 128.865 31.7413 129.045C31.9013 129.245 32.1613 129.405 32.5213 129.525C32.8813 129.645 33.3813 129.745 33.9813 129.805C34.5813 129.865 35.3413 129.885 36.2213 129.885ZM37.1613 112.545C37.7613 112.545 38.0813 112.805 38.0813 113.285V114.425C38.0813 114.945 37.8013 115.185 37.2413 115.185H31.3813V120.745C34.1013 120.665 36.8013 120.305 39.4613 119.625V112.885C39.4613 112.405 39.7413 112.165 40.3213 112.165H41.8413C42.3213 112.165 42.5613 112.405 42.5613 112.885V115.405H43.5813C44.0813 115.405 44.3413 115.625 44.3413 116.045V117.645C44.3413 118.165 44.0613 118.425 43.5413 118.425H42.5613V122.865C42.5613 123.425 42.2413 123.705 41.6213 123.705H40.3613C39.7613 123.705 39.4613 123.465 39.4613 122.985V122.465C35.4213 123.185 32.0013 123.545 29.1613 123.545C28.6613 123.545 28.4213 123.325 28.4213 122.845V113.325C28.4213 112.805 28.7013 112.545 29.3013 112.545H37.1613ZM60.437 129.345C60.937 129.345 61.197 129.585 61.197 130.045V131.365C61.197 131.885 60.917 132.125 60.397 132.125H47.137C46.617 132.125 46.357 131.905 46.357 131.425V127.005C46.357 126.545 46.597 126.305 47.077 126.305H48.777C49.257 126.305 49.497 126.545 49.497 127.005V129.345H60.437ZM61.017 124.305C61.017 124.825 60.737 125.085 60.197 125.085H58.597C58.037 125.085 57.777 124.845 57.777 124.365V112.845C57.777 112.385 58.037 112.145 58.577 112.145H60.237C60.757 112.145 61.017 112.385 61.017 112.845V124.305ZM50.777 114.405C54.617 114.085 56.377 117.285 56.057 124.025C56.057 124.605 55.737 124.905 55.137 124.905H53.697C53.177 124.905 52.937 124.645 52.937 124.125C53.177 119.085 52.157 116.865 49.877 117.485C49.437 119.465 49.217 121.665 49.217 124.085C49.217 124.645 48.917 124.905 48.317 124.905H46.877C46.337 124.905 46.077 124.665 46.077 124.165C46.077 119.765 46.717 116.185 47.997 113.445C48.317 112.865 48.757 112.565 49.317 112.565H50.377C51.057 112.565 51.337 112.805 51.177 113.285L50.777 114.405ZM77.9827 112.165C78.4627 112.165 78.7227 112.385 78.7227 112.825V131.465C78.7227 131.905 78.4827 132.125 78.0227 132.125H76.3027C75.8027 132.125 75.5627 131.885 75.5627 131.405V130.325H64.0627C63.5827 130.325 63.3427 130.085 63.3427 129.585V128.165C63.3427 127.685 63.5827 127.425 64.0627 127.425H75.5627V112.885C75.5627 112.405 75.8027 112.165 76.3227 112.165H77.9827ZM69.0027 126.525C67.8627 126.525 66.9227 126.385 66.2027 126.065C65.4627 125.765 64.8827 125.305 64.4627 124.705C64.0427 124.105 63.7427 123.365 63.5827 122.465C63.4227 121.585 63.3427 120.545 63.3427 119.345C63.3427 118.145 63.4227 117.065 63.6027 116.145C63.7827 115.225 64.0827 114.465 64.5027 113.845C64.9227 113.245 65.4827 112.785 66.2027 112.465C66.9027 112.165 67.7827 112.005 68.8627 112.005C70.0027 112.005 70.9427 112.165 71.7027 112.465C72.4427 112.785 73.0227 113.245 73.4627 113.845C73.8827 114.465 74.1827 115.225 74.3627 116.145C74.5227 117.065 74.6227 118.145 74.6227 119.345C74.6227 120.525 74.5227 121.565 74.3427 122.445C74.1627 123.345 73.8627 124.105 73.4227 124.705C72.9827 125.305 72.4227 125.765 71.7027 126.065C70.9827 126.385 70.0827 126.525 69.0027 126.525ZM69.0427 114.585C68.5027 114.585 68.0627 114.685 67.7027 114.885C67.3427 115.085 67.0627 115.385 66.8627 115.785C66.6627 116.185 66.5227 116.685 66.4427 117.285C66.3627 117.885 66.3227 118.565 66.3227 119.345V119.485C66.3227 120.205 66.3627 120.845 66.4427 121.405C66.5227 121.965 66.6827 122.445 66.8827 122.825C67.0827 123.205 67.3627 123.485 67.7227 123.685C68.0827 123.885 68.5227 123.965 69.0427 123.965C70.0227 123.965 70.7027 123.585 71.0827 122.785C71.4627 121.985 71.6627 120.845 71.6627 119.345C71.6627 117.785 71.4627 116.585 71.0827 115.785C70.7027 114.985 70.0227 114.585 69.0427 114.585ZM101.07 131.345C101.07 131.865 100.79 132.125 100.27 132.125H87.6095C86.9495 132.125 86.6295 131.845 86.6295 131.285V125.765C86.6295 125.205 86.9495 124.905 87.6095 124.905H100.15C100.75 124.905 101.07 125.185 101.07 125.745V131.345ZM91.0295 115.225C90.9095 115.505 90.8095 115.765 90.7095 116.045C94.5295 115.885 96.3495 118.205 96.1695 122.985C96.1695 123.565 95.8495 123.865 95.2495 123.865H93.8095C93.2895 123.865 93.0495 123.605 93.0495 123.085C93.1495 120.045 92.1495 118.625 90.0295 118.865C89.8095 120.145 89.7095 121.525 89.7095 123.005C89.7095 123.605 89.4095 123.885 88.8295 123.885H87.6095C87.0095 123.885 86.7095 123.605 86.7095 123.045C86.7095 120.025 87.1295 117.425 87.9695 115.225H87.0895C86.6895 115.225 86.4895 114.985 86.4895 114.505V113.265C86.4895 112.785 86.6895 112.545 87.1295 112.545H89.1895V112.265C89.1895 111.865 89.4095 111.645 89.8495 111.645H91.3895C91.7895 111.645 91.9895 111.865 91.9895 112.265V112.545H95.4695C95.9295 112.545 96.1695 112.785 96.1695 113.265V114.405C96.1695 114.965 95.9295 115.225 95.4495 115.225H91.0295ZM101.65 116.165C102.05 116.165 102.27 116.425 102.27 116.945V118.525C102.27 119.045 102.01 119.285 101.49 119.285H100.45V123.045C100.45 123.565 100.17 123.805 99.6495 123.805H98.2295C97.5895 123.805 97.2695 123.565 97.2695 123.085V112.845C97.2695 112.385 97.5495 112.145 98.1495 112.145H99.6295C100.17 112.145 100.45 112.385 100.45 112.865V116.165H101.65ZM97.9695 127.385H89.6895V129.665H97.9695V127.385ZM109.03 112.165C110.07 112.165 110.91 112.365 111.59 112.765C112.25 113.165 112.77 113.785 113.17 114.585C113.55 115.385 113.81 116.405 113.97 117.605V117.665H115.61V112.885C115.61 112.405 115.87 112.165 116.41 112.165H118.07C118.55 112.165 118.79 112.405 118.81 112.845V131.425C118.81 131.905 118.57 132.125 118.11 132.125H116.43C115.87 132.125 115.61 131.885 115.61 131.385V125.165H114.07C114.03 125.585 113.99 125.985 113.95 126.345C113.79 127.625 113.51 128.705 113.13 129.565C112.73 130.425 112.21 131.065 111.55 131.485C110.87 131.925 110.03 132.125 109.03 132.125C107.99 132.125 107.13 131.925 106.45 131.485C105.77 131.045 105.23 130.405 104.83 129.545C104.43 128.685 104.17 127.605 104.01 126.325C103.85 125.045 103.77 123.545 103.77 121.825C103.77 120.225 103.85 118.825 104.03 117.625C104.21 116.425 104.51 115.405 104.91 114.605C105.31 113.805 105.85 113.185 106.53 112.785C107.21 112.385 108.03 112.165 109.03 112.165ZM111.19 121.825C111.19 120.705 111.15 119.705 111.11 118.845C111.05 118.005 110.95 117.285 110.79 116.725C110.63 116.165 110.41 115.725 110.13 115.445C109.85 115.165 109.49 115.025 109.05 115.025C108.59 115.025 108.23 115.165 107.95 115.445C107.67 115.725 107.45 116.165 107.29 116.725C107.13 117.285 107.03 118.005 106.99 118.845C106.93 119.705 106.91 120.705 106.91 121.825C106.91 124.325 107.05 126.205 107.35 127.445C107.63 128.685 108.21 129.305 109.05 129.305C109.47 129.305 109.83 129.165 110.11 128.845C110.39 128.525 110.61 128.065 110.77 127.425C110.93 126.805 111.03 126.025 111.09 125.085C111.15 124.165 111.19 123.065 111.19 121.825ZM114.17 120.585C114.17 120.985 114.19 121.405 114.19 121.825V122.245H115.61V120.585H114.17ZM121.236 118.805C121.236 118.225 121.536 117.925 122.156 117.925H132.616V115.425H122.076C121.516 115.425 121.236 115.125 121.236 114.525V113.445C121.236 112.865 121.516 112.565 122.076 112.565H134.756C135.376 112.565 135.696 112.845 135.696 113.385V119.865C135.696 120.445 135.376 120.725 134.776 120.725H124.416V123.845C128.116 123.885 131.596 123.505 134.856 122.705C135.396 122.605 135.676 122.805 135.676 123.305V124.665C135.636 125.225 135.336 125.565 134.776 125.685C133.536 126.065 131.936 126.345 130.016 126.545V128.725H134.856C135.396 128.725 135.676 128.985 135.676 129.505V130.885C135.676 131.445 135.396 131.725 134.856 131.725H122.136C121.536 131.725 121.236 131.445 121.236 130.845V129.685C121.236 129.045 121.536 128.725 122.156 128.725H126.856V126.805C125.316 126.885 123.756 126.905 122.196 126.905C121.556 126.905 121.236 126.625 121.236 126.045V118.805ZM147.843 113.405C147.783 113.785 147.723 114.165 147.663 114.525C151.143 114.045 152.903 117.585 152.903 125.185V131.165C152.903 131.665 152.623 131.905 152.083 131.905H150.583C150.023 131.905 149.743 131.665 149.743 131.165V125.025C149.743 119.745 148.903 117.445 147.223 118.105C146.743 122.465 146.523 126.805 146.563 131.125C146.563 131.645 146.283 131.905 145.723 131.905H144.203C143.643 131.905 143.363 131.645 143.363 131.085C143.303 124.125 143.743 118.245 144.683 113.405C144.823 112.845 145.143 112.565 145.643 112.565H147.123C147.723 112.565 147.963 112.845 147.843 113.405ZM157.563 131.245C157.563 131.825 157.263 132.105 156.683 132.105H155.203C154.643 132.105 154.383 131.845 154.383 131.285V112.985C154.403 112.445 154.683 112.165 155.243 112.165H156.763C157.283 112.165 157.563 112.445 157.563 112.965V131.245ZM164.566 115.225C164.426 115.525 164.306 115.845 164.206 116.185C168.066 115.905 169.966 118.485 169.926 123.905C169.926 124.485 169.606 124.785 169.006 124.785H167.566C167.046 124.785 166.806 124.525 166.806 124.005C166.766 120.205 165.686 118.585 163.566 119.105C163.366 120.525 163.246 122.165 163.246 124.005C163.246 124.525 162.946 124.765 162.366 124.765H161.006C160.446 124.765 160.166 124.485 160.166 123.925C160.166 120.585 160.606 117.685 161.466 115.225H160.406C159.986 115.225 159.786 115.025 159.786 114.605V113.165C159.786 112.765 159.986 112.545 160.406 112.545H169.366C169.826 112.545 170.066 112.765 170.066 113.185V114.505C170.066 114.985 169.826 115.225 169.346 115.225H164.566ZM160.706 128.785C160.186 128.785 159.926 128.565 159.926 128.085V126.705C159.926 126.205 160.166 125.945 160.646 125.945H174.186C174.686 125.945 174.946 126.185 174.946 126.645V131.425C174.946 131.905 174.706 132.125 174.226 132.125H172.546C172.046 132.125 171.806 131.905 171.806 131.425V128.785H160.706ZM175.206 116.845C175.666 116.845 175.906 117.105 175.906 117.605V119.165C175.906 119.685 175.646 119.945 175.146 119.965H174.146V124.005C174.146 124.525 173.886 124.765 173.366 124.765H171.946C171.306 124.765 170.986 124.525 170.986 124.045V112.865C170.986 112.405 171.266 112.165 171.846 112.165H173.326C173.866 112.165 174.146 112.405 174.146 112.885V116.845H175.206ZM187.157 112.565C187.597 112.565 187.837 112.805 187.837 113.245V114.325C187.837 114.885 187.577 115.145 187.097 115.145H180.777V116.745H187.057C187.577 116.745 187.837 116.985 187.837 117.445V118.545C187.837 119.085 187.577 119.345 187.097 119.345H184.677V120.725H188.957V112.825C188.957 112.385 189.177 112.145 189.637 112.145H191.317C191.797 112.145 192.037 112.365 192.037 112.805V123.325C192.037 123.825 191.777 124.065 191.277 124.065H189.737C189.217 124.065 188.957 123.845 188.957 123.405H178.537C178.017 123.405 177.777 123.165 177.777 122.685V121.505C177.777 120.985 178.017 120.725 178.537 120.725H181.537V119.345H178.657C178.137 119.345 177.877 119.105 177.877 118.605V113.305C177.877 112.825 178.157 112.565 178.717 112.565H187.157ZM192.037 131.325C192.037 131.845 191.757 132.105 191.237 132.105H178.657C178.137 132.105 177.877 131.885 177.877 131.405V125.645C177.877 125.165 178.137 124.905 178.697 124.905H180.097C180.657 124.905 180.937 125.165 180.937 125.645V126.425H188.997V125.645C188.997 125.165 189.257 124.905 189.817 124.905H191.257C191.777 124.905 192.037 125.165 192.037 125.645V131.325ZM188.997 128.725H180.937V129.705H188.997V128.725ZM208.598 131.385C208.598 131.865 208.318 132.105 207.798 132.105H206.118C205.638 132.105 205.398 131.885 205.398 131.405V130.465C202.098 131.225 198.658 131.585 195.058 131.585C194.598 131.585 194.378 131.385 194.378 130.985V113.285C194.378 112.805 194.618 112.545 195.138 112.545H196.838C197.318 112.545 197.578 112.805 197.578 113.305V128.645C200.218 128.645 202.838 128.225 205.398 127.385V112.845C205.398 112.405 205.638 112.165 206.138 112.165H207.858C208.338 112.165 208.598 112.405 208.598 112.885V131.385ZM225.841 117.645C226.341 117.645 226.601 117.885 226.601 118.325V119.945C226.601 120.505 226.341 120.765 225.821 120.765H224.781V131.305C224.781 131.865 224.501 132.125 223.941 132.125H222.381C221.841 132.125 221.581 131.885 221.581 131.365V130.785C217.641 131.385 214.421 131.705 211.901 131.705C211.261 131.705 210.941 131.385 210.941 130.745V113.385C210.941 112.845 211.221 112.565 211.781 112.565H219.221C219.741 112.565 220.021 112.825 220.021 113.325V114.625C220.021 115.145 219.741 115.405 219.181 115.405H214.001V128.825C216.641 128.825 219.161 128.505 221.581 127.905V112.885C221.581 112.405 221.821 112.165 222.321 112.165H223.961C224.501 112.165 224.781 112.405 224.781 112.885V117.645H225.841ZM229.621 112.165H231.301C231.981 112.165 232.301 112.645 232.261 113.625L231.821 126.205C231.741 126.745 231.461 127.025 230.981 127.065H229.841C229.361 127.085 229.081 126.825 229.001 126.285L228.461 113.625C228.421 112.645 228.821 112.165 229.621 112.165ZM229.481 132.105H231.481C232.181 132.145 232.541 131.865 232.541 131.245L232.381 129.465C232.341 128.885 232.061 128.585 231.581 128.585H229.541C229.061 128.585 228.821 128.825 228.781 129.305L228.581 131.245C228.561 131.825 228.861 132.105 229.481 132.105Z" fill="black"/>
</g>
<path d="M159.625 302.117C164.628 305.42 171.091 305.42 176.093 302.117C191.983 291.619 226.599 266.542 241.501 238.475C261.158 201.448 238.074 164.516 207.568 164.516C190.179 164.516 179.71 173.599 173.92 181.42C170.873 185.54 164.846 185.54 161.799 181.42C156.009 173.609 145.549 164.516 128.151 164.516C97.6446 164.516 74.5513 201.448 94.2181 238.475C109.12 266.542 143.746 291.619 159.625 302.117Z" fill="#EC4452"/>
<path d="M71.1007 262.97C71.1007 262.97 88.0244 250.934 101.738 250.934C115.452 250.934 130.066 255.31 135.659 257.499C137.361 255.918 141.713 252.757 145.507 252.757C150.248 252.757 167.026 268.806 171.767 270.265C176.509 271.724 192.193 277.195 191.828 280.477C191.463 283.76 178.333 286.313 168.12 283.395C194.485 321.916 187.149 322.087 185.419 322.703C185.113 322.812 184.383 323.164 181.062 322.703C182.837 325.267 186.091 331.104 184.908 333.943C183.725 336.783 181.26 336.31 180.175 335.718C181.845 337.936 185.204 345.036 183.133 347.402C181.477 349.295 179.357 348.934 178.505 348.516C195.75 361.973 214.433 409.893 221.619 432.17H29.2152C28.1856 387.898 42.2739 362.508 49.4468 355.347C47.8509 349.992 48.7818 347.166 49.4468 346.422C48.4011 346.125 45.9081 345.083 44.3016 343.298C42.6951 341.513 44.971 337.943 46.3097 336.381C44.8966 336.381 41.5794 335.444 39.6159 331.696C37.6524 327.947 43.2603 322.25 46.3097 319.87C43.8001 309.517 47.3554 298.094 49.4468 293.677C39.7973 294.295 28.4309 292.622 27.3325 283.395C25.8736 271.14 55.9034 264.672 71.1007 262.97Z" fill="white"/>
<ellipse cx="86.9269" cy="294.999" rx="3.16515" ry="5.55516" fill="black"/>
<ellipse cx="131.368" cy="294.999" rx="3.16515" ry="5.55516" fill="black"/>
<path d="M124.069 304.43C114.767 304.74 111.322 308.607 110.763 310.502C110.233 312.097 113.875 314.965 117.35 315.794C120.826 316.623 131.045 315.282 133.629 314.249C136.213 313.215 136.988 307.014 136.601 305.851C136.213 304.688 135.696 304.043 124.069 304.43Z" fill="black" stroke="black" stroke-width="0.820427"/>
<path d="M122.79 314.713C122.37 319.127 120.618 327.511 116.752 332.147M101.363 335.7C102.768 336.579 107.141 337.632 113.394 334.822C114.657 334.254 115.772 333.321 116.752 332.147M124.81 340.091C122.57 338.922 117.822 335.697 116.752 332.147" stroke="black" stroke-width="0.820427"/>
<path d="M149.55 304.426C149.458 304.147 149.156 303.995 148.877 304.088C148.597 304.18 148.446 304.482 148.538 304.761L149.55 304.426ZM85.9836 340.368C91.2127 343.659 100.066 347.888 109.668 349.896C119.262 351.903 129.699 351.712 137.998 346.03L137.396 345.151C129.442 350.597 119.351 350.833 109.886 348.853C100.429 346.875 91.6938 342.702 86.5515 339.466L85.9836 340.368ZM137.998 346.03C146.275 340.363 149.918 332.222 151.113 324.386C152.307 316.561 151.067 309.008 149.55 304.426L148.538 304.761C150.011 309.208 151.224 316.59 150.059 324.225C148.897 331.848 145.371 339.69 137.396 345.151L137.998 346.03Z" fill="#E1E1E1"/>
<path d="M48.6091 346.247L113.654 380.916C113.277 381.279 112.822 381.678 112.298 382.094C114.704 382.871 118.165 384.181 121.203 385.72V380.916L181.022 336.533C182.584 337.588 185.543 341.007 184.882 346.247C184.27 346.956 183.622 347.702 182.941 348.48C187.033 354.375 193.453 364.591 200.279 377.216C195.084 382.459 183.961 395.999 181.022 408.208C178.083 420.417 177.04 429.823 176.886 433H129.471H68.7236C68.3496 429.823 66.9731 420.417 64.4594 408.208C61.9458 395.999 45.1605 381.295 37.082 375.47C39.9483 367.824 43.7121 360.682 48.6091 354.832C47.9982 353.584 47.143 350.12 48.6091 346.247Z" fill="#FFDB8B"/>
<path d="M48.6091 354.832C60.9358 364.407 87.5042 384.151 95.1643 386.529C101.853 388.605 108.693 384.957 112.298 382.094M48.6091 354.832C47.9982 353.584 47.143 350.12 48.6091 346.247L113.654 380.916C113.277 381.279 112.822 381.678 112.298 382.094M48.6091 354.832C43.7121 360.682 39.9483 367.824 37.082 375.47C45.1605 381.295 61.9458 395.999 64.4594 408.208C66.9731 420.417 68.3496 429.823 68.7236 433H129.471M112.298 382.094C114.704 382.871 118.165 384.181 121.203 385.72M129.471 433L127.741 391.852C128.013 389.838 124.926 387.607 121.203 385.72M129.471 433H176.886C177.04 429.823 178.083 420.417 181.022 408.208C183.961 395.999 195.084 382.459 200.279 377.216C193.453 364.591 187.033 354.375 182.941 348.48M121.203 380.916L181.022 336.533C182.584 337.588 185.543 341.007 184.882 346.247C184.27 346.956 183.622 347.702 182.941 348.48M121.203 380.916C125.155 382.787 134.766 386.529 141.602 386.529C148.078 386.529 170.728 362.435 182.941 348.48M121.203 380.916V385.72" stroke="#FFC84D" stroke-width="1.06607"/>
<g clip-path="url(#clip1_566_2415)">
<path d="M85.0622 395.674C85.0622 397.182 84.6624 398.12 83.8675 398.463C83.6357 398.561 83.3861 398.609 83.1346 398.605C82.9464 398.604 82.7589 398.583 82.5749 398.543C82.507 398.53 82.4469 398.491 82.407 398.434C81.4711 397.105 80.4053 395.871 79.2255 394.752C79.1228 394.655 78.9857 394.603 78.8444 394.606C78.7031 394.61 78.5691 394.67 78.4719 394.773C78.3747 394.876 78.3223 395.013 78.3262 395.154C78.33 395.295 78.3899 395.429 78.4926 395.526C79.4813 396.453 82.7655 399.757 83.711 403.54C83.7452 403.677 83.7236 403.822 83.6509 403.943C83.5782 404.065 83.4603 404.152 83.3232 404.186C83.2818 404.197 83.2393 404.202 83.1966 404.202C83.0778 404.202 82.9625 404.162 82.869 404.089C82.7754 404.016 82.709 403.914 82.6802 403.798C82.4057 402.701 81.904 401.634 81.317 400.661C81.2982 400.826 81.2556 400.988 81.1904 401.141C80.8459 401.937 79.9071 402.337 78.3993 402.337C76.8914 402.337 75.9526 401.937 75.6088 401.141C75.2457 400.303 75.5828 399.088 76.6083 397.529C76.6536 397.463 76.6989 397.396 76.7415 397.329L76.5416 397.463C75.3903 398.224 74.4248 398.605 73.6613 398.605C73.4098 398.609 73.1602 398.561 72.9283 398.463C72.1361 398.12 71.7363 397.182 71.7363 395.674C71.7363 394.166 72.1361 393.227 72.931 392.883C73.7699 392.52 74.9852 392.857 76.5436 393.883L76.7435 394.016C76.6991 393.949 76.6547 393.883 76.6103 393.816C75.5835 392.258 75.2464 391.042 75.6108 390.203C75.9526 389.411 76.8914 389.011 78.3993 389.011C79.9071 389.011 80.8459 389.411 81.1897 390.205C81.5528 391.044 81.2157 392.26 80.1903 393.818C80.1458 393.886 80.1014 393.953 80.057 394.018L80.2569 393.885C81.8154 392.858 83.0307 392.521 83.8695 392.885C84.6624 393.227 85.0622 394.166 85.0622 395.674Z" fill="#1B6B47"/>
</g>
</g>
</g>
<defs>
<filter id="filter0_d_566_2415" x="0" y="0" width="293" height="441" filterUnits="userSpaceOnUse" color-interpolation-filters="sRGB">
<feFlood flood-opacity="0" result="BackgroundImageFix"/>
<feColorMatrix in="SourceAlpha" type="matrix" values="0 0 0 0 0 0 0 0 0 0 0 0 0 0 0 0 0 0 127 0" result="hardAlpha"/>
<feOffset dx="2" dy="4"/>
<feGaussianBlur stdDeviation="2"/>
<feComposite in2="hardAlpha" operator="out"/>
<feColorMatrix type="matrix" values="0 0 0 0 0 0 0 0 0 0 0 0 0 0 0 0 0 0 0.25 0"/>
<feBlend mode="normal" in2="BackgroundImageFix" result="effect1_dropShadow_566_2415"/>
<feBlend mode="normal" in="SourceGraphic" in2="effect1_dropShadow_566_2415" result="shape"/>
</filter>
<filter id="filter1_d_566_2415" x="20.4913" y="82.0743" width="219.84" height="58.04" filterUnits="userSpaceOnUse" color-interpolation-filters="sRGB">
<feFlood flood-opacity="0" result="BackgroundImageFix"/>
<feColorMatrix in="SourceAlpha" type="matrix" values="0 0 0 0 0 0 0 0 0 0 0 0 0 0 0 0 0 0 127 0" result="hardAlpha"/>
<feOffset/>
<feGaussianBlur stdDeviation="3.895"/>
<feComposite in2="hardAlpha" operator="out"/>
<feColorMatrix type="matrix" values="0 0 0 0 1 0 0 0 0 1 0 0 0 0 1 0 0 0 1 0"/>
<feBlend mode="normal" in2="BackgroundImageFix" result="effect1_dropShadow_566_2415"/>
<feBlend mode="normal" in="SourceGraphic" in2="effect1_dropShadow_566_2415" result="shape"/>
</filter>
<linearGradient id="paint0_linear_566_2415" x1="144.5" y1="0" x2="144.5" y2="433" gradientUnits="userSpaceOnUse">
<stop offset="0.139" stop-color="#DEF2EB"/>
<stop offset="1" stop-color="#B9E6E9"/>
</linearGradient>
<clipPath id="clip0_566_2415">
<rect x="2" width="285" height="433" rx="10" fill="white"/>
</clipPath>
<clipPath id="clip1_566_2415">
<rect width="17.0571" height="17.0571" fill="white" transform="translate(69.8691 387.678)"/>
</clipPath>
</defs>
</svg>
