<svg width="293" height="441" viewBox="0 0 293 441" fill="none" xmlns="http://www.w3.org/2000/svg">
<g filter="url(#filter0_d_566_2282)">
<g clip-path="url(#clip0_566_2282)">
<rect x="2" width="285" height="433" rx="10" fill="url(#paint0_linear_566_2282)"/>
<path d="M117.93 231.645C117.93 226.476 138.889 222.284 164.735 222.284C190.58 222.284 211.54 226.476 211.54 231.645V296.765C211.54 301.934 190.58 306.125 164.735 306.125C138.889 306.125 117.93 301.934 117.93 296.765" fill="#997642"/>
<path d="M155.373 231.645C155.373 226.476 159.565 222.284 164.734 222.284C169.903 222.284 174.095 226.476 174.095 231.645V296.765C174.095 301.934 169.903 306.125 164.734 306.125C159.565 306.125 155.373 301.934 155.373 296.765" fill="#D7BF95"/>
<path d="M211.55 306.121C206.381 306.121 202.189 301.929 202.189 296.76V231.64C202.189 226.471 206.381 222.279 211.55 222.279C216.72 222.279 220.911 226.471 220.911 231.64V296.76C220.911 301.929 216.72 306.121 211.55 306.121Z" fill="#D7BF95"/>
<path d="M117.927 306.121C112.758 306.121 108.566 301.929 108.566 296.76V231.64C108.566 226.471 112.758 222.279 117.927 222.279C123.097 222.279 127.288 226.471 127.288 231.64V296.76C127.288 301.929 123.097 306.121 117.927 306.121Z" fill="#D7BF95"/>
<path d="M174.1 216.463H155.373V244.069H174.1V216.463Z" fill="#C1966B"/>
<path d="M220.908 216.463H202.182V244.069H220.908V216.463Z" fill="#C1966B"/>
<path d="M127.293 216.463H108.566V244.069H127.293V216.463Z" fill="#C1966B"/>
<path fill-rule="evenodd" clip-rule="evenodd" d="M228.72 211.729L170.414 166.563C167.074 163.979 162.405 163.979 159.066 166.563L100.76 211.729V220.599H228.72V211.729Z" fill="#D7BF95"/>
<path d="M234.164 295.692H95.3098C92.7235 295.692 90.627 297.789 90.627 300.375V314.414C90.627 317.001 92.7235 319.097 95.3098 319.097H234.164C236.75 319.097 238.846 317.001 238.846 314.414V300.375C238.846 297.789 236.75 295.692 234.164 295.692Z" fill="#E3D6C3"/>
<path fill-rule="evenodd" clip-rule="evenodd" d="M164.736 204.821C158.598 204.821 153.619 199.842 153.619 193.704C153.619 187.567 158.598 182.588 164.736 182.588C170.873 182.588 175.852 187.567 175.852 193.704C175.852 199.842 170.873 204.821 164.736 204.821Z" fill="#E3D6C3"/>
<path d="M234.164 212.184H95.3098C92.7235 212.184 90.627 214.28 90.627 216.866V230.906C90.627 233.492 92.7235 235.588 95.3098 235.588H234.164C236.75 235.588 238.846 233.492 238.846 230.906V216.866C238.846 214.28 236.75 212.184 234.164 212.184Z" fill="#E3D6C3"/>
<path d="M124.542 -31.832C124.65 -17.1948 119.598 17.3491 98.52 38.4267C72.1729 64.7739 41.272 50.7872 8.74471 83.3145C-17.2771 109.336 -25.5174 125.817 -26.3848 130.804" stroke="white" stroke-opacity="0.48" stroke-width="7.90056"/>
<path d="M168.838 -23.6387C168.947 -9.00145 163.894 25.5424 142.816 46.6201" stroke="white" stroke-opacity="0.48" stroke-width="7.90056" stroke-linecap="round"/>
<path d="M124.451 46.6221L127.014 54.3881L133.942 57.2618L127.014 60.1355L124.451 67.9015L121.887 60.1355L114.959 57.2618L121.887 54.3881L124.451 46.6221Z" fill="white" fill-opacity="0.62"/>
<path d="M60.2906 274.396C60.2906 274.396 76.077 263.169 88.8694 263.169C101.662 263.169 115.293 267.252 120.51 269.293C122.098 267.819 126.158 264.87 129.696 264.87C134.119 264.87 149.769 279.84 154.192 281.201C158.615 282.562 173.245 287.665 172.904 290.727C172.564 293.789 160.316 296.171 150.79 293.449C175.383 329.381 168.54 329.541 166.927 330.115C166.641 330.217 165.96 330.545 162.863 330.115C164.518 332.506 167.553 337.951 166.449 340.6C165.346 343.249 163.046 342.807 162.035 342.256C163.593 344.325 166.725 350.947 164.794 353.154C163.249 354.92 161.272 354.583 160.477 354.194C176.564 366.746 193.991 411.445 200.693 432.226H21.22C20.2596 390.929 33.4011 367.245 40.092 360.566C38.6033 355.57 39.4717 352.934 40.092 352.24C39.1166 351.963 36.7911 350.991 35.2925 349.326C33.794 347.661 35.9169 344.331 37.1657 342.874C35.8476 342.874 32.7533 342 30.9217 338.503C29.0902 335.007 34.3212 329.692 37.1657 327.472C34.8247 317.815 38.1411 307.16 40.092 303.04C31.0909 303.617 20.4884 302.055 19.4639 293.449C18.103 282.017 46.1147 275.984 60.2906 274.396Z" fill="white"/>
<ellipse cx="75.0521" cy="304.273" rx="2.95244" ry="5.18183" fill="black"/>
<ellipse cx="116.507" cy="304.273" rx="2.95244" ry="5.18183" fill="black"/>
<path d="M109.699 313.07C101.022 313.359 97.8086 316.966 97.2864 318.734C96.7923 320.221 100.19 322.897 103.431 323.67C106.673 324.444 116.206 323.193 118.616 322.229C121.026 321.265 121.75 315.48 121.388 314.396C121.026 313.311 120.544 312.708 109.699 313.07Z" fill="black" stroke="black" stroke-width="0.765292"/>
<path d="M108.506 322.662C108.114 326.78 106.481 334.6 102.874 338.924M88.5195 342.239C89.8301 343.058 93.9094 344.041 99.7416 341.42C100.92 340.89 101.96 340.019 102.874 338.924M110.39 346.335C108.301 345.244 103.872 342.236 102.874 338.924" stroke="black" stroke-width="0.765292"/>
<path d="M133.467 313.066C133.381 312.806 133.1 312.664 132.839 312.751C132.578 312.837 132.437 313.118 132.523 313.379L133.467 313.066ZM74.1726 346.593C79.0503 349.663 87.3082 353.607 96.2651 355.481C105.214 357.353 114.951 357.175 122.691 351.875L122.13 351.054C114.711 356.134 105.297 356.354 96.4687 354.507C87.6477 352.662 79.4991 348.77 74.7024 345.751L74.1726 346.593ZM122.691 351.875C130.412 346.588 133.81 338.994 134.925 331.684C136.038 324.385 134.882 317.34 133.467 313.066L132.523 313.379C133.897 317.527 135.028 324.413 133.942 331.534C132.858 338.645 129.569 345.961 122.13 351.054L122.691 351.875Z" fill="#E1E1E1"/>
<path d="M39.311 352.077L99.9848 384.415C99.6333 384.754 99.2085 385.126 98.72 385.514C100.964 386.239 104.193 387.461 107.027 388.897V384.415L162.826 343.016C164.283 343.999 167.043 347.189 166.426 352.077C165.855 352.738 165.25 353.434 164.615 354.16C168.432 359.658 174.42 369.188 180.788 380.964C175.943 385.855 165.567 398.485 162.826 409.873C160.084 421.262 159.111 430.036 158.968 432.999H114.739H58.0738C57.7249 430.036 56.4408 421.262 54.0961 409.873C51.7514 398.485 36.0941 384.77 28.5586 379.336C31.2323 372.204 34.7431 365.542 39.311 360.084C38.7412 358.92 37.9434 355.689 39.311 352.077Z" fill="#6FACEE"/>
<path d="M39.311 360.084C50.8093 369.016 75.5922 387.434 82.7375 389.651C88.9767 391.588 95.3568 388.185 98.72 385.514M39.311 360.084C38.7412 358.92 37.9434 355.689 39.311 352.077L99.9848 384.415C99.6333 384.754 99.2085 385.126 98.72 385.514M39.311 360.084C34.7431 365.542 31.2323 372.204 28.5586 379.336C36.0941 384.77 51.7514 398.485 54.0961 409.873C56.4408 421.262 57.7249 430.036 58.0738 432.999H114.739M98.72 385.514C100.964 386.239 104.193 387.461 107.027 388.897M114.739 432.999L113.125 394.617C113.379 392.738 110.5 390.657 107.027 388.897M114.739 432.999H158.968C159.111 430.036 160.084 421.262 162.826 409.873C165.567 398.485 175.943 385.855 180.788 380.964C174.42 369.188 168.432 359.658 164.615 354.16M107.027 384.415L162.826 343.016C164.283 343.999 167.043 347.189 166.426 352.077C165.855 352.738 165.25 353.434 164.615 354.16M107.027 384.415C110.712 386.161 119.678 389.651 126.055 389.651C132.095 389.651 153.223 367.177 164.615 354.16M107.027 384.415V388.897" stroke="#3E82CD" stroke-width="0.994427"/>
<path d="M62.5137 403.812C62.5137 401.066 64.7398 398.84 67.4858 398.84H88.5246C91.2707 398.84 93.4968 401.066 93.4968 403.812V406.569C93.4968 409.315 91.2707 411.542 88.5246 411.542H67.4858C64.7398 411.542 62.5137 409.315 62.5137 406.569V403.812Z" fill="#DDEDFF"/>
<path d="M72.8406 401.72C74.3263 401.72 75.0721 402.174 75.0721 403.074C75.0721 403.862 74.4754 404.292 73.294 404.375V404.727H74.8215C74.9885 404.727 75.0721 404.817 75.0721 404.984V405.36C75.0721 405.515 74.9885 405.592 74.8215 405.592H70.9015C70.7225 405.592 70.6389 405.509 70.6389 405.336V405.002C70.6389 404.823 70.7225 404.727 70.9015 404.727H72.3573V404.375C71.2117 404.28 70.6389 403.85 70.6389 403.074C70.6389 402.174 71.3728 401.72 72.8406 401.72ZM74.8215 406.893C74.9766 406.893 75.0601 406.971 75.0601 407.12V407.526C75.0601 407.693 74.9766 407.77 74.8095 407.77H70.9074C70.7284 407.77 70.6389 407.699 70.6389 407.549V406.159C70.6389 406.01 70.7225 405.932 70.8955 405.932H71.3251C71.4921 405.932 71.5757 406.016 71.5757 406.177V406.893H74.8215ZM72.8406 403.659C73.7117 403.659 74.1473 403.468 74.1473 403.074C74.1473 402.669 73.7117 402.46 72.8406 402.46C71.9874 402.46 71.5637 402.669 71.5637 403.074C71.5637 403.468 71.9874 403.659 72.8406 403.659ZM78.0219 405.533C78.4515 405.533 78.8036 405.557 79.0899 405.604C79.3704 405.652 79.5971 405.73 79.7642 405.825C79.9312 405.921 80.0506 406.046 80.1222 406.189C80.1938 406.332 80.2296 406.505 80.2296 406.696C80.2296 406.887 80.1938 407.054 80.1281 407.197C80.0565 407.341 79.9432 407.454 79.7761 407.549C79.609 407.645 79.3823 407.716 79.0959 407.764C78.8095 407.812 78.4515 407.836 78.0219 407.836C77.5923 407.836 77.2343 407.812 76.948 407.764C76.6616 407.716 76.4348 407.645 76.2678 407.549C76.0947 407.454 75.9754 407.335 75.9038 407.191C75.8322 407.048 75.8024 406.881 75.8024 406.69C75.8024 406.499 75.8322 406.332 75.9038 406.189C75.9754 406.046 76.0947 405.921 76.2618 405.825C76.4289 405.73 76.6556 405.652 76.942 405.604C77.2284 405.557 77.5864 405.533 78.0219 405.533ZM77.1508 402.734C77.1269 402.782 77.1091 402.824 77.0971 402.872C77.0792 402.919 77.0613 402.961 77.0434 403.009C78.1234 402.961 78.6604 403.629 78.6484 405.026C78.6484 405.199 78.553 405.288 78.374 405.288H77.9444C77.7892 405.282 77.7176 405.205 77.7176 405.055C77.7057 404.148 77.4133 403.755 76.8465 403.868C76.7869 404.226 76.757 404.626 76.757 405.055C76.757 405.21 76.6675 405.282 76.4945 405.282H76.0888C75.9217 405.282 75.8382 405.199 75.8382 405.031C75.8382 404.632 75.874 404.244 75.9396 403.862C75.9993 403.48 76.0947 403.104 76.226 402.734H75.9515C75.8262 402.734 75.7666 402.675 75.7666 402.549V402.12C75.7666 402 75.8262 401.935 75.9515 401.935H76.4647V401.851C76.4647 401.732 76.5303 401.666 76.6616 401.666H77.121C77.2403 401.666 77.3 401.732 77.3 401.851V401.935H78.5828C78.72 401.935 78.7916 402 78.7916 402.126V402.52C78.7916 402.663 78.72 402.734 78.5768 402.734H77.1508ZM79.1675 402.961V402.024C79.1675 401.893 79.2451 401.821 79.4002 401.821H79.8954C80.0506 401.821 80.1281 401.887 80.1281 402.012V405.073C80.1281 405.216 80.0446 405.288 79.8895 405.288H79.4121C79.2451 405.288 79.1675 405.216 79.1675 405.061V403.892H78.8632C78.726 403.892 78.6604 403.82 78.6604 403.671V403.188C78.6604 403.039 78.72 402.961 78.8513 402.961H79.1675ZM78.0339 407.108C78.2725 407.108 78.4694 407.102 78.6365 407.084C78.7976 407.066 78.9289 407.042 79.0303 407.006C79.1257 406.971 79.1973 406.929 79.2391 406.875C79.2809 406.827 79.3047 406.762 79.3047 406.69C79.3047 406.619 79.2809 406.559 79.2451 406.505C79.2033 406.457 79.1317 406.41 79.0362 406.374C78.9348 406.338 78.8036 406.314 78.6425 406.296C78.4754 406.278 78.2725 406.267 78.0219 406.267C77.7833 406.267 77.5804 406.278 77.4193 406.296C77.2522 406.314 77.121 406.338 77.0196 406.374C76.9122 406.41 76.8406 406.457 76.7928 406.505C76.7451 406.559 76.7272 406.619 76.7272 406.69C76.7272 406.762 76.7451 406.827 76.7928 406.875C76.8406 406.929 76.9122 406.971 77.0196 407.006C77.121 407.042 77.2582 407.066 77.4253 407.084C77.5923 407.102 77.7952 407.108 78.0339 407.108ZM85.2333 407.561C85.2333 407.705 85.1617 407.776 85.0185 407.776H84.5054C84.3562 407.776 84.2846 407.699 84.2846 407.543V402.03C84.2846 401.893 84.3562 401.821 84.5054 401.821H85.0006C85.1557 401.821 85.2333 401.899 85.2333 402.042V407.561ZM82.3634 401.821C82.6737 401.821 82.9243 401.881 83.1271 402C83.324 402.12 83.4791 402.305 83.5985 402.543C83.7118 402.782 83.7894 403.086 83.8371 403.444C83.8789 403.802 83.9028 404.226 83.9028 404.703C83.9028 405.216 83.8789 405.67 83.8312 406.052C83.7834 406.434 83.6999 406.756 83.5865 407.012C83.4672 407.269 83.3121 407.46 83.1152 407.585C82.9123 407.716 82.6617 407.776 82.3634 407.776C82.0531 407.776 81.7966 407.716 81.5937 407.585C81.3908 407.454 81.2298 407.263 81.1104 407.006C80.9911 406.75 80.9135 406.428 80.8658 406.046C80.8181 405.664 80.7942 405.216 80.7942 404.703C80.7942 404.226 80.8181 403.808 80.8718 403.45C80.9255 403.092 81.015 402.788 81.1343 402.549C81.2536 402.311 81.4147 402.126 81.6176 402.006C81.8204 401.887 82.0651 401.821 82.3634 401.821ZM83.0078 404.703C83.0078 404.369 82.9959 404.071 82.9839 403.814C82.966 403.564 82.9362 403.349 82.8885 403.182C82.8407 403.015 82.7751 402.884 82.6916 402.8C82.608 402.716 82.5006 402.675 82.3694 402.675C82.2321 402.675 82.1247 402.716 82.0412 402.8C81.9577 402.884 81.892 403.015 81.8443 403.182C81.7966 403.349 81.7667 403.564 81.7548 403.814C81.7369 404.071 81.7309 404.369 81.7309 404.703C81.7309 405.449 81.7727 406.01 81.8622 406.38C81.9457 406.75 82.1188 406.935 82.3694 406.935C82.4947 406.935 82.6021 406.893 82.6856 406.798C82.7691 406.702 82.8348 406.565 82.8825 406.374C82.9302 406.189 82.9601 405.956 82.978 405.676C82.9959 405.401 83.0078 405.073 83.0078 404.703Z" fill="black"/>
<rect x="76.9512" y="97.75" width="93.3237" height="14.0275" fill="#3E82CD"/>
<g filter="url(#filter1_d_566_2282)">
<path d="M29.443 102.445C30.923 102.445 32.183 102.545 33.183 102.705C34.183 102.865 34.983 103.125 35.583 103.445C36.183 103.765 36.603 104.185 36.863 104.685C37.103 105.185 37.243 105.765 37.243 106.425C37.243 107.085 37.103 107.665 36.823 108.145C36.543 108.625 36.083 109.045 35.463 109.365C34.843 109.685 34.043 109.925 33.063 110.085C32.063 110.245 30.863 110.325 29.443 110.325C27.923 110.325 26.683 110.245 25.683 110.085C24.683 109.925 23.903 109.685 23.303 109.365C22.703 109.045 22.283 108.625 22.043 108.145C21.803 107.665 21.683 107.085 21.683 106.405C21.683 105.765 21.803 105.185 22.063 104.685C22.323 104.185 22.763 103.765 23.363 103.445C23.963 103.125 24.763 102.865 25.763 102.705C26.743 102.545 27.963 102.445 29.443 102.445ZM29.483 107.885C30.403 107.885 31.163 107.865 31.763 107.805C32.363 107.745 32.823 107.645 33.183 107.525C33.523 107.405 33.763 107.245 33.903 107.045C34.043 106.865 34.123 106.645 34.123 106.405C34.123 106.165 34.043 105.945 33.883 105.745C33.723 105.565 33.463 105.405 33.103 105.285C32.743 105.165 32.263 105.065 31.663 105.005C31.063 104.945 30.323 104.905 29.443 104.905C28.563 104.905 27.843 104.945 27.243 105.005C26.643 105.065 26.163 105.165 25.803 105.285C25.443 105.405 25.163 105.565 25.003 105.745C24.843 105.945 24.763 106.165 24.763 106.405C24.763 106.645 24.843 106.865 25.003 107.045C25.163 107.245 25.423 107.405 25.783 107.525C26.143 107.645 26.643 107.745 27.243 107.805C27.843 107.865 28.603 107.885 29.483 107.885ZM30.423 90.5447C31.023 90.5447 31.343 90.8047 31.343 91.2847V92.4247C31.343 92.9447 31.063 93.1847 30.503 93.1847H24.643V98.7447C27.363 98.6647 30.063 98.3047 32.723 97.6247V90.8847C32.723 90.4047 33.003 90.1647 33.583 90.1647H35.103C35.583 90.1647 35.823 90.4047 35.823 90.8847V93.4047H36.843C37.343 93.4047 37.603 93.6247 37.603 94.0447V95.6447C37.603 96.1647 37.323 96.4247 36.803 96.4247H35.823V100.865C35.823 101.425 35.503 101.705 34.883 101.705H33.623C33.023 101.705 32.723 101.465 32.723 100.985V100.465C28.683 101.185 25.263 101.545 22.423 101.545C21.923 101.545 21.683 101.325 21.683 100.845V91.3247C21.683 90.8047 21.963 90.5447 22.563 90.5447H30.423ZM53.6988 107.345C54.1988 107.345 54.4588 107.585 54.4588 108.045V109.365C54.4588 109.885 54.1788 110.125 53.6588 110.125H40.3988C39.8788 110.125 39.6188 109.905 39.6188 109.425V105.005C39.6188 104.545 39.8588 104.305 40.3388 104.305H42.0388C42.5188 104.305 42.7588 104.545 42.7588 105.005V107.345H53.6988ZM54.2788 102.305C54.2788 102.825 53.9988 103.085 53.4588 103.085H51.8588C51.2988 103.085 51.0388 102.845 51.0388 102.365V90.8447C51.0388 90.3847 51.2988 90.1447 51.8388 90.1447H53.4988C54.0188 90.1447 54.2788 90.3847 54.2788 90.8447V102.305ZM44.0388 92.4047C47.8788 92.0847 49.6388 95.2847 49.3188 102.025C49.3188 102.605 48.9988 102.905 48.3988 102.905H46.9588C46.4388 102.905 46.1988 102.645 46.1988 102.125C46.4388 97.0847 45.4188 94.8647 43.1388 95.4847C42.6988 97.4647 42.4788 99.6647 42.4788 102.085C42.4788 102.645 42.1788 102.905 41.5788 102.905H40.1388C39.5988 102.905 39.3388 102.665 39.3388 102.165C39.3388 97.7647 39.9788 94.1847 41.2588 91.4447C41.5788 90.8647 42.0188 90.5647 42.5788 90.5647H43.6388C44.3188 90.5647 44.5988 90.8047 44.4388 91.2847L44.0388 92.4047ZM71.2444 90.1647C71.7244 90.1647 71.9844 90.3847 71.9844 90.8247V109.465C71.9844 109.905 71.7444 110.125 71.2844 110.125H69.5644C69.0644 110.125 68.8244 109.885 68.8244 109.405V108.325H57.3244C56.8444 108.325 56.6044 108.085 56.6044 107.585V106.165C56.6044 105.685 56.8444 105.425 57.3244 105.425H68.8244V90.8847C68.8244 90.4047 69.0644 90.1647 69.5844 90.1647H71.2444ZM62.2644 104.525C61.1244 104.525 60.1844 104.385 59.4644 104.065C58.7244 103.765 58.1444 103.305 57.7244 102.705C57.3044 102.105 57.0044 101.365 56.8444 100.465C56.6844 99.5847 56.6044 98.5447 56.6044 97.3447C56.6044 96.1447 56.6844 95.0647 56.8644 94.1447C57.0444 93.2247 57.3444 92.4647 57.7644 91.8447C58.1844 91.2447 58.7444 90.7847 59.4644 90.4647C60.1644 90.1647 61.0444 90.0047 62.1244 90.0047C63.2644 90.0047 64.2044 90.1647 64.9644 90.4647C65.7044 90.7847 66.2844 91.2447 66.7244 91.8447C67.1444 92.4647 67.4444 93.2247 67.6244 94.1447C67.7844 95.0647 67.8844 96.1447 67.8844 97.3447C67.8844 98.5247 67.7844 99.5647 67.6044 100.445C67.4244 101.345 67.1244 102.105 66.6844 102.705C66.2444 103.305 65.6844 103.765 64.9644 104.065C64.2444 104.385 63.3444 104.525 62.2644 104.525ZM62.3044 92.5847C61.7644 92.5847 61.3244 92.6847 60.9644 92.8847C60.6044 93.0847 60.3244 93.3847 60.1244 93.7847C59.9244 94.1847 59.7844 94.6847 59.7044 95.2847C59.6244 95.8847 59.5844 96.5647 59.5844 97.3447V97.4847C59.5844 98.2047 59.6244 98.8447 59.7044 99.4047C59.7844 99.9647 59.9444 100.445 60.1444 100.825C60.3444 101.205 60.6244 101.485 60.9844 101.685C61.3444 101.885 61.7844 101.965 62.3044 101.965C63.2844 101.965 63.9644 101.585 64.3444 100.785C64.7244 99.9847 64.9244 98.8447 64.9244 97.3447C64.9244 95.7847 64.7244 94.5847 64.3444 93.7847C63.9644 92.9847 63.2844 92.5847 62.3044 92.5847ZM86.9713 102.285C88.4113 102.285 89.6113 102.385 90.5713 102.545C91.5113 102.705 92.2713 102.965 92.8313 103.305C93.3913 103.645 93.7713 104.065 93.9913 104.565C94.2113 105.065 94.3313 105.645 94.3313 106.325C94.3313 107.005 94.2113 107.585 94.0113 108.085C93.7913 108.605 93.4113 109.025 92.8513 109.345C92.2913 109.685 91.5513 109.945 90.6113 110.105C89.6513 110.265 88.4513 110.345 86.9713 110.345C85.6113 110.345 84.4713 110.265 83.5513 110.105C82.6313 109.945 81.8713 109.685 81.3113 109.345C80.7313 109.025 80.3113 108.605 80.0713 108.085C79.8113 107.585 79.6913 107.005 79.6913 106.325C79.6913 105.645 79.7913 105.065 80.0113 104.565C80.2313 104.065 80.6113 103.645 81.1712 103.305C81.7313 102.965 82.4713 102.705 83.4113 102.545C84.3313 102.385 85.5313 102.285 86.9713 102.285ZM86.9713 107.905C88.5113 107.905 89.6113 107.785 90.2513 107.525C90.8913 107.265 91.2113 106.865 91.2113 106.325C91.2113 106.065 91.1313 105.825 91.0113 105.625C90.8713 105.425 90.6313 105.265 90.3113 105.145C89.9913 105.025 89.5512 104.925 89.0113 104.845C88.4513 104.785 87.7713 104.745 86.9713 104.745C86.1313 104.745 85.4513 104.785 84.9113 104.845C84.3713 104.925 83.9513 105.025 83.6313 105.145C83.3113 105.265 83.0913 105.425 82.9713 105.625C82.8513 105.825 82.7913 106.065 82.7913 106.325C82.7913 106.605 82.8513 106.825 83.0113 107.025C83.1513 107.225 83.3913 107.405 83.7113 107.525C84.0313 107.645 84.4713 107.745 85.0113 107.805C85.5313 107.885 86.1913 107.905 86.9713 107.905ZM93.5513 98.6847C94.0713 98.6847 94.3513 98.9447 94.3513 99.4647V100.785C94.3513 101.265 94.0713 101.505 93.5513 101.505H80.4513C79.9313 101.505 79.6713 101.245 79.6713 100.685V99.4647C79.6713 98.9447 79.9313 98.6847 80.4713 98.6847H84.1313V96.1647C84.1313 95.6047 84.4313 95.3247 85.0513 95.3247H86.4513C87.0313 95.3247 87.3313 95.6047 87.3313 96.1247V98.6847H93.5513ZM93.6913 90.1647C94.1113 90.1647 94.3313 90.4447 94.3313 91.0047C94.3313 93.6047 93.9513 95.6847 93.1913 97.2047C92.9713 97.6647 92.5713 97.8847 91.9913 97.8847H90.6113C90.3113 97.8847 90.0913 97.8047 89.9713 97.6447C89.8513 97.4847 89.8713 97.2247 90.0513 96.8647C90.6313 95.6447 90.9713 94.5247 91.0513 93.5247C91.0913 93.2047 90.9513 93.0247 90.6313 93.0247H80.3513C79.9113 93.0247 79.6913 92.8047 79.6913 92.3447V90.8647C79.6913 90.4047 79.9113 90.1647 80.3513 90.1647H93.6913ZM104.643 102.605C106.183 102.605 107.443 102.685 108.403 102.845C109.363 103.005 110.123 103.265 110.663 103.585C111.203 103.905 111.563 104.325 111.763 104.805C111.943 105.285 112.043 105.865 112.043 106.505C112.043 107.145 111.923 107.705 111.723 108.185C111.523 108.665 111.143 109.045 110.603 109.365C110.043 109.685 109.303 109.925 108.343 110.085C107.383 110.245 106.143 110.325 104.643 110.325C103.123 110.325 101.883 110.245 100.883 110.085C99.883 109.925 99.083 109.685 98.483 109.365C97.883 109.045 97.443 108.645 97.203 108.165C96.963 107.685 96.843 107.125 96.843 106.485C96.843 105.845 96.943 105.285 97.183 104.805C97.403 104.325 97.803 103.905 98.403 103.585C98.983 103.265 99.783 103.005 100.783 102.845C101.783 102.685 103.083 102.605 104.643 102.605ZM101.543 93.2647C101.423 93.5047 101.303 93.7247 101.203 93.9647C104.703 93.9247 106.423 96.2247 106.383 100.865C106.383 101.445 106.063 101.745 105.463 101.745H104.023C103.503 101.745 103.263 101.485 103.263 100.965C103.223 97.8847 102.263 96.5047 100.383 96.8247C100.143 98.0647 100.023 99.4647 100.023 100.985C100.023 101.505 99.723 101.745 99.143 101.745H97.783C97.223 101.745 96.943 101.465 96.943 100.905C96.943 98.2647 97.383 95.7047 98.243 93.2647H97.183C96.763 93.2647 96.563 93.0647 96.563 92.6447V91.1847C96.563 90.7847 96.763 90.5647 97.183 90.5647H106.143C106.603 90.5647 106.843 90.7847 106.843 91.2047V92.5447C106.843 93.0247 106.603 93.2647 106.123 93.2647H101.543ZM108.403 94.4047V90.8847C108.403 90.4047 108.643 90.1647 109.123 90.1647H110.823C111.323 90.1647 111.583 90.4047 111.583 90.8447V101.225C111.583 101.685 111.323 101.905 110.823 101.905H109.083C108.623 101.905 108.403 101.665 108.403 101.185V97.5247H107.323C106.863 97.5247 106.643 97.3247 106.643 96.9247V95.0847C106.643 94.6447 106.863 94.4047 107.343 94.4047H108.403ZM104.663 107.845C105.503 107.845 106.203 107.825 106.763 107.765C107.303 107.725 107.743 107.645 108.063 107.525C108.383 107.405 108.603 107.265 108.723 107.105C108.843 106.945 108.923 106.725 108.923 106.485C108.923 106.245 108.863 106.045 108.743 105.865C108.623 105.705 108.403 105.565 108.083 105.445C107.763 105.325 107.323 105.245 106.763 105.185C106.203 105.145 105.503 105.105 104.643 105.105C103.723 105.105 102.943 105.145 102.343 105.185C101.743 105.245 101.263 105.325 100.903 105.445C100.543 105.565 100.303 105.705 100.163 105.865C100.003 106.045 99.943 106.245 99.943 106.485C99.943 106.725 100.003 106.945 100.143 107.105C100.263 107.265 100.503 107.405 100.863 107.525C101.223 107.645 101.703 107.725 102.303 107.765C102.903 107.825 103.703 107.845 104.663 107.845ZM127.809 107.325C128.309 107.325 128.569 107.565 128.569 108.025V109.345C128.569 109.865 128.289 110.105 127.769 110.105H114.949C114.409 110.105 114.149 109.885 114.149 109.405V105.145C114.149 104.665 114.409 104.405 114.969 104.405H116.549C117.029 104.405 117.289 104.645 117.289 105.125V107.325H127.809ZM118.689 103.265C117.809 103.265 117.089 103.185 116.509 102.985C115.909 102.805 115.429 102.525 115.069 102.145C114.689 101.785 114.429 101.325 114.269 100.765C114.109 100.205 114.029 99.5647 114.029 98.8047C114.029 97.8847 114.269 96.9647 114.769 96.0647H114.349C113.969 96.0647 113.789 95.8047 113.789 95.2847V93.8047C113.789 93.3247 114.029 93.0847 114.529 93.0847H123.069C123.549 93.0847 123.809 93.3247 123.809 93.7847V95.3647C123.809 95.8447 123.569 96.0647 123.089 96.0647H122.829C123.189 96.8047 123.389 97.7247 123.389 98.8047C123.389 100.225 122.989 101.325 122.189 102.105C121.389 102.885 120.229 103.265 118.689 103.265ZM118.789 96.0647C118.149 96.0647 117.709 96.3047 117.469 96.7447C117.229 97.2047 117.109 97.8847 117.109 98.8047C117.109 99.5247 117.229 100.065 117.469 100.425C117.709 100.785 118.129 100.945 118.749 100.945C119.309 100.945 119.709 100.765 119.949 100.385C120.189 100.005 120.329 99.4447 120.329 98.7047C120.329 97.8247 120.209 97.1647 119.989 96.7247C119.769 96.2847 119.369 96.0647 118.789 96.0647ZM115.769 92.3847C115.329 92.3847 115.129 92.1447 115.129 91.6647V90.6047C115.129 90.1247 115.369 89.8647 115.869 89.8647H121.549C122.029 89.8647 122.289 90.0847 122.289 90.5247V91.6647C122.289 92.1447 122.029 92.3847 121.549 92.3847H115.769ZM129.129 94.6447C129.609 94.6447 129.849 94.8847 129.849 95.3447V97.0247C129.849 97.5247 129.589 97.7647 129.089 97.7647H128.009V102.425C128.009 102.965 127.729 103.225 127.209 103.225H125.609C125.049 103.225 124.789 102.965 124.789 102.425V90.9047C124.789 90.4247 125.049 90.1647 125.569 90.1647H127.229C127.749 90.1647 128.009 90.4047 128.009 90.8647V94.6447H129.129ZM137.798 110.125C137.178 110.125 136.878 109.845 136.878 109.285V104.825C136.878 104.265 137.178 103.985 137.778 103.985H139.158C139.698 103.985 139.978 104.265 139.978 104.825V107.305H150.918C151.458 107.305 151.738 107.585 151.738 108.125V109.305C151.738 109.865 151.478 110.125 150.958 110.125H137.798ZM137.678 102.705C137.158 102.705 136.898 102.445 136.898 101.925V100.645C136.898 100.165 137.138 99.9047 137.638 99.9047H150.918C151.478 99.9047 151.758 100.165 151.758 100.685V101.925C151.758 102.445 151.458 102.705 150.878 102.705H137.678ZM151.118 90.1647C151.538 90.1647 151.758 90.4447 151.758 91.0047C151.758 94.1447 151.378 96.5447 150.618 98.2047C150.398 98.6647 149.998 98.8847 149.418 98.8847H148.038C147.738 98.8847 147.518 98.8047 147.398 98.6447C147.278 98.4847 147.298 98.2247 147.478 97.8647C148.058 96.5047 148.398 95.0647 148.478 93.5247C148.518 93.2047 148.378 93.0247 148.058 93.0247H137.578C137.138 93.0247 136.918 92.8047 136.918 92.3447V90.8647C136.918 90.4047 137.138 90.1647 137.578 90.1647H151.118ZM154.185 96.8047C154.185 96.2247 154.485 95.9247 155.105 95.9247H165.565V93.4247H155.025C154.465 93.4247 154.185 93.1247 154.185 92.5247V91.4447C154.185 90.8647 154.465 90.5647 155.025 90.5647H167.705C168.325 90.5647 168.645 90.8447 168.645 91.3847V97.8647C168.645 98.4447 168.325 98.7247 167.725 98.7247H157.365V101.845C161.065 101.885 164.545 101.505 167.805 100.705C168.345 100.605 168.625 100.805 168.625 101.305V102.665C168.585 103.225 168.285 103.565 167.725 103.685C166.485 104.065 164.885 104.345 162.965 104.545V106.725H167.805C168.345 106.725 168.625 106.985 168.625 107.505V108.885C168.625 109.445 168.345 109.725 167.805 109.725H155.085C154.485 109.725 154.185 109.445 154.185 108.845V107.685C154.185 107.045 154.485 106.725 155.105 106.725H159.805V104.805C158.265 104.885 156.705 104.905 155.145 104.905C154.505 104.905 154.185 104.625 154.185 104.045V96.8047ZM185.18 98.9047C185.62 98.9247 185.84 99.1047 185.84 99.4447V100.585C185.84 101.065 185.6 101.305 185.14 101.305H171.68C171.2 101.305 170.96 101.045 170.96 100.525V99.5447C170.96 99.1247 171.16 98.9047 171.58 98.9047H185.18ZM171.64 92.4047C171.18 92.4047 170.96 92.2247 170.96 91.8447V90.7847C170.96 90.3847 171.18 90.1647 171.64 90.1647H185.08C185.58 90.1647 185.84 90.3847 185.84 90.7847V94.3647C185.84 94.8447 185.6 95.0847 185.12 95.0847H174V95.9047H185.12C185.6 95.9047 185.84 96.1247 185.84 96.5247V97.4447C185.84 97.9247 185.6 98.1647 185.16 98.1647H171.62C171.18 98.1647 170.96 97.9447 170.96 97.5047V93.8447C170.96 93.4047 171.18 93.1647 171.62 93.1647H182.78V92.4047H171.64ZM171.68 104.325C171.2 104.325 170.96 104.105 170.96 103.645V102.765C170.96 102.305 171.2 102.065 171.68 102.065H185.06C185.58 102.065 185.84 102.305 185.84 102.765V106.365C185.84 106.825 185.6 107.045 185.12 107.045H174V107.845H185.12C185.6 107.845 185.84 108.065 185.84 108.485V109.485C185.84 109.905 185.58 110.105 185.08 110.105H171.7C171.2 110.105 170.96 109.885 170.96 109.405V105.785C170.96 105.345 171.2 105.125 171.72 105.125H182.78V104.325H171.68ZM207.658 90.1647C208.138 90.1647 208.398 90.4047 208.398 90.8647V109.385C208.398 109.885 208.158 110.125 207.698 110.125H205.978C205.478 110.125 205.238 109.885 205.238 109.405V106.865H199.678V109.525C199.678 109.965 199.478 110.165 199.098 110.125H196.958C196.598 110.125 196.418 109.945 196.418 109.545V106.865H194.158C193.678 106.865 193.438 106.665 193.438 106.225V104.665C193.438 104.245 193.678 104.025 194.198 103.985H205.238V90.8847C205.238 90.4047 205.478 90.1647 205.998 90.1647H207.658ZM198.718 103.085C197.678 103.085 196.798 102.965 196.118 102.685C195.438 102.405 194.898 102.005 194.498 101.445C194.098 100.905 193.818 100.225 193.658 99.4047C193.498 98.5847 193.418 97.6247 193.418 96.5247C193.418 95.4647 193.498 94.5447 193.678 93.7447C193.838 92.9447 194.138 92.2847 194.558 91.7447C194.958 91.2247 195.518 90.8247 196.198 90.5647C196.878 90.3047 197.718 90.1647 198.718 90.1647C199.758 90.1647 200.638 90.3047 201.318 90.5647C201.998 90.8247 202.558 91.2247 202.978 91.7447C203.378 92.2847 203.678 92.9447 203.838 93.7447C203.998 94.5447 204.098 95.4647 204.098 96.5247C204.098 97.6047 203.998 98.5647 203.838 99.3847C203.678 100.205 203.378 100.885 202.978 101.445C202.558 102.005 201.998 102.405 201.318 102.685C200.638 102.965 199.758 103.085 198.718 103.085ZM198.758 92.7447C197.878 92.7447 197.258 93.0647 196.938 93.6847C196.618 94.3247 196.458 95.2647 196.458 96.5247C196.438 97.8647 196.578 98.8647 196.898 99.5247C197.218 100.205 197.838 100.525 198.758 100.525C199.658 100.525 200.278 100.205 200.618 99.5247C200.938 98.8447 201.118 97.8447 201.118 96.5247C201.118 95.2847 200.938 94.3447 200.618 93.7047C200.278 93.0647 199.658 92.7447 198.758 92.7447ZM215.065 110.125C214.185 110.125 213.485 109.985 212.925 109.685C212.365 109.405 211.905 108.965 211.585 108.385C211.265 107.805 211.025 107.065 210.905 106.185C210.785 105.305 210.725 104.285 210.725 103.125C210.725 101.285 210.805 99.7847 210.965 98.6447C211.125 97.5047 211.405 96.7047 211.805 96.2247H211.265C210.825 96.2247 210.625 96.0247 210.625 95.6047V93.8647C210.625 93.4647 210.805 93.2447 211.205 93.2447H219.105C219.345 93.2447 219.505 93.2847 219.625 93.3447C219.725 93.4047 219.785 93.5247 219.785 93.7047V95.4847C219.785 95.7047 219.725 95.8847 219.625 96.0247C219.525 96.1647 219.385 96.2247 219.185 96.2247H218.545C218.865 96.6847 219.105 97.4647 219.245 98.5847C219.365 99.7047 219.445 101.205 219.445 103.065C219.445 104.225 219.365 105.265 219.245 106.145C219.105 107.025 218.865 107.765 218.545 108.345C218.205 108.945 217.745 109.385 217.185 109.685C216.625 109.985 215.905 110.125 215.065 110.125ZM227.285 109.385C227.285 109.885 227.045 110.125 226.585 110.125H225.125C224.605 110.125 224.345 109.905 224.345 109.465V98.8047H223.445V109.425C223.445 109.905 223.185 110.125 222.705 110.125H221.265C220.745 110.125 220.505 109.905 220.505 109.425V90.8047C220.505 90.3847 220.705 90.1647 221.125 90.1647H222.805C223.225 90.1647 223.445 90.3847 223.445 90.7847V95.6447H224.345V90.8447C224.345 90.4047 224.585 90.1647 225.065 90.1647H226.565C227.045 90.1647 227.285 90.4047 227.285 90.8647V109.385ZM215.085 96.2247C214.765 96.2247 214.525 96.3847 214.345 96.6847C214.165 96.9847 214.025 97.4247 213.945 98.0047C213.845 98.5847 213.785 99.3047 213.765 100.165C213.725 101.025 213.725 102.005 213.725 103.125C213.725 103.845 213.725 104.485 213.765 105.025C213.805 105.585 213.865 106.025 213.985 106.385C214.085 106.745 214.225 107.025 214.425 107.205C214.625 107.385 214.865 107.465 215.185 107.465C215.725 107.465 216.085 107.105 216.245 106.385C216.405 105.665 216.485 104.585 216.485 103.125C216.485 100.885 216.385 99.1647 216.225 97.9847C216.045 96.8247 215.665 96.2247 215.085 96.2247ZM212.785 92.6047C212.345 92.6047 212.145 92.3847 212.145 91.9447V90.7447C212.145 90.3447 212.365 90.1447 212.805 90.1447H217.425C217.845 90.1447 218.065 90.3447 218.065 90.7247V91.9447C218.065 92.3847 217.845 92.6047 217.425 92.6047H212.785ZM32.103 112.565C32.523 112.565 32.743 112.845 32.743 113.405C32.743 113.945 32.723 114.445 32.723 114.905H33.743V112.845C33.743 112.385 34.003 112.145 34.543 112.145H36.063C36.563 112.145 36.823 112.385 36.823 112.845V126.565C36.823 127.025 36.583 127.245 36.103 127.245H34.463C33.983 127.245 33.743 127.005 33.743 126.485V118.025H32.463C32.263 119.325 31.983 120.325 31.603 121.005C31.323 121.465 30.903 121.685 30.323 121.685H29.023C28.723 121.685 28.503 121.605 28.383 121.445C28.263 121.285 28.283 121.025 28.463 120.665C29.103 119.525 29.423 117.945 29.463 115.925C29.503 115.605 29.363 115.425 29.043 115.425H22.363C21.923 115.425 21.703 115.205 21.703 114.745V113.265C21.703 112.805 21.923 112.565 22.363 112.565H32.103ZM36.063 129.285C36.563 129.285 36.823 129.525 36.823 130.005V131.425C36.823 131.905 36.543 132.145 36.023 132.145H22.423C21.903 132.145 21.663 131.885 21.663 131.365V127.525C21.663 127.045 21.883 126.805 22.343 126.805H24.163C24.643 126.805 24.883 127.045 24.883 127.525V129.285H36.063ZM29.223 127.045C29.223 127.525 28.963 127.785 28.443 127.785H26.603C26.103 127.785 25.863 127.545 25.863 127.045V125.485H22.503C22.003 125.485 21.763 125.245 21.763 124.725V123.145C21.763 122.665 21.983 122.445 22.443 122.445H32.223C32.703 122.445 32.963 122.745 32.963 123.325V124.645C32.963 125.205 32.703 125.485 32.183 125.485H29.223V127.045ZM53.5234 131.265C53.5234 131.825 53.2434 132.105 52.7034 132.105H51.1834C50.6034 132.105 50.3234 131.825 50.3234 131.265V130.265C46.5234 131.205 43.0434 131.665 39.9034 131.665C39.4034 131.665 39.1634 131.405 39.1634 130.865V118.185C39.1634 117.745 39.4034 117.505 39.9034 117.505H45.7234V115.485H40.0234C39.4434 115.485 39.1634 115.245 39.1634 114.745V113.365C39.1634 112.845 39.4034 112.565 39.9234 112.565H47.8434C48.4034 112.565 48.6834 112.825 48.6834 113.325V119.525C48.6834 120.085 48.3834 120.345 47.8034 120.345H42.1634V128.605C45.0834 128.485 47.8034 127.965 50.3234 127.025V112.885C50.3234 112.405 50.6034 112.165 51.1834 112.165H52.7634C53.2634 112.165 53.5234 112.425 53.5234 112.945V131.265ZM70.0827 120.905C70.5227 120.925 70.7427 121.105 70.7427 121.445V122.585C70.7427 123.065 70.5027 123.305 70.0427 123.305H56.5827C56.1027 123.305 55.8627 123.045 55.8627 122.525V121.545C55.8627 121.125 56.0627 120.905 56.4827 120.905H70.0827ZM56.5427 114.405C56.0827 114.405 55.8627 114.225 55.8627 113.845V112.785C55.8627 112.385 56.0827 112.165 56.5427 112.165H69.9827C70.4827 112.165 70.7427 112.385 70.7427 112.785V116.365C70.7427 116.845 70.5027 117.085 70.0227 117.085H58.9027V117.905H70.0227C70.5027 117.905 70.7427 118.125 70.7427 118.525V119.445C70.7427 119.925 70.5027 120.165 70.0627 120.165H56.5227C56.0827 120.165 55.8627 119.945 55.8627 119.505V115.845C55.8627 115.405 56.0827 115.165 56.5227 115.165H67.6827V114.405H56.5427ZM56.5827 126.325C56.1027 126.325 55.8627 126.105 55.8627 125.645V124.765C55.8627 124.305 56.1027 124.065 56.5827 124.065H69.9627C70.4827 124.065 70.7427 124.305 70.7427 124.765V128.365C70.7427 128.825 70.5027 129.045 70.0227 129.045H58.9027V129.845H70.0227C70.5027 129.845 70.7427 130.065 70.7427 130.485V131.485C70.7427 131.905 70.4827 132.105 69.9827 132.105H56.6027C56.1027 132.105 55.8627 131.885 55.8627 131.405V127.785C55.8627 127.345 56.1027 127.125 56.6227 127.125H67.6827V126.325H56.5827ZM82.6808 115.385C82.6208 115.885 82.5608 116.365 82.5008 116.845C86.2208 116.045 88.1008 119.585 88.1008 127.425V131.145C88.1008 131.645 87.8208 131.885 87.2808 131.885H85.9008C85.3408 131.885 85.0608 131.645 85.0608 131.145V127.265C85.0608 121.685 84.0808 119.425 82.1208 120.485C81.8008 124.045 81.6608 127.585 81.7008 131.125C81.7008 131.645 81.4208 131.905 80.8608 131.905H79.4008C78.8408 131.905 78.5608 131.645 78.5608 131.085C78.5008 125.065 78.8208 119.825 79.5208 115.385H78.9808C78.5408 115.385 78.3208 115.145 78.3208 114.665V113.285C78.3208 112.805 78.5608 112.565 79.0608 112.565H87.3808C87.9008 112.565 88.1808 112.805 88.1808 113.285V114.565C88.1808 115.125 87.9008 115.385 87.3608 115.385H82.6808ZM89.8808 113.045C89.8808 112.465 90.1808 112.165 90.8008 112.165H92.1008C92.7408 112.165 93.0608 112.445 93.0608 113.005V131.245C93.0608 131.845 92.7408 132.125 92.1408 132.125H90.8008C90.1808 132.125 89.8808 131.845 89.8808 131.245V113.045ZM101.054 115.625C101.134 115.325 101.014 115.165 100.714 115.165H96.1539C95.6739 115.165 95.4539 114.885 95.4539 114.365V113.145C95.4539 112.565 95.6739 112.285 96.1539 112.285H103.654C104.214 112.285 104.474 112.645 104.414 113.345C104.414 114.265 104.394 115.145 104.374 116.005H107.074V112.865C107.074 112.385 107.334 112.145 107.894 112.145H109.534C110.014 112.145 110.254 112.385 110.294 112.845V131.405C110.294 131.885 110.014 132.105 109.454 132.105H107.914C107.354 132.105 107.074 131.865 107.074 131.365V122.965H103.474C102.634 126.645 101.194 129.525 99.1739 131.605C98.8339 131.945 98.2939 132.105 97.5739 132.105H96.4539C96.0139 132.105 95.7339 131.985 95.6539 131.725C95.5739 131.465 95.7339 131.145 96.1339 130.785C98.3939 128.305 99.8739 125.185 100.574 121.405H96.1539C95.6739 121.405 95.4539 121.125 95.4539 120.605V119.385C95.4539 118.805 95.6739 118.525 96.1539 118.525H100.954C101.014 117.605 101.054 116.625 101.054 115.625ZM104.154 118.845C104.094 119.285 104.054 119.725 104.014 120.125H107.074V118.845H104.154ZM121.7 123.485V124.305H126.66C127.26 124.305 127.56 124.545 127.56 125.025V128.325C127.56 128.805 127.26 129.045 126.7 129.045H115.8V129.845H126.78C127.3 129.845 127.56 130.085 127.56 130.525V131.245C127.56 131.825 127.3 132.105 126.82 132.105H113.66C113.06 132.105 112.76 131.885 112.76 131.405V128.085C112.76 127.605 113.04 127.365 113.62 127.365H124.52V126.565H113.54C113.02 126.565 112.76 126.345 112.76 125.885V125.165C112.76 124.605 113.02 124.305 113.58 124.305H118.56V123.485H113.6C113 123.485 112.7 123.205 112.74 122.605V121.745C112.74 121.145 112.98 120.825 113.48 120.825H127.02C127.38 120.825 127.56 121.065 127.56 121.525V122.625C127.56 123.205 127.3 123.485 126.78 123.485H121.7ZM126.78 112.145C127.28 112.145 127.54 112.405 127.54 112.925V114.045C127.54 114.585 127.24 114.845 126.68 114.845H124.02C126.26 115.685 127.38 117.205 127.38 119.365C127.38 119.845 127.14 120.065 126.68 120.065H124.9C124.36 120.065 124.1 119.805 124.14 119.285C124.18 117.245 122.48 116.085 119 115.845C118.4 117.365 117.6 118.625 116.62 119.625C116.28 119.945 115.9 120.105 115.46 120.105H113.3C113.12 120.105 113 120.045 112.92 119.905C112.84 119.785 112.9 119.605 113.12 119.405C114.56 118.085 115.54 116.565 116.1 114.845H113.48C112.98 114.845 112.74 114.605 112.74 114.105V112.925C112.74 112.405 112.98 112.145 113.48 112.145H126.78ZM134.385 115.905C134.385 115.605 134.185 115.445 133.825 115.445H130.525C130.005 115.445 129.745 115.205 129.745 114.705V113.305C129.745 112.825 130.005 112.565 130.525 112.565H136.905C137.465 112.565 137.745 112.925 137.745 113.625C137.745 115.145 137.685 116.485 137.605 117.645H138.845V112.865C138.845 112.405 139.105 112.165 139.625 112.165H141.025C141.545 112.165 141.805 112.405 141.805 112.865V131.225C141.805 131.825 141.545 132.105 141.025 132.105H139.625C139.105 132.105 138.845 131.825 138.845 131.225V120.765H137.245C136.505 126.125 135.325 129.625 133.705 131.245C133.365 131.585 132.825 131.745 132.105 131.745H130.985C130.585 131.745 130.325 131.625 130.225 131.365C130.105 131.105 130.265 130.785 130.665 130.425C133.225 127.645 134.465 122.805 134.385 115.905ZM142.645 112.865C142.645 112.405 142.905 112.165 143.425 112.165H144.825C145.325 112.165 145.585 112.405 145.585 112.865V131.225C145.585 131.825 145.325 132.105 144.825 132.105H143.425C142.905 132.105 142.645 131.825 142.645 131.225V112.865ZM151.313 128.665V126.085C150.673 125.965 150.153 125.685 149.733 125.265C149.293 124.865 148.953 124.345 148.693 123.725C148.413 123.125 148.233 122.425 148.113 121.625C147.993 120.845 147.933 120.005 147.933 119.125C147.933 117.925 148.033 116.885 148.273 115.985C148.493 115.105 148.873 114.365 149.413 113.765C149.953 113.165 150.673 112.725 151.593 112.425C152.513 112.125 153.653 111.965 155.013 111.965C156.313 111.965 157.413 112.125 158.313 112.425C159.213 112.725 159.953 113.165 160.513 113.765C161.073 114.365 161.473 115.105 161.713 115.985C161.953 116.885 162.093 117.925 162.093 119.125C162.093 120.025 162.013 120.865 161.893 121.625C161.773 122.385 161.573 123.065 161.293 123.665C161.013 124.265 160.673 124.785 160.233 125.185C159.793 125.605 159.273 125.905 158.673 126.105V128.665H161.273C161.813 128.665 162.093 128.945 162.093 129.485V130.925C162.093 131.425 161.833 131.665 161.313 131.665H148.833C148.233 131.665 147.933 131.405 147.933 130.865V129.565C147.933 128.965 148.233 128.665 148.873 128.665H151.313ZM155.013 123.925C156.453 123.925 157.493 123.525 158.093 122.725C158.693 121.925 159.013 120.725 159.013 119.125C159.013 117.645 158.713 116.545 158.113 115.805C157.513 115.085 156.473 114.705 155.033 114.705C153.593 114.705 152.553 115.085 151.953 115.825C151.333 116.565 151.033 117.665 151.033 119.125C151.033 119.925 151.093 120.625 151.233 121.225C151.353 121.825 151.573 122.325 151.893 122.725C152.193 123.125 152.593 123.425 153.113 123.625C153.613 123.825 154.253 123.925 155.013 123.925ZM155.013 126.645C154.853 126.645 154.713 126.645 154.593 126.645C154.453 126.645 154.313 126.625 154.193 126.605V128.665H155.773V126.605C155.653 126.625 155.513 126.645 155.393 126.645C155.273 126.645 155.133 126.645 155.013 126.645Z" fill="black"/>
</g>
</g>
</g>
<defs>
<filter id="filter0_d_566_2282" x="0" y="0" width="293" height="441" filterUnits="userSpaceOnUse" color-interpolation-filters="sRGB">
<feFlood flood-opacity="0" result="BackgroundImageFix"/>
<feColorMatrix in="SourceAlpha" type="matrix" values="0 0 0 0 0 0 0 0 0 0 0 0 0 0 0 0 0 0 127 0" result="hardAlpha"/>
<feOffset dx="2" dy="4"/>
<feGaussianBlur stdDeviation="2"/>
<feComposite in2="hardAlpha" operator="out"/>
<feColorMatrix type="matrix" values="0 0 0 0 0 0 0 0 0 0 0 0 0 0 0 0 0 0 0.25 0"/>
<feBlend mode="normal" in2="BackgroundImageFix" result="effect1_dropShadow_566_2282"/>
<feBlend mode="normal" in="SourceGraphic" in2="effect1_dropShadow_566_2282" result="shape"/>
</filter>
<filter id="filter1_d_566_2282" x="13.8721" y="82.0743" width="221.203" height="57.8603" filterUnits="userSpaceOnUse" color-interpolation-filters="sRGB">
<feFlood flood-opacity="0" result="BackgroundImageFix"/>
<feColorMatrix in="SourceAlpha" type="matrix" values="0 0 0 0 0 0 0 0 0 0 0 0 0 0 0 0 0 0 127 0" result="hardAlpha"/>
<feOffset/>
<feGaussianBlur stdDeviation="3.895"/>
<feComposite in2="hardAlpha" operator="out"/>
<feColorMatrix type="matrix" values="0 0 0 0 1 0 0 0 0 1 0 0 0 0 1 0 0 0 1 0"/>
<feBlend mode="normal" in2="BackgroundImageFix" result="effect1_dropShadow_566_2282"/>
<feBlend mode="normal" in="SourceGraphic" in2="effect1_dropShadow_566_2282" result="shape"/>
</filter>
<linearGradient id="paint0_linear_566_2282" x1="144.5" y1="0" x2="144.5" y2="433" gradientUnits="userSpaceOnUse">
<stop offset="0.139" stop-color="#DEF2EB"/>
<stop offset="1" stop-color="#B9E6E9"/>
</linearGradient>
<clipPath id="clip0_566_2282">
<rect x="2" width="285" height="433" rx="10" fill="white"/>
</clipPath>
</defs>
</svg>
