<svg width="293" height="441" viewBox="0 0 293 441" fill="none" xmlns="http://www.w3.org/2000/svg">
<g filter="url(#filter0_d_566_2403)">
<g clip-path="url(#clip0_566_2403)">
<rect x="2" width="285" height="433" rx="10" fill="url(#paint0_linear_566_2403)"/>
<path d="M124.542 -31.832C124.65 -17.1948 119.598 17.3491 98.52 38.4267C72.1729 64.7739 41.272 50.7872 8.74471 83.3145C-17.2771 109.336 -25.5174 125.817 -26.3848 130.804" stroke="white" stroke-opacity="0.48" stroke-width="7.90056"/>
<path d="M168.838 -23.6387C168.947 -9.00145 163.894 25.5424 142.816 46.6201" stroke="white" stroke-opacity="0.48" stroke-width="7.90056" stroke-linecap="round"/>
<path d="M124.451 46.6221L127.014 54.3881L133.942 57.2618L127.014 60.1355L124.451 67.9015L121.887 60.1355L114.959 57.2618L121.887 54.3881L124.451 46.6221Z" fill="white" fill-opacity="0.62"/>
<path d="M153.477 364.228C117.574 375.057 82.6031 370.702 69.6055 367.17C72.7445 372.909 84.82 384.386 108.01 384.386C131.199 384.386 147.984 370.947 153.477 364.228Z" fill="#3E82CD"/>
<rect x="17.8574" y="98.0703" width="36.4277" height="14.0275" fill="#3E82CD"/>
<g filter="url(#filter1_d_566_2403)">
<path d="M33.3774 107.305C33.9174 107.305 34.1974 107.565 34.1974 108.085V109.245C34.1974 109.845 33.9174 110.125 33.3574 110.125H20.0374C19.3974 110.125 19.0774 109.845 19.0774 109.285V105.085C19.0774 104.485 19.3174 104.205 19.8374 104.205H21.4974C21.9774 104.225 22.2374 104.465 22.2374 104.905V107.305H33.3774ZM19.7574 102.765C19.3174 102.765 19.0974 102.485 19.0774 101.885V100.705C19.0774 100.245 19.2974 100.005 19.7574 100.005H33.4574C33.9374 100.005 34.1974 100.305 34.1974 100.885V101.885C34.1974 102.485 33.9174 102.765 33.3974 102.765H28.3574V104.605C28.3574 105.065 28.1774 105.285 27.8174 105.285H25.4974C25.1374 105.285 24.9374 105.085 24.9374 104.665V102.765H19.7574ZM34.1974 97.9847C34.1974 98.5247 33.9374 98.7847 33.4174 98.7847H19.7774C19.2974 98.7847 19.0774 98.5247 19.0774 98.0047V90.9847C19.0774 90.4447 19.3574 90.1647 19.9374 90.1647H33.3574C33.9174 90.1647 34.1974 90.4247 34.1974 90.9247V97.9847ZM31.0574 92.7447H22.2374V96.1647H31.0574V92.7447ZM52.1165 95.6447C52.6765 95.6447 52.9765 95.9247 52.9765 96.4847V97.9647C52.9765 98.5247 52.6965 98.8047 52.1565 98.8047H51.2565V109.305C51.2565 109.865 50.9965 110.125 50.4765 110.125H48.8765C48.3365 110.125 48.0765 109.885 48.0765 109.405V108.905H37.3565C36.7365 108.905 36.4365 108.625 36.4365 108.045V106.905C36.4365 106.325 36.7165 106.025 37.2965 106.025H40.0565V104.885C37.9365 104.445 36.8565 103.045 36.8165 100.645C36.8165 98.8247 37.0965 97.5647 37.6765 96.8447H37.1965C36.6765 96.8447 36.4165 96.5247 36.4165 95.8647V94.7847C36.4165 94.1047 36.6965 93.7647 37.2765 93.7647H46.1965C46.7765 93.7647 47.0765 94.0847 47.0765 94.7047V96.0247C47.0965 96.5847 46.7965 96.8447 46.1765 96.8447H45.5165C46.0765 97.5247 46.3565 98.8047 46.3565 100.645C46.3565 103.085 45.2965 104.505 43.1965 104.905V106.025H48.0765V91.0047C48.0965 90.4447 48.3765 90.1647 48.9165 90.1647H50.4765C50.9965 90.1647 51.2565 90.4247 51.2565 90.9047V95.6447H52.1165ZM38.9165 92.8847C38.3165 92.8847 38.0365 92.5847 38.0365 91.9647V91.0247C38.0365 90.4647 38.3165 90.1647 38.9165 90.1647H44.4365C44.9965 90.1647 45.2765 90.4647 45.2765 91.0247V92.0247C45.2765 92.6047 45.0365 92.8847 44.5565 92.8847H38.9165ZM41.5565 96.7247C40.5165 96.7247 39.9965 97.7647 39.9965 99.8447C39.9965 101.605 40.5365 102.465 41.6365 102.465C42.6765 102.465 43.1965 101.605 43.1965 99.8447C43.1965 97.7647 42.6365 96.7247 41.5565 96.7247ZM63.7698 98.3847C64.6898 97.2847 65.3898 95.7847 65.9098 93.8847C69.5898 93.3647 71.4098 94.8047 71.3698 98.2447C71.3498 98.7047 71.5498 98.9247 71.9498 98.9247H74.1298C74.4898 98.9247 74.6698 98.7247 74.6698 98.3047C74.6698 93.1047 71.9298 90.6647 66.4498 91.0247C66.4498 90.9647 66.4698 90.8847 66.4898 90.8047C66.5298 90.3847 66.2698 90.1647 65.7498 90.1647H63.9298C63.4498 90.1647 63.1698 90.4047 63.1098 90.8847C62.7898 93.4447 61.8698 95.9047 60.3498 98.2247C60.1898 98.4247 60.1698 98.6047 60.2498 98.7247C60.3298 98.8647 60.4498 98.9247 60.6298 98.9247H62.7098C63.1498 98.9247 63.4898 98.7447 63.7698 98.3847ZM60.9298 106.885C60.3898 106.885 60.1298 106.665 60.1298 106.205V104.945C60.1298 104.345 60.3898 104.045 60.9098 104.045H73.7698C74.3698 104.045 74.6698 104.305 74.6698 104.785V109.365C74.6698 109.885 74.3898 110.125 73.8298 110.125H72.3898C71.7698 110.125 71.4698 109.905 71.4698 109.445V106.885H60.9298ZM73.8698 100.005C74.3898 100.005 74.6698 100.305 74.6698 100.885V102.145C74.6698 102.625 74.4698 102.845 74.1098 102.845H60.8898C60.3698 102.845 60.1298 102.545 60.1298 101.925V100.905C60.0898 100.305 60.3898 100.005 61.0098 100.005H65.6898V98.0647C65.6898 97.5047 65.9898 97.2247 66.6298 97.2247H68.0698C68.6698 97.2247 68.9898 97.5047 68.9898 98.0647V100.005H73.8698ZM81.4652 90.1447C82.2652 90.1447 82.9252 90.2847 83.4852 90.5447C84.0252 90.8247 84.4652 91.2447 84.8252 91.8447C85.1652 92.4447 85.4252 93.2047 85.5852 94.1647C85.7452 95.1247 85.8652 96.3047 85.9052 97.6847H86.7852V90.8847C86.7852 90.4047 87.0452 90.1647 87.6052 90.1647H88.9852C89.5052 90.1647 89.7852 90.4047 89.7852 90.8847V109.405C89.7852 109.885 89.5252 110.105 89.0452 110.105H87.6252C87.0652 110.105 86.7852 109.865 86.7852 109.365V100.845H85.9452C85.9052 102.405 85.8052 103.745 85.6652 104.905C85.5252 106.065 85.3052 107.025 84.9852 107.785C84.6652 108.545 84.2052 109.125 83.6452 109.505C83.0852 109.905 82.3452 110.085 81.4652 110.085C80.4852 110.085 79.7052 109.905 79.1052 109.525C78.5052 109.165 78.0252 108.565 77.7052 107.745C77.3652 106.925 77.1452 105.845 77.0252 104.525C76.9052 103.205 76.8652 101.605 76.8652 99.7247C76.8652 97.9647 76.9252 96.4847 77.0652 95.2647C77.1852 94.0647 77.4252 93.0647 77.7652 92.3047C78.1052 91.5447 78.5852 91.0047 79.1852 90.6647C79.7852 90.3247 80.5452 90.1447 81.4652 90.1447ZM90.5652 90.8847C90.5652 90.4047 90.8252 90.1647 91.3852 90.1647H92.7652C93.2852 90.1647 93.5652 90.4047 93.5652 90.8847V109.405C93.5652 109.885 93.3052 110.105 92.8252 110.105H91.4052C90.8452 110.105 90.5652 109.865 90.5652 109.365V90.8847ZM82.8652 99.3047C82.8652 98.1847 82.8252 97.2047 82.7852 96.4047C82.7452 95.6047 82.6652 94.9647 82.5652 94.4447C82.4452 93.9447 82.3052 93.5847 82.1052 93.3447C81.9052 93.1047 81.6652 92.9847 81.3852 92.9847C81.0652 92.9847 80.8252 93.1047 80.6252 93.3047C80.4252 93.5247 80.2852 93.8847 80.1852 94.4047C80.0652 94.9247 80.0052 95.6247 79.9652 96.4847C79.9252 97.3647 79.9052 98.4447 79.9052 99.7247C79.9052 101.165 79.9052 102.345 79.9452 103.305C79.9852 104.265 80.0452 105.045 80.1652 105.625C80.2652 106.225 80.4052 106.645 80.6052 106.885C80.8052 107.145 81.0652 107.265 81.3852 107.265C81.7052 107.265 81.9452 107.145 82.1452 106.905C82.3452 106.665 82.4852 106.265 82.6052 105.685C82.7052 105.105 82.7652 104.325 82.8052 103.365C82.8452 102.405 82.8652 101.185 82.8652 99.7247V99.3047ZM100.391 91.4047C100.331 91.7847 100.271 92.1647 100.211 92.5247C103.691 92.0447 105.451 95.5847 105.451 103.185V109.165C105.451 109.665 105.171 109.905 104.631 109.905H103.131C102.571 109.905 102.291 109.665 102.291 109.165V103.025C102.291 97.7447 101.451 95.4447 99.7715 96.1047C99.2915 100.465 99.0715 104.805 99.1115 109.125C99.1115 109.645 98.8315 109.905 98.2715 109.905H96.7515C96.1915 109.905 95.9115 109.645 95.9115 109.085C95.8515 102.125 96.2915 96.2447 97.2315 91.4047C97.3715 90.8447 97.6915 90.5647 98.1915 90.5647H99.6715C100.271 90.5647 100.511 90.8447 100.391 91.4047ZM107.851 93.3847V90.8847C107.851 90.4047 108.111 90.1647 108.671 90.1647H110.311C110.811 90.1647 111.071 90.4047 111.071 90.8447V109.445C111.071 109.885 110.791 110.105 110.251 110.105H108.611C108.091 110.105 107.851 109.865 107.851 109.385V96.5447H106.031C105.511 96.5447 105.251 96.3047 105.251 95.8247V94.1247C105.251 93.6447 105.491 93.3847 106.011 93.3847H107.851ZM130.423 91.6847V90.8847C130.423 90.4047 130.663 90.1647 131.183 90.1647H132.843C133.343 90.1647 133.603 90.4047 133.603 90.8447V101.225C133.603 101.705 133.323 101.925 132.763 101.925H131.243C130.683 101.925 130.423 101.685 130.423 101.185V94.8447H129.283C128.723 94.8447 128.463 94.6047 128.463 94.1047V92.3447C128.463 91.9047 128.703 91.6847 129.183 91.6847H130.423ZM126.643 102.605C128.183 102.605 129.443 102.685 130.403 102.845C131.363 103.005 132.123 103.265 132.663 103.585C133.203 103.905 133.563 104.325 133.763 104.805C133.943 105.285 134.043 105.865 134.043 106.505C134.043 107.145 133.923 107.705 133.723 108.185C133.523 108.665 133.143 109.045 132.603 109.365C132.043 109.685 131.303 109.925 130.343 110.085C129.383 110.245 128.143 110.325 126.643 110.325C125.123 110.325 123.883 110.245 122.883 110.085C121.883 109.925 121.083 109.685 120.483 109.365C119.883 109.045 119.443 108.645 119.203 108.165C118.963 107.685 118.843 107.125 118.843 106.485C118.843 105.845 118.943 105.285 119.183 104.805C119.403 104.325 119.803 103.905 120.403 103.585C120.983 103.265 121.783 103.005 122.783 102.845C123.783 102.685 125.083 102.605 126.643 102.605ZM126.663 107.885C127.503 107.885 128.203 107.865 128.763 107.805C129.303 107.745 129.743 107.665 130.063 107.545C130.383 107.425 130.603 107.285 130.723 107.105C130.843 106.945 130.923 106.725 130.923 106.485C130.923 106.245 130.863 106.045 130.743 105.865C130.623 105.705 130.403 105.545 130.083 105.425C129.763 105.305 129.323 105.225 128.763 105.165C128.203 105.105 127.503 105.065 126.643 105.065C125.723 105.065 124.943 105.105 124.343 105.165C123.743 105.225 123.263 105.305 122.903 105.425C122.543 105.545 122.303 105.705 122.163 105.865C122.003 106.045 121.943 106.245 121.943 106.485C121.943 106.725 122.003 106.945 122.143 107.105C122.263 107.285 122.503 107.425 122.863 107.545C123.223 107.665 123.703 107.745 124.303 107.805C124.903 107.865 125.703 107.885 126.663 107.885ZM123.443 92.4047C127.023 92.0847 128.683 94.9047 128.423 100.865C128.423 101.465 128.123 101.745 127.563 101.745H126.063C125.543 101.745 125.303 101.505 125.303 100.985C125.463 96.7047 124.543 94.8647 122.543 95.4847C122.103 97.4647 121.883 99.3447 121.883 101.125C121.883 101.685 121.583 101.945 120.983 101.945H119.543C119.003 101.945 118.743 101.705 118.743 101.205C118.743 97.4447 119.383 94.1847 120.663 91.4447C120.983 90.8647 121.423 90.5647 121.983 90.5647H123.043C123.723 90.5647 124.003 90.8047 123.843 91.2847L123.443 92.4047ZM143.911 102.605C145.451 102.605 146.711 102.685 147.671 102.845C148.631 103.005 149.391 103.265 149.931 103.585C150.471 103.905 150.831 104.325 151.031 104.805C151.211 105.285 151.311 105.865 151.311 106.505C151.311 107.145 151.191 107.705 150.991 108.185C150.791 108.665 150.411 109.045 149.871 109.365C149.311 109.685 148.571 109.925 147.611 110.085C146.651 110.245 145.411 110.325 143.911 110.325C142.391 110.325 141.151 110.245 140.151 110.085C139.151 109.925 138.351 109.685 137.751 109.365C137.151 109.045 136.711 108.645 136.471 108.165C136.231 107.685 136.111 107.125 136.111 106.485C136.111 105.845 136.211 105.285 136.451 104.805C136.671 104.325 137.071 103.905 137.671 103.585C138.251 103.265 139.051 103.005 140.051 102.845C141.051 102.685 142.351 102.605 143.911 102.605ZM140.811 93.2447C140.691 93.4847 140.571 93.7247 140.471 93.9647C143.971 93.9047 145.691 96.2047 145.651 100.865C145.651 101.445 145.331 101.745 144.731 101.745H143.291C142.771 101.745 142.531 101.485 142.531 100.965C142.491 97.8847 141.531 96.5047 139.651 96.8247C139.411 98.0647 139.291 99.4647 139.291 100.985C139.291 101.505 138.991 101.745 138.411 101.745H137.051C136.491 101.745 136.211 101.465 136.211 100.905C136.211 98.2647 136.651 95.7047 137.511 93.2447H136.451C136.031 93.2447 135.831 93.0447 135.831 92.6247V91.1847C135.831 90.7847 136.031 90.5647 136.451 90.5647H145.411C145.871 90.5647 146.111 90.7847 146.111 91.2047V92.5247C146.111 93.0047 145.871 93.2447 145.391 93.2447H140.811ZM151.051 94.4047C151.511 94.4047 151.751 94.6447 151.751 95.0847V96.9247C151.751 97.3247 151.511 97.5247 151.071 97.5247H149.991V101.185C149.991 101.665 149.751 101.905 149.311 101.905H147.571C147.051 101.905 146.811 101.685 146.811 101.225V90.8447C146.811 90.4047 147.051 90.1647 147.571 90.1647H149.271C149.751 90.1647 149.991 90.4047 149.991 90.8847V94.4047H151.051ZM143.931 107.885C144.771 107.885 145.471 107.865 146.031 107.805C146.571 107.745 147.011 107.665 147.331 107.545C147.651 107.425 147.871 107.285 147.991 107.105C148.111 106.945 148.191 106.725 148.191 106.485C148.191 106.245 148.131 106.045 148.011 105.865C147.891 105.705 147.671 105.545 147.351 105.425C147.031 105.305 146.591 105.225 146.031 105.165C145.471 105.105 144.771 105.065 143.911 105.065C142.991 105.065 142.211 105.105 141.611 105.165C141.011 105.225 140.531 105.305 140.171 105.425C139.811 105.545 139.571 105.705 139.431 105.865C139.271 106.045 139.211 106.245 139.211 106.485C139.211 106.725 139.271 106.945 139.411 107.105C139.531 107.285 139.771 107.425 140.131 107.545C140.491 107.665 140.971 107.745 141.571 107.805C142.171 107.865 142.971 107.885 143.931 107.885ZM168.506 95.6447C169.066 95.6447 169.346 95.9047 169.346 96.3847V97.9247C169.346 98.4847 169.066 98.7647 168.546 98.7647H167.566V109.345C167.566 109.865 167.286 110.125 166.726 110.125H165.186C164.626 110.125 164.366 109.865 164.366 109.345V90.8647C164.366 90.4047 164.606 90.1647 165.126 90.1647H166.766C167.286 90.1647 167.566 90.4047 167.566 90.8847V95.6447H168.506ZM158.286 110.125C157.366 110.125 156.586 109.985 155.986 109.685C155.366 109.405 154.886 108.965 154.526 108.385C154.166 107.805 153.906 107.065 153.766 106.185C153.606 105.305 153.546 104.285 153.546 103.125C153.546 102.105 153.566 101.205 153.606 100.445C153.646 99.6847 153.706 99.0447 153.786 98.4847C153.866 97.9247 153.986 97.4647 154.126 97.1047C154.266 96.7447 154.426 96.4647 154.626 96.2247H154.086C153.646 96.2247 153.446 96.0247 153.446 95.6047V93.8647C153.446 93.4647 153.626 93.2447 154.026 93.2447H162.726C162.966 93.2447 163.126 93.2847 163.246 93.3447C163.346 93.4047 163.406 93.5247 163.406 93.7047V95.4847C163.406 95.7047 163.346 95.8847 163.246 96.0247C163.146 96.1647 163.006 96.2247 162.806 96.2247H162.166C162.326 96.4647 162.466 96.7447 162.586 97.1047C162.706 97.4647 162.786 97.9247 162.866 98.4647C162.926 99.0247 162.966 99.6647 163.006 100.425C163.046 101.185 163.066 102.065 163.066 103.065C163.066 104.225 162.986 105.265 162.866 106.145C162.746 107.025 162.506 107.765 162.166 108.345C161.806 108.945 161.326 109.385 160.706 109.685C160.086 109.985 159.286 110.125 158.286 110.125ZM158.346 96.2247C157.666 96.2247 157.186 96.8247 156.926 97.9847C156.666 99.1447 156.546 100.865 156.546 103.125C156.546 104.585 156.666 105.665 156.946 106.385C157.226 107.105 157.706 107.465 158.406 107.465C159.046 107.465 159.486 107.105 159.726 106.385C159.966 105.665 160.106 104.585 160.106 103.125C160.106 100.885 159.966 99.1647 159.726 97.9847C159.466 96.8247 159.006 96.2247 158.346 96.2247ZM155.546 92.6047C155.106 92.6047 154.906 92.3847 154.906 91.9447V90.7447C154.906 90.3447 155.126 90.1447 155.566 90.1447H160.986C161.406 90.1447 161.626 90.3447 161.626 90.7247V91.9447C161.626 92.3847 161.406 92.6047 160.986 92.6047H155.546ZM184.907 99.3847C185.487 99.3847 185.787 99.6647 185.787 100.225V101.485C185.787 102.045 185.507 102.325 184.947 102.325H171.907C171.367 102.325 171.107 102.085 171.107 101.565V100.205C171.107 99.6647 171.367 99.3847 171.887 99.3847H184.907ZM184.947 107.165C185.507 107.165 185.787 107.445 185.787 107.985V109.285C185.787 109.845 185.507 110.105 184.947 110.105H171.947C171.387 110.105 171.107 109.845 171.107 109.325V104.465C171.107 103.885 171.407 103.585 172.047 103.585H173.407C174.047 103.585 174.367 103.885 174.367 104.465V107.165H184.947ZM184.907 97.2847C181.467 97.8647 177.107 98.1647 171.827 98.1847C171.347 98.1847 171.107 97.9647 171.107 97.4847V91.0047C171.107 90.4247 171.387 90.1247 171.987 90.1247H173.467C174.067 90.1247 174.367 90.4047 174.367 90.9247V95.1847C177.987 95.1447 181.467 94.8047 184.787 94.1647C185.447 94.0647 185.787 94.3047 185.787 94.8647V96.2247C185.767 96.8247 185.467 97.1847 184.907 97.2847ZM201.23 102.445C202.71 102.445 203.97 102.545 204.97 102.705C205.97 102.865 206.77 103.125 207.37 103.445C207.97 103.765 208.39 104.185 208.65 104.685C208.89 105.185 209.03 105.765 209.03 106.425C209.03 107.085 208.89 107.665 208.61 108.145C208.33 108.625 207.87 109.045 207.25 109.365C206.63 109.685 205.83 109.925 204.85 110.085C203.85 110.245 202.65 110.325 201.23 110.325C199.71 110.325 198.47 110.245 197.47 110.085C196.47 109.925 195.69 109.685 195.09 109.365C194.49 109.045 194.07 108.625 193.83 108.145C193.59 107.665 193.47 107.085 193.47 106.405C193.47 105.765 193.59 105.185 193.85 104.685C194.11 104.185 194.55 103.765 195.15 103.445C195.75 103.125 196.55 102.865 197.55 102.705C198.53 102.545 199.75 102.445 201.23 102.445ZM201.27 107.885C202.19 107.885 202.95 107.865 203.55 107.805C204.15 107.745 204.61 107.645 204.97 107.525C205.31 107.405 205.55 107.245 205.69 107.045C205.83 106.865 205.91 106.645 205.91 106.405C205.91 106.165 205.83 105.945 205.67 105.745C205.51 105.565 205.25 105.405 204.89 105.285C204.53 105.165 204.05 105.065 203.45 105.005C202.85 104.945 202.11 104.905 201.23 104.905C200.35 104.905 199.63 104.945 199.03 105.005C198.43 105.065 197.95 105.165 197.59 105.285C197.23 105.405 196.95 105.565 196.79 105.745C196.63 105.945 196.55 106.165 196.55 106.405C196.55 106.645 196.63 106.865 196.79 107.045C196.95 107.245 197.21 107.405 197.57 107.525C197.93 107.645 198.43 107.745 199.03 107.805C199.63 107.865 200.39 107.885 201.27 107.885ZM202.21 90.5447C202.81 90.5447 203.13 90.8047 203.13 91.2847V92.4247C203.13 92.9447 202.85 93.1847 202.29 93.1847H196.43V98.7447C199.15 98.6647 201.85 98.3047 204.51 97.6247V90.8847C204.51 90.4047 204.79 90.1647 205.37 90.1647H206.89C207.37 90.1647 207.61 90.4047 207.61 90.8847V93.4047H208.63C209.13 93.4047 209.39 93.6247 209.39 94.0447V95.6447C209.39 96.1647 209.11 96.4247 208.59 96.4247H207.61V100.865C207.61 101.425 207.29 101.705 206.67 101.705H205.41C204.81 101.705 204.51 101.465 204.51 100.985V100.465C200.47 101.185 197.05 101.545 194.21 101.545C193.71 101.545 193.47 101.325 193.47 100.845V91.3247C193.47 90.8047 193.75 90.5447 194.35 90.5447H202.21ZM225.486 107.345C225.986 107.345 226.246 107.585 226.246 108.045V109.365C226.246 109.885 225.966 110.125 225.446 110.125H212.186C211.666 110.125 211.406 109.905 211.406 109.425V105.005C211.406 104.545 211.646 104.305 212.126 104.305H213.826C214.306 104.305 214.546 104.545 214.546 105.005V107.345H225.486ZM226.066 102.305C226.066 102.825 225.786 103.085 225.246 103.085H223.646C223.086 103.085 222.826 102.845 222.826 102.365V90.8447C222.826 90.3847 223.086 90.1447 223.626 90.1447H225.286C225.806 90.1447 226.066 90.3847 226.066 90.8447V102.305ZM215.826 92.4047C219.666 92.0847 221.426 95.2847 221.106 102.025C221.106 102.605 220.786 102.905 220.186 102.905H218.746C218.226 102.905 217.986 102.645 217.986 102.125C218.226 97.0847 217.206 94.8647 214.926 95.4847C214.486 97.4647 214.266 99.6647 214.266 102.085C214.266 102.645 213.966 102.905 213.366 102.905H211.926C211.386 102.905 211.126 102.665 211.126 102.165C211.126 97.7647 211.766 94.1847 213.046 91.4447C213.366 90.8647 213.806 90.5647 214.366 90.5647H215.426C216.106 90.5647 216.386 90.8047 216.226 91.2847L215.826 92.4047ZM243.191 109.405C243.191 109.885 242.951 110.125 242.471 110.125H240.751C240.251 110.125 240.011 109.865 240.011 109.345V90.8647C240.011 90.4047 240.251 90.1647 240.751 90.1647H242.411C242.931 90.1647 243.191 90.4247 243.191 90.9047V109.405ZM233.571 90.1647C234.611 90.1647 235.451 90.3647 236.131 90.7647C236.791 91.1647 237.311 91.7847 237.711 92.5847C238.091 93.3847 238.351 94.4047 238.511 95.6047C238.651 96.8047 238.731 98.2247 238.731 99.8247C238.731 101.545 238.651 103.065 238.491 104.345C238.331 105.625 238.051 106.705 237.671 107.565C237.271 108.425 236.751 109.065 236.091 109.485C235.411 109.925 234.571 110.125 233.571 110.125C232.531 110.125 231.671 109.925 230.991 109.485C230.311 109.045 229.771 108.405 229.371 107.545C228.971 106.685 228.711 105.605 228.551 104.325C228.391 103.045 228.311 101.545 228.311 99.8247C228.311 98.2247 228.391 96.8247 228.571 95.6247C228.751 94.4247 229.051 93.4047 229.451 92.6047C229.851 91.8047 230.391 91.1847 231.071 90.7847C231.751 90.3847 232.571 90.1647 233.571 90.1647ZM235.731 99.8247C235.731 98.7047 235.691 97.7047 235.651 96.8447C235.591 96.0047 235.491 95.2847 235.331 94.7247C235.171 94.1647 234.951 93.7247 234.671 93.4447C234.391 93.1647 234.031 93.0247 233.591 93.0247C233.131 93.0247 232.771 93.1647 232.491 93.4447C232.211 93.7247 231.991 94.1647 231.831 94.7247C231.671 95.2847 231.571 96.0047 231.531 96.8447C231.471 97.7047 231.451 98.7047 231.451 99.8247C231.451 102.325 231.591 104.205 231.891 105.445C232.171 106.685 232.751 107.305 233.591 107.305C234.011 107.305 234.371 107.165 234.651 106.845C234.931 106.525 235.151 106.065 235.311 105.425C235.471 104.805 235.571 104.025 235.631 103.085C235.691 102.165 235.731 101.065 235.731 99.8247ZM27.9974 124.325C29.1174 124.405 30.0574 124.525 30.8174 124.725C31.5574 124.925 32.1574 125.185 32.6174 125.505C33.0574 125.845 33.3774 126.245 33.5774 126.725C33.7574 127.205 33.8574 127.725 33.8574 128.325C33.8574 129.005 33.7374 129.585 33.5174 130.085C33.2774 130.605 32.8974 131.025 32.3374 131.345C31.7774 131.685 31.0174 131.945 30.0574 132.105C29.0974 132.265 27.8774 132.345 26.3974 132.345C25.0374 132.345 23.8974 132.265 22.9774 132.105C22.0374 131.945 21.2774 131.685 20.6974 131.345C20.0974 131.025 19.6774 130.605 19.4174 130.085C19.1374 129.585 19.0174 129.005 19.0174 128.325C19.0174 127.725 19.0974 127.205 19.2774 126.725C19.4574 126.265 19.7574 125.865 20.1974 125.545C20.6374 125.225 21.2174 124.945 21.9374 124.745C22.6574 124.545 23.5774 124.425 24.6774 124.345V123.165H19.7774C19.2574 123.165 19.0174 122.925 19.0174 122.425V121.005C19.0174 120.505 19.2774 120.245 19.7974 120.245H32.9974C33.5574 120.245 33.8574 120.525 33.8574 121.065V122.325C33.8574 122.885 33.5774 123.165 33.0174 123.165H27.9974V124.325ZM33.2174 112.165C33.6374 112.165 33.8574 112.445 33.8574 113.005C33.8574 115.605 33.4774 117.545 32.7174 118.805C32.4974 119.265 32.0974 119.485 31.5174 119.485H30.1374C29.8374 119.485 29.6174 119.405 29.4974 119.245C29.3774 119.085 29.3974 118.825 29.5774 118.465C30.1574 117.505 30.4974 116.525 30.5774 115.525C30.6174 115.205 30.4774 115.025 30.1574 115.025H19.6774C19.2374 115.025 19.0174 114.805 19.0174 114.345V112.865C19.0174 112.405 19.2374 112.165 19.6774 112.165H33.2174ZM26.3974 129.905C27.9374 129.905 29.0374 129.785 29.7174 129.525C30.3974 129.265 30.7374 128.865 30.7374 128.325C30.7374 128.065 30.6574 127.825 30.5174 127.625C30.3574 127.425 30.1174 127.265 29.7774 127.145C29.4374 127.025 28.9974 126.925 28.4374 126.845C27.8774 126.785 27.1974 126.745 26.3974 126.745C25.5574 126.745 24.8774 126.785 24.3374 126.845C23.7774 126.925 23.3374 127.025 23.0174 127.145C22.6774 127.265 22.4374 127.425 22.3174 127.625C22.1774 127.825 22.1174 128.065 22.1174 128.325C22.1174 128.865 22.4374 129.265 23.0974 129.525C23.7374 129.785 24.8374 129.905 26.3974 129.905ZM50.0845 121.285C50.6045 121.285 50.8845 121.545 50.8845 122.065V123.385C50.8845 123.865 50.6045 124.105 50.0845 124.105H36.9845C36.4645 124.105 36.2045 123.845 36.2045 123.285V122.065C36.2045 121.545 36.4645 121.285 37.0045 121.285H50.0845ZM50.1045 125.185C50.6245 125.185 50.8845 125.425 50.8845 125.885V131.305C50.8845 131.865 50.5845 132.125 50.0045 132.125H37.0445C36.4845 132.125 36.2045 131.885 36.2045 131.385V126.045C36.2045 125.485 36.4845 125.185 37.0445 125.185H50.1045ZM39.2645 129.465H47.8245V127.845H39.2645V129.465ZM49.9845 112.165C50.5645 112.165 50.8645 112.445 50.8645 113.005C50.8645 116.005 50.4845 118.285 49.7245 119.805C49.5045 120.265 49.1045 120.485 48.5245 120.485H47.1445C46.8445 120.485 46.6245 120.405 46.5045 120.245C46.3845 120.085 46.4045 119.825 46.5845 119.465C47.1645 118.245 47.5045 116.925 47.5845 115.525C47.6245 115.205 47.4845 115.025 47.1645 115.025H36.8845C36.4445 115.025 36.2245 114.805 36.2245 114.345V112.865C36.2245 112.405 36.4445 112.165 36.8845 112.165H49.9845ZM57.5362 132.125C56.6562 132.125 55.9562 131.985 55.3962 131.685C54.8362 131.405 54.3762 130.965 54.0562 130.385C53.7362 129.805 53.4962 129.065 53.3762 128.185C53.2562 127.305 53.1962 126.285 53.1962 125.125C53.1962 123.285 53.2762 121.785 53.4362 120.645C53.5962 119.505 53.8762 118.705 54.2762 118.225H53.7362C53.2962 118.225 53.0962 118.025 53.0962 117.605V115.865C53.0962 115.465 53.2762 115.245 53.6762 115.245H61.5762C61.8162 115.245 61.9762 115.285 62.0962 115.345C62.1962 115.405 62.2562 115.525 62.2562 115.705V117.485C62.2562 117.705 62.1962 117.885 62.0962 118.025C61.9962 118.165 61.8562 118.225 61.6562 118.225H61.0162C61.3362 118.685 61.5762 119.465 61.7162 120.585C61.8362 121.705 61.9162 123.205 61.9162 125.065C61.9162 126.225 61.8362 127.265 61.7162 128.145C61.5762 129.025 61.3362 129.765 61.0162 130.345C60.6762 130.945 60.2162 131.385 59.6562 131.685C59.0962 131.985 58.3762 132.125 57.5362 132.125ZM69.7562 131.385C69.7562 131.885 69.5162 132.125 69.0562 132.125H67.5962C67.0762 132.125 66.8162 131.905 66.8162 131.465V120.805H65.9162V131.425C65.9162 131.905 65.6562 132.125 65.1762 132.125H63.7362C63.2162 132.125 62.9762 131.905 62.9762 131.425V112.805C62.9762 112.385 63.1762 112.165 63.5962 112.165H65.2762C65.6962 112.165 65.9162 112.385 65.9162 112.785V117.645H66.8162V112.845C66.8162 112.405 67.0562 112.165 67.5362 112.165H69.0362C69.5162 112.165 69.7562 112.405 69.7562 112.865V131.385ZM57.5562 118.225C57.2362 118.225 56.9962 118.385 56.8162 118.685C56.6362 118.985 56.4962 119.425 56.4162 120.005C56.3162 120.585 56.2562 121.305 56.2362 122.165C56.1962 123.025 56.1962 124.005 56.1962 125.125C56.1962 125.845 56.1962 126.485 56.2362 127.025C56.2762 127.585 56.3362 128.025 56.4562 128.385C56.5562 128.745 56.6962 129.025 56.8962 129.205C57.0962 129.385 57.3362 129.465 57.6562 129.465C58.1962 129.465 58.5562 129.105 58.7162 128.385C58.8762 127.665 58.9562 126.585 58.9562 125.125C58.9562 122.885 58.8562 121.165 58.6962 119.985C58.5162 118.825 58.1362 118.225 57.5562 118.225ZM55.2562 114.605C54.8162 114.605 54.6162 114.385 54.6162 113.945V112.745C54.6162 112.345 54.8362 112.145 55.2762 112.145H59.8962C60.3162 112.145 60.5362 112.345 60.5362 112.725V113.945C60.5362 114.385 60.3162 114.605 59.8962 114.605H55.2562ZM75.4829 128.665V126.085C74.8429 125.965 74.3229 125.685 73.9029 125.265C73.4629 124.865 73.1229 124.345 72.8629 123.725C72.5829 123.125 72.4029 122.425 72.2829 121.625C72.1629 120.845 72.1029 120.005 72.1029 119.125C72.1029 117.925 72.2029 116.885 72.4429 115.985C72.6629 115.105 73.0429 114.365 73.5829 113.765C74.1229 113.165 74.8429 112.725 75.7629 112.425C76.6829 112.125 77.8229 111.965 79.1829 111.965C80.4829 111.965 81.5829 112.125 82.4829 112.425C83.3829 112.725 84.1229 113.165 84.6829 113.765C85.2429 114.365 85.6429 115.105 85.8829 115.985C86.1229 116.885 86.2629 117.925 86.2629 119.125C86.2629 120.025 86.1829 120.865 86.0629 121.625C85.9429 122.385 85.7429 123.065 85.4629 123.665C85.1829 124.265 84.8429 124.785 84.4029 125.185C83.9629 125.605 83.4429 125.905 82.8429 126.105V128.665H85.4429C85.9829 128.665 86.2629 128.945 86.2629 129.485V130.925C86.2629 131.425 86.0029 131.665 85.4829 131.665H73.0029C72.4029 131.665 72.1029 131.405 72.1029 130.865V129.565C72.1029 128.965 72.4029 128.665 73.0429 128.665H75.4829ZM79.1829 123.925C80.6229 123.925 81.6629 123.525 82.2629 122.725C82.8629 121.925 83.1829 120.725 83.1829 119.125C83.1829 117.645 82.8829 116.545 82.2829 115.805C81.6829 115.085 80.6429 114.705 79.2029 114.705C77.7629 114.705 76.7229 115.085 76.1229 115.825C75.5029 116.565 75.2029 117.665 75.2029 119.125C75.2029 119.925 75.2629 120.625 75.4029 121.225C75.5229 121.825 75.7429 122.325 76.0629 122.725C76.3629 123.125 76.7629 123.425 77.2829 123.625C77.7829 123.825 78.4229 123.925 79.1829 123.925ZM79.1829 126.645C79.0229 126.645 78.8829 126.645 78.7629 126.645C78.6229 126.645 78.4829 126.625 78.3629 126.605V128.665H79.9429V126.605C79.8229 126.625 79.6829 126.645 79.5629 126.645C79.4429 126.645 79.3029 126.645 79.1829 126.645ZM89.8068 112.165H91.4868C92.1668 112.165 92.4868 112.645 92.4468 113.625L92.0068 126.205C91.9268 126.745 91.6468 127.025 91.1668 127.065H90.0268C89.5468 127.085 89.2668 126.825 89.1868 126.285L88.6468 113.625C88.6068 112.645 89.0068 112.165 89.8068 112.165ZM89.6668 132.105H91.6668C92.3668 132.145 92.7268 131.865 92.7268 131.245L92.5668 129.465C92.5268 128.885 92.2468 128.585 91.7668 128.585H89.7268C89.2468 128.585 89.0068 128.825 88.9668 129.305L88.7668 131.245C88.7468 131.825 89.0468 132.105 89.6668 132.105Z" fill="black"/>
</g>
<g clip-path="url(#clip1_566_2403)">
<path d="M256.865 240.587C256.865 199.579 222.642 166.563 181.195 168.547C145.013 170.276 115.098 199.662 112.769 235.811C110.963 263.85 125.2 288.698 147.182 302.13C154.561 306.639 164.223 302.471 166.424 294.11L166.696 293.084H166.724C168.371 284.329 176.03 277.697 185.261 277.697C194.492 277.697 202.151 284.329 203.797 293.084H203.826C205.789 301.789 215.813 306.245 223.348 301.461C243.487 288.677 256.865 266.207 256.865 240.587Z" fill="#FFAD00"/>
<path d="M184.746 205.057C191.089 205.057 196.231 199.914 196.231 193.571C196.231 187.227 191.089 182.085 184.746 182.085C178.402 182.085 173.26 187.227 173.26 193.571C173.26 199.914 178.402 205.057 184.746 205.057Z" fill="#FFDA16"/>
<path d="M152.591 218.375C158.935 218.375 164.077 213.233 164.077 206.889C164.077 200.546 158.935 195.403 152.591 195.403C146.248 195.403 141.105 200.546 141.105 206.889C141.105 213.233 146.248 218.375 152.591 218.375Z" fill="#F77F00"/>
<path d="M139.277 250.524C145.62 250.524 150.763 245.382 150.763 239.039C150.763 232.695 145.62 227.553 139.277 227.553C132.933 227.553 127.791 232.695 127.791 239.039C127.791 245.382 132.933 250.524 139.277 250.524Z" fill="#EF4452"/>
<path d="M216.89 218.375C223.234 218.375 228.376 213.233 228.376 206.889C228.376 200.546 223.234 195.403 216.89 195.403C210.547 195.403 205.404 200.546 205.404 206.889C205.404 213.233 210.547 218.375 216.89 218.375Z" fill="#4FC578"/>
<path d="M230.212 250.524C236.556 250.524 241.698 245.382 241.698 239.039C241.698 232.695 236.556 227.553 230.212 227.553C223.869 227.553 218.727 232.695 218.727 239.039C218.727 245.382 223.869 250.524 230.212 250.524Z" fill="#1E6EF4"/>
</g>
<path d="M79.8709 292.751C79.8709 292.751 93.4161 279.355 105.833 277.33C118.249 275.305 132.127 277.11 137.513 278.265C138.821 276.583 142.295 273.078 145.729 272.518C150.022 271.818 167.582 283.87 172.091 284.491C176.599 285.112 191.607 287.749 191.761 290.775C191.916 293.801 180.404 298.052 170.727 296.918C200.286 327.901 193.669 329.14 192.194 329.952C191.933 330.096 191.324 330.522 188.249 330.596C190.235 332.655 194.043 337.459 193.391 340.205C192.739 342.95 190.437 342.886 189.368 342.51C191.207 344.272 195.296 350.204 193.771 352.652C192.551 354.611 190.579 354.597 189.746 354.345C207.347 363.982 204.355 398.77 214.15 417.878L66.9327 452.128C59.4632 412.197 68.4695 387.129 73.9063 379.586C71.6707 374.973 72.0962 372.277 72.5884 371.505C71.5977 371.39 69.1868 370.816 67.4687 369.437C65.7506 368.058 67.284 364.49 68.2655 362.878C66.9861 363.086 63.8444 362.728 61.5131 359.624C59.1818 356.52 63.4179 350.534 65.8274 347.928C62.0264 338.925 63.5587 328.059 64.8 323.751C56.1547 325.735 45.6166 325.898 43.2597 317.707C40.1292 306.827 66.3628 296.536 79.8709 292.751Z" fill="white"/>
<ellipse cx="98.9282" cy="319.413" rx="2.90356" ry="5.09604" transform="rotate(-9.26297 98.9282 319.413)" fill="black"/>
<ellipse cx="139.166" cy="312.851" rx="2.90356" ry="5.09604" transform="rotate(-9.26297 139.166 312.851)" fill="black"/>
<path d="M133.949 322.467C125.573 324.122 123.025 328.132 122.798 329.93C122.554 331.452 126.275 333.511 129.544 333.749C132.813 333.986 141.868 331.263 144.054 329.945C146.241 328.628 146.027 322.899 145.505 321.904C144.982 320.908 144.419 320.4 133.949 322.467Z" fill="black" stroke="black" stroke-width="0.75262"/>
<path d="M134.31 331.966C134.581 336.025 134.233 343.874 131.417 348.642M118.009 354.132C119.411 354.719 123.526 355.028 128.772 351.56C129.832 350.86 130.704 349.85 131.417 348.642M139.886 354.645C137.685 353.917 132.91 351.698 131.417 348.642" stroke="black" stroke-width="0.75262"/>
<path d="M157.021 318.701C156.896 318.462 156.6 318.369 156.361 318.494C156.121 318.619 156.029 318.915 156.154 319.154L157.021 318.701ZM104.775 360.629C109.996 362.837 118.635 365.358 127.626 365.758C136.608 366.159 146.03 364.445 152.705 358.075L152.03 357.367C145.633 363.472 136.531 365.176 127.669 364.781C118.815 364.387 110.29 361.899 105.156 359.728L104.775 360.629ZM152.705 358.075C159.362 351.722 161.458 343.813 161.383 336.541C161.308 329.281 159.071 322.626 157.021 318.701L156.154 319.154C158.144 322.963 160.332 329.467 160.405 336.551C160.478 343.625 158.444 351.246 152.03 357.367L152.705 358.075Z" fill="#E1E1E1"/>
<path d="M197.959 359.822C197.528 359.365 192.238 355.94 189.646 354.285L194.771 361.472C196.013 361.112 198.391 360.279 197.959 359.822Z" fill="white"/>
<path d="M47.7151 458.327C28.8001 433.107 57.0203 395.278 73.8574 379.754C89.6298 375.341 113.218 372.156 135.535 367.543C164.007 361.656 190.515 355.153 197.22 359.262C212.169 368.425 224.263 392.596 222.538 407.487C219.885 430.384 214.339 436.18 206.865 446.309C199.39 456.438 156.229 484.405 142.244 469.937C131.056 458.364 137.582 444.861 142.244 439.556L110.659 446.309C95.1393 464.221 65.591 482.161 47.7151 458.327Z" fill="white"/>
<path d="M73.9775 379.585C57.1403 395.108 28.8011 433.107 47.7161 458.327C65.592 482.161 95.1403 464.222 110.66 446.31M74.5839 421.07C81.8681 411.875 98.5858 394.417 107.184 398.143C117.931 402.8 125.454 412.472 120.438 430.384C119.215 434.754 115.668 440.53 110.66 446.31M110.66 446.31L142.245 439.556M142.245 439.556C157.677 432.033 167.322 406.683 170.215 394.949M142.245 439.556C137.583 444.861 131.057 458.364 142.245 469.938C156.23 484.405 199.391 456.439 206.866 446.31C214.34 436.181 219.886 430.384 222.539 407.487C224.264 392.596 212.17 368.425 197.221 359.263" stroke="#B7B7B7" stroke-width="0.385231"/>
<path d="M44.9542 343.302L94.2816 401.475C89.5792 404.339 84.173 409.927 82.0577 412.363L33.7148 354.541C41.8396 354.541 44.5931 347.048 44.9542 343.302Z" fill="#E3D6C3" stroke="#E3D6C3" stroke-width="0.385231"/>
<path d="M157.706 500.293L111.399 445.666C115.452 441.313 119.452 433.533 120.316 430.895L169.043 488.956L157.706 500.293Z" fill="#E3D6C3" stroke="#E3D6C3" stroke-width="0.385231"/>
<path d="M44.777 342.794C45.0423 346.863 42.3219 350.132 40.9768 351.367C38.211 353.906 35.1583 354.569 33.6106 354.348C32.0629 354.127 28.5247 353.574 21.67 346.664C16.1862 341.136 17.8005 328.145 19.293 322.341C23.2179 326.321 24.8211 322.673 33.6106 327.261C42.4001 331.849 44.4454 337.709 44.777 342.794Z" fill="#3E82CD"/>
<path d="M70.2259 299.472C57.0939 290.041 80.3734 274.451 93.6546 267.836C101.862 265.448 118.874 267.836 124.993 270.223C131.111 272.611 134.095 278.58 128.723 284.251C123.351 289.921 86.6409 311.261 70.2259 299.472Z" fill="black" stroke="black" stroke-width="0.385231"/>
<ellipse cx="93.7042" cy="268.136" rx="4.49326" ry="2.96847" fill="black"/>
</g>
</g>
<defs>
<filter id="filter0_d_566_2403" x="0" y="0" width="293" height="441" filterUnits="userSpaceOnUse" color-interpolation-filters="sRGB">
<feFlood flood-opacity="0" result="BackgroundImageFix"/>
<feColorMatrix in="SourceAlpha" type="matrix" values="0 0 0 0 0 0 0 0 0 0 0 0 0 0 0 0 0 0 127 0" result="hardAlpha"/>
<feOffset dx="2" dy="4"/>
<feGaussianBlur stdDeviation="2"/>
<feComposite in2="hardAlpha" operator="out"/>
<feColorMatrix type="matrix" values="0 0 0 0 0 0 0 0 0 0 0 0 0 0 0 0 0 0 0.25 0"/>
<feBlend mode="normal" in2="BackgroundImageFix" result="effect1_dropShadow_566_2403"/>
<feBlend mode="normal" in="SourceGraphic" in2="effect1_dropShadow_566_2403" result="shape"/>
</filter>
<filter id="filter1_d_566_2403" x="11.2276" y="82.335" width="239.754" height="57.7997" filterUnits="userSpaceOnUse" color-interpolation-filters="sRGB">
<feFlood flood-opacity="0" result="BackgroundImageFix"/>
<feColorMatrix in="SourceAlpha" type="matrix" values="0 0 0 0 0 0 0 0 0 0 0 0 0 0 0 0 0 0 127 0" result="hardAlpha"/>
<feOffset/>
<feGaussianBlur stdDeviation="3.895"/>
<feComposite in2="hardAlpha" operator="out"/>
<feColorMatrix type="matrix" values="0 0 0 0 1 0 0 0 0 1 0 0 0 0 1 0 0 0 1 0"/>
<feBlend mode="normal" in2="BackgroundImageFix" result="effect1_dropShadow_566_2403"/>
<feBlend mode="normal" in="SourceGraphic" in2="effect1_dropShadow_566_2403" result="shape"/>
</filter>
<linearGradient id="paint0_linear_566_2403" x1="144.5" y1="0" x2="144.5" y2="433" gradientUnits="userSpaceOnUse">
<stop offset="0.139" stop-color="#DEF2EB"/>
<stop offset="1" stop-color="#B9E6E9"/>
</linearGradient>
<clipPath id="clip0_566_2403">
<rect x="2" width="285" height="433" rx="10" fill="white"/>
</clipPath>
<clipPath id="clip1_566_2403">
<rect width="164.259" height="164.259" fill="white" transform="translate(102.613 154.09)"/>
</clipPath>
</defs>
</svg>
