<svg width="293" height="441" viewBox="0 0 293 441" fill="none" xmlns="http://www.w3.org/2000/svg">
<g filter="url(#filter0_d_566_2419)">
<g clip-path="url(#clip0_566_2419)">
<rect x="2" width="285" height="433" rx="10" fill="url(#paint0_linear_566_2419)"/>
<path d="M124.542 -31.832C124.65 -17.1948 119.598 17.3491 98.52 38.4267C72.1729 64.7739 41.272 50.7872 8.74471 83.3145C-17.2771 109.336 -25.5174 125.817 -26.3848 130.804" stroke="white" stroke-opacity="0.48" stroke-width="7.90056"/>
<path d="M168.838 -23.6387C168.947 -9.00145 163.894 25.5424 142.816 46.6201" stroke="white" stroke-opacity="0.48" stroke-width="7.90056" stroke-linecap="round"/>
<path d="M124.451 46.6221L127.014 54.3881L133.942 57.2618L127.014 60.1355L124.451 67.9015L121.887 60.1355L114.959 57.2618L121.887 54.3881L124.451 46.6221Z" fill="white" fill-opacity="0.62"/>
<rect x="88.0234" y="98.0703" width="36.4277" height="14.0275" fill="#3E82CD"/>
<g filter="url(#filter1_d_566_2419)">
<path d="M39.3414 102.445C40.8214 102.445 42.0814 102.545 43.0814 102.705C44.0814 102.865 44.8814 103.125 45.4814 103.445C46.0814 103.765 46.5014 104.185 46.7614 104.685C47.0014 105.185 47.1414 105.765 47.1414 106.425C47.1414 107.085 47.0014 107.665 46.7214 108.145C46.4414 108.625 45.9814 109.045 45.3614 109.365C44.7414 109.685 43.9414 109.925 42.9614 110.085C41.9614 110.245 40.7614 110.325 39.3414 110.325C37.8214 110.325 36.5814 110.245 35.5814 110.085C34.5814 109.925 33.8014 109.685 33.2014 109.365C32.6014 109.045 32.1814 108.625 31.9414 108.145C31.7014 107.665 31.5814 107.085 31.5814 106.405C31.5814 105.765 31.7014 105.185 31.9614 104.685C32.2214 104.185 32.6614 103.765 33.2614 103.445C33.8614 103.125 34.6614 102.865 35.6614 102.705C36.6414 102.545 37.8614 102.445 39.3414 102.445ZM39.3814 107.885C40.3014 107.885 41.0614 107.865 41.6614 107.805C42.2614 107.745 42.7214 107.645 43.0814 107.525C43.4214 107.405 43.6614 107.245 43.8014 107.045C43.9414 106.865 44.0214 106.645 44.0214 106.405C44.0214 106.165 43.9414 105.945 43.7814 105.745C43.6214 105.565 43.3614 105.405 43.0014 105.285C42.6414 105.165 42.1614 105.065 41.5614 105.005C40.9614 104.945 40.2214 104.905 39.3414 104.905C38.4614 104.905 37.7414 104.945 37.1414 105.005C36.5414 105.065 36.0614 105.165 35.7014 105.285C35.3414 105.405 35.0614 105.565 34.9014 105.745C34.7414 105.945 34.6614 106.165 34.6614 106.405C34.6614 106.645 34.7414 106.865 34.9014 107.045C35.0614 107.245 35.3214 107.405 35.6814 107.525C36.0414 107.645 36.5414 107.745 37.1414 107.805C37.7414 107.865 38.5014 107.885 39.3814 107.885ZM40.3214 90.5447C40.9214 90.5447 41.2414 90.8047 41.2414 91.2847V92.4247C41.2414 92.9447 40.9614 93.1847 40.4014 93.1847H34.5414V98.7447C37.2614 98.6647 39.9614 98.3047 42.6214 97.6247V90.8847C42.6214 90.4047 42.9014 90.1647 43.4814 90.1647H45.0014C45.4814 90.1647 45.7214 90.4047 45.7214 90.8847V93.4047H46.7414C47.2414 93.4047 47.5014 93.6247 47.5014 94.0447V95.6447C47.5014 96.1647 47.2214 96.4247 46.7014 96.4247H45.7214V100.865C45.7214 101.425 45.4014 101.705 44.7814 101.705H43.5214C42.9214 101.705 42.6214 101.465 42.6214 100.985V100.465C38.5814 101.185 35.1614 101.545 32.3214 101.545C31.8214 101.545 31.5814 101.325 31.5814 100.845V91.3247C31.5814 90.8047 31.8614 90.5447 32.4614 90.5447H40.3214ZM63.5972 107.345C64.0972 107.345 64.3572 107.585 64.3572 108.045V109.365C64.3572 109.885 64.0772 110.125 63.5572 110.125H50.2972C49.7772 110.125 49.5172 109.905 49.5172 109.425V105.005C49.5172 104.545 49.7572 104.305 50.2372 104.305H51.9372C52.4172 104.305 52.6572 104.545 52.6572 105.005V107.345H63.5972ZM64.1772 102.305C64.1772 102.825 63.8972 103.085 63.3572 103.085H61.7572C61.1972 103.085 60.9372 102.845 60.9372 102.365V90.8447C60.9372 90.3847 61.1972 90.1447 61.7372 90.1447H63.3972C63.9172 90.1447 64.1772 90.3847 64.1772 90.8447V102.305ZM53.9372 92.4047C57.7772 92.0847 59.5372 95.2847 59.2172 102.025C59.2172 102.605 58.8972 102.905 58.2972 102.905H56.8572C56.3372 102.905 56.0972 102.645 56.0972 102.125C56.3372 97.0847 55.3172 94.8647 53.0372 95.4847C52.5972 97.4647 52.3772 99.6647 52.3772 102.085C52.3772 102.645 52.0772 102.905 51.4772 102.905H50.0372C49.4972 102.905 49.2372 102.665 49.2372 102.165C49.2372 97.7647 49.8772 94.1847 51.1572 91.4447C51.4772 90.8647 51.9172 90.5647 52.4772 90.5647H53.5372C54.2172 90.5647 54.4972 90.8047 54.3372 91.2847L53.9372 92.4047ZM81.1428 90.1647C81.6228 90.1647 81.8828 90.3847 81.8828 90.8247V109.465C81.8828 109.905 81.6428 110.125 81.1828 110.125H79.4628C78.9628 110.125 78.7228 109.885 78.7228 109.405V108.325H67.2228C66.7428 108.325 66.5028 108.085 66.5028 107.585V106.165C66.5028 105.685 66.7428 105.425 67.2228 105.425H78.7228V90.8847C78.7228 90.4047 78.9628 90.1647 79.4828 90.1647H81.1428ZM72.1628 104.525C71.0228 104.525 70.0828 104.385 69.3628 104.065C68.6228 103.765 68.0428 103.305 67.6228 102.705C67.2028 102.105 66.9028 101.365 66.7428 100.465C66.5828 99.5847 66.5028 98.5447 66.5028 97.3447C66.5028 96.1447 66.5828 95.0647 66.7628 94.1447C66.9428 93.2247 67.2428 92.4647 67.6628 91.8447C68.0828 91.2447 68.6428 90.7847 69.3628 90.4647C70.0628 90.1647 70.9428 90.0047 72.0228 90.0047C73.1628 90.0047 74.1028 90.1647 74.8628 90.4647C75.6028 90.7847 76.1828 91.2447 76.6228 91.8447C77.0428 92.4647 77.3428 93.2247 77.5228 94.1447C77.6828 95.0647 77.7828 96.1447 77.7828 97.3447C77.7828 98.5247 77.6828 99.5647 77.5028 100.445C77.3228 101.345 77.0228 102.105 76.5828 102.705C76.1428 103.305 75.5828 103.765 74.8628 104.065C74.1428 104.385 73.2428 104.525 72.1628 104.525ZM72.2028 92.5847C71.6628 92.5847 71.2228 92.6847 70.8628 92.8847C70.5028 93.0847 70.2228 93.3847 70.0228 93.7847C69.8228 94.1847 69.6828 94.6847 69.6028 95.2847C69.5228 95.8847 69.4828 96.5647 69.4828 97.3447V97.4847C69.4828 98.2047 69.5228 98.8447 69.6028 99.4047C69.6828 99.9647 69.8428 100.445 70.0428 100.825C70.2428 101.205 70.5228 101.485 70.8828 101.685C71.2428 101.885 71.6828 101.965 72.2028 101.965C73.1828 101.965 73.8628 101.585 74.2428 100.785C74.6228 99.9847 74.8228 98.8447 74.8228 97.3447C74.8228 95.7847 74.6228 94.5847 74.2428 93.7847C73.8628 92.9847 73.1828 92.5847 72.2028 92.5847ZM99.9897 90.5647C100.41 90.5647 100.63 90.8447 100.63 91.4047C100.63 91.9447 100.61 92.4447 100.61 92.9047H101.63V90.8447C101.63 90.3847 101.89 90.1447 102.43 90.1447H103.95C104.45 90.1447 104.71 90.3847 104.71 90.8447V104.565C104.71 105.025 104.47 105.245 103.99 105.245H102.35C101.87 105.245 101.63 105.005 101.63 104.485V96.0247H100.35C100.15 97.3247 99.8697 98.3247 99.4897 99.0047C99.2097 99.4647 98.7897 99.6847 98.2097 99.6847H96.9097C96.6097 99.6847 96.3897 99.6047 96.2697 99.4447C96.1497 99.2847 96.1697 99.0247 96.3497 98.6647C96.9897 97.5247 97.3097 95.9447 97.3497 93.9247C97.3897 93.6047 97.2497 93.4247 96.9297 93.4247H90.2497C89.8097 93.4247 89.5897 93.2047 89.5897 92.7447V91.2647C89.5897 90.8047 89.8097 90.5647 90.2497 90.5647H99.9897ZM103.95 107.285C104.45 107.285 104.71 107.525 104.71 108.005V109.425C104.71 109.905 104.43 110.145 103.91 110.145H90.3097C89.7897 110.145 89.5497 109.885 89.5497 109.365V105.525C89.5497 105.045 89.7697 104.805 90.2297 104.805H92.0497C92.5297 104.805 92.7697 105.045 92.7697 105.525V107.285H103.95ZM97.1097 105.045C97.1097 105.525 96.8497 105.785 96.3297 105.785H94.4897C93.9897 105.785 93.7497 105.545 93.7497 105.045V103.485H90.3897C89.8897 103.485 89.6497 103.245 89.6497 102.725V101.145C89.6497 100.665 89.8697 100.445 90.3297 100.445H100.11C100.59 100.445 100.85 100.745 100.85 101.325V102.645C100.85 103.205 100.59 103.485 100.07 103.485H97.1097V105.045ZM121.41 109.265C121.41 109.825 121.13 110.105 120.59 110.105H119.07C118.49 110.105 118.21 109.825 118.21 109.265V108.265C114.41 109.205 110.93 109.665 107.79 109.665C107.29 109.665 107.05 109.405 107.05 108.865V96.1847C107.05 95.7447 107.29 95.5047 107.79 95.5047H113.61V93.4847H107.91C107.33 93.4847 107.05 93.2447 107.05 92.7447V91.3647C107.05 90.8447 107.29 90.5647 107.81 90.5647H115.73C116.29 90.5647 116.57 90.8247 116.57 91.3247V97.5247C116.57 98.0847 116.27 98.3447 115.69 98.3447H110.05V106.605C112.97 106.485 115.69 105.965 118.21 105.025V90.8847C118.21 90.4047 118.49 90.1647 119.07 90.1647H120.65C121.15 90.1647 121.41 90.4247 121.41 90.9447V109.265ZM125.169 112.285C124.729 112.525 124.349 112.365 124.049 111.805C123.929 111.625 124.049 111.365 124.369 111.045C124.689 110.725 124.909 110.465 125.029 110.225C125.149 110.005 125.109 109.885 124.929 109.885C123.929 109.845 123.449 109.265 123.449 108.145C123.449 106.985 124.149 106.385 125.589 106.385C126.869 106.385 127.449 107.265 127.369 109.025C127.269 110.465 126.529 111.545 125.169 112.285ZM143.763 101.105C144.183 101.105 144.403 101.305 144.403 101.705V102.285H149.063C149.503 102.285 149.743 102.505 149.743 102.905V104.225C149.743 104.665 149.523 104.885 149.083 104.885H147.663C148.423 105.305 148.803 106.025 148.803 107.045C148.803 109.205 146.583 110.285 142.143 110.285C137.903 110.285 135.783 109.285 135.783 107.285C135.783 106.305 136.143 105.505 136.903 104.885H135.523C135.083 104.885 134.863 104.665 134.863 104.225V102.965C134.863 102.525 135.083 102.285 135.543 102.285H140.223V101.765C140.223 101.325 140.443 101.105 140.883 101.105H143.763ZM142.303 107.965C144.343 107.965 145.363 107.545 145.363 106.685C145.363 105.425 144.343 104.785 142.303 104.785C140.263 104.785 139.243 105.445 139.243 106.745C139.243 107.565 140.263 107.965 142.303 107.965ZM148.843 95.5447C147.083 95.8647 145.363 96.1247 143.663 96.3047V97.7647H148.923C149.463 97.7647 149.743 98.0447 149.743 98.5847V99.7847C149.743 100.305 149.463 100.565 148.943 100.565H135.703C135.143 100.565 134.863 100.285 134.863 99.7247V98.6447C134.863 98.0647 135.123 97.7647 135.663 97.7647H140.503V96.6247C138.763 96.7247 137.123 96.7647 135.603 96.7647C135.103 96.7647 134.863 96.5447 134.863 96.0647V90.8447C134.863 90.3647 135.143 90.1247 135.743 90.1247H137.183C137.743 90.1247 138.043 90.3647 138.043 90.8447V93.7247C141.563 93.6847 145.183 93.3047 148.923 92.5847C149.463 92.4847 149.743 92.6847 149.743 93.1847V94.5247C149.703 95.0847 149.403 95.4247 148.843 95.5447ZM156.209 93.7847L156.029 95.2447C159.889 94.4247 161.829 97.9447 161.829 105.825V109.145C161.829 109.645 161.549 109.885 161.009 109.885H159.629C159.069 109.885 158.789 109.645 158.789 109.145V105.665C158.789 100.065 157.729 97.8047 155.649 98.8847C155.329 102.365 155.189 105.765 155.229 109.125C155.229 109.645 154.949 109.905 154.389 109.905H152.929C152.369 109.905 152.089 109.645 152.089 109.085C152.029 103.285 152.349 98.1847 153.049 93.7847H152.509C152.069 93.7847 151.849 93.5447 151.849 93.0647V91.6847C151.849 91.2047 152.089 90.9647 152.589 90.9647H154.529V90.4647C154.529 90.0647 154.749 89.8447 155.189 89.8447H157.129C157.529 89.8447 157.729 90.0647 157.729 90.4647V90.9647H161.109C161.629 90.9647 161.909 91.2047 161.909 91.6847V92.9647C161.909 93.5247 161.629 93.7847 161.089 93.7847H156.209ZM163.269 91.0447C163.269 90.4647 163.569 90.1647 164.189 90.1647H165.589C166.229 90.1647 166.549 90.4447 166.549 91.0047V109.245C166.549 109.845 166.229 110.125 165.629 110.125H164.189C163.569 110.125 163.269 109.845 163.269 109.245V91.0447ZM173.126 93.3847C173.066 93.8847 173.006 94.3647 172.946 94.8447C176.666 94.0447 178.546 97.5847 178.546 105.425V109.145C178.546 109.645 178.266 109.885 177.726 109.885H176.346C175.786 109.885 175.506 109.645 175.506 109.145V105.265C175.506 99.6847 174.526 97.4247 172.566 98.4847C172.246 102.045 172.106 105.585 172.146 109.125C172.146 109.645 171.866 109.905 171.306 109.905H169.846C169.286 109.905 169.006 109.645 169.006 109.085C168.946 103.065 169.266 97.8247 169.966 93.3847H169.426C168.986 93.3847 168.766 93.1447 168.766 92.6647V91.2847C168.766 90.8047 169.006 90.5647 169.506 90.5647H177.826C178.346 90.5647 178.626 90.8047 178.626 91.2847V92.5647C178.626 93.1247 178.346 93.3847 177.806 93.3847H173.126ZM180.326 91.0447C180.326 90.4647 180.626 90.1647 181.246 90.1647H182.546C183.186 90.1647 183.506 90.4447 183.506 91.0047V109.245C183.506 109.845 183.186 110.125 182.586 110.125H181.246C180.626 110.125 180.326 109.845 180.326 109.245V91.0447ZM200.711 107.805C200.711 108.205 200.511 108.485 200.151 108.605C197.611 109.285 194.851 109.645 191.891 109.685C191.411 109.685 191.191 109.485 191.191 109.045V91.2847C191.191 90.8047 191.431 90.5647 191.951 90.5647H200.011C200.471 90.5647 200.711 90.8047 200.711 91.2847V107.805ZM194.251 106.925C195.451 106.905 196.551 106.725 197.551 106.405V93.3447H194.251V106.925ZM206.271 95.6447C206.791 95.6447 207.071 95.9047 207.071 96.3847V97.9647C207.071 98.5047 206.791 98.7647 206.251 98.7647H205.371V109.445C205.371 109.885 205.111 110.105 204.631 110.105H202.951C202.451 110.105 202.211 109.905 202.211 109.465V90.8647C202.211 90.4047 202.451 90.1647 202.971 90.1647H204.571C205.091 90.1647 205.371 90.4047 205.371 90.8847V95.6447H206.271ZM213.086 91.4047C213.046 91.7447 212.986 92.0847 212.946 92.4047C215.906 92.2047 217.386 95.8047 217.386 103.185V109.165C217.386 109.665 217.106 109.905 216.566 109.905H215.146C214.586 109.905 214.306 109.665 214.306 109.165V103.025C214.306 98.1447 213.726 95.8247 212.566 96.0647C212.166 100.425 211.966 104.765 212.006 109.125C212.006 109.645 211.726 109.905 211.166 109.905H209.646C209.086 109.905 208.806 109.645 208.806 109.085C208.746 102.125 209.126 96.2447 209.926 91.4047C210.026 90.8447 210.326 90.5647 210.826 90.5647H212.306C212.906 90.5647 213.166 90.8447 213.086 91.4047ZM218.666 92.1847V90.8847C218.666 90.4047 218.926 90.1647 219.486 90.1647H220.886C221.326 90.1647 221.586 90.4047 221.626 90.8647V109.445C221.626 109.905 221.346 110.125 220.786 110.125H219.506C218.946 110.125 218.666 109.885 218.666 109.385V95.3447H217.706C217.146 95.3447 216.886 95.1047 216.886 94.6247V92.9247C216.886 92.4447 217.146 92.1847 217.686 92.1847H218.666ZM222.526 90.8847C222.526 90.4047 222.786 90.1647 223.326 90.1647H224.706C225.166 90.1647 225.426 90.4047 225.466 90.8647V109.445C225.466 109.905 225.186 110.125 224.646 110.125H223.346C222.786 110.125 222.526 109.885 222.526 109.385V90.8847ZM231.192 106.665V104.085C230.552 103.965 230.032 103.685 229.612 103.265C229.172 102.865 228.832 102.345 228.572 101.725C228.292 101.125 228.112 100.425 227.992 99.6247C227.872 98.8447 227.812 98.0047 227.812 97.1247C227.812 95.9247 227.912 94.8847 228.152 93.9847C228.372 93.1047 228.752 92.3647 229.292 91.7647C229.832 91.1647 230.552 90.7247 231.472 90.4247C232.392 90.1247 233.532 89.9647 234.892 89.9647C236.192 89.9647 237.292 90.1247 238.192 90.4247C239.092 90.7247 239.832 91.1647 240.392 91.7647C240.952 92.3647 241.352 93.1047 241.592 93.9847C241.832 94.8847 241.972 95.9247 241.972 97.1247C241.972 98.0247 241.892 98.8647 241.772 99.6247C241.652 100.385 241.452 101.065 241.172 101.665C240.892 102.265 240.552 102.785 240.112 103.185C239.672 103.605 239.152 103.905 238.552 104.105V106.665H241.152C241.692 106.665 241.972 106.945 241.972 107.485V108.925C241.972 109.425 241.712 109.665 241.192 109.665H228.712C228.112 109.665 227.812 109.405 227.812 108.865V107.565C227.812 106.965 228.112 106.665 228.752 106.665H231.192ZM234.892 101.925C236.332 101.925 237.372 101.525 237.972 100.725C238.572 99.9247 238.892 98.7247 238.892 97.1247C238.892 95.6447 238.592 94.5447 237.992 93.8047C237.392 93.0847 236.352 92.7047 234.912 92.7047C233.472 92.7047 232.432 93.0847 231.832 93.8247C231.212 94.5647 230.912 95.6647 230.912 97.1247C230.912 97.9247 230.972 98.6247 231.112 99.2247C231.232 99.8247 231.452 100.325 231.772 100.725C232.072 101.125 232.472 101.425 232.992 101.625C233.492 101.825 234.132 101.925 234.892 101.925ZM234.892 104.645C234.732 104.645 234.592 104.645 234.472 104.645C234.332 104.645 234.192 104.625 234.072 104.605V106.665H235.652V104.605C235.532 104.625 235.392 104.645 235.272 104.645C235.152 104.645 235.012 104.645 234.892 104.645ZM245.516 90.1647H247.196C247.876 90.1647 248.196 90.6447 248.156 91.6247L247.716 104.205C247.636 104.745 247.356 105.025 246.876 105.065H245.736C245.256 105.085 244.976 104.825 244.896 104.285L244.356 91.6247C244.316 90.6447 244.716 90.1647 245.516 90.1647ZM245.376 110.105H247.376C248.076 110.145 248.436 109.865 248.436 109.245L248.276 107.465C248.236 106.885 247.956 106.585 247.476 106.585H245.436C244.956 106.585 244.716 106.825 244.676 107.305L244.476 109.245C244.456 109.825 244.756 110.105 245.376 110.105Z" fill="black"/>
</g>
<path d="M124.682 228.49C124.682 223.321 145.641 219.129 171.487 219.129C197.332 219.129 218.292 223.321 218.292 228.49V293.609C218.292 298.778 197.332 302.97 171.487 302.97C145.641 302.97 124.682 298.778 124.682 293.609" fill="#997642"/>
<path d="M162.125 228.49C162.125 223.321 166.317 219.129 171.486 219.129C176.655 219.129 180.847 223.321 180.847 228.49V293.609C180.847 298.778 176.655 302.97 171.486 302.97C166.317 302.97 162.125 298.778 162.125 293.609" fill="#D7BF95"/>
<path d="M218.302 302.965C213.133 302.965 208.941 298.773 208.941 293.604V228.485C208.941 223.316 213.133 219.124 218.302 219.124C223.472 219.124 227.663 223.316 227.663 228.485V293.604C227.663 298.773 223.472 302.965 218.302 302.965Z" fill="#D7BF95"/>
<path d="M124.679 302.965C119.51 302.965 115.318 298.773 115.318 293.604V228.485C115.318 223.316 119.51 219.124 124.679 219.124C129.849 219.124 134.04 223.316 134.04 228.485V293.604C134.04 298.773 129.849 302.965 124.679 302.965Z" fill="#D7BF95"/>
<path d="M180.852 213.308H162.125V240.913H180.852V213.308Z" fill="#C1966B"/>
<path d="M227.66 213.308H208.934V240.913H227.66V213.308Z" fill="#C1966B"/>
<path d="M134.045 213.308H115.318V240.913H134.045V213.308Z" fill="#C1966B"/>
<path fill-rule="evenodd" clip-rule="evenodd" d="M235.471 208.573L177.166 163.408C173.826 160.824 169.157 160.824 165.818 163.408L107.512 208.573V217.443H235.471V208.573Z" fill="#D7BF95"/>
<path d="M240.916 292.537H102.062C99.4755 292.537 97.3789 294.634 97.3789 297.22V311.259C97.3789 313.845 99.4755 315.942 102.062 315.942H240.916C243.502 315.942 245.598 313.845 245.598 311.259V297.22C245.598 294.634 243.502 292.537 240.916 292.537Z" fill="#E3D6C3"/>
<path fill-rule="evenodd" clip-rule="evenodd" d="M171.488 201.666C165.35 201.666 160.371 196.686 160.371 190.549C160.371 184.412 165.35 179.433 171.488 179.433C177.625 179.433 182.604 184.412 182.604 190.549C182.604 196.686 177.625 201.666 171.488 201.666Z" fill="#E3D6C3"/>
<path d="M240.916 209.028H102.062C99.4755 209.028 97.3789 211.125 97.3789 213.711V227.75C97.3789 230.337 99.4755 232.433 102.062 232.433H240.916C243.502 232.433 245.598 230.337 245.598 227.75V213.711C245.598 211.125 243.502 209.028 240.916 209.028Z" fill="#E3D6C3"/>
<path d="M62.7548 266.981C62.7548 266.981 79.9689 254.738 93.9182 254.738C107.867 254.738 122.732 259.19 128.42 261.416C130.152 259.809 134.579 256.593 138.437 256.593C143.26 256.593 160.326 272.917 165.149 274.401C169.972 275.885 185.924 281.45 185.553 284.789C185.182 288.128 171.827 290.725 161.439 287.757C188.256 326.938 180.794 327.113 179.035 327.739C178.724 327.85 177.981 328.207 174.603 327.739C176.408 330.346 179.718 336.284 178.514 339.172C177.311 342.06 174.804 341.579 173.701 340.977C175.399 343.234 178.815 350.455 176.709 352.862C175.024 354.787 172.869 354.42 172.002 353.995C189.543 367.683 208.546 416.424 215.855 439.084H20.1507C19.1034 394.053 33.4335 368.227 40.7294 360.943C39.1061 355.496 40.0531 352.621 40.7294 351.865C39.6658 351.562 37.13 350.503 35.4959 348.688C33.8619 346.872 36.1768 343.241 37.5386 341.652C36.1012 341.652 32.7271 340.699 30.7299 336.886C28.7326 333.073 34.4368 327.278 37.5386 324.857C34.9859 314.326 38.6022 302.708 40.7294 298.215C30.9144 298.844 19.353 297.141 18.2358 287.757C16.7518 275.291 47.2968 268.712 62.7548 266.981Z" fill="white"/>
<ellipse cx="78.8523" cy="299.56" rx="3.21946" ry="5.65047" fill="black"/>
<ellipse cx="124.057" cy="299.56" rx="3.21946" ry="5.65047" fill="black"/>
<path d="M116.63 309.153C107.169 309.468 103.665 313.402 103.095 315.329C102.557 316.951 106.261 319.869 109.796 320.712C113.331 321.555 123.726 320.191 126.354 319.14C128.983 318.088 129.771 311.781 129.377 310.598C128.983 309.416 128.457 308.758 116.63 309.153Z" fill="black" stroke="black" stroke-width="0.834503"/>
<path d="M115.331 319.612C114.904 324.102 113.123 332.63 109.19 337.345M93.5371 340.96C94.9662 341.853 99.4144 342.925 105.774 340.067C107.059 339.489 108.193 338.539 109.19 337.345M117.386 345.426C115.107 344.237 110.278 340.956 109.19 337.345" stroke="black" stroke-width="0.834503"/>
<path d="M142.55 309.148C142.456 308.864 142.149 308.71 141.865 308.804C141.581 308.898 141.426 309.205 141.521 309.489L142.55 309.148ZM77.8928 345.706C83.2116 349.054 92.2163 353.355 101.983 355.398C111.742 357.439 122.359 357.245 130.8 351.466L130.187 350.571C122.097 356.11 111.833 356.351 102.205 354.337C92.5865 352.325 83.701 348.081 78.4704 344.789L77.8928 345.706ZM130.8 351.466C139.219 345.701 142.924 337.421 144.14 329.45C145.354 321.491 144.093 313.808 142.55 309.148L141.521 309.489C143.018 314.012 144.252 321.521 143.068 329.286C141.885 337.04 138.299 345.017 130.187 350.571L130.8 351.466Z" fill="#E1E1E1"/>
<path d="M54.8691 439.085C63.6886 427.286 83.7588 402.472 93.4839 397.609C105.64 391.531 117.082 391.531 119.227 397.609C121.372 403.688 121.372 409.408 119.227 417.989C117.511 424.854 113.506 434.913 111.719 439.085" stroke="#B7B7B7" stroke-width="1.44788"/>
<path d="M201.29 401.37C206.416 406.497 214.668 410.477 218.154 411.826L183.724 415.628C180.81 417.621 175.184 422.956 175.994 428.353C176.803 433.749 181.484 437.572 183.724 438.808H111.91C117.082 429.139 125.536 406.834 117.981 394.962C118.779 393.366 121.381 390.721 126.151 390.336L192.183 383.494C200.644 388.425 194.881 394.962 201.29 401.37Z" fill="white"/>
<path d="M183.724 415.628L163.177 417.897C158.455 416.885 148.067 413.849 144.289 409.802C139.567 404.743 139.904 392.263 130.461 390.577C128.864 390.292 127.429 390.233 126.151 390.336M183.724 415.628L218.154 411.826C214.668 410.477 206.416 406.497 201.29 401.37C194.881 394.962 200.644 388.425 192.183 383.494L126.151 390.336M183.724 415.628C180.81 417.621 175.184 422.956 175.994 428.353C176.803 433.749 181.484 437.572 183.724 438.808H111.91C117.082 429.139 125.536 406.834 117.981 394.962C118.779 393.366 121.381 390.721 126.151 390.336" stroke="black" stroke-width="0.54218" stroke-linejoin="round"/>
<path d="M88.6067 271.827C77.9289 272.815 67.5149 268.943 63.6426 266.883V243.649L107.639 242.166V263.579C105.744 268.028 99.2845 270.838 88.6067 271.827Z" fill="black" stroke="black" stroke-width="0.54218"/>
<path d="M83.169 254.772L42.6328 240.189L83.169 222.64L125.929 240.189L83.169 254.772Z" fill="black" stroke="black" stroke-width="0.54218"/>
<path d="M44.5001 240.155C44.9941 242.872 45.4484 249.166 43.3144 252.605C41.1803 256.043 34.9161 258.78 32.0508 259.719" stroke="black" stroke-width="1.08436" stroke-linecap="round" stroke-linejoin="round"/>
<path d="M41.6733 254.587C40.4407 256.048 37.4004 259.353 35.0996 260.887" stroke="black" stroke-width="1.08436" stroke-linecap="round" stroke-linejoin="round"/>
<path d="M41.6755 254.587C41.3076 256.124 40.2858 259.705 39.142 261.728" stroke="black" stroke-width="1.08436" stroke-linecap="round" stroke-linejoin="round"/>
</g>
</g>
<defs>
<filter id="filter0_d_566_2419" x="0" y="0" width="293" height="441" filterUnits="userSpaceOnUse" color-interpolation-filters="sRGB">
<feFlood flood-opacity="0" result="BackgroundImageFix"/>
<feColorMatrix in="SourceAlpha" type="matrix" values="0 0 0 0 0 0 0 0 0 0 0 0 0 0 0 0 0 0 127 0" result="hardAlpha"/>
<feOffset dx="2" dy="4"/>
<feGaussianBlur stdDeviation="2"/>
<feComposite in2="hardAlpha" operator="out"/>
<feColorMatrix type="matrix" values="0 0 0 0 0 0 0 0 0 0 0 0 0 0 0 0 0 0 0.25 0"/>
<feBlend mode="normal" in2="BackgroundImageFix" result="effect1_dropShadow_566_2419"/>
<feBlend mode="normal" in="SourceGraphic" in2="effect1_dropShadow_566_2419" result="shape"/>
</filter>
<filter id="filter1_d_566_2419" x="23.792" y="82.0547" width="232.434" height="38.2597" filterUnits="userSpaceOnUse" color-interpolation-filters="sRGB">
<feFlood flood-opacity="0" result="BackgroundImageFix"/>
<feColorMatrix in="SourceAlpha" type="matrix" values="0 0 0 0 0 0 0 0 0 0 0 0 0 0 0 0 0 0 127 0" result="hardAlpha"/>
<feOffset/>
<feGaussianBlur stdDeviation="3.895"/>
<feComposite in2="hardAlpha" operator="out"/>
<feColorMatrix type="matrix" values="0 0 0 0 1 0 0 0 0 1 0 0 0 0 1 0 0 0 1 0"/>
<feBlend mode="normal" in2="BackgroundImageFix" result="effect1_dropShadow_566_2419"/>
<feBlend mode="normal" in="SourceGraphic" in2="effect1_dropShadow_566_2419" result="shape"/>
</filter>
<linearGradient id="paint0_linear_566_2419" x1="144.5" y1="0" x2="144.5" y2="433" gradientUnits="userSpaceOnUse">
<stop offset="0.139" stop-color="#DEF2EB"/>
<stop offset="1" stop-color="#B9E6E9"/>
</linearGradient>
<clipPath id="clip0_566_2419">
<rect x="2" width="285" height="433" rx="10" fill="white"/>
</clipPath>
</defs>
</svg>
