<svg width="294" height="442" viewBox="0 0 294 442" fill="none" xmlns="http://www.w3.org/2000/svg">
<g filter="url(#filter0_d_566_2450)">
<g clip-path="url(#clip0_566_2450)">
<rect x="2.06641" y="0.371094" width="285" height="433" rx="10" fill="url(#paint0_linear_566_2450)"/>
<path d="M124.608 -31.4609C124.717 -16.8237 119.664 17.7202 98.5864 38.7978C72.2393 65.145 41.3384 51.1583 8.81112 83.6856C-17.2107 109.707 -25.451 126.188 -26.3184 131.175" stroke="white" stroke-opacity="0.48" stroke-width="7.90056"/>
<path d="M168.905 -23.2676C169.013 -8.63036 163.961 25.9135 142.883 46.9912" stroke="white" stroke-opacity="0.48" stroke-width="7.90056" stroke-linecap="round"/>
<path d="M124.517 46.9932L127.081 54.7592L134.009 57.6329L127.081 60.5066L124.517 68.2726L121.953 60.5066L115.025 57.6329L121.953 54.7592L124.517 46.9932Z" fill="white" fill-opacity="0.62"/>
<rect x="21.1152" y="136.285" width="77.1211" height="14.0275" fill="#3E82CD"/>
<g filter="url(#filter1_d_566_2450)">
<path d="M30.0152 118.802C31.4952 118.802 32.7552 118.902 33.7552 119.062C34.7552 119.222 35.5552 119.482 36.1552 119.802C36.7552 120.122 37.1752 120.542 37.4352 121.042C37.6752 121.542 37.8152 122.122 37.8152 122.782C37.8152 123.442 37.6752 124.022 37.3952 124.502C37.1152 124.982 36.6552 125.402 36.0352 125.722C35.4152 126.042 34.6152 126.282 33.6352 126.442C32.6352 126.602 31.4352 126.682 30.0152 126.682C28.4952 126.682 27.2552 126.602 26.2552 126.442C25.2552 126.282 24.4752 126.042 23.8752 125.722C23.2752 125.402 22.8552 124.982 22.6152 124.502C22.3752 124.022 22.2552 123.442 22.2552 122.762C22.2552 122.122 22.3752 121.542 22.6352 121.042C22.8952 120.542 23.3352 120.122 23.9352 119.802C24.5352 119.482 25.3352 119.222 26.3352 119.062C27.3152 118.902 28.5352 118.802 30.0152 118.802ZM30.0552 124.242C30.9752 124.242 31.7352 124.222 32.3352 124.162C32.9352 124.102 33.3952 124.002 33.7552 123.882C34.0952 123.762 34.3352 123.602 34.4752 123.402C34.6152 123.222 34.6952 123.002 34.6952 122.762C34.6952 122.522 34.6152 122.302 34.4552 122.102C34.2952 121.922 34.0352 121.762 33.6752 121.642C33.3152 121.522 32.8352 121.422 32.2352 121.362C31.6352 121.302 30.8952 121.262 30.0152 121.262C29.1352 121.262 28.4152 121.302 27.8152 121.362C27.2152 121.422 26.7352 121.522 26.3752 121.642C26.0152 121.762 25.7352 121.922 25.5752 122.102C25.4152 122.302 25.3352 122.522 25.3352 122.762C25.3352 123.002 25.4152 123.222 25.5752 123.402C25.7352 123.602 25.9952 123.762 26.3552 123.882C26.7152 124.002 27.2152 124.102 27.8152 124.162C28.4152 124.222 29.1752 124.242 30.0552 124.242ZM30.9952 106.902C31.5952 106.902 31.9152 107.162 31.9152 107.642V108.782C31.9152 109.302 31.6352 109.542 31.0752 109.542H25.2152V115.102C27.9352 115.022 30.6352 114.662 33.2952 113.982V107.242C33.2952 106.762 33.5752 106.522 34.1552 106.522H35.6752C36.1552 106.522 36.3952 106.762 36.3952 107.242V109.762H37.4152C37.9152 109.762 38.1752 109.982 38.1752 110.402V112.002C38.1752 112.522 37.8952 112.782 37.3752 112.782H36.3952V117.222C36.3952 117.782 36.0752 118.062 35.4552 118.062H34.1952C33.5952 118.062 33.2952 117.822 33.2952 117.342V116.822C29.2552 117.542 25.8352 117.902 22.9952 117.902C22.4952 117.902 22.2552 117.682 22.2552 117.202V107.682C22.2552 107.162 22.5352 106.902 23.1352 106.902H30.9952ZM54.271 123.702C54.771 123.702 55.031 123.942 55.031 124.402V125.722C55.031 126.242 54.751 126.482 54.231 126.482H40.971C40.451 126.482 40.191 126.262 40.191 125.782V121.362C40.191 120.902 40.431 120.662 40.911 120.662H42.611C43.091 120.662 43.331 120.902 43.331 121.362V123.702H54.271ZM54.851 118.662C54.851 119.182 54.571 119.442 54.031 119.442H52.431C51.871 119.442 51.611 119.202 51.611 118.722V107.202C51.611 106.742 51.871 106.502 52.411 106.502H54.071C54.591 106.502 54.851 106.742 54.851 107.202V118.662ZM44.611 108.762C48.451 108.442 50.211 111.642 49.891 118.382C49.891 118.962 49.571 119.262 48.971 119.262H47.531C47.011 119.262 46.771 119.002 46.771 118.482C47.011 113.442 45.991 111.222 43.711 111.842C43.271 113.822 43.051 116.022 43.051 118.442C43.051 119.002 42.751 119.262 42.151 119.262H40.711C40.171 119.262 39.911 119.022 39.911 118.522C39.911 114.122 40.551 110.542 41.831 107.802C42.151 107.222 42.591 106.922 43.151 106.922H44.211C44.891 106.922 45.171 107.162 45.011 107.642L44.611 108.762ZM71.8166 106.522C72.2966 106.522 72.5566 106.742 72.5566 107.182V125.822C72.5566 126.262 72.3166 126.482 71.8566 126.482H70.1366C69.6366 126.482 69.3966 126.242 69.3966 125.762V124.682H57.8966C57.4166 124.682 57.1766 124.442 57.1766 123.942V122.522C57.1766 122.042 57.4166 121.782 57.8966 121.782H69.3966V107.242C69.3966 106.762 69.6366 106.522 70.1566 106.522H71.8166ZM62.8366 120.882C61.6966 120.882 60.7566 120.742 60.0366 120.422C59.2966 120.122 58.7166 119.662 58.2966 119.062C57.8766 118.462 57.5766 117.722 57.4166 116.822C57.2566 115.942 57.1766 114.902 57.1766 113.702C57.1766 112.502 57.2566 111.422 57.4366 110.502C57.6166 109.582 57.9166 108.822 58.3366 108.202C58.7566 107.602 59.3166 107.142 60.0366 106.822C60.7366 106.522 61.6166 106.362 62.6966 106.362C63.8366 106.362 64.7766 106.522 65.5366 106.822C66.2766 107.142 66.8566 107.602 67.2966 108.202C67.7166 108.822 68.0166 109.582 68.1966 110.502C68.3566 111.422 68.4566 112.502 68.4566 113.702C68.4566 114.882 68.3566 115.922 68.1766 116.802C67.9966 117.702 67.6966 118.462 67.2566 119.062C66.8166 119.662 66.2566 120.122 65.5366 120.422C64.8166 120.742 63.9166 120.882 62.8366 120.882ZM62.8766 108.942C62.3366 108.942 61.8966 109.042 61.5366 109.242C61.1766 109.442 60.8966 109.742 60.6966 110.142C60.4966 110.542 60.3566 111.042 60.2766 111.642C60.1966 112.242 60.1566 112.922 60.1566 113.702V113.842C60.1566 114.562 60.1966 115.202 60.2766 115.762C60.3566 116.322 60.5166 116.802 60.7166 117.182C60.9166 117.562 61.1966 117.842 61.5566 118.042C61.9166 118.242 62.3566 118.322 62.8766 118.322C63.8566 118.322 64.5366 117.942 64.9166 117.142C65.2966 116.342 65.4966 115.202 65.4966 113.702C65.4966 112.142 65.2966 110.942 64.9166 110.142C64.5366 109.342 63.8566 108.942 62.8766 108.942ZM88.4635 106.902C88.8835 106.902 89.0635 107.202 89.0235 107.802C88.9835 109.062 88.8435 110.222 88.6435 111.282H91.3035V107.242C91.3035 106.762 91.5435 106.522 92.0635 106.522H93.7235C94.2435 106.522 94.5235 106.742 94.5235 107.182V118.242C94.5235 118.762 94.2435 119.002 93.7035 119.002H92.1235C91.5635 119.002 91.3035 118.742 91.3035 118.222V114.402H87.7235C87.0635 115.962 86.1635 117.262 85.0435 118.302C84.4635 118.802 83.8435 119.042 83.1635 119.042H81.5835C81.1635 119.042 80.9035 118.942 80.8235 118.742C80.7435 118.542 80.8635 118.282 81.1835 118.002C83.7235 115.802 85.0635 113.222 85.2235 110.262C85.2635 109.922 85.1435 109.742 84.8235 109.742H80.7235C80.2635 109.742 80.0435 109.522 80.0435 109.042V107.622C80.0435 107.142 80.2635 106.902 80.7235 106.902H88.4635ZM81.1235 123.102C80.6435 123.102 80.4035 122.862 80.4035 122.382V121.042C80.4035 120.562 80.6435 120.302 81.1235 120.302H93.7835C94.3035 120.302 94.5635 120.542 94.5635 121.002V125.762C94.5635 126.242 94.3235 126.462 93.8435 126.462H92.1435C91.6635 126.462 91.4235 126.242 91.4235 125.762V123.102H81.1235ZM104.825 118.962C106.365 118.962 107.625 119.042 108.585 119.202C109.545 119.362 110.305 119.622 110.845 119.942C111.385 120.262 111.745 120.682 111.945 121.162C112.125 121.642 112.225 122.222 112.225 122.862C112.225 123.502 112.105 124.062 111.905 124.542C111.705 125.022 111.325 125.402 110.785 125.722C110.225 126.042 109.485 126.282 108.525 126.442C107.565 126.602 106.325 126.682 104.825 126.682C103.305 126.682 102.065 126.602 101.065 126.442C100.065 126.282 99.2646 126.042 98.6646 125.722C98.0646 125.402 97.6246 125.002 97.3846 124.522C97.1446 124.042 97.0246 123.482 97.0246 122.842C97.0246 122.202 97.1246 121.642 97.3646 121.162C97.5846 120.682 97.9846 120.262 98.5846 119.942C99.1646 119.622 99.9646 119.362 100.965 119.202C101.965 119.042 103.265 118.962 104.825 118.962ZM101.725 109.622C101.605 109.862 101.485 110.082 101.385 110.322C104.885 110.282 106.605 112.582 106.565 117.222C106.565 117.802 106.245 118.102 105.645 118.102H104.205C103.685 118.102 103.445 117.842 103.445 117.322C103.405 114.242 102.445 112.862 100.565 113.182C100.325 114.422 100.205 115.822 100.205 117.342C100.205 117.862 99.9046 118.102 99.3246 118.102H97.9646C97.4046 118.102 97.1246 117.822 97.1246 117.262C97.1246 114.622 97.5646 112.062 98.4246 109.622H97.3646C96.9446 109.622 96.7446 109.422 96.7446 109.002V107.542C96.7446 107.142 96.9446 106.922 97.3646 106.922H106.325C106.785 106.922 107.025 107.142 107.025 107.562V108.902C107.025 109.382 106.785 109.622 106.305 109.622H101.725ZM108.585 110.762V107.242C108.585 106.762 108.825 106.522 109.305 106.522H111.005C111.505 106.522 111.765 106.762 111.765 107.202V117.582C111.765 118.042 111.505 118.262 111.005 118.262H109.265C108.805 118.262 108.585 118.022 108.585 117.542V113.882H107.505C107.045 113.882 106.825 113.682 106.825 113.282V111.442C106.825 111.002 107.045 110.762 107.525 110.762H108.585ZM104.845 124.202C105.685 124.202 106.385 124.182 106.945 124.122C107.485 124.082 107.925 124.002 108.245 123.882C108.565 123.762 108.785 123.622 108.905 123.462C109.025 123.302 109.105 123.082 109.105 122.842C109.105 122.602 109.045 122.402 108.925 122.222C108.805 122.062 108.585 121.922 108.265 121.802C107.945 121.682 107.505 121.602 106.945 121.542C106.385 121.502 105.685 121.462 104.825 121.462C103.905 121.462 103.125 121.502 102.525 121.542C101.925 121.602 101.445 121.682 101.085 121.802C100.725 121.922 100.485 122.062 100.345 122.222C100.185 122.402 100.125 122.602 100.125 122.842C100.125 123.082 100.185 123.302 100.325 123.462C100.445 123.622 100.685 123.762 101.045 123.882C101.405 124.002 101.885 124.082 102.485 124.122C103.085 124.182 103.885 124.202 104.845 124.202ZM126.962 125.842C126.962 126.282 126.702 126.482 126.182 126.482H120.522C120.042 126.482 119.822 126.282 119.822 125.842V119.202C119.822 118.762 120.042 118.542 120.522 118.542H121.842C122.322 118.542 122.562 118.762 122.562 119.162V120.422H124.282V119.162C124.282 118.762 124.502 118.542 124.982 118.542H126.202C126.702 118.542 126.962 118.742 126.962 119.142V125.842ZM124.282 122.682H122.562V124.062H124.282V122.682ZM134.762 126.002C134.722 126.322 134.542 126.482 134.202 126.482H132.682C132.322 126.482 132.162 126.282 132.202 125.882C132.322 123.362 131.822 122.062 130.682 121.982C130.542 122.582 130.442 123.202 130.382 123.842C130.322 124.482 130.282 125.162 130.282 125.842C130.282 126.282 130.062 126.482 129.662 126.482H128.202C127.742 126.482 127.522 126.302 127.562 125.902C127.602 124.622 127.742 123.422 127.942 122.302C128.142 121.202 128.442 120.142 128.862 119.142C129.022 118.742 129.282 118.542 129.682 118.542H131.022C131.542 118.542 131.722 118.722 131.602 119.082L131.442 119.522C133.942 119.682 135.042 121.842 134.762 126.002ZM124.322 117.662C123.342 117.662 122.522 117.562 121.882 117.322C121.242 117.082 120.722 116.742 120.342 116.262C119.962 115.802 119.702 115.222 119.542 114.522C119.382 113.842 119.322 113.022 119.322 112.082C119.322 111.162 119.402 110.342 119.562 109.642C119.722 108.942 119.982 108.362 120.382 107.902C120.762 107.442 121.282 107.102 121.922 106.862C122.562 106.622 123.362 106.502 124.322 106.502C125.042 106.502 125.702 106.582 126.302 106.722C126.902 106.882 127.422 107.102 127.862 107.422C128.302 107.742 128.642 108.162 128.902 108.662C129.142 109.162 129.282 109.762 129.322 110.442H131.302V107.222C131.302 106.762 131.642 106.522 132.322 106.522H133.422C134.082 106.522 134.422 106.782 134.422 107.302V116.802C134.422 117.382 134.122 117.662 133.542 117.662H132.242C131.602 117.662 131.302 117.362 131.302 116.762V113.462H129.342C129.262 114.222 129.102 114.862 128.862 115.382C128.622 115.922 128.282 116.362 127.842 116.702C127.402 117.042 126.902 117.282 126.302 117.442C125.702 117.602 125.042 117.662 124.322 117.662ZM124.322 109.282C123.582 109.282 123.042 109.522 122.722 109.962C122.402 110.422 122.242 111.122 122.242 112.082C122.242 113.082 122.402 113.842 122.742 114.342C123.062 114.842 123.602 115.082 124.322 115.082C125.082 115.082 125.622 114.842 125.942 114.342C126.262 113.842 126.442 113.082 126.462 112.082C126.462 110.222 125.742 109.282 124.322 109.282ZM150.567 115.742C151.147 115.742 151.447 116.022 151.447 116.582V117.842C151.447 118.402 151.167 118.682 150.607 118.682H137.567C137.027 118.682 136.767 118.442 136.767 117.922V116.562C136.767 116.022 137.027 115.742 137.547 115.742H150.567ZM150.607 123.522C151.167 123.522 151.447 123.802 151.447 124.342V125.642C151.447 126.202 151.167 126.462 150.607 126.462H137.607C137.047 126.462 136.767 126.202 136.767 125.682V120.822C136.767 120.242 137.067 119.942 137.707 119.942H139.067C139.707 119.942 140.027 120.242 140.027 120.822V123.522H150.607ZM150.567 113.642C147.127 114.222 142.767 114.522 137.487 114.542C137.007 114.542 136.767 114.322 136.767 113.842V107.362C136.767 106.782 137.047 106.482 137.647 106.482H139.127C139.727 106.482 140.027 106.762 140.027 107.282V111.542C143.647 111.502 147.127 111.162 150.447 110.522C151.107 110.422 151.447 110.662 151.447 111.222V112.582C151.427 113.182 151.127 113.542 150.567 113.642ZM26.3752 131.742C26.3152 132.242 26.2552 132.722 26.1952 133.202C29.9152 132.402 31.7952 135.942 31.7952 143.782V147.502C31.7952 148.002 31.5152 148.242 30.9752 148.242H29.5952C29.0352 148.242 28.7552 148.002 28.7552 147.502V143.622C28.7552 138.042 27.7752 135.782 25.8152 136.842C25.4952 140.402 25.3552 143.942 25.3952 147.482C25.3952 148.002 25.1152 148.262 24.5552 148.262H23.0952C22.5352 148.262 22.2552 148.002 22.2552 147.442C22.1952 141.422 22.5152 136.182 23.2152 131.742H22.7752C22.3352 131.742 22.1152 131.502 22.1152 131.022V129.642C22.1152 129.162 22.3552 128.922 22.8552 128.922H31.0752C31.5952 128.922 31.8752 129.162 31.8752 129.642V130.922C31.8752 131.482 31.5952 131.742 31.0552 131.742H26.3752ZM37.3952 134.002C37.9552 134.002 38.2352 134.262 38.2352 134.742V136.282C38.2352 136.842 37.9752 137.122 37.4552 137.122H36.4752V147.702C36.4752 148.222 36.1952 148.462 35.6552 148.462H34.1152C33.5552 148.462 33.2752 148.222 33.2752 147.722V129.182C33.2752 128.742 33.5152 128.502 34.0352 128.502H35.6752C36.1952 128.502 36.4752 128.742 36.4752 129.222V134.002H37.3952ZM54.3868 128.502C54.8668 128.502 55.1268 128.742 55.1268 129.202V147.722C55.1268 148.222 54.8868 148.462 54.4268 148.462H52.7068C52.2268 148.462 51.9868 148.222 51.9868 147.742V144.762H45.8268V147.862C45.8268 148.282 45.6268 148.482 45.2268 148.462H43.3468C42.9068 148.462 42.7068 148.242 42.7068 147.782V144.762H40.8068C40.3268 144.762 40.0868 144.522 40.0868 144.022V142.702C40.0868 142.222 40.3068 141.982 40.7868 141.962H51.9868V129.222C51.9868 128.742 52.2268 128.502 52.7268 128.502H54.3868ZM44.8068 131.802C44.6868 132.102 44.5868 132.402 44.5068 132.682C48.8268 131.982 50.9868 134.462 50.9868 140.122C50.9868 140.682 50.7268 140.942 50.2068 140.942H48.7268C48.2068 140.942 47.9468 140.682 47.9468 140.162C47.9468 136.202 46.5868 134.662 43.8268 135.582C43.5868 137.022 43.4868 138.542 43.4868 140.142C43.4868 140.682 43.2068 140.942 42.6468 140.942H41.2268C40.7068 140.942 40.4668 140.682 40.4668 140.142C40.5668 136.542 40.9668 133.762 41.6868 131.802H40.8068C40.3468 131.802 40.1268 131.582 40.1268 131.142V129.782C40.1268 129.282 40.3668 129.022 40.8868 129.022H42.6068V128.622C42.6068 128.222 42.8068 128.002 43.2468 128.002H45.0068C45.4068 128.002 45.6068 128.222 45.6068 128.622V129.022H50.2468C50.7668 129.022 51.0268 129.262 51.0268 129.702V131.102C51.0268 131.582 50.7668 131.802 50.2668 131.802H44.8068ZM78.9816 139.422C78.9816 139.922 78.7016 140.162 78.1616 140.162H76.8616C76.3016 140.162 76.0216 139.942 76.0216 139.462V135.962H75.2216V139.422C75.2216 139.922 74.9416 140.162 74.3816 140.162H73.1216C72.5616 140.162 72.2816 139.942 72.2816 139.462V129.202C72.2816 128.742 72.5216 128.502 73.0416 128.502H74.4416C74.9616 128.502 75.2216 128.742 75.2216 129.222V132.802H76.0216V129.202C76.0216 128.742 76.2616 128.502 76.7816 128.502H78.2016C78.7216 128.502 78.9816 128.742 78.9816 129.222V139.422ZM67.4016 130.762C70.3216 130.442 71.6016 133.282 71.2816 139.282C71.2816 139.862 70.9616 140.162 70.3616 140.162H68.9216C68.4016 140.162 68.1616 139.902 68.1616 139.382C68.4016 135.062 67.8416 133.222 66.5016 133.842C66.0616 135.822 65.8416 137.662 65.8416 139.342C65.8416 139.902 65.5416 140.162 64.9416 140.162H63.5016C62.9616 140.162 62.7016 139.922 62.7016 139.422C62.7016 135.742 63.3416 132.542 64.6216 129.802C64.9416 129.222 65.3816 128.922 65.9416 128.922H67.0016C67.6816 128.922 67.9616 129.162 67.8016 129.642L67.4016 130.762ZM71.2416 140.962C72.7816 140.962 74.0616 141.042 75.0816 141.202C76.1016 141.362 76.9216 141.622 77.5216 141.942C78.1216 142.262 78.5616 142.682 78.8016 143.162C79.0416 143.642 79.1816 144.222 79.1816 144.862C79.1816 145.502 79.0416 146.062 78.7816 146.542C78.5216 147.022 78.0816 147.402 77.4616 147.722C76.8416 148.042 76.0216 148.282 75.0216 148.442C74.0016 148.602 72.7416 148.682 71.2416 148.682C69.7216 148.682 68.4416 148.602 67.4016 148.442C66.3416 148.282 65.4816 148.042 64.8216 147.722C64.1416 147.402 63.6616 147.002 63.3616 146.522C63.0416 146.042 62.9016 145.482 62.9016 144.842C62.9016 144.202 63.0416 143.642 63.3216 143.162C63.6016 142.682 64.0816 142.262 64.7216 141.942C65.3616 141.622 66.2216 141.362 67.3016 141.202C68.3616 141.042 69.6816 140.962 71.2416 140.962ZM71.2616 146.242C72.9616 146.242 74.1816 146.142 74.9416 145.902C75.6816 145.662 76.0616 145.322 76.0616 144.842C76.0616 144.382 75.6816 144.022 74.9416 143.782C74.2016 143.542 72.9616 143.422 71.2416 143.422C69.4016 143.422 68.0616 143.542 67.2416 143.782C66.4016 144.022 66.0016 144.382 66.0016 144.842C66.0016 145.082 66.0816 145.302 66.2816 145.462C66.4616 145.642 66.7616 145.782 67.1816 145.902C67.6016 146.022 68.1416 146.102 68.8216 146.162C69.4816 146.222 70.3016 146.242 71.2616 146.242ZM94.8977 128.522C95.4177 128.522 95.6977 128.762 95.6977 129.202V132.242H96.7977C97.2577 132.242 97.4977 132.442 97.4977 132.842V134.442C97.4977 134.882 97.2577 135.102 96.8177 135.102H95.6977V139.522C95.6977 140.002 95.3977 140.242 94.8177 140.242H93.3177C92.7577 140.242 92.4977 140.002 92.4977 139.522H82.0977C81.5777 139.522 81.3377 139.262 81.3377 138.722V137.502C81.3377 137.022 81.5777 136.762 82.0777 136.762H84.7777V136.122C82.6177 136.002 81.5377 135.222 81.5377 133.822C81.5577 133.042 81.7977 132.522 82.2777 132.262H82.0177C81.5377 132.262 81.2977 132.042 81.2977 131.602V130.202C81.2977 129.762 81.4977 129.542 81.8977 129.542H84.5577V129.002C84.5577 128.602 84.7777 128.382 85.2577 128.382H87.1977C87.6177 128.382 87.8377 128.602 87.8377 129.002V129.542H90.6977C91.1777 129.542 91.4377 129.782 91.4377 130.222V131.602C91.4377 132.042 91.2177 132.262 90.7777 132.262H90.1377C90.6577 132.582 90.9177 133.122 90.9177 133.862C90.9177 135.242 89.7977 136.002 87.5777 136.122V136.782H92.4977V129.282C92.4977 128.782 92.7577 128.522 93.2977 128.522H94.8977ZM95.9577 146.122C96.4377 146.122 96.6777 146.382 96.6777 146.862V147.702C96.6777 148.222 96.4177 148.462 95.8977 148.462H82.1577C81.6377 148.462 81.3777 148.222 81.3777 147.742V144.562C81.3777 144.042 81.6177 143.782 82.1377 143.782H93.8577V143.162H82.1377C81.6577 143.162 81.4177 142.942 81.4177 142.482V141.562C81.4177 141.062 81.6577 140.802 82.1777 140.802H95.8777C96.4177 140.802 96.6977 141.062 96.6977 141.582V144.742C96.6977 145.262 96.4177 145.522 95.8977 145.522H84.2177V146.122H95.9577ZM86.2377 132.262C85.0777 132.262 84.4977 132.622 84.4977 133.322C84.4977 133.942 85.0577 134.242 86.1777 134.242C87.3377 134.242 87.9177 133.942 87.9177 133.322C87.9177 132.622 87.3577 132.262 86.2377 132.262ZM100.283 139.542C99.7627 139.542 99.5227 139.302 99.5227 138.782V137.622C99.5227 137.062 99.7827 136.782 100.323 136.782H113.703C114.183 136.782 114.423 137.042 114.423 137.542V138.822C114.423 139.302 114.183 139.542 113.703 139.542H100.283ZM106.943 128.322C108.403 128.322 109.623 128.402 110.583 128.562C111.543 128.722 112.323 128.962 112.883 129.282C113.443 129.602 113.843 130.022 114.083 130.502C114.303 131.002 114.423 131.582 114.423 132.242C114.423 132.922 114.303 133.502 114.083 133.982C113.843 134.482 113.463 134.882 112.903 135.202C112.343 135.522 111.563 135.762 110.603 135.922C109.643 136.082 108.423 136.162 106.943 136.162C105.463 136.162 104.263 136.082 103.303 135.922C102.343 135.762 101.603 135.522 101.043 135.202C100.483 134.882 100.083 134.482 99.8627 133.982C99.6227 133.502 99.5227 132.922 99.5227 132.242C99.5227 131.582 99.6227 131.002 99.8427 130.502C100.043 130.022 100.423 129.602 100.983 129.282C101.543 128.962 102.303 128.722 103.263 128.562C104.223 128.402 105.443 128.322 106.943 128.322ZM106.943 133.702C107.823 133.702 108.543 133.682 109.103 133.622C109.663 133.582 110.123 133.482 110.443 133.362C110.763 133.242 111.003 133.102 111.123 132.922C111.243 132.742 111.323 132.522 111.323 132.242C111.323 132.002 111.243 131.782 111.103 131.602C110.963 131.422 110.723 131.262 110.403 131.142C110.063 131.022 109.623 130.942 109.063 130.882C108.503 130.842 107.783 130.802 106.943 130.802C106.103 130.802 105.403 130.842 104.843 130.882C104.283 130.942 103.843 131.022 103.523 131.142C103.203 131.262 102.963 131.422 102.823 131.602C102.683 131.782 102.623 132.002 102.623 132.242C102.623 132.522 102.683 132.742 102.803 132.922C102.923 133.102 103.163 133.242 103.483 133.362C103.803 133.482 104.243 133.582 104.803 133.622C105.363 133.682 106.063 133.702 106.943 133.702ZM102.383 145.262V145.942H113.783C114.203 145.942 114.423 146.142 114.423 146.522V147.802C114.423 148.242 114.183 148.462 113.723 148.462H100.443C99.8227 148.462 99.5227 148.182 99.5227 147.622V144.282C99.5227 143.722 99.7827 143.422 100.323 143.422H111.463V142.762H100.363C99.8027 142.762 99.5227 142.542 99.5227 142.082V141.042C99.5227 140.542 99.7427 140.282 100.223 140.282H113.543C114.123 140.282 114.423 140.522 114.423 140.962V144.702C114.423 145.082 114.183 145.262 113.723 145.262H102.383ZM136.239 128.522C136.719 128.522 136.979 128.762 136.979 129.222V147.742C136.979 148.242 136.739 148.482 136.279 148.482H134.559C134.059 148.482 133.819 148.242 133.819 147.762V145.222H128.259V147.882C128.259 148.322 128.059 148.522 127.679 148.482H125.539C125.179 148.482 124.999 148.302 124.999 147.902V145.222H122.739C122.259 145.222 122.019 145.022 122.019 144.582V143.022C122.019 142.602 122.259 142.382 122.779 142.342H133.819V129.242C133.819 128.762 134.059 128.522 134.579 128.522H136.239ZM127.299 141.442C126.259 141.442 125.379 141.322 124.699 141.042C124.019 140.762 123.479 140.362 123.079 139.802C122.679 139.262 122.399 138.582 122.239 137.762C122.079 136.942 121.999 135.982 121.999 134.882C121.999 133.822 122.079 132.902 122.259 132.102C122.419 131.302 122.719 130.642 123.139 130.102C123.539 129.582 124.099 129.182 124.779 128.922C125.459 128.662 126.299 128.522 127.299 128.522C128.339 128.522 129.219 128.662 129.899 128.922C130.579 129.182 131.139 129.582 131.559 130.102C131.959 130.642 132.259 131.302 132.419 132.102C132.579 132.902 132.679 133.822 132.679 134.882C132.679 135.962 132.579 136.922 132.419 137.742C132.259 138.562 131.959 139.242 131.559 139.802C131.139 140.362 130.579 140.762 129.899 141.042C129.219 141.322 128.339 141.442 127.299 141.442ZM127.339 131.102C126.459 131.102 125.839 131.422 125.519 132.042C125.199 132.682 125.039 133.622 125.039 134.882C125.019 136.222 125.159 137.222 125.479 137.882C125.799 138.562 126.419 138.882 127.339 138.882C128.239 138.882 128.859 138.562 129.199 137.882C129.519 137.202 129.699 136.202 129.699 134.882C129.699 133.642 129.519 132.702 129.199 132.062C128.859 131.422 128.239 131.102 127.339 131.102ZM143.646 148.482C142.766 148.482 142.066 148.342 141.506 148.042C140.946 147.762 140.486 147.322 140.166 146.742C139.846 146.162 139.606 145.422 139.486 144.542C139.366 143.662 139.306 142.642 139.306 141.482C139.306 139.642 139.386 138.142 139.546 137.002C139.706 135.862 139.986 135.062 140.386 134.582H139.846C139.406 134.582 139.206 134.382 139.206 133.962V132.222C139.206 131.822 139.386 131.602 139.786 131.602H147.686C147.926 131.602 148.086 131.642 148.206 131.702C148.306 131.762 148.366 131.882 148.366 132.062V133.842C148.366 134.062 148.306 134.242 148.206 134.382C148.106 134.522 147.966 134.582 147.766 134.582H147.126C147.446 135.042 147.686 135.822 147.826 136.942C147.946 138.062 148.026 139.562 148.026 141.422C148.026 142.582 147.946 143.622 147.826 144.502C147.686 145.382 147.446 146.122 147.126 146.702C146.786 147.302 146.326 147.742 145.766 148.042C145.206 148.342 144.486 148.482 143.646 148.482ZM155.866 147.742C155.866 148.242 155.626 148.482 155.166 148.482H153.706C153.186 148.482 152.926 148.262 152.926 147.822V137.162H152.026V147.782C152.026 148.262 151.766 148.482 151.286 148.482H149.846C149.326 148.482 149.086 148.262 149.086 147.782V129.162C149.086 128.742 149.286 128.522 149.706 128.522H151.386C151.806 128.522 152.026 128.742 152.026 129.142V134.002H152.926V129.202C152.926 128.762 153.166 128.522 153.646 128.522H155.146C155.626 128.522 155.866 128.762 155.866 129.222V147.742ZM143.666 134.582C143.346 134.582 143.106 134.742 142.926 135.042C142.746 135.342 142.606 135.782 142.526 136.362C142.426 136.942 142.366 137.662 142.346 138.522C142.306 139.382 142.306 140.362 142.306 141.482C142.306 142.202 142.306 142.842 142.346 143.382C142.386 143.942 142.446 144.382 142.566 144.742C142.666 145.102 142.806 145.382 143.006 145.562C143.206 145.742 143.446 145.822 143.766 145.822C144.306 145.822 144.666 145.462 144.826 144.742C144.986 144.022 145.066 142.942 145.066 141.482C145.066 139.242 144.966 137.522 144.806 136.342C144.626 135.182 144.246 134.582 143.666 134.582ZM141.366 130.962C140.926 130.962 140.726 130.742 140.726 130.302V129.102C140.726 128.702 140.946 128.502 141.386 128.502H146.006C146.426 128.502 146.646 128.702 146.646 129.082V130.302C146.646 130.742 146.426 130.962 146.006 130.962H141.366ZM178.624 147.402C178.624 148.122 178.224 148.462 177.464 148.462H164.824C164.184 148.462 163.884 148.202 163.884 147.682V142.782C163.884 142.222 164.184 141.942 164.824 141.942H177.704C178.304 141.942 178.624 142.182 178.624 142.662V147.402ZM175.504 144.422H166.884V146.022H175.504V144.422ZM168.324 141.022C166.784 141.022 165.624 140.702 164.844 140.062C164.044 139.422 163.664 138.382 163.664 136.962C163.664 136.722 163.664 136.482 163.704 136.242C163.744 136.002 163.784 135.762 163.844 135.522C163.904 135.302 163.984 135.102 164.084 134.902C164.164 134.702 164.284 134.542 164.404 134.422H163.984C163.604 134.422 163.424 134.162 163.424 133.642V132.162C163.424 131.682 163.664 131.442 164.164 131.442H172.704C173.184 131.442 173.444 131.682 173.444 132.142V133.722C173.444 134.202 173.204 134.422 172.724 134.422H172.464C172.644 134.702 172.784 135.042 172.884 135.482C172.964 135.922 173.024 136.402 173.024 136.962C173.024 138.382 172.624 139.422 171.824 140.062C171.024 140.702 169.864 141.022 168.324 141.022ZM168.424 134.422C168.164 134.422 167.924 134.462 167.724 134.542C167.524 134.622 167.344 134.742 167.204 134.902C167.044 135.082 166.944 135.322 166.864 135.622C166.784 135.942 166.744 136.322 166.744 136.762C166.744 137.482 166.884 138.002 167.164 138.282C167.444 138.562 167.844 138.702 168.384 138.702C168.884 138.702 169.264 138.562 169.544 138.242C169.824 137.922 169.964 137.402 169.964 136.662C169.964 135.782 169.824 135.202 169.564 134.882C169.304 134.582 168.924 134.422 168.424 134.422ZM165.404 130.742C164.964 130.742 164.764 130.502 164.764 130.022V128.962C164.764 128.482 165.004 128.222 165.504 128.222H171.184C171.664 128.222 171.924 128.442 171.924 128.882V130.022C171.924 130.502 171.664 130.742 171.184 130.742H165.404ZM178.764 133.202C179.244 133.202 179.484 133.442 179.484 133.902V135.582C179.484 136.082 179.224 136.322 178.724 136.322H177.644V140.182C177.644 140.722 177.364 140.982 176.844 140.982H175.244C174.684 140.982 174.424 140.722 174.424 140.182V129.262C174.424 128.782 174.684 128.522 175.204 128.522H176.864C177.384 128.522 177.644 128.762 177.644 129.222V133.202H178.764ZM184.249 132.262C184.269 131.962 184.129 131.802 183.829 131.802H181.689C181.169 131.802 180.909 131.562 180.909 131.042V129.722C180.909 129.202 181.149 128.922 181.649 128.922H190.969C191.529 128.922 191.829 129.282 191.829 129.982C191.829 131.402 191.789 132.742 191.729 134.002H192.829V129.262C192.829 128.742 193.089 128.482 193.649 128.482H195.049C195.529 128.482 195.789 128.742 195.789 129.242V147.682C195.789 148.202 195.509 148.462 194.969 148.462H193.669C193.109 148.462 192.829 148.202 192.829 147.682V137.122H191.489C191.049 141.502 190.149 144.922 188.789 147.362C188.549 147.822 188.169 148.042 187.649 148.042H186.269C185.869 148.042 185.589 147.962 185.469 147.782C185.349 147.622 185.369 147.362 185.529 147.002C187.569 143.002 188.589 138.102 188.589 132.262C188.609 131.962 188.469 131.802 188.169 131.802H187.429C187.349 137.802 186.209 143.002 183.989 147.362C183.749 147.822 183.329 148.042 182.709 148.042H181.489C181.189 148.042 180.989 147.962 180.869 147.762C180.749 147.582 180.809 147.242 181.069 146.722C183.189 142.362 184.249 137.542 184.249 132.262ZM196.569 129.242C196.569 128.742 196.829 128.482 197.369 128.482H198.769C199.269 128.482 199.529 128.742 199.529 129.242V147.682C199.529 148.202 199.249 148.462 198.689 148.462H197.389C196.829 148.462 196.569 148.202 196.569 147.682V129.242ZM212.236 139.702C209.196 139.702 207.696 138.662 207.696 136.562C207.696 135.662 207.936 134.942 208.436 134.402H207.696C207.316 134.402 207.136 134.162 207.136 133.642V132.362C207.136 131.782 207.376 131.482 207.876 131.482H216.616C217.016 131.482 217.236 131.682 217.236 132.062V133.742C217.236 134.182 217.016 134.402 216.616 134.402H216.256C216.616 134.882 216.816 135.542 216.816 136.382C216.816 138.582 215.276 139.702 212.236 139.702ZM212.276 134.402C211.136 134.402 210.576 135.002 210.576 136.162C210.576 137.082 211.156 137.522 212.356 137.522C213.416 137.522 213.956 137.082 213.956 136.162C213.956 135.002 213.396 134.402 212.276 134.402ZM209.636 130.962C209.196 130.962 208.996 130.722 208.996 130.242V129.222C208.996 128.742 209.236 128.502 209.736 128.502H214.796C215.276 128.502 215.516 128.722 215.516 129.162V130.302C215.516 130.742 215.296 130.962 214.876 130.962H209.636ZM210.496 145.362V146.122H221.596C222.036 146.122 222.276 146.302 222.276 146.702V147.782C222.276 148.242 222.036 148.462 221.596 148.462H208.396C207.756 148.462 207.456 148.182 207.456 147.622V144.382C207.456 143.822 207.716 143.522 208.236 143.522H219.236V142.742H208.316C207.736 142.742 207.456 142.522 207.456 142.082V141.242C207.456 140.722 207.676 140.462 208.156 140.462H221.376C221.976 140.462 222.276 140.702 222.276 141.162V144.782C222.276 145.182 222.036 145.362 221.596 145.362H210.496ZM222.356 132.442C222.876 132.442 223.156 132.722 223.156 133.242V134.562C223.156 135.162 222.876 135.462 222.336 135.462H221.276V138.762C221.276 139.362 220.996 139.662 220.476 139.662H219.056C218.456 139.662 218.156 139.382 218.156 138.802V129.302C218.156 128.782 218.496 128.522 219.176 128.522H220.276C220.936 128.522 221.276 128.762 221.276 129.222V132.442H222.356ZM229.489 132.262C229.489 131.962 229.289 131.802 228.929 131.802H225.629C225.109 131.802 224.849 131.562 224.849 131.062V129.662C224.849 129.182 225.109 128.922 225.629 128.922H232.009C232.569 128.922 232.849 129.282 232.849 129.982C232.849 131.502 232.789 132.842 232.709 134.002H233.949V129.222C233.949 128.762 234.209 128.522 234.729 128.522H236.129C236.649 128.522 236.909 128.762 236.909 129.222V147.582C236.909 148.182 236.649 148.462 236.129 148.462H234.729C234.209 148.462 233.949 148.182 233.949 147.582V137.122H232.349C231.609 142.482 230.429 145.982 228.809 147.602C228.469 147.942 227.929 148.102 227.209 148.102H226.089C225.689 148.102 225.429 147.982 225.329 147.722C225.209 147.462 225.369 147.142 225.769 146.782C228.329 144.002 229.569 139.162 229.489 132.262ZM237.749 129.222C237.749 128.762 238.009 128.522 238.529 128.522H239.929C240.429 128.522 240.689 128.762 240.689 129.222V147.582C240.689 148.182 240.429 148.462 239.929 148.462H238.529C238.009 148.462 237.749 148.182 237.749 147.582V129.222ZM246.416 145.022V142.442C245.776 142.322 245.256 142.042 244.836 141.622C244.396 141.222 244.056 140.702 243.796 140.082C243.516 139.482 243.336 138.782 243.216 137.982C243.096 137.202 243.036 136.362 243.036 135.482C243.036 134.282 243.136 133.242 243.376 132.342C243.596 131.462 243.976 130.722 244.516 130.122C245.056 129.522 245.776 129.082 246.696 128.782C247.616 128.482 248.756 128.322 250.116 128.322C251.416 128.322 252.516 128.482 253.416 128.782C254.316 129.082 255.056 129.522 255.616 130.122C256.176 130.722 256.576 131.462 256.816 132.342C257.056 133.242 257.196 134.282 257.196 135.482C257.196 136.382 257.116 137.222 256.996 137.982C256.876 138.742 256.676 139.422 256.396 140.022C256.116 140.622 255.776 141.142 255.336 141.542C254.896 141.962 254.376 142.262 253.776 142.462V145.022H256.376C256.916 145.022 257.196 145.302 257.196 145.842V147.282C257.196 147.782 256.936 148.022 256.416 148.022H243.936C243.336 148.022 243.036 147.762 243.036 147.222V145.922C243.036 145.322 243.336 145.022 243.976 145.022H246.416ZM250.116 140.282C251.556 140.282 252.596 139.882 253.196 139.082C253.796 138.282 254.116 137.082 254.116 135.482C254.116 134.002 253.816 132.902 253.216 132.162C252.616 131.442 251.576 131.062 250.136 131.062C248.696 131.062 247.656 131.442 247.056 132.182C246.436 132.922 246.136 134.022 246.136 135.482C246.136 136.282 246.196 136.982 246.336 137.582C246.456 138.182 246.676 138.682 246.996 139.082C247.296 139.482 247.696 139.782 248.216 139.982C248.716 140.182 249.356 140.282 250.116 140.282ZM250.116 143.002C249.956 143.002 249.816 143.002 249.696 143.002C249.556 143.002 249.416 142.982 249.296 142.962V145.022H250.876V142.962C250.756 142.982 250.616 143.002 250.496 143.002C250.376 143.002 250.236 143.002 250.116 143.002ZM260.74 128.522H262.42C263.1 128.522 263.42 129.002 263.38 129.982L262.94 142.562C262.86 143.102 262.58 143.382 262.1 143.422H260.96C260.48 143.442 260.2 143.182 260.12 142.642L259.58 129.982C259.54 129.002 259.94 128.522 260.74 128.522ZM260.6 148.462H262.6C263.3 148.502 263.66 148.222 263.66 147.602L263.5 145.822C263.46 145.242 263.18 144.942 262.7 144.942H260.66C260.18 144.942 259.94 145.182 259.9 145.662L259.7 147.602C259.68 148.182 259.98 148.462 260.6 148.462Z" fill="black"/>
</g>
<g clip-path="url(#clip1_566_2450)">
<path d="M1208.75 158.354H-376.67V393.902H1208.75V158.354Z" stroke="#F24253" stroke-width="9.05952" stroke-miterlimit="10"/>
<path d="M184.788 193.085L119.197 220.019C116.366 221.183 114.518 223.942 114.518 227.004V268.578H184.788V193.085Z" fill="#9DC8F9"/>
<path d="M114.518 268.578V286.973C114.518 315.307 151.557 342.839 184.788 359.173V268.578H114.518Z" fill="#4582ED"/>
<path d="M184.791 359.173C218.021 342.839 255.061 315.307 255.061 286.973V268.578H184.791V359.173Z" fill="#72A6F7"/>
<path d="M184.791 193.085V268.582H255.061V227.008C255.061 223.946 253.213 221.188 250.382 220.023L184.791 193.085Z" fill="#4582ED"/>
</g>
<path d="M59.8493 269.601C59.8493 269.601 75.3023 257.998 87.8245 257.998C100.347 257.998 113.69 262.217 118.797 264.327C120.351 262.803 124.325 259.756 127.789 259.756C132.119 259.756 147.438 275.226 151.768 276.632C156.097 278.039 170.418 283.313 170.085 286.477C169.752 289.641 157.762 292.103 148.437 289.29C172.512 326.423 165.813 326.588 164.233 327.181C163.954 327.286 163.287 327.625 160.255 327.181C161.876 329.653 164.847 335.279 163.766 338.017C162.686 340.754 160.435 340.298 159.445 339.727C160.97 341.866 164.036 348.709 162.146 350.99C160.633 352.815 158.698 352.467 157.92 352.065C173.667 365.036 190.726 411.229 197.287 432.704H21.6037C20.6636 390.027 33.5277 365.552 40.0772 358.649C38.62 353.487 39.47 350.763 40.0772 350.046C39.1224 349.759 36.846 348.755 35.3791 347.035C33.9122 345.314 35.9903 341.872 37.2128 340.367C35.9224 340.367 32.8935 339.463 31.1006 335.85C29.3077 332.236 34.4283 326.744 37.2128 324.45C34.9212 314.47 38.1676 303.459 40.0772 299.201C31.2663 299.797 20.8877 298.184 19.8847 289.29C18.5526 277.476 45.9727 271.241 59.8493 269.601Z" fill="white"/>
<ellipse cx="74.2983" cy="300.476" rx="2.89009" ry="5.35499" fill="black"/>
<ellipse cx="114.878" cy="300.476" rx="2.89009" ry="5.35499" fill="black"/>
<path d="M108.215 309.567C99.7216 309.865 96.5759 313.593 96.0647 315.42C95.581 316.957 98.9066 319.722 102.08 320.521C105.253 321.32 114.585 320.028 116.944 319.031C119.303 318.035 120.011 312.057 119.657 310.937C119.303 309.816 118.832 309.193 108.215 309.567Z" fill="black" stroke="black" stroke-width="0.790865"/>
<path d="M107.047 319.479C106.663 323.735 105.064 331.816 101.534 336.285M87.4824 339.711C88.7653 340.557 92.7584 341.573 98.4675 338.864C99.6212 338.317 100.639 337.417 101.534 336.285M108.891 343.943C106.846 342.816 102.511 339.707 101.534 336.285" stroke="black" stroke-width="0.790865"/>
<path d="M138.641 355.979C102.387 367.523 67.074 362.88 53.9492 359.116C57.119 365.233 69.3127 377.468 92.7293 377.468C116.146 377.468 133.094 363.142 138.641 355.979Z" fill="#3E82CD"/>
<ellipse cx="90.8515" cy="381.816" rx="3.57414" ry="3.77326" fill="#D9D9D9"/>
<ellipse cx="101.574" cy="370.496" rx="3.57414" ry="3.77326" fill="#D9D9D9"/>
<ellipse cx="94.4257" cy="385.588" rx="3.57414" ry="3.77326" fill="#D9D9D9"/>
<ellipse cx="105.148" cy="374.269" rx="3.57414" ry="3.77326" fill="#D9D9D9"/>
<rect width="6.76706" height="14.757" transform="matrix(0.640197 0.768211 -0.732709 0.680542 100.898 370.496)" fill="#D9D9D9"/>
<path d="M98.1523 355.824C83.0332 356.401 52.6888 352.218 39.4065 350.054C37.9493 353.324 38.7993 357.667 39.4065 359.43C23.3766 373.083 20.5835 413.996 21.1906 432.746H197.201C185.36 381.401 170.56 358.147 164.64 352.939C164.458 347.555 162.135 343.644 160.997 342.362C146.348 346.609 113.271 355.247 98.1523 355.824Z" fill="black" stroke="black" stroke-width="0.513828"/>
<path d="M99.6836 352.085L104.089 433.371" stroke="white" stroke-width="1.02766"/>
<path d="M40.9843 360.836C35.2099 368.493 23.6887 393.608 23.7996 432.818" stroke="white" stroke-width="1.02766"/>
<path d="M44.8367 361.75C38.9688 369.309 27.2612 394.106 27.3739 432.818" stroke="white" stroke-width="1.02766"/>
<path d="M48.2947 362.957C42.5801 370.388 31.1782 394.764 31.2879 432.818" stroke="white" stroke-width="1.02766"/>
<path d="M102.959 359.633C101.467 359.231 100.466 356.796 100.242 355.442C104.077 356.139 105.097 355.894 105.28 358.343C105.28 358.827 104.517 360.052 102.959 359.633Z" stroke="white" stroke-width="1.02766"/>
<path d="M131.509 309.571C131.424 309.3 131.135 309.149 130.865 309.234C130.594 309.319 130.443 309.608 130.528 309.878L131.509 309.571ZM73.4129 344.203C78.1898 347.377 86.278 351.456 95.0527 353.394C103.821 355.33 113.368 355.147 120.958 349.661L120.356 348.828C113.106 354.068 103.909 354.297 95.2743 352.39C86.6466 350.485 78.6747 346.465 73.9816 343.347L73.4129 344.203ZM120.958 349.661C128.522 344.194 131.845 336.345 132.935 328.799C134.024 321.261 132.893 313.985 131.509 309.571L130.528 309.878C131.873 314.168 132.982 321.288 131.918 328.652C130.855 336.008 127.633 343.568 120.356 348.828L120.958 349.661Z" fill="#E1E1E1"/>
</g>
</g>
<defs>
<filter id="filter0_d_566_2450" x="0.0664062" y="0.371094" width="293" height="441" filterUnits="userSpaceOnUse" color-interpolation-filters="sRGB">
<feFlood flood-opacity="0" result="BackgroundImageFix"/>
<feColorMatrix in="SourceAlpha" type="matrix" values="0 0 0 0 0 0 0 0 0 0 0 0 0 0 0 0 0 0 127 0" result="hardAlpha"/>
<feOffset dx="2" dy="4"/>
<feGaussianBlur stdDeviation="2"/>
<feComposite in2="hardAlpha" operator="out"/>
<feColorMatrix type="matrix" values="0 0 0 0 0 0 0 0 0 0 0 0 0 0 0 0 0 0 0.25 0"/>
<feBlend mode="normal" in2="BackgroundImageFix" result="effect1_dropShadow_566_2450"/>
<feBlend mode="normal" in="SourceGraphic" in2="effect1_dropShadow_566_2450" result="shape"/>
</filter>
<filter id="filter1_d_566_2450" x="14.3252" y="98.5723" width="257.125" height="57.8993" filterUnits="userSpaceOnUse" color-interpolation-filters="sRGB">
<feFlood flood-opacity="0" result="BackgroundImageFix"/>
<feColorMatrix in="SourceAlpha" type="matrix" values="0 0 0 0 0 0 0 0 0 0 0 0 0 0 0 0 0 0 127 0" result="hardAlpha"/>
<feOffset/>
<feGaussianBlur stdDeviation="3.895"/>
<feComposite in2="hardAlpha" operator="out"/>
<feColorMatrix type="matrix" values="0 0 0 0 1 0 0 0 0 1 0 0 0 0 1 0 0 0 1 0"/>
<feBlend mode="normal" in2="BackgroundImageFix" result="effect1_dropShadow_566_2450"/>
<feBlend mode="normal" in="SourceGraphic" in2="effect1_dropShadow_566_2450" result="shape"/>
</filter>
<linearGradient id="paint0_linear_566_2450" x1="144.566" y1="0.371094" x2="144.566" y2="433.371" gradientUnits="userSpaceOnUse">
<stop offset="0.139" stop-color="#DEF2EB"/>
<stop offset="1" stop-color="#B9E6E9"/>
</linearGradient>
<clipPath id="clip0_566_2450">
<rect x="2.06641" y="0.371094" width="285" height="433" rx="10" fill="white"/>
</clipPath>
<clipPath id="clip1_566_2450">
<rect width="181.19" height="181.19" fill="white" transform="translate(94.4258 185.533)"/>
</clipPath>
</defs>
</svg>
