<svg width="293" height="441" viewBox="0 0 293 441" fill="none" xmlns="http://www.w3.org/2000/svg">
<g filter="url(#filter0_d_590_1936)">
<g clip-path="url(#clip0_590_1936)">
<rect x="2" width="285" height="433" rx="10" fill="url(#paint0_linear_590_1936)"/>
<path d="M124.542 -31.832C124.65 -17.1948 119.598 17.3491 98.52 38.4267C72.1729 64.7739 41.272 50.7872 8.74471 83.3145C-17.2771 109.336 -25.5174 125.817 -26.3848 130.804" stroke="white" stroke-opacity="0.48" stroke-width="7.90056"/>
<path d="M168.838 -23.6387C168.947 -9.00145 163.894 25.5424 142.816 46.6201" stroke="white" stroke-opacity="0.48" stroke-width="7.90056" stroke-linecap="round"/>
<path d="M124.451 46.6221L127.014 54.3881L133.942 57.2618L127.014 60.1355L124.451 67.9015L121.887 60.1355L114.959 57.2618L121.887 54.3881L124.451 46.6221Z" fill="white" fill-opacity="0.62"/>
<rect x="28.0371" y="123.791" width="89.043" height="14.0275" fill="#3E82CD"/>
<g filter="url(#filter1_d_590_1936)">
<path d="M36.2066 102.445C37.6866 102.445 38.9466 102.545 39.9466 102.705C40.9466 102.865 41.7466 103.125 42.3466 103.445C42.9466 103.765 43.3666 104.185 43.6266 104.685C43.8666 105.185 44.0066 105.765 44.0066 106.425C44.0066 107.085 43.8666 107.665 43.5866 108.145C43.3066 108.625 42.8466 109.045 42.2266 109.365C41.6066 109.685 40.8066 109.925 39.8266 110.085C38.8266 110.245 37.6266 110.325 36.2066 110.325C34.6866 110.325 33.4466 110.245 32.4466 110.085C31.4466 109.925 30.6666 109.685 30.0666 109.365C29.4666 109.045 29.0466 108.625 28.8066 108.145C28.5666 107.665 28.4466 107.085 28.4466 106.405C28.4466 105.765 28.5666 105.185 28.8266 104.685C29.0866 104.185 29.5266 103.765 30.1266 103.445C30.7266 103.125 31.5266 102.865 32.5266 102.705C33.5066 102.545 34.7266 102.445 36.2066 102.445ZM36.2466 107.885C37.1666 107.885 37.9266 107.865 38.5266 107.805C39.1266 107.745 39.5866 107.645 39.9466 107.525C40.2866 107.405 40.5266 107.245 40.6666 107.045C40.8066 106.865 40.8866 106.645 40.8866 106.405C40.8866 106.165 40.8066 105.945 40.6466 105.745C40.4866 105.565 40.2266 105.405 39.8666 105.285C39.5066 105.165 39.0266 105.065 38.4266 105.005C37.8266 104.945 37.0866 104.905 36.2066 104.905C35.3266 104.905 34.6066 104.945 34.0066 105.005C33.4066 105.065 32.9266 105.165 32.5666 105.285C32.2066 105.405 31.9266 105.565 31.7666 105.745C31.6066 105.945 31.5266 106.165 31.5266 106.405C31.5266 106.645 31.6066 106.865 31.7666 107.045C31.9266 107.245 32.1866 107.405 32.5466 107.525C32.9066 107.645 33.4066 107.745 34.0066 107.805C34.6066 107.865 35.3666 107.885 36.2466 107.885ZM37.1866 90.5447C37.7866 90.5447 38.1066 90.8047 38.1066 91.2847V92.4247C38.1066 92.9447 37.8266 93.1847 37.2666 93.1847H31.4066V98.7447C34.1266 98.6647 36.8266 98.3047 39.4866 97.6247V90.8847C39.4866 90.4047 39.7666 90.1647 40.3466 90.1647H41.8666C42.3466 90.1647 42.5866 90.4047 42.5866 90.8847V93.4047H43.6066C44.1066 93.4047 44.3666 93.6247 44.3666 94.0447V95.6447C44.3666 96.1647 44.0866 96.4247 43.5666 96.4247H42.5866V100.865C42.5866 101.425 42.2666 101.705 41.6466 101.705H40.3866C39.7866 101.705 39.4866 101.465 39.4866 100.985V100.465C35.4466 101.185 32.0266 101.545 29.1866 101.545C28.6866 101.545 28.4466 101.325 28.4466 100.845V91.3247C28.4466 90.8047 28.7266 90.5447 29.3266 90.5447H37.1866ZM60.4624 107.345C60.9624 107.345 61.2224 107.585 61.2224 108.045V109.365C61.2224 109.885 60.9424 110.125 60.4224 110.125H47.1624C46.6424 110.125 46.3824 109.905 46.3824 109.425V105.005C46.3824 104.545 46.6224 104.305 47.1024 104.305H48.8024C49.2824 104.305 49.5224 104.545 49.5224 105.005V107.345H60.4624ZM61.0424 102.305C61.0424 102.825 60.7624 103.085 60.2224 103.085H58.6224C58.0624 103.085 57.8024 102.845 57.8024 102.365V90.8447C57.8024 90.3847 58.0624 90.1447 58.6024 90.1447H60.2624C60.7824 90.1447 61.0424 90.3847 61.0424 90.8447V102.305ZM50.8024 92.4047C54.6424 92.0847 56.4024 95.2847 56.0824 102.025C56.0824 102.605 55.7624 102.905 55.1624 102.905H53.7224C53.2024 102.905 52.9624 102.645 52.9624 102.125C53.2024 97.0847 52.1824 94.8647 49.9024 95.4847C49.4624 97.4647 49.2424 99.6647 49.2424 102.085C49.2424 102.645 48.9424 102.905 48.3424 102.905H46.9024C46.3624 102.905 46.1024 102.665 46.1024 102.165C46.1024 97.7647 46.7424 94.1847 48.0224 91.4447C48.3424 90.8647 48.7824 90.5647 49.3424 90.5647H50.4024C51.0824 90.5647 51.3624 90.8047 51.2024 91.2847L50.8024 92.4047ZM78.008 90.1647C78.488 90.1647 78.748 90.3847 78.748 90.8247V109.465C78.748 109.905 78.508 110.125 78.048 110.125H76.328C75.828 110.125 75.588 109.885 75.588 109.405V108.325H64.088C63.608 108.325 63.368 108.085 63.368 107.585V106.165C63.368 105.685 63.608 105.425 64.088 105.425H75.588V90.8847C75.588 90.4047 75.828 90.1647 76.348 90.1647H78.008ZM69.028 104.525C67.888 104.525 66.948 104.385 66.228 104.065C65.488 103.765 64.908 103.305 64.488 102.705C64.068 102.105 63.768 101.365 63.608 100.465C63.448 99.5847 63.368 98.5447 63.368 97.3447C63.368 96.1447 63.448 95.0647 63.628 94.1447C63.808 93.2247 64.108 92.4647 64.528 91.8447C64.948 91.2447 65.508 90.7847 66.228 90.4647C66.928 90.1647 67.808 90.0047 68.888 90.0047C70.028 90.0047 70.968 90.1647 71.728 90.4647C72.468 90.7847 73.048 91.2447 73.488 91.8447C73.908 92.4647 74.208 93.2247 74.388 94.1447C74.548 95.0647 74.648 96.1447 74.648 97.3447C74.648 98.5247 74.548 99.5647 74.368 100.445C74.188 101.345 73.888 102.105 73.448 102.705C73.008 103.305 72.448 103.765 71.728 104.065C71.008 104.385 70.108 104.525 69.028 104.525ZM69.068 92.5847C68.528 92.5847 68.088 92.6847 67.728 92.8847C67.368 93.0847 67.088 93.3847 66.888 93.7847C66.688 94.1847 66.548 94.6847 66.468 95.2847C66.388 95.8847 66.348 96.5647 66.348 97.3447V97.4847C66.348 98.2047 66.388 98.8447 66.468 99.4047C66.548 99.9647 66.708 100.445 66.908 100.825C67.108 101.205 67.388 101.485 67.748 101.685C68.108 101.885 68.548 101.965 69.068 101.965C70.048 101.965 70.728 101.585 71.108 100.785C71.488 99.9847 71.688 98.8447 71.688 97.3447C71.688 95.7847 71.488 94.5847 71.108 93.7847C70.728 92.9847 70.048 92.5847 69.068 92.5847ZM100.775 107.305C101.195 107.305 101.415 107.525 101.415 107.965V109.505C101.415 109.925 101.195 110.125 100.795 110.125H87.5349C87.0349 110.125 86.7949 109.905 86.7949 109.445V104.665C86.7949 104.205 87.0349 103.965 87.5349 103.965H89.2149C89.6949 103.965 89.9549 104.205 89.9549 104.665V107.305H100.775ZM101.775 94.9647C102.175 94.9647 102.395 95.2247 102.395 95.7247V97.3447C102.395 97.8447 102.155 98.0847 101.695 98.0847H100.715V102.025C100.715 102.545 100.435 102.785 99.8949 102.785H98.2949C97.7349 102.785 97.4749 102.545 97.4749 102.065V90.8847C97.4749 90.4047 97.7349 90.1647 98.2749 90.1647H99.9349C100.455 90.1647 100.715 90.4047 100.715 90.8647V94.9647H101.775ZM91.3349 102.785C90.4749 102.785 89.7349 102.685 89.0949 102.465C88.4549 102.265 87.9349 101.905 87.5149 101.405C87.0749 100.925 86.7549 100.265 86.5549 99.4647C86.3349 98.6647 86.2349 97.6847 86.2349 96.4847C86.2349 95.2447 86.3349 94.2047 86.5549 93.3847C86.7749 92.5647 87.0949 91.9047 87.5349 91.4247C87.9749 90.9447 88.5149 90.6247 89.1749 90.4247C89.8149 90.2447 90.5949 90.1447 91.4749 90.1447C92.2949 90.1447 93.0149 90.2447 93.6349 90.4247C94.2549 90.6247 94.7749 90.9447 95.1749 91.4247C95.5749 91.9047 95.8949 92.5647 96.0949 93.3847C96.2949 94.2047 96.4149 95.2447 96.4149 96.4847C96.4149 97.6247 96.2949 98.5847 96.0949 99.3847C95.8749 100.185 95.5549 100.845 95.1349 101.345C94.7149 101.845 94.1949 102.205 93.5549 102.445C92.9149 102.685 92.1749 102.785 91.3349 102.785ZM91.2949 92.9647C90.9349 92.9647 90.6349 93.0247 90.3749 93.1247C90.1149 93.2247 89.8949 93.4047 89.7349 93.6647C89.5549 93.9447 89.4149 94.3047 89.3349 94.7647C89.2549 95.2247 89.2149 95.8047 89.2149 96.5247C89.2149 97.1847 89.2549 97.7247 89.3349 98.1647C89.4149 98.6047 89.5549 98.9647 89.7349 99.2247C89.9149 99.5047 90.1349 99.6847 90.3949 99.8047C90.6549 99.9247 90.9749 99.9647 91.3349 99.9647C92.0349 99.9647 92.5549 99.7247 92.9149 99.2047C93.2749 98.7047 93.4549 97.8047 93.4549 96.5247C93.4549 95.8647 93.3949 95.3047 93.3149 94.8447C93.2149 94.4047 93.0749 94.0247 92.8949 93.7447C92.7149 93.4647 92.4949 93.2647 92.2349 93.1447C91.9549 93.0247 91.6549 92.9647 91.2949 92.9647ZM108.907 93.2247C108.767 93.5247 108.647 93.8447 108.547 94.1847C112.407 93.9047 114.307 96.4847 114.267 101.905C114.267 102.485 113.947 102.785 113.347 102.785H111.907C111.387 102.785 111.147 102.525 111.147 102.005C111.107 98.2047 110.027 96.5847 107.907 97.1047C107.707 98.5247 107.587 100.165 107.587 102.005C107.587 102.525 107.287 102.765 106.707 102.765H105.347C104.787 102.765 104.507 102.485 104.507 101.925C104.507 98.5847 104.947 95.6847 105.807 93.2247H104.747C104.327 93.2247 104.127 93.0247 104.127 92.6047V91.1647C104.127 90.7647 104.327 90.5447 104.747 90.5447H113.707C114.167 90.5447 114.407 90.7647 114.407 91.1847V92.5047C114.407 92.9847 114.167 93.2247 113.687 93.2247H108.907ZM118.207 107.205C118.687 107.205 118.947 107.445 118.947 107.925V109.365C118.947 109.885 118.707 110.125 118.227 110.125H105.047C104.547 110.125 104.307 109.885 104.307 109.405V104.925C104.307 104.425 104.567 104.165 105.087 104.165H106.647C107.167 104.165 107.427 104.425 107.427 104.945V107.205H118.207ZM114.927 94.0847C114.487 94.0847 114.267 94.3047 114.267 94.7047V96.5247C114.267 96.9647 114.467 97.1847 114.907 97.1847H115.827V102.185C115.827 102.705 116.067 102.965 116.547 102.965H118.067C118.587 102.965 118.847 102.725 118.847 102.205V90.8447C118.847 90.4047 118.587 90.1647 118.067 90.1647H116.567C116.047 90.1647 115.787 90.3847 115.787 90.8247V94.0847H114.927ZM136.061 95.6447C136.621 95.6447 136.901 95.9047 136.901 96.3847V97.9247C136.901 98.4847 136.621 98.7647 136.101 98.7647H135.121V109.345C135.121 109.865 134.841 110.125 134.281 110.125H132.741C132.181 110.125 131.921 109.865 131.921 109.345V90.8647C131.921 90.4047 132.161 90.1647 132.681 90.1647H134.321C134.841 90.1647 135.121 90.4047 135.121 90.8847V95.6447H136.061ZM125.841 110.125C124.921 110.125 124.141 109.985 123.541 109.685C122.921 109.405 122.441 108.965 122.081 108.385C121.721 107.805 121.461 107.065 121.321 106.185C121.161 105.305 121.101 104.285 121.101 103.125C121.101 102.105 121.121 101.205 121.161 100.445C121.201 99.6847 121.261 99.0447 121.341 98.4847C121.421 97.9247 121.541 97.4647 121.681 97.1047C121.821 96.7447 121.981 96.4647 122.181 96.2247H121.641C121.201 96.2247 121.001 96.0247 121.001 95.6047V93.8647C121.001 93.4647 121.181 93.2447 121.581 93.2447H130.281C130.521 93.2447 130.681 93.2847 130.801 93.3447C130.901 93.4047 130.961 93.5247 130.961 93.7047V95.4847C130.961 95.7047 130.901 95.8847 130.801 96.0247C130.701 96.1647 130.561 96.2247 130.361 96.2247H129.721C129.881 96.4647 130.021 96.7447 130.141 97.1047C130.261 97.4647 130.341 97.9247 130.421 98.4647C130.481 99.0247 130.521 99.6647 130.561 100.425C130.601 101.185 130.621 102.065 130.621 103.065C130.621 104.225 130.541 105.265 130.421 106.145C130.301 107.025 130.061 107.765 129.721 108.345C129.361 108.945 128.881 109.385 128.261 109.685C127.641 109.985 126.841 110.125 125.841 110.125ZM125.901 96.2247C125.221 96.2247 124.741 96.8247 124.481 97.9847C124.221 99.1447 124.101 100.865 124.101 103.125C124.101 104.585 124.221 105.665 124.501 106.385C124.781 107.105 125.261 107.465 125.961 107.465C126.601 107.465 127.041 107.105 127.281 106.385C127.521 105.665 127.661 104.585 127.661 103.125C127.661 100.885 127.521 99.1647 127.281 97.9847C127.021 96.8247 126.561 96.2247 125.901 96.2247ZM123.101 92.6047C122.661 92.6047 122.461 92.3847 122.461 91.9447V90.7447C122.461 90.3447 122.681 90.1447 123.121 90.1447H128.541C128.961 90.1447 129.181 90.3447 129.181 90.7247V91.9447C129.181 92.3847 128.961 92.6047 128.541 92.6047H123.101ZM151.611 106.725C152.171 106.725 152.451 107.025 152.451 107.585V108.885C152.451 109.425 152.171 109.685 151.611 109.685H139.151C138.551 109.685 138.251 109.405 138.251 108.805V107.585C138.251 107.025 138.531 106.725 139.111 106.725H142.371V98.6447C142.371 98.0647 142.671 97.7647 143.311 97.7647H144.651C145.251 97.7647 145.571 98.0647 145.571 98.6447V106.725H151.611ZM151.711 90.5647C152.191 90.5647 152.451 90.8447 152.451 91.4047C152.451 96.2847 152.071 100.645 151.331 104.525C151.231 105.045 150.891 105.285 150.311 105.285H148.971C148.611 105.285 148.371 105.205 148.291 105.005C148.191 104.825 148.171 104.585 148.251 104.265C148.771 101.045 149.091 97.6047 149.171 93.9247C149.211 93.6047 149.071 93.4247 148.751 93.4247H138.911C138.471 93.4247 138.251 93.2047 138.251 92.7447V91.2647C138.251 90.8047 138.471 90.5647 138.911 90.5647H151.711ZM176.485 95.6447C177.045 95.6447 177.325 95.9047 177.325 96.3847V97.9647C177.325 98.5047 177.045 98.7647 176.485 98.7647H175.445V109.325C175.445 109.845 175.165 110.105 174.645 110.105H173.105C172.545 110.105 172.265 109.845 172.265 109.325V108.605C168.325 109.265 164.545 109.585 160.925 109.585C160.485 109.585 160.265 109.385 160.265 108.965V91.3647C160.265 90.8447 160.545 90.5847 161.105 90.5847H170.265C170.865 90.5847 171.165 90.8647 171.165 91.4047V92.5447C171.165 93.1247 170.865 93.4047 170.265 93.4047H168.225V106.445C169.585 106.325 170.925 106.105 172.265 105.745V90.8647C172.265 90.3847 172.505 90.1447 173.025 90.1447H174.665C175.185 90.1447 175.445 90.3847 175.445 90.8647V95.6447H176.485ZM163.265 106.785C163.925 106.785 164.585 106.745 165.225 106.705V93.4047H163.265V106.785ZM179.949 98.3447C179.429 98.3447 179.189 98.1247 179.189 97.6447V90.8647C179.189 90.3847 179.429 90.1447 179.929 90.1447H193.129C193.589 90.1447 193.829 90.3647 193.829 90.8047V92.3647C193.829 92.8047 193.589 93.0247 193.109 93.0247H189.029V95.6047H193.149C193.589 95.6047 193.829 95.8247 193.829 96.2247V97.6647C193.829 98.1047 193.589 98.3247 193.129 98.3247L179.949 98.3447ZM190.729 110.105C190.249 110.105 190.069 109.885 190.209 109.445C190.649 107.365 189.249 106.385 185.969 106.485C185.229 107.845 184.289 108.925 183.129 109.765C182.849 110.005 182.489 110.105 182.049 110.105H179.409C179.209 110.105 179.069 110.065 179.009 109.965C178.949 109.865 178.989 109.765 179.129 109.645C181.589 107.945 182.969 106.005 183.249 103.825C183.249 103.425 183.489 103.205 183.969 103.205H186.189C186.569 103.205 186.729 103.385 186.689 103.705L186.609 103.985C191.889 103.845 194.309 105.685 193.829 109.485C193.769 109.905 193.529 110.105 193.129 110.105H190.729ZM179.869 102.165C179.409 102.165 179.189 101.925 179.189 101.445V99.9847C179.189 99.5447 179.409 99.3247 179.869 99.3247H193.069C193.569 99.3247 193.829 99.5647 193.829 100.045V101.445C193.829 101.925 193.549 102.165 193.029 102.165H179.869ZM182.349 95.6047H185.869V93.0247H182.349V95.6047ZM210.061 107.325C210.561 107.325 210.821 107.565 210.821 108.025V109.345C210.821 109.865 210.541 110.105 210.021 110.105H197.201C196.661 110.105 196.401 109.885 196.401 109.405V105.145C196.401 104.665 196.661 104.405 197.221 104.405H198.801C199.281 104.405 199.541 104.645 199.541 105.125V107.325H210.061ZM200.941 103.265C200.061 103.265 199.341 103.185 198.761 102.985C198.161 102.805 197.681 102.525 197.321 102.145C196.941 101.785 196.681 101.325 196.521 100.765C196.361 100.205 196.281 99.5647 196.281 98.8047C196.281 97.8847 196.521 96.9647 197.021 96.0647H196.601C196.221 96.0647 196.041 95.8047 196.041 95.2847V93.8047C196.041 93.3247 196.281 93.0847 196.781 93.0847H205.321C205.801 93.0847 206.061 93.3247 206.061 93.7847V95.3647C206.061 95.8447 205.821 96.0647 205.341 96.0647H205.081C205.441 96.8047 205.641 97.7247 205.641 98.8047C205.641 100.225 205.241 101.325 204.441 102.105C203.641 102.885 202.481 103.265 200.941 103.265ZM201.041 96.0647C200.401 96.0647 199.961 96.3047 199.721 96.7447C199.481 97.2047 199.361 97.8847 199.361 98.8047C199.361 99.5247 199.481 100.065 199.721 100.425C199.961 100.785 200.381 100.945 201.001 100.945C201.561 100.945 201.961 100.765 202.201 100.385C202.441 100.005 202.581 99.4447 202.581 98.7047C202.581 97.8247 202.461 97.1647 202.241 96.7247C202.021 96.2847 201.621 96.0647 201.041 96.0647ZM198.021 92.3847C197.581 92.3847 197.381 92.1447 197.381 91.6647V90.6047C197.381 90.1247 197.621 89.8647 198.121 89.8647H203.801C204.281 89.8647 204.541 90.0847 204.541 90.5247V91.6647C204.541 92.1447 204.281 92.3847 203.801 92.3847H198.021ZM211.381 94.6447C211.861 94.6447 212.101 94.8847 212.101 95.3447V97.0247C212.101 97.5247 211.841 97.7647 211.341 97.7647H210.261V102.425C210.261 102.965 209.981 103.225 209.461 103.225H207.861C207.301 103.225 207.041 102.965 207.041 102.425V90.9047C207.041 90.4247 207.301 90.1647 207.821 90.1647H209.481C210.001 90.1647 210.261 90.4047 210.261 90.8647V94.6447H211.381ZM32.9066 115.225C32.7666 115.525 32.6466 115.825 32.5466 116.145C36.2266 115.965 38.0266 118.265 37.9866 123.025C37.9866 123.605 37.6666 123.905 37.0666 123.905H35.6266C35.1066 123.905 34.8666 123.645 34.8666 123.125C34.8266 119.985 33.8266 118.625 31.8866 119.045C31.6866 120.265 31.5866 121.625 31.5866 123.125C31.5866 123.645 31.2866 123.885 30.7066 123.885H29.3466C28.7866 123.885 28.5066 123.605 28.5066 123.045C28.5066 120.285 28.9466 117.685 29.8066 115.225H29.0666C28.6466 115.225 28.4466 115.025 28.4466 114.605V113.165C28.4466 112.765 28.6466 112.545 29.0666 112.545H30.6866V112.105C30.6866 111.705 30.9066 111.485 31.3666 111.485H33.1866C33.5866 111.485 33.7866 111.705 33.7866 112.105V112.545H37.7066C38.1666 112.545 38.4066 112.765 38.4066 113.185V114.505C38.4066 114.985 38.1666 115.225 37.6866 115.225H32.9066ZM40.3666 132.105C39.9466 132.105 39.7466 131.885 39.7866 131.445C40.2666 129.085 38.8466 127.965 35.5466 128.085C34.7466 129.485 33.7666 130.705 32.5866 131.765C32.3066 132.005 32.0466 132.105 31.7666 132.105H29.0666C28.8466 132.105 28.7266 132.045 28.7266 131.905C28.7266 131.765 28.8266 131.585 29.0266 131.385C31.3266 129.325 32.6266 127.305 32.9066 125.345C32.9466 124.945 33.2066 124.725 33.6866 124.725H35.6666C36.0266 124.725 36.2066 124.905 36.1666 125.225L36.0866 125.585C41.3466 125.545 43.7466 127.505 43.2666 131.485C43.2666 131.905 43.0666 132.105 42.7066 132.105H40.3666ZM39.6666 115.985V112.845C39.6666 112.405 39.9266 112.165 40.4466 112.165H42.1066C42.6266 112.165 42.8866 112.385 42.8866 112.805V123.185C42.8866 123.665 42.6066 123.905 42.0866 123.905H40.4866C39.9266 123.905 39.6666 123.665 39.6666 123.145V119.105H38.6666C38.2066 119.105 37.9866 118.865 37.9866 118.365V116.745C37.9866 116.245 38.1866 115.985 38.6266 115.985H39.6666ZM51.396 131.705C50.836 131.705 50.556 131.445 50.556 130.925V129.805C50.556 129.245 50.836 128.945 51.396 128.945H56.036V127.005H51.496C50.856 127.005 50.556 126.705 50.556 126.105V113.085C50.556 112.605 50.816 112.365 51.336 112.365H52.816C53.336 112.365 53.616 112.625 53.616 113.105V115.325H61.936V113.105C61.936 112.625 62.176 112.365 62.656 112.365H64.176C64.696 112.365 64.976 112.605 64.976 113.085V126.105C64.976 126.705 64.636 127.005 63.976 127.005H59.416V128.945H64.236C64.716 128.945 64.976 129.185 64.976 129.625V130.945C64.976 131.465 64.736 131.705 64.296 131.705H51.396ZM61.936 124.305V118.085H53.616V124.305H61.936ZM81.1938 121.285C81.7138 121.285 81.9938 121.545 81.9938 122.065V123.385C81.9938 123.865 81.7138 124.105 81.1938 124.105H68.0938C67.5738 124.105 67.3138 123.845 67.3138 123.285V122.065C67.3138 121.545 67.5738 121.285 68.1138 121.285H81.1938ZM81.2138 125.185C81.7338 125.185 81.9938 125.425 81.9938 125.885V131.305C81.9938 131.865 81.6938 132.125 81.1138 132.125H68.1538C67.5938 132.125 67.3138 131.885 67.3138 131.385V126.045C67.3138 125.485 67.5938 125.185 68.1538 125.185H81.2138ZM70.3738 129.465H78.9338V127.845H70.3738V129.465ZM81.0938 112.165C81.6738 112.165 81.9738 112.445 81.9738 113.005C81.9738 116.005 81.5938 118.285 80.8338 119.805C80.6138 120.265 80.2138 120.485 79.6338 120.485H78.2538C77.9538 120.485 77.7338 120.405 77.6138 120.245C77.4938 120.085 77.5138 119.825 77.6938 119.465C78.2738 118.245 78.6138 116.925 78.6938 115.525C78.7338 115.205 78.5938 115.025 78.2738 115.025H67.9938C67.5538 115.025 67.3338 114.805 67.3338 114.345V112.865C67.3338 112.405 67.5538 112.165 67.9938 112.165H81.0938ZM88.4455 115.385C88.3855 115.885 88.3255 116.365 88.2655 116.845C91.9855 116.045 93.8655 119.585 93.8655 127.425V131.145C93.8655 131.645 93.5855 131.885 93.0455 131.885H91.6655C91.1055 131.885 90.8255 131.645 90.8255 131.145V127.265C90.8255 121.685 89.8455 119.425 87.8855 120.485C87.5655 124.045 87.4255 127.585 87.4655 131.125C87.4655 131.645 87.1855 131.905 86.6255 131.905H85.1655C84.6055 131.905 84.3255 131.645 84.3255 131.085C84.2655 125.065 84.5855 119.825 85.2855 115.385H84.8455C84.4055 115.385 84.1855 115.145 84.1855 114.665V113.285C84.1855 112.805 84.4255 112.565 84.9255 112.565H93.1455C93.6655 112.565 93.9455 112.805 93.9455 113.285V114.565C93.9455 115.125 93.6655 115.385 93.1255 115.385H88.4455ZM99.4655 117.645C100.026 117.645 100.306 117.905 100.306 118.385V119.925C100.306 120.485 100.046 120.765 99.5255 120.765H98.5455V131.345C98.5455 131.865 98.2655 132.105 97.7255 132.105H96.1855C95.6255 132.105 95.3455 131.865 95.3455 131.365V112.825C95.3455 112.385 95.5855 112.145 96.1055 112.145H97.7455C98.2655 112.145 98.5455 112.385 98.5455 112.865V117.645H99.4655ZM116.537 131.265C116.537 131.825 116.257 132.105 115.717 132.105H114.197C113.617 132.105 113.337 131.825 113.337 131.265V130.265C109.537 131.205 106.057 131.665 102.917 131.665C102.417 131.665 102.177 131.405 102.177 130.865V118.185C102.177 117.745 102.417 117.505 102.917 117.505H108.737V115.485H103.037C102.457 115.485 102.177 115.245 102.177 114.745V113.365C102.177 112.845 102.417 112.565 102.937 112.565H110.857C111.417 112.565 111.697 112.825 111.697 113.325V119.525C111.697 120.085 111.397 120.345 110.817 120.345H105.177V128.605C108.097 128.485 110.817 127.965 113.337 127.025V112.885C113.337 112.405 113.617 112.165 114.197 112.165H115.777C116.277 112.165 116.537 112.425 116.537 112.945V131.265ZM133.096 120.905C133.536 120.925 133.756 121.105 133.756 121.445V122.585C133.756 123.065 133.516 123.305 133.056 123.305H119.596C119.116 123.305 118.876 123.045 118.876 122.525V121.545C118.876 121.125 119.076 120.905 119.496 120.905H133.096ZM119.556 114.405C119.096 114.405 118.876 114.225 118.876 113.845V112.785C118.876 112.385 119.096 112.165 119.556 112.165H132.996C133.496 112.165 133.756 112.385 133.756 112.785V116.365C133.756 116.845 133.516 117.085 133.036 117.085H121.916V117.905H133.036C133.516 117.905 133.756 118.125 133.756 118.525V119.445C133.756 119.925 133.516 120.165 133.076 120.165H119.536C119.096 120.165 118.876 119.945 118.876 119.505V115.845C118.876 115.405 119.096 115.165 119.536 115.165H130.696V114.405H119.556ZM119.596 126.325C119.116 126.325 118.876 126.105 118.876 125.645V124.765C118.876 124.305 119.116 124.065 119.596 124.065H132.976C133.496 124.065 133.756 124.305 133.756 124.765V128.365C133.756 128.825 133.516 129.045 133.036 129.045H121.916V129.845H133.036C133.516 129.845 133.756 130.065 133.756 130.485V131.485C133.756 131.905 133.496 132.105 132.996 132.105H119.616C119.116 132.105 118.876 131.885 118.876 131.405V127.785C118.876 127.345 119.116 127.125 119.636 127.125H130.696V126.325H119.596ZM155.574 112.165C156.054 112.165 156.314 112.405 156.314 112.865V131.385C156.314 131.885 156.074 132.125 155.614 132.125H153.894C153.394 132.125 153.154 131.885 153.154 131.405V128.865H147.594V131.525C147.594 131.965 147.394 132.165 147.014 132.125H144.874C144.514 132.125 144.334 131.945 144.334 131.545V128.865H142.074C141.594 128.865 141.354 128.665 141.354 128.225V126.665C141.354 126.245 141.594 126.025 142.114 125.985H153.154V112.885C153.154 112.405 153.394 112.165 153.914 112.165H155.574ZM146.634 125.085C145.594 125.085 144.714 124.965 144.034 124.685C143.354 124.405 142.814 124.005 142.414 123.445C142.014 122.905 141.734 122.225 141.574 121.405C141.414 120.585 141.334 119.625 141.334 118.525C141.334 117.465 141.414 116.545 141.594 115.745C141.754 114.945 142.054 114.285 142.474 113.745C142.874 113.225 143.434 112.825 144.114 112.565C144.794 112.305 145.634 112.165 146.634 112.165C147.674 112.165 148.554 112.305 149.234 112.565C149.914 112.825 150.474 113.225 150.894 113.745C151.294 114.285 151.594 114.945 151.754 115.745C151.914 116.545 152.014 117.465 152.014 118.525C152.014 119.605 151.914 120.565 151.754 121.385C151.594 122.205 151.294 122.885 150.894 123.445C150.474 124.005 149.914 124.405 149.234 124.685C148.554 124.965 147.674 125.085 146.634 125.085ZM146.674 114.745C145.794 114.745 145.174 115.065 144.854 115.685C144.534 116.325 144.374 117.265 144.374 118.525C144.354 119.865 144.494 120.865 144.814 121.525C145.134 122.205 145.754 122.525 146.674 122.525C147.574 122.525 148.194 122.205 148.534 121.525C148.854 120.845 149.034 119.845 149.034 118.525C149.034 117.285 148.854 116.345 148.534 115.705C148.194 115.065 147.574 114.745 146.674 114.745ZM173.541 117.645C174.101 117.645 174.381 117.905 174.381 118.385V119.925C174.381 120.485 174.101 120.765 173.581 120.765H172.601V131.345C172.601 131.865 172.321 132.125 171.761 132.125H170.221C169.661 132.125 169.401 131.865 169.401 131.345V112.865C169.401 112.405 169.641 112.165 170.161 112.165H171.801C172.321 112.165 172.601 112.405 172.601 112.885V117.645H173.541ZM163.321 132.125C162.401 132.125 161.621 131.985 161.021 131.685C160.401 131.405 159.921 130.965 159.561 130.385C159.201 129.805 158.941 129.065 158.801 128.185C158.641 127.305 158.581 126.285 158.581 125.125C158.581 124.105 158.601 123.205 158.641 122.445C158.681 121.685 158.741 121.045 158.821 120.485C158.901 119.925 159.021 119.465 159.161 119.105C159.301 118.745 159.461 118.465 159.661 118.225H159.121C158.681 118.225 158.481 118.025 158.481 117.605V115.865C158.481 115.465 158.661 115.245 159.061 115.245H167.761C168.001 115.245 168.161 115.285 168.281 115.345C168.381 115.405 168.441 115.525 168.441 115.705V117.485C168.441 117.705 168.381 117.885 168.281 118.025C168.181 118.165 168.041 118.225 167.841 118.225H167.201C167.361 118.465 167.501 118.745 167.621 119.105C167.741 119.465 167.821 119.925 167.901 120.465C167.961 121.025 168.001 121.665 168.041 122.425C168.081 123.185 168.101 124.065 168.101 125.065C168.101 126.225 168.021 127.265 167.901 128.145C167.781 129.025 167.541 129.765 167.201 130.345C166.841 130.945 166.361 131.385 165.741 131.685C165.121 131.985 164.321 132.125 163.321 132.125ZM163.381 118.225C162.701 118.225 162.221 118.825 161.961 119.985C161.701 121.145 161.581 122.865 161.581 125.125C161.581 126.585 161.701 127.665 161.981 128.385C162.261 129.105 162.741 129.465 163.441 129.465C164.081 129.465 164.521 129.105 164.761 128.385C165.001 127.665 165.141 126.585 165.141 125.125C165.141 122.885 165.001 121.165 164.761 119.985C164.501 118.825 164.041 118.225 163.381 118.225ZM160.581 114.605C160.141 114.605 159.941 114.385 159.941 113.945V112.745C159.941 112.345 160.161 112.145 160.601 112.145H166.021C166.441 112.145 166.661 112.345 166.661 112.725V113.945C166.661 114.385 166.441 114.605 166.021 114.605H160.581ZM181.302 112.165C182.342 112.165 183.182 112.365 183.862 112.765C184.522 113.165 185.042 113.785 185.442 114.585C185.822 115.385 186.082 116.405 186.242 117.605V117.665H187.882V112.885C187.882 112.405 188.142 112.165 188.682 112.165H190.342C190.822 112.165 191.062 112.405 191.082 112.845V131.425C191.082 131.905 190.842 132.125 190.382 132.125H188.702C188.142 132.125 187.882 131.885 187.882 131.385V125.165H186.342C186.302 125.585 186.262 125.985 186.222 126.345C186.062 127.625 185.782 128.705 185.402 129.565C185.002 130.425 184.482 131.065 183.822 131.485C183.142 131.925 182.302 132.125 181.302 132.125C180.262 132.125 179.402 131.925 178.722 131.485C178.042 131.045 177.502 130.405 177.102 129.545C176.702 128.685 176.442 127.605 176.282 126.325C176.122 125.045 176.042 123.545 176.042 121.825C176.042 120.225 176.122 118.825 176.302 117.625C176.482 116.425 176.782 115.405 177.182 114.605C177.582 113.805 178.122 113.185 178.802 112.785C179.482 112.385 180.302 112.165 181.302 112.165ZM183.462 121.825C183.462 120.705 183.422 119.705 183.382 118.845C183.322 118.005 183.222 117.285 183.062 116.725C182.902 116.165 182.682 115.725 182.402 115.445C182.122 115.165 181.762 115.025 181.322 115.025C180.862 115.025 180.502 115.165 180.222 115.445C179.942 115.725 179.722 116.165 179.562 116.725C179.402 117.285 179.302 118.005 179.262 118.845C179.202 119.705 179.182 120.705 179.182 121.825C179.182 124.325 179.322 126.205 179.622 127.445C179.902 128.685 180.482 129.305 181.322 129.305C181.742 129.305 182.102 129.165 182.382 128.845C182.662 128.525 182.882 128.065 183.042 127.425C183.202 126.805 183.302 126.025 183.362 125.085C183.422 124.165 183.462 123.065 183.462 121.825ZM186.442 120.585C186.442 120.985 186.462 121.405 186.462 121.825V122.245H187.882V120.585H186.442ZM194.627 112.165H196.307C196.987 112.165 197.307 112.645 197.267 113.625L196.827 126.205C196.747 126.745 196.467 127.025 195.987 127.065H194.847C194.367 127.085 194.087 126.825 194.007 126.285L193.467 113.625C193.427 112.645 193.827 112.165 194.627 112.165ZM194.487 132.105H196.487C197.187 132.145 197.547 131.865 197.547 131.245L197.387 129.465C197.347 128.885 197.067 128.585 196.587 128.585H194.547C194.067 128.585 193.827 128.825 193.787 129.305L193.587 131.245C193.567 131.825 193.867 132.105 194.487 132.105Z" fill="black"/>
</g>
<path d="M169.673 255.176H155.299C151.329 255.176 148.111 258.394 148.111 262.363V286.98H176.861V262.363C176.861 258.394 173.643 255.176 169.673 255.176Z" fill="#6B7683"/>
<path d="M148.108 286.979V262.362C148.108 258.393 151.326 255.175 155.296 255.175H169.671C173.64 255.175 176.858 258.393 176.858 262.362V286.979H199.458C196.023 286.92 194.129 282.936 196.289 280.242L207.436 266.337H204.307C201.603 266.337 200.101 263.208 201.791 261.097L212.597 247.617H209.359C207.347 247.617 206.23 245.289 207.491 243.722L224.866 222.056L166.952 176C164.332 173.919 160.625 173.919 158.005 176L91.875 228.591V286.979H148.108Z" fill="#D0D5DA"/>
<path d="M166.962 176.003L224.876 222.058L225.746 220.976C226.705 219.779 228.524 219.779 229.483 220.976L233.096 225.479V206.779C233.096 202.399 231.099 198.252 227.669 195.523L166.962 147.253C164.342 145.172 160.634 145.172 158.015 147.253L97.3026 195.533C93.872 198.262 91.875 202.399 91.875 206.784V228.598L158.01 176.008C160.629 173.926 164.337 173.926 166.957 176.008L166.962 176.003Z" fill="#EF4452"/>
<path d="M254.946 286.988H199.528C199.504 286.988 199.479 286.979 199.454 286.979H91.7576C89.029 286.979 86.8145 289.193 86.8145 291.922V301.403C86.8145 304.131 89.029 306.346 91.7576 306.346H254.892C257.621 306.346 259.835 304.131 259.835 301.403V291.922C259.835 289.208 257.65 287.018 254.946 286.988Z" fill="#23B169"/>
<path d="M207.438 266.337L196.291 280.242C194.126 282.941 196.024 286.92 199.46 286.98C199.485 286.98 199.509 286.989 199.534 286.989H255.683C259.168 286.989 261.101 282.961 258.921 280.242L247.774 266.337H207.443H207.438Z" fill="#0A9F60"/>
<path d="M212.607 247.616L201.802 261.096C200.111 263.207 201.614 266.336 204.318 266.336H250.907C253.611 266.336 255.114 263.207 253.423 261.096L242.617 247.616H212.607Z" fill="#23B169"/>
<path d="M229.472 220.973C228.513 219.777 226.694 219.777 225.735 220.973L224.865 222.056L207.49 243.722C206.229 245.289 207.347 247.617 209.358 247.617H245.839C247.851 247.617 248.968 245.289 247.708 243.722L233.081 225.477L229.472 220.973Z" fill="#68C76F"/>
<path d="M64.8804 262.531C64.8804 262.531 78.2622 249.296 90.5288 247.295C102.796 245.295 116.505 247.078 121.827 248.219C123.119 246.557 126.551 243.095 129.944 242.542C134.185 241.85 151.533 253.757 155.987 254.37C160.441 254.984 175.268 257.589 175.42 260.579C175.573 263.568 164.201 267.767 154.64 266.647C183.842 297.256 177.305 298.48 175.848 299.283C175.59 299.425 174.988 299.846 171.951 299.919C173.912 301.953 177.674 306.699 177.03 309.412C176.386 312.124 174.112 312.06 173.056 311.69C174.873 313.43 178.913 319.29 177.406 321.709C176.201 323.644 174.252 323.63 173.429 323.381C190.818 332.902 187.862 367.27 197.539 386.148L52.0983 419.984C44.719 380.535 53.6166 355.769 58.9878 348.318C56.7791 343.761 57.1995 341.097 57.6858 340.335C56.7071 340.221 54.3253 339.653 52.6279 338.291C50.9305 336.929 52.4455 333.403 53.4151 331.811C52.1511 332.017 49.0473 331.663 46.7441 328.596C44.441 325.53 48.626 319.616 51.0064 317.042C47.2513 308.148 48.7651 297.412 49.9914 293.156C41.4504 295.117 31.0395 295.278 28.711 287.185C25.6183 276.436 51.5353 266.27 64.8804 262.531Z" fill="white"/>
<ellipse cx="83.7079" cy="288.87" rx="2.86852" ry="5.03453" transform="rotate(-9.26297 83.7079 288.87)" fill="black"/>
<ellipse cx="123.46" cy="282.388" rx="2.86852" ry="5.03453" transform="rotate(-9.26297 123.46 282.388)" fill="black"/>
<path d="M118.305 291.887C110.03 293.522 107.513 297.483 107.288 299.26C107.047 300.763 110.723 302.798 113.953 303.032C117.182 303.267 126.128 300.576 128.288 299.275C130.448 297.974 130.237 292.314 129.721 291.33C129.205 290.347 128.648 289.845 118.305 291.887Z" fill="black" stroke="black" stroke-width="0.743537"/>
<path d="M118.661 301.273C118.929 305.282 118.586 313.037 115.804 317.747M102.558 323.171C103.943 323.751 108.008 324.056 113.191 320.631C114.238 319.938 115.099 318.94 115.804 317.747M124.17 323.678C121.996 322.959 117.279 320.766 115.804 317.747" stroke="black" stroke-width="0.743537"/>
<path d="M141.097 288.167C140.974 287.931 140.682 287.839 140.445 287.963C140.209 288.086 140.117 288.378 140.241 288.615L141.097 288.167ZM89.4824 329.589C94.6397 331.77 103.175 334.261 112.057 334.657C120.931 335.052 130.239 333.359 136.833 327.066L136.166 326.367C129.846 332.398 120.855 334.082 112.1 333.691C103.353 333.302 94.9304 330.844 89.8587 328.699L89.4824 329.589ZM136.833 327.066C143.41 320.789 145.481 312.976 145.407 305.792C145.333 298.619 143.122 292.044 141.097 288.167L140.241 288.615C142.206 292.378 144.368 298.804 144.441 305.802C144.513 312.79 142.503 320.319 136.166 326.367L136.833 327.066Z" fill="#E1E1E1"/>
<path d="M181.543 328.792C181.116 328.341 175.89 324.957 173.33 323.322L178.392 330.422C179.62 330.067 181.969 329.243 181.543 328.792Z" fill="white"/>
<path d="M33.1119 426.107C14.4252 401.191 42.3048 363.819 58.9387 348.483C74.5208 344.123 97.8246 340.976 119.872 336.418C148.001 330.603 174.189 324.178 180.812 328.238C195.581 337.29 207.529 361.169 205.825 375.881C203.204 398.501 197.725 404.228 190.341 414.234C182.956 424.241 140.316 451.87 126.5 437.577C115.447 426.143 121.895 412.803 126.5 407.563L95.2963 414.234C79.9637 431.93 50.7721 449.654 33.1119 426.107Z" fill="white"/>
<path d="M59.0575 348.315C42.4235 363.651 14.4264 401.191 33.1131 426.107C50.7733 449.654 79.9649 431.931 95.2975 414.235M59.6567 389.3C66.8529 380.216 83.3689 362.969 91.8628 366.649C102.48 371.25 109.912 380.806 104.958 398.501C103.749 402.818 100.245 408.525 95.2975 414.235M95.2975 414.235L126.501 407.563M126.501 407.563C141.747 400.131 151.275 375.087 154.134 363.494M126.501 407.563C121.896 412.804 115.448 426.143 126.501 437.578C140.317 451.87 182.957 424.241 190.342 414.235C197.727 404.228 203.205 398.501 205.826 375.881C207.53 361.17 195.583 337.29 180.813 328.238" stroke="#C4C4C4" stroke-width="0.380581"/>
<path d="M66.6442 361.364C62.7892 367.714 66.1717 375.159 68.3449 378.089L69.0312 379.017C73.4701 373.129 80.3661 369.928 83.5256 367.92C88.5986 363.843 96.2836 368.486 99.492 371.317C113.986 386.264 102.749 405.877 95.5017 413.879C91.6188 417.961 82.9187 426.926 77.714 429.616C71.2081 432.978 64.9741 442.55 68.3449 450.637C71.7157 458.724 167.001 452.395 171.22 448.176C174.596 444.8 176.377 431.768 176.846 425.673C168.213 432.345 147.721 443.305 133.187 441.22C120.015 439.33 120.965 412.12 127.598 408.099C142.873 398.837 149.611 378.881 152.532 369.301C153.95 363.632 155.594 350.82 150.832 344.924C144.879 337.554 71.463 353.428 66.6442 361.364Z" fill="#80B5EF"/>
<path d="M105.536 247.236C95.1381 261.331 75.0159 263.892 66.2545 263.41H60.4778L55.8164 247.236C45.7538 254.511 35.2978 260.963 33.6161 258.211C30.4389 253.012 45.4583 220.085 51.235 216.908C57.0118 213.731 118.534 229.617 105.536 247.236Z" fill="#3E82CD"/>
<path d="M55.8164 247.236C45.7538 254.511 35.2978 260.963 33.6161 258.211C30.4389 253.012 45.4583 220.085 51.235 216.908C57.0118 213.731 118.534 229.617 105.536 247.236C95.1381 261.331 75.0159 263.892 66.2545 263.41H60.4778L55.8164 247.236ZM55.8164 247.236C60.9629 243.515 66.0065 239.579 69.7206 236.549L55.8164 247.236Z" stroke="#3E82CD" stroke-width="0.380581"/>
<path d="M40.9586 249.886C41.0437 249.6 41.4485 249.6 41.5336 249.886L41.8404 250.916C41.865 250.998 41.9241 251.067 42.0025 251.103L42.9971 251.56C43.23 251.667 43.23 251.998 42.9971 252.105L42.0025 252.562C41.9241 252.599 41.865 252.667 41.8404 252.749L41.5336 253.78C41.4485 254.065 41.0437 254.065 40.9586 253.78L40.6518 252.749C40.6272 252.667 40.5681 252.599 40.4896 252.562L39.4951 252.105C39.2622 251.998 39.2622 251.667 39.4951 251.56L40.4896 251.103C40.5681 251.067 40.6272 250.998 40.6518 250.916L40.9586 249.886Z" fill="#FFC84D"/>
<path d="M50.9566 240.948C51.0417 240.662 51.4465 240.662 51.5317 240.948L51.8384 241.978C51.863 242.061 51.9221 242.129 52.0006 242.165L52.9952 242.622C53.228 242.73 53.228 243.06 52.9952 243.168L52.0006 243.625C51.9221 243.661 51.863 243.729 51.8384 243.812L51.5317 244.842C51.4465 245.128 51.0417 245.128 50.9566 244.842L50.6499 243.812C50.6252 243.729 50.5661 243.661 50.4877 243.625L49.4931 243.168C49.2602 243.06 49.2602 242.73 49.4931 242.622L50.4877 242.165C50.5661 242.129 50.6252 242.061 50.6499 241.978L50.9566 240.948Z" fill="#FFC84D"/>
<path d="M47.0367 230.067C47.1218 229.781 47.5266 229.781 47.6117 230.067L47.9185 231.097C47.9431 231.18 48.0022 231.248 48.0807 231.284L49.0752 231.742C49.3081 231.849 49.3081 232.18 49.0752 232.287L48.0807 232.744C48.0022 232.78 47.9431 232.848 47.9185 232.931L47.6117 233.961C47.5266 234.247 47.1218 234.247 47.0367 233.961L46.73 232.931C46.7053 232.848 46.6462 232.78 46.5678 232.744L45.5732 232.287C45.3403 232.18 45.3403 231.849 45.5732 231.742L46.5678 231.284C46.6462 231.248 46.7053 231.18 46.73 231.097L47.0367 230.067Z" fill="#FFC84D"/>
<path d="M60.0738 221.343C60.1589 221.057 60.5637 221.057 60.6489 221.343L60.9556 222.373C60.9802 222.455 61.0393 222.524 61.1178 222.56L62.1123 223.017C62.3452 223.124 62.3452 223.455 62.1123 223.562L61.1178 224.019C61.0393 224.056 60.9802 224.124 60.9556 224.206L60.6489 225.237C60.5637 225.522 60.1589 225.522 60.0738 225.237L59.7671 224.206C59.7424 224.124 59.6833 224.056 59.6049 224.019L58.6103 223.562C58.3774 223.455 58.3774 223.124 58.6103 223.017L59.6049 222.56C59.6833 222.524 59.7424 222.455 59.7671 222.373L60.0738 221.343Z" fill="#FFC84D"/>
<path d="M79.2867 227.155C79.3718 226.869 79.7766 226.869 79.8617 227.155L80.1685 228.185C80.1931 228.268 80.2522 228.336 80.3307 228.372L81.3252 228.829C81.5581 228.937 81.5581 229.268 81.3252 229.375L80.3307 229.832C80.2522 229.868 80.1931 229.936 80.1685 230.019L79.8617 231.049C79.7766 231.335 79.3718 231.335 79.2867 231.049L78.98 230.019C78.9553 229.936 78.8962 229.868 78.8178 229.832L77.8232 229.375C77.5903 229.268 77.5903 228.937 77.8232 228.829L78.8178 228.372C78.8962 228.336 78.9553 228.268 78.98 228.185L79.2867 227.155Z" fill="#FFC84D"/>
<path d="M61.8375 237.448C61.9226 237.162 62.3274 237.162 62.4125 237.448L62.7193 238.478C62.7439 238.561 62.803 238.629 62.8814 238.665L63.876 239.122C64.1089 239.23 64.1089 239.56 63.876 239.668L62.8814 240.125C62.803 240.161 62.7439 240.229 62.7193 240.312L62.4125 241.342C62.3274 241.628 61.9226 241.628 61.8375 241.342L61.5307 240.312C61.5061 240.229 61.447 240.161 61.3686 240.125L60.374 239.668C60.1411 239.56 60.1411 239.23 60.374 239.122L61.3686 238.665C61.447 238.629 61.5061 238.561 61.5307 238.478L61.8375 237.448Z" fill="#FFC84D"/>
<path d="M79.7789 241.761C79.864 241.475 80.2688 241.475 80.3539 241.761L80.6607 242.791C80.6853 242.873 80.7444 242.942 80.8229 242.978L81.8174 243.435C82.0503 243.542 82.0503 243.873 81.8174 243.98L80.8229 244.437C80.7444 244.474 80.6853 244.542 80.6607 244.624L80.3539 245.655C80.2688 245.94 79.864 245.94 79.7789 245.655L79.4721 244.624C79.4475 244.542 79.3884 244.474 79.31 244.437L78.3154 243.98C78.0825 243.873 78.0825 243.542 78.3154 243.435L79.31 242.978C79.3884 242.942 79.4475 242.873 79.4721 242.791L79.7789 241.761Z" fill="#FFC84D"/>
<path d="M67.6265 254.504C67.7117 254.218 68.1165 254.218 68.2016 254.504L68.5083 255.534C68.533 255.617 68.5921 255.685 68.6705 255.721L69.6651 256.178C69.898 256.285 69.898 256.616 69.6651 256.723L68.6705 257.181C68.5921 257.217 68.533 257.285 68.5083 257.368L68.2016 258.398C68.1165 258.684 67.7117 258.684 67.6265 258.398L67.3198 257.368C67.2952 257.285 67.2361 257.217 67.1576 257.181L66.163 256.723C65.9302 256.616 65.9302 256.285 66.163 256.178L67.1576 255.721C67.2361 255.685 67.2952 255.617 67.3198 255.534L67.6265 254.504Z" fill="#FFC84D"/>
<path d="M97.7203 239.8C97.8054 239.514 98.2102 239.514 98.2953 239.8L98.6021 240.83C98.6267 240.912 98.6858 240.981 98.7643 241.017L99.7588 241.474C99.9917 241.581 99.9917 241.912 99.7588 242.019L98.7643 242.476C98.6858 242.513 98.6267 242.581 98.6021 242.663L98.2953 243.694C98.2102 243.979 97.8054 243.979 97.7203 243.694L97.4136 242.663C97.3889 242.581 97.3298 242.513 97.2514 242.476L96.2568 242.019C96.0239 241.912 96.0239 241.581 96.2568 241.474L97.2514 241.017C97.3298 240.981 97.3889 240.912 97.4136 240.83L97.7203 239.8Z" fill="#FFC84D"/>
</g>
</g>
<defs>
<filter id="filter0_d_590_1936" x="0" y="0" width="293" height="441" filterUnits="userSpaceOnUse" color-interpolation-filters="sRGB">
<feFlood flood-opacity="0" result="BackgroundImageFix"/>
<feColorMatrix in="SourceAlpha" type="matrix" values="0 0 0 0 0 0 0 0 0 0 0 0 0 0 0 0 0 0 127 0" result="hardAlpha"/>
<feOffset dx="2" dy="4"/>
<feGaussianBlur stdDeviation="2"/>
<feComposite in2="hardAlpha" operator="out"/>
<feColorMatrix type="matrix" values="0 0 0 0 0 0 0 0 0 0 0 0 0 0 0 0 0 0 0.25 0"/>
<feBlend mode="normal" in2="BackgroundImageFix" result="effect1_dropShadow_590_1936"/>
<feBlend mode="normal" in="SourceGraphic" in2="effect1_dropShadow_590_1936" result="shape"/>
</filter>
<filter id="filter1_d_590_1936" x="20.6573" y="82.0743" width="199.234" height="57.8808" filterUnits="userSpaceOnUse" color-interpolation-filters="sRGB">
<feFlood flood-opacity="0" result="BackgroundImageFix"/>
<feColorMatrix in="SourceAlpha" type="matrix" values="0 0 0 0 0 0 0 0 0 0 0 0 0 0 0 0 0 0 127 0" result="hardAlpha"/>
<feOffset/>
<feGaussianBlur stdDeviation="3.895"/>
<feComposite in2="hardAlpha" operator="out"/>
<feColorMatrix type="matrix" values="0 0 0 0 1 0 0 0 0 1 0 0 0 0 1 0 0 0 1 0"/>
<feBlend mode="normal" in2="BackgroundImageFix" result="effect1_dropShadow_590_1936"/>
<feBlend mode="normal" in="SourceGraphic" in2="effect1_dropShadow_590_1936" result="shape"/>
</filter>
<linearGradient id="paint0_linear_590_1936" x1="144.5" y1="0" x2="144.5" y2="433" gradientUnits="userSpaceOnUse">
<stop offset="0.139" stop-color="#DEF2EB"/>
<stop offset="1" stop-color="#B9E6E9"/>
</linearGradient>
<clipPath id="clip0_590_1936">
<rect x="2" width="285" height="433" rx="10" fill="white"/>
</clipPath>
</defs>
</svg>
