
<svg width="24" height="30" viewBox="0 0 24 30" fill="none" xmlns="http://www.w3.org/2000/svg">
<path d="M6.31865 25.7043C6.97769 28.0922 9.16556 29.8457 11.763 29.8457H17.7868C20.9058 29.8457 23.4342 27.3173 23.4342 24.1984V12.1507C23.4342 9.55325 21.6806 7.36539 19.2928 6.70635V18.1745C19.2928 22.3331 15.9216 25.7043 11.763 25.7043H6.31865Z" fill="#D9D9D9"/>
<path d="M5.73915 0.479492C2.6202 0.479492 0.0917969 3.0079 0.0917969 6.12684V18.1745C0.0917969 21.2935 2.6202 23.8219 5.73915 23.8219H11.763C14.8819 23.8219 17.4103 21.2935 17.4103 18.1745V6.12684C17.4103 3.0079 14.8819 0.479492 11.763 0.479492H5.73915Z" fill="#D9D9D9"/>
</svg>
