<svg width="24" height="31" viewBox="0 0 24 31" fill="none" xmlns="http://www.w3.org/2000/svg">
<path d="M6.50615 25.9641C7.16519 28.3519 9.35306 30.1055 11.9505 30.1055H17.9743C21.0933 30.1055 23.6217 27.5771 23.6217 24.4581V12.4104C23.6217 9.81302 21.8681 7.62515 19.4803 6.96611V18.4343C19.4803 22.5929 16.1091 25.9641 11.9505 25.9641H6.50615Z" fill="#4B628A"/>
<path d="M5.92665 0.739258C2.8077 0.739258 0.279297 3.26766 0.279297 6.38661V18.4343C0.279297 21.5532 2.8077 24.0816 5.92665 24.0816H11.9505C15.0694 24.0816 17.5978 21.5532 17.5978 18.4343V6.38661C17.5978 3.26766 15.0694 0.739258 11.9505 0.739258H5.92665Z" fill="#4B628A"/>
</svg>
