<svg width="106" height="106" viewBox="0 0 106 106" fill="none" xmlns="http://www.w3.org/2000/svg">
<g filter="url(#filter0_d_1_2)">
<circle cx="52.5724" cy="52.5724" r="44.5724" fill="#4B628A"/>
</g>
<g filter="url(#filter1_d_1_2)">
<path d="M67.5997 41.3784C67.4606 41.27 67.2987 41.1948 67.1262 41.1583C66.9537 41.1219 66.7752 41.1252 66.6041 41.168L57.7328 43.3854L48.8296 38.9331C48.5816 38.8094 48.2974 38.7785 48.0286 38.846L38.7408 41.168C38.4896 41.2308 38.2666 41.3757 38.1073 41.5797C37.9479 41.7838 37.8614 42.0352 37.8613 42.2941V63.1916C37.8614 63.3681 37.9016 63.5421 37.979 63.7007C38.0563 63.8592 38.1688 63.998 38.3079 64.1066C38.4469 64.2151 38.6089 64.2906 38.7815 64.3272C38.954 64.3638 39.1327 64.3606 39.3038 64.3178L48.1751 62.1003L57.0783 66.5527C57.24 66.6323 57.4177 66.674 57.5979 66.6746C57.6928 66.6745 57.7873 66.6628 57.8794 66.6397L67.1672 64.3178C67.4184 64.255 67.6413 64.1101 67.8007 63.906C67.96 63.702 68.0466 63.4505 68.0466 63.1916V42.2941C68.0467 42.1175 68.0064 41.9433 67.929 41.7846C67.8515 41.6259 67.7389 41.487 67.5997 41.3784ZM48.3101 59.7087C48.2152 59.7088 48.1206 59.7205 48.0286 59.7435L40.1833 61.7041V43.2011L48.1751 41.2028L48.3101 41.2696V59.7087ZM65.7247 62.2846L57.7328 64.283L57.5979 64.2162V45.777C57.6927 45.7775 57.7873 45.7662 57.8794 45.7437L65.7247 43.7816V62.2846Z" fill="url(#paint0_linear_1_2)"/>
</g>
<defs>
<filter id="filter0_d_1_2" x="0" y="0" width="105.145" height="105.145" filterUnits="userSpaceOnUse" color-interpolation-filters="sRGB">
<feFlood flood-opacity="0" result="BackgroundImageFix"/>
<feColorMatrix in="SourceAlpha" type="matrix" values="0 0 0 0 0 0 0 0 0 0 0 0 0 0 0 0 0 0 127 0" result="hardAlpha"/>
<feOffset/>
<feGaussianBlur stdDeviation="4"/>
<feComposite in2="hardAlpha" operator="out"/>
<feColorMatrix type="matrix" values="0 0 0 0 0 0 0 0 0 0 0 0 0 0 0 0 0 0 0.25 0"/>
<feBlend mode="normal" in2="BackgroundImageFix" result="effect1_dropShadow_1_2"/>
<feBlend mode="normal" in="SourceGraphic" in2="effect1_dropShadow_1_2" result="shape"/>
</filter>
<filter id="filter1_d_1_2" x="33.8613" y="38.811" width="38.1855" height="35.8633" filterUnits="userSpaceOnUse" color-interpolation-filters="sRGB">
<feFlood flood-opacity="0" result="BackgroundImageFix"/>
<feColorMatrix in="SourceAlpha" type="matrix" values="0 0 0 0 0 0 0 0 0 0 0 0 0 0 0 0 0 0 127 0" result="hardAlpha"/>
<feOffset dy="4"/>
<feGaussianBlur stdDeviation="2"/>
<feComposite in2="hardAlpha" operator="out"/>
<feColorMatrix type="matrix" values="0 0 0 0 0 0 0 0 0 0 0 0 0 0 0 0 0 0 0.25 0"/>
<feBlend mode="normal" in2="BackgroundImageFix" result="effect1_dropShadow_1_2"/>
<feBlend mode="normal" in="SourceGraphic" in2="effect1_dropShadow_1_2" result="shape"/>
</filter>
<linearGradient id="paint0_linear_1_2" x1="52.954" y1="38.811" x2="52.954" y2="66.6746" gradientUnits="userSpaceOnUse">
<stop stop-color="white"/>
<stop offset="1" stop-color="#B9E6E9"/>
</linearGradient>
</defs>
</svg>
