<svg width="106" height="106" viewBox="0 0 106 106" fill="none" xmlns="http://www.w3.org/2000/svg">
<g filter="url(#filter0_d_1_2)">
<circle cx="52.7111" cy="52.7618" r="44.5724" fill="#4B628A"/>
</g>
<g filter="url(#filter1_d_1_2)">
<path d="M67.7383 41.5674C67.5993 41.459 67.4373 41.3837 67.2648 41.3473C67.0924 41.3108 66.9138 41.3141 66.7428 41.3569L57.8715 43.5744L48.9683 39.1221C48.7202 38.9983 48.4361 38.9674 48.1672 39.035L38.8794 41.3569C38.6283 41.4197 38.4053 41.5646 38.246 41.7687C38.0866 41.9727 38 42.2242 38 42.4831V63.3806C38 63.557 38.0403 63.7311 38.1176 63.8896C38.195 64.0482 38.3075 64.187 38.4465 64.2956C38.5856 64.4041 38.7476 64.4796 38.9201 64.5161C39.0927 64.5527 39.2714 64.5495 39.4425 64.5067L48.3138 62.2893L57.217 66.7416C57.3786 66.8213 57.5563 66.863 57.7365 66.8635C57.8315 66.8635 57.926 66.8518 58.0181 66.8287L67.3059 64.5067C67.557 64.444 67.78 64.299 67.9394 64.095C68.0987 63.8909 68.1853 63.6395 68.1853 63.3806V42.4831C68.1853 42.3065 68.1451 42.1322 68.0677 41.9736C67.9902 41.8149 67.8776 41.676 67.7383 41.5674ZM48.4488 59.8977C48.3538 59.8977 48.2593 59.9094 48.1672 59.9325L40.3219 61.8931V43.3901L48.3138 41.3918L48.4488 41.4585V59.8977ZM65.8634 62.4736L57.8715 64.4719L57.7365 64.4052V45.966C57.8314 45.9664 57.926 45.9552 58.0181 45.9326L65.8634 43.9706V62.4736Z" fill="url(#paint0_linear_1_2)"/>
</g>
<defs>
<filter id="filter0_d_1_2" x="0.138672" y="0.189453" width="105.145" height="105.145" filterUnits="userSpaceOnUse" color-interpolation-filters="sRGB">
<feFlood flood-opacity="0" result="BackgroundImageFix"/>
<feColorMatrix in="SourceAlpha" type="matrix" values="0 0 0 0 0 0 0 0 0 0 0 0 0 0 0 0 0 0 127 0" result="hardAlpha"/>
<feOffset/>
<feGaussianBlur stdDeviation="4"/>
<feComposite in2="hardAlpha" operator="out"/>
<feColorMatrix type="matrix" values="0 0 0 0 0 0 0 0 0 0 0 0 0 0 0 0 0 0 0.25 0"/>
<feBlend mode="normal" in2="BackgroundImageFix" result="effect1_dropShadow_1_2"/>
<feBlend mode="normal" in="SourceGraphic" in2="effect1_dropShadow_1_2" result="shape"/>
</filter>
<filter id="filter1_d_1_2" x="30" y="31" width="46.1855" height="43.8633" filterUnits="userSpaceOnUse" color-interpolation-filters="sRGB">
<feFlood flood-opacity="0" result="BackgroundImageFix"/>
<feColorMatrix in="SourceAlpha" type="matrix" values="0 0 0 0 0 0 0 0 0 0 0 0 0 0 0 0 0 0 127 0" result="hardAlpha"/>
<feOffset/>
<feGaussianBlur stdDeviation="4"/>
<feComposite in2="hardAlpha" operator="out"/>
<feColorMatrix type="matrix" values="0 0 0 0 0.72549 0 0 0 0 0.901961 0 0 0 0 0.913725 0 0 0 1 0"/>
<feBlend mode="normal" in2="BackgroundImageFix" result="effect1_dropShadow_1_2"/>
<feBlend mode="normal" in="SourceGraphic" in2="effect1_dropShadow_1_2" result="shape"/>
</filter>
<linearGradient id="paint0_linear_1_2" x1="53.0927" y1="39" x2="53.0927" y2="66.8635" gradientUnits="userSpaceOnUse">
<stop stop-color="white"/>
<stop offset="1" stop-color="#B9E6E9"/>
</linearGradient>
</defs>
</svg>
